<svg id="popular" xmlns="http://www.w3.org/2000/svg" viewBox="0 0 32 32">
    <path d="M 11.822 16.18 v -2.91 H 8.79 v 2.91 h 3.032 Z m 3.782 0 v -2.91 h -3.032 v 2.91 h 3.032 Z m 3.782 0 v -2.91 h -3.032 v 2.91 h 3.032 Z m 5.003 0.008 h 0.321 l -1.66 -2.918 h -2.914 v 2.91 h 4.253 v 0.008 Z M 11.822 12.52 V 9.61 H 8.79 v 2.91 h 3.032 Z m 3.782 0 V 9.61 h -3.032 v 2.91 h 3.032 Z m 3.782 0 V 9.61 h -3.032 v 2.91 h 3.032 Z m 3.237 0 l -0.548 -0.962 a 0.75 0.75 0 0 1 0 -0.741 l 0.687 -1.207 h -2.626 v 2.91 h 2.487 Z M 11.822 8.86 V 6.187 H 8.79 V 8.86 h 3.032 Z m 3.782 0 V 6.187 h -3.032 V 8.86 h 3.032 Z m 3.782 0 V 6.187 h -3.032 V 8.86 h 3.032 Z m 3.803 0 l 1.521 -2.673 h -4.574 V 8.86 h 3.053 Z M 8.75 4.588 a 0.379 0.379 0 0 1 0.033 0.1 H 26 a 0.75 0.75 0 0 1 0.652 1.12 l -3.062 5.38 l 3.062 5.379 a 0.75 0.75 0 0 1 -0.652 1.12 H 8.79 v 3.902 c 0 0.06 -0.015 0.117 -0.04 0.168 V 27 a 0.75 0.75 0 1 1 -1.5 0 V 4 a 0.75 0.75 0 0 1 1.5 0 v 0.588 Z" />
</svg>