<svg width="14" height="14" viewBox="0 0 14 14" fill="none" xmlns="http://www.w3.org/2000/svg">
<g clip-path="url(#clip0)">
<path d="M13.7676 1.20692C13.6609 0.709896 13.2531 0.307377 12.7543 0.205873C11.3884 -0.0680144 10.0102 -0.0627642 8.68362 0.186622L13.8219 5.32485C14.0669 3.98342 14.0625 2.58861 13.7676 1.20692Z" fill="#51BF7D"/>
<path d="M0.188737 8.67976C-0.060649 10.0063 -0.0658992 11.3854 0.208863 12.7522C0.310368 13.2501 0.712011 13.6579 1.20991 13.7646C1.95019 13.923 2.69485 14 3.43338 14C4.07304 14 4.70657 13.9353 5.32959 13.8215L0.188737 8.67976Z" fill="#51BF7D"/>
<path d="M7.68344 0.423759C5.98674 0.915532 4.41254 1.82557 3.12011 3.11713C1.82855 4.40869 0.918512 5.98288 0.425865 7.67959L6.33326 13.587C8.02996 13.1005 9.6059 12.193 10.901 10.898C12.196 9.60292 13.1043 8.02785 13.5908 6.33115L7.68344 0.423759ZM9.4974 6.86842C9.41164 6.95418 9.29964 6.99706 9.18763 6.99706C9.07563 6.99706 8.96362 6.95418 8.87787 6.8693L8.31259 6.30315L7.61869 6.99706L8.18396 7.56233C8.3546 7.73296 8.3546 8.01035 8.18396 8.18098C8.09909 8.26674 7.98708 8.30961 7.87507 8.30961C7.76307 8.30961 7.65106 8.26674 7.56531 8.18186L7.00004 7.61571L6.30613 8.30961L6.8714 8.87489C7.04204 9.04552 7.04204 9.32291 6.8714 9.49354C6.78653 9.5793 6.67452 9.62217 6.56252 9.62217C6.45051 9.62217 6.33851 9.5793 6.25275 9.49442L5.68748 8.92827L5.1222 9.49354C5.03645 9.5793 4.92444 9.62217 4.81244 9.62217C4.70043 9.62217 4.58843 9.5793 4.50267 9.49442C4.33204 9.32379 4.33204 9.0464 4.50267 8.87576L5.06882 8.30961L4.50267 7.74434C4.33204 7.57371 4.33204 7.29632 4.50267 7.12569C4.67331 6.95505 4.95069 6.95505 5.12133 7.12569L5.68748 7.69096L6.38138 6.99706L5.81523 6.43178C5.6446 6.26115 5.6446 5.98376 5.81523 5.81313C5.98587 5.64249 6.26325 5.64249 6.43389 5.81313L7.00004 6.3784L7.69394 5.6845L7.12779 5.11922C6.95716 4.94859 6.95716 4.6712 7.12779 4.50057C7.29842 4.32994 7.57581 4.32994 7.74644 4.50057L8.31259 5.06584L8.87787 4.50057C9.0485 4.32994 9.32589 4.32994 9.49652 4.50057C9.66716 4.6712 9.66716 4.94859 9.49652 5.11922L8.93125 5.6845L9.4974 6.24977C9.66803 6.4204 9.66803 6.69779 9.4974 6.86842Z" fill="#51BF7D"/>
</g>
<defs>
<clipPath id="clip0">
<rect width="14" height="14" fill="white"/>
</clipPath>
</defs>
</svg>
