<svg width="14" height="15" viewBox="0 0 14 15" fill="none" xmlns="http://www.w3.org/2000/svg">
<path fill-rule="evenodd" clip-rule="evenodd" d="M2.4189 1.74096C3.30886 0.969966 4.39526 0.419683 5.59295 0.175248C5.37191 0.667828 5.343 1.31282 5.40473 2.00353C5.5238 3.33561 6.00626 5.06442 6.50788 6.77766C6.05678 6.91036 5.61035 7.04123 5.17458 7.16484C4.82556 7.22257 4.43592 7.12856 4.03195 6.88545C3.5402 6.58951 3.06364 6.09091 2.69601 5.47938C1.98391 4.29485 1.75294 2.82788 2.4189 1.74096ZM1.2783 3.00034C0.473145 4.14045 0.000152588 5.53187 0.000152588 7.03376C0.000152588 7.17281 0.00420693 7.31091 0.0122038 7.44795C0.0304744 7.52454 0.0581144 7.58398 0.0900294 7.63109C0.147417 7.71581 0.238891 7.7906 0.385961 7.84899C0.697933 7.97285 1.19497 7.99746 1.87338 7.91603C2.41564 7.85094 3.03334 7.72406 3.69936 7.55995C3.68124 7.5495 3.66319 7.53887 3.64523 7.52805C3.02783 7.1565 2.47029 6.55957 2.05322 5.86581C1.5523 5.03255 1.2252 4.0035 1.2783 3.00034ZM0.168935 8.56856C0.426333 9.71921 0.967015 10.7629 1.71394 11.6226C2.79827 12.2699 4.25186 12.037 5.42733 11.3303C6.03886 10.9627 6.53745 10.4862 6.8334 9.9944C7.07651 9.59044 7.17052 9.2008 7.11278 8.85178C6.98724 8.40918 6.85421 7.95558 6.71937 7.49726C6.36526 7.60148 6.01056 7.70563 5.65891 7.80669L5.65938 7.80794C5.55399 7.84746 5.44786 7.87697 5.34147 7.89725C4.10989 8.24583 2.93013 8.54456 1.96277 8.66068C1.28669 8.74184 0.655837 8.74246 0.168935 8.56856ZM7.43896 7.28575C7.54526 7.64691 7.65156 8.00877 7.75463 8.36745L7.75589 8.36698C7.79541 8.47237 7.82492 8.5785 7.8452 8.68489C8.19378 9.91647 8.49251 11.0962 8.60863 12.0636C8.69049 12.7455 8.69041 13.3815 8.51194 13.8701C9.62673 13.6247 10.6419 13.1135 11.4875 12.4064C12.207 11.3132 11.9815 9.80881 11.2543 8.59901C10.8866 7.98749 10.4101 7.48889 9.91831 7.19295C9.42658 6.89702 8.95607 6.82201 8.55422 6.97271L8.55155 6.96556C8.1862 7.06813 7.81418 7.1759 7.43896 7.28575ZM12.668 11.1426C13.4974 10.0005 13.99 8.59795 14 7.08087H13.9853C13.9853 6.86166 13.9393 6.71034 13.8741 6.6029C13.8098 6.49686 13.7118 6.40878 13.5656 6.33921C13.2562 6.19197 12.7641 6.14352 12.0896 6.20381C11.5463 6.25237 10.9262 6.36669 10.2569 6.52192C10.273 6.53125 10.2891 6.54073 10.305 6.55034C10.9224 6.9219 11.48 7.51883 11.897 8.21259C12.4087 9.06372 12.739 10.1191 12.668 11.1426ZM13.8635 5.65063C13.6309 4.49002 13.1113 3.43312 12.3818 2.55713C11.2864 1.81565 9.76691 2.03872 8.54696 2.77211C7.93544 3.13974 7.43684 3.6163 7.1409 4.10805C6.84497 4.59978 6.76996 5.07029 6.92065 5.47214L6.91351 5.47481C7.01414 5.83326 7.11977 6.19814 7.22747 6.56615C8.94766 6.0623 10.6853 5.57634 12.0228 5.45679C12.7194 5.39453 13.3694 5.42446 13.8635 5.65063ZM7.00015 14.0338C5.49384 14.0338 4.09866 13.558 2.95668 12.7485C3.95719 12.7993 4.98282 12.4727 5.81376 11.9731C6.50752 11.5561 7.10445 10.9985 7.476 10.3811C7.48681 10.3632 7.49745 10.3451 7.5079 10.327C7.67201 10.993 7.79888 11.6107 7.86398 12.153C7.94541 12.8314 7.92079 13.3284 7.79694 13.6404C7.73855 13.7875 7.66375 13.8789 7.57904 13.9363C7.52039 13.9761 7.44264 14.0092 7.33646 14.0258C7.22502 14.0311 7.1129 14.0338 7.00015 14.0338ZM8.16054 2.12932C9.01413 1.61617 10.0732 1.28544 11.0994 1.35896C9.9544 0.530417 8.54875 0.0399065 7.02882 0.0338135V0.0410192C6.8096 0.0410192 6.65829 0.0870153 6.55085 0.152214C6.44481 0.216565 6.35673 0.314576 6.28716 0.460783C6.13992 0.770203 6.09147 1.26229 6.15176 1.93676C6.20031 2.48002 6.31464 3.10017 6.46986 3.76944C6.4792 3.75334 6.48868 3.7373 6.49829 3.72132C6.86984 3.10393 7.46677 2.54639 8.16054 2.12932Z" fill="#51BF7D"/>
</svg>
