<svg width="14" height="14" viewBox="0 0 14 14" fill="none" xmlns="http://www.w3.org/2000/svg">
<path d="M2.20805 3.89813C2.1958 3.76863 2.2133 3.64088 2.2133 3.51225C1.06442 3.57613 0.146545 4.52288 0.146545 5.6875V7C0.146545 7.126 0.200795 7.24588 0.29617 7.329L2.70942 9.44038L2.20805 3.89813Z" fill="#51BF7D"/>
<path d="M10.6465 11.375V13.125H6.27153V11.375H4.08404V13.5625C4.08404 13.804 4.28004 14 4.52154 14H12.3965C12.638 14 12.834 13.804 12.834 13.5625V11.375H10.6465Z" fill="#51BF7D"/>
<path d="M12.9408 1.14013C12.2802 0.415625 11.3387 0 10.3578 0H6.56028C5.57941 0 4.63791 0.415625 3.97728 1.14013C3.31578 1.8655 2.98853 2.842 3.07953 3.81937L3.64828 10.1019C3.66841 10.3276 3.85741 10.5 4.08403 10.5H6.27153V9.1875C6.27153 7.98088 7.25328 7 8.45903 7C9.66565 7 10.6465 7.98088 10.6465 9.1875V10.5H12.834C13.0607 10.5 13.2497 10.3276 13.2698 10.1019L13.8385 3.82025C13.9295 2.842 13.6014 1.86462 12.9408 1.14013Z" fill="#51BF7D"/>
<path d="M8.89654 9.625H8.02154C7.78004 9.625 7.58404 9.821 7.58404 10.0625C7.58404 10.304 7.78004 10.5 8.02154 10.5H8.89654C9.13804 10.5 9.33404 10.304 9.33404 10.0625C9.33404 9.821 9.13804 9.625 8.89654 9.625Z" fill="#51BF7D"/>
<path d="M8.89654 11.375H8.02154C7.78004 11.375 7.58404 11.571 7.58404 11.8125C7.58404 12.054 7.78004 12.25 8.02154 12.25H8.89654C9.13804 12.25 9.33404 12.054 9.33404 11.8125C9.33404 11.571 9.13804 11.375 8.89654 11.375Z" fill="#51BF7D"/>
</svg>
