<svg width="14" height="14" viewBox="0 0 14 14" fill="none" xmlns="http://www.w3.org/2000/svg">
<g clip-path="url(#clip0)">
<path d="M13.6574 6.30766L11.5897 5.84477L5.49251 10.5305L4.86861 9.90664L11.1215 5.10187L10.9343 3.4507C10.9115 3.24769 10.7514 3.08756 10.5493 3.06569L8.78435 2.86531L4.08547 9.12436L3.46157 8.4996L8.20946 2.17404L8.00821 0.388108C7.99596 0.26823 7.93208 0.158852 7.83583 0.0870994C7.73957 0.0153473 7.61707 -0.0144035 7.49807 0.00659708L5.02349 0.44411C4.86511 0.472111 4.73561 0.583239 4.68398 0.735493L2.24179 8.04458L1.51464 8.77173L5.2265 12.4836L5.95277 11.7573L13.2619 9.31512C13.4106 9.26524 13.5217 9.14011 13.5524 8.98611L13.9899 6.8213C14.038 6.58854 13.8901 6.36016 13.6574 6.30766Z" fill="#51BF7D"/>
<path d="M0.896001 9.39124L0.768247 9.51899C-0.254658 10.5428 -0.254658 12.2071 0.768247 13.2308C1.26351 13.727 1.92328 14 2.62418 14C3.32507 14 3.98484 13.7261 4.48011 13.2308L4.60786 13.1031L0.896001 9.39124Z" fill="#51BF7D"/>
</g>
<defs>
<clipPath id="clip0">
<rect width="14" height="14" fill="white"/>
</clipPath>
</defs>
</svg>
