<svg width="14" height="14" viewBox="0 0 14 14" fill="none" xmlns="http://www.w3.org/2000/svg">
<g clip-path="url(#clip0)">
<path d="M13.7758 4.15701C12.8293 5.88819 11.3014 7.86625 9.58383 9.5838C7.91128 11.2563 5.69695 13.0136 3.73714 14.0001C5.93411 13.8165 8.53579 12.489 10.5124 10.5124C12.0845 8.94036 13.2729 6.93936 13.7731 5.02263C13.8906 4.57219 13.9657 4.13948 13.9997 3.73035C13.9295 3.86976 13.8551 4.01172 13.7758 4.15701Z" fill="#51BF7D"/>
<path d="M0.817147 13.1834C0.831557 13.1976 0.907454 13.2344 1.08505 13.2344C2.38331 13.2344 5.50452 11.4561 8.48032 8.48036C10.0972 6.86342 11.5283 5.01478 12.4065 3.4084C13.385 1.61855 13.2651 0.899319 13.183 0.817127C13.1688 0.802925 13.0928 0.765991 12.9149 0.765991C11.6165 0.765991 8.49541 2.54414 5.51976 5.51974C3.90277 7.13673 2.4717 8.98542 1.59349 10.5919C0.615465 12.3808 0.734747 13.1003 0.816887 13.1831C0.816939 13.1831 0.816939 13.1832 0.817043 13.1832C0.817043 13.1833 0.817095 13.1833 0.817147 13.1834Z" fill="#51BF7D"/>
<path d="M4.41621 4.41627C6.08866 2.74382 8.30284 0.986691 10.2626 0.000183105C8.06563 0.183866 5.464 1.51126 3.48765 3.48771C1.91545 5.05981 0.727002 7.06081 0.226934 8.97765C0.10942 9.42804 0.0343034 9.86069 0.000282288 10.2698C0.0705093 10.1305 0.144742 9.9885 0.224177 9.84326C1.17058 8.11198 2.69861 6.13387 4.41621 4.41627Z" fill="#51BF7D"/>
</g>
<defs>
<clipPath id="clip0">
<rect width="14" height="14" fill="white" transform="translate(-3.05176e-05 0.000183105)"/>
</clipPath>
</defs>
</svg>
