<svg xmlns="http://www.w3.org/2000/svg" viewBox="0 0 32 32">
    <g fill="#333" id="futsal">
        <path d="M29.875 5H2.125C.953 5 0 5.98 0 7.182v17.635C0 26.02.953 27 2.125 27h27.75C31.046 27 32 26.02 32 24.818V7.182C32 5.98 31.047 5 29.875 5zm-13.16 8.542c1.03.316 1.785 1.3 1.785 2.458s-.754 2.142-1.785 2.458v-4.916zM1.608 12.417h3.017v7.845H1.608v-7.845zm13.5 5.98c-.94-.37-1.607-1.305-1.607-2.397s.67-2.026 1.607-2.396v4.792zm0-6.512c-1.838.42-3.215 2.105-3.215 4.115s1.378 3.695 3.214 4.115v5.234H2.125c-.285 0-.517-.24-.517-.532v-2.905h4.625v-2.998c1.15-.348 2.01-1.446 2.01-2.745s-.86-2.397-2.01-2.745v-2.66H1.608V7.183c0-.293.232-.53.517-.53h12.98v5.233zm-8.875 5.183V15.27c.243.223.402.543.402.9 0 .356-.16.677-.402.898zm24.16-2.76h-1.26v4.037h1.26v1.917h-3.018v-7.845h3.017v1.892zm0-3.543h-4.626v2.66c-1.15.347-2.01 1.445-2.01 2.744s.86 2.396 2.01 2.744v2.998h4.625v2.905c0 .293-.232.53-.517.53h-13.16v-5.196c1.925-.347 3.393-2.076 3.393-4.15s-1.468-3.804-3.393-4.153V6.65h13.16c.285 0 .517.24.517.532v3.583zm-4.626 4.506v1.798c-.243-.222-.402-.542-.402-.9 0-.355.16-.675.402-.897z"/>
        <path d="M1.705 14.31h1.608v4.035H1.705z"/>
    </g>
</svg>