<svg xmlns="http://www.w3.org/2000/svg" viewBox="0 0 32 32">
    <g fill="#FFF">
        <path d="M28.952 12.413c.02-3.184-1.156-6.13-3.31-8.292C23.664 2.14 20.67 1 17.42 1c-3.227 0-6.21 1.138-8.187 3.12-2.244 2.254-5.112 5.534-6.383 7.184-1.016 1.32-.895 3.206.282 4.388L6.05 18.62c.06.06.072.128.072.175 0 .047-.013.115-.072.175l-4.21 4.226c-.54.545-.84 1.27-.84 2.04s.3 1.493.84 2.037l.74.743c.543.544 1.264.844 2.03.844.768 0 1.49-.3 2.03-.844l4.21-4.226c.06-.06.128-.073.175-.073.047 0 .115.013.175.073l2.916 2.928c.627.63 1.46.977 2.347.977.74 0 1.438-.24 2.023-.694 1.644-1.275 4.91-4.155 7.155-6.408 2.086-2.094 3.293-5.075 3.312-8.18zm-12.49 13.67c-.458 0-.888-.18-1.213-.505l-2.917-2.928c-.35-.35-.815-.544-1.31-.544-.494 0-.96.193-1.308.544l-4.21 4.226c-.238.24-.556.372-.894.372-.337 0-.655-.132-.894-.372l-.74-.743c-.24-.24-.37-.56-.37-.9 0-.338.13-.658.37-.898l4.21-4.226c.35-.352.54-.82.54-1.315 0-.497-.192-.963-.54-1.314l-2.917-2.927c-.61-.61-.672-1.583-.148-2.263l.224-.287L17.79 25.5c-.102.082-.198.157-.286.225-.3.235-.66.358-1.042.358zm2.572-1.612L5.37 10.755C6.714 9.16 8.64 7 10.37 5.26c1.677-1.684 4.248-2.65 7.054-2.65 2.824 0 5.405.967 7.082 2.65 3.765 3.78 3.765 10.412 0 14.192-1.732 1.74-3.885 3.672-5.472 5.02zM27.433 23.837c-1.967 0-3.567 1.607-3.567 3.582 0 1.974 1.6 3.58 3.567 3.58S31 29.394 31 27.42c0-1.975-1.6-3.58-3.567-3.58zm0 5.552c-1.082 0-1.963-.885-1.963-1.972s.88-1.97 1.963-1.97c1.082 0 1.963.883 1.963 1.97s-.88 1.97-1.963 1.97z"/>
    </g>
</svg>