<svg xmlns="http://www.w3.org/2000/svg" viewBox="0 0 32 32">
    <g fill="#FFF">
        <path d="M9.953 5.8c1.09-.175 1.98-1.13 2.044-2.196.06-.694-.215-1.406-.728-1.894-.53-.523-1.317-.783-2.068-.692-1.045.11-1.955.925-2.152 1.922-.167.78.097 1.633.688 2.19.565.557 1.422.817 2.215.67zm-1.9-2.753c.133-.508.576-.925 1.105-1.038.41-.098.857-.017 1.2.22.527.34.78 1.03.58 1.614-.17.552-.707.974-1.3 1.022-.542.052-1.102-.21-1.393-.657-.233-.34-.302-.773-.19-1.163zM19.345 6.666c.91.87 2.57.834 3.42-.096.563-.605.758-1.447.745-2.24-.008-.785-.226-1.612-.805-2.188-.495-.5-1.24-.714-1.943-.647-.617.047-1.214.336-1.598.81-.523.632-.685 1.474-.653 2.265.028.758.266 1.55.835 2.096zm.25-3.033c.112-.526.488-1.047 1.066-1.147.452-.083.974-.016 1.31.31.385.365.503.905.537 1.405.02.542-.046 1.12-.362 1.58-.51.755-1.855.722-2.316-.068-.366-.625-.382-1.39-.235-2.08zM24.758 28.953l-3.28-7.667c-.298-.668-.583-1.354-.67-2.084-.082-.66.03-1.325.22-1.958.628-2.132 1.266-4.262 1.895-6.393.17-.552.108-1.19-.254-1.66-.392-.522-1.02-.815-1.64-1.004-1.18-.35-2.422-.404-3.646-.41-2.9 0-5.798-.002-8.697 0-.317-.002-.654-.03-.95.108-.52.22-.837.81-.71 1.346.082.39.394.71.776.848 2.454.783 4.903 1.582 7.357 2.366-.353 1.464-.816 2.91-1.027 4.4-.153 1.084-.124 2.18-.126 3.27 0 3.225-.003 6.45 0 9.675-.018.613.52 1.163 1.148 1.21h.208c.6-.05 1.134-.555 1.142-1.147l.46-9.922c.012-.202.048-.49.295-.542.305-.015.485.277.6.51 1.585 3.46 3.173 6.92 4.758 10.383.18.403.594.677 1.04.72h.21c.53-.044 1.006-.44 1.102-.95.095-.38-.048-.757-.212-1.097zm-12.65-18.508c1.174.03 2.347.137 3.52.195-.073.29-.148.577-.222.865-1.1-.352-2.197-.71-3.298-1.06zm11.874 19.44c-.052.158-.285.195-.398.076-.084-.11-.128-.243-.186-.367-1.55-3.38-3.1-6.76-4.648-10.142-.223-.448-.593-.875-1.115-.993-.497-.132-1.064.06-1.358.47-.246.322-.32.73-.32 1.123-.147 3.206-.3 6.412-.444 9.618-.014.098.005.22-.082.293-.137.15-.437.042-.422-.164-.002-3.732 0-7.464.003-11.196.007-1.118.17-2.232.454-3.315.39-1.533.79-3.063 1.184-4.594.044-.184.12-.368.108-.56-.028-.236-.254-.423-.497-.42l-7.88-.475c-.127-.01-.273-.037-.348-.147-.076-.114-.006-.276.118-.325.094-.032.196-.015.293-.02h7.255c1.503.014 3.024-.072 4.505.227.503.113 1.02.252 1.434.566.21.156.375.394.37.658.02.25-.077.487-.145.724-.558 1.874-1.113 3.748-1.67 5.622-.225.728-.427 1.478-.412 2.244.012.86.26 1.7.605 2.485 1.16 2.706 2.315 5.415 3.476 8.122.06.156.18.32.122.493z"/>
    </g>
</svg>