<svg width="14" height="14" viewBox="0 0 14 14" fill="none" xmlns="http://www.w3.org/2000/svg">
<g clip-path="url(#clip0)">
<path d="M10.901 0.0141474C10.5423 -0.0505982 10.1809 0.107766 9.7968 0.49099C9.23246 1.05533 8.88074 1.95564 8.82124 2.76496L11.6009 0.523363C11.4259 0.27138 11.2107 0.0675187 10.901 0.0141474Z" fill="#51BF7D"/>
<path d="M13.986 3.09918C13.9326 2.78945 13.7288 2.57422 13.4759 2.39923L11.2343 5.17803C12.0384 5.11416 12.9413 4.77031 13.5092 4.20335C13.8924 3.81926 14.049 3.45878 13.986 3.09918Z" fill="#51BF7D"/>
<path d="M2.3913 9.13452L2.37293 9.1529C1.84796 9.67786 1.45949 10.789 1.81559 11.566L0.128708 13.2529C-0.0419056 13.4235 -0.0419056 13.7008 0.128708 13.8714C0.213577 13.9572 0.325569 14.0001 0.437562 14.0001C0.549554 14.0001 0.661546 13.9572 0.74729 13.8723L2.43418 12.1854C2.63279 12.2773 2.8594 12.3289 3.1105 12.3289C3.24612 12.3289 3.38873 12.3149 3.5366 12.2869C4.03882 12.1933 4.52878 11.9466 4.84813 11.6272L4.86563 11.6089L2.3913 9.13452Z" fill="#51BF7D"/>
<path d="M12.8897 1.11042C12.7322 0.952934 12.4803 0.93806 12.3061 1.07893L3.04227 8.54917L5.45011 10.957L12.9212 1.69401C13.0621 1.5199 13.0481 1.26791 12.8897 1.11042Z" fill="#51BF7D"/>
</g>
<defs>
<clipPath id="clip0">
<rect width="14" height="14" fill="white" transform="translate(0.000152588)"/>
</clipPath>
</defs>
</svg>
