<svg xmlns="http://www.w3.org/2000/svg" viewBox="0 0 32 32">
    <path d="M30.925 1.49c-.13-.29-.432-.492-.75-.488-3.346-.004-6.692 0-10.038-.002-.18.002-.366-.013-.536.053-.29.108-.515.39-.533.704-.03 1.4.042 2.802-.047 4.2-.123 1.632-.582 3.255-1.443 4.654-1.05 1.74-2.686 3.062-4.493 3.954-2.328 1.16-4.914 1.69-7.487 1.94-1.04.08-2.063.446-2.89 1.084-.737.56-1.28 1.37-1.52 2.265-.268 1.017-.264 2.122.103 3.116.344.947 1 1.777 1.833 2.342-.543.498-.93 1.173-1.042 1.905-.12.74.024 1.525.41 2.17.44.756 1.195 1.32 2.046 1.522.888.22 1.867.04 2.616-.486.636-.433 1.092-1.1 1.31-1.835.203-.045.425-.016.636-.018.082.107.092.258.15.38.363.91 1.15 1.636 2.09 1.912.877.266 1.865.14 2.642-.346.755-.463 1.314-1.243 1.488-2.113.167-.767.034-1.59-.35-2.27.587.002 1.175 0 1.762 0-.482.86-.56 1.94-.17 2.85.374.91 1.176 1.63 2.124 1.89.89.26 1.887.11 2.66-.4.685-.435 1.168-1.14 1.398-1.91.216.004.433 0 .65.005.208.786.72 1.488 1.408 1.92.633.41 1.412.582 2.16.483.83-.1 1.612-.545 2.133-1.2.47-.584.73-1.33.716-2.08-.004-.942-.45-1.862-1.173-2.464 1.346-.923 2.21-2.513 2.212-4.15 0-6.32-.002-12.64 0-18.96-.003-.21.02-.434-.075-.63zM5.138 29.325c-.824-.07-1.503-.862-1.428-1.69.028-.736.634-1.397 1.366-1.485.62-.104 1.263.22 1.59.747-.47.013-.94-.008-1.412.007-.434.01-.803.417-.78.85-.003.436.398.825.834.81.454.004.906 0 1.36.003-.32.514-.928.83-1.53.76zM9.115 26.9l-.654.003c-.074-.268-.18-.526-.312-.77.425.004.85.002 1.274.002-.124.244-.23.5-.307.765zm4.364 1.882c-.387.453-1.04.658-1.614.5-.386-.11-.75-.357-.938-.717.452.003.905.004 1.358 0 .37.002.718-.278.797-.64.093-.355-.09-.752-.412-.923-.207-.123-.457-.1-.688-.1-.357-.002-.714 0-1.07 0 .29-.463.815-.78 1.367-.766.625-.008 1.228.396 1.465.975.244.547.13 1.225-.266 1.672zm6.176-.22c.474.014.95 0 1.423.005-.36.632-1.186.927-1.87.683-.474-.162-.864-.556-1.01-1.037-.196-.59.003-1.284.475-1.687.477-.422 1.215-.52 1.777-.214.263.13.47.344.632.586-.454.006-.908.002-1.362.002-.386-.006-.744.29-.814.668-.11.466.268.975.748.994zm3.89-1.662c-.22 0-.44 0-.658.002-.078-.266-.18-.526-.312-.77.425.005.85 0 1.274 0-.132.244-.237.5-.304.768zm4.744.91c-.02.766-.666 1.453-1.43 1.514-.602.076-1.21-.246-1.528-.755.47-.01.943.005 1.414-.006.44-.014.81-.43.778-.868-.006-.433-.405-.81-.837-.795-.452.002-.905.002-1.357 0 .34-.548 1.014-.87 1.653-.74.766.126 1.364.874 1.307 1.65zm-.006-4.31c-.64.622-1.528.98-2.42.968H6.43c-.453-.003-.914.027-1.358-.088-.885-.21-1.66-.826-2.068-1.638-.442-.87-.453-1.945-.034-2.823.484-1.003 1.556-1.633 2.642-1.744 2.287-.308 4.56-.77 6.763-1.46.547.778 1.096 1.554 1.645 2.328.218.325.666.447 1.028.313.35-.118.565-.51.507-.87-.027-.282-.24-.486-.387-.712-.39-.57-.81-1.118-1.185-1.697.524-.25 1.03-.54 1.507-.868.6.622 1.175 1.266 1.772 1.89.332.338.95.308 1.248-.063.26-.304.23-.795-.045-1.08-.55-.596-1.104-1.188-1.655-1.782.306-.284.6-.58.88-.89l1.642 1.456c.182.175.428.3.685.278.387-.012.73-.335.776-.718.05-.29-.09-.586-.315-.77-.592-.52-1.18-1.046-1.772-1.566.3-.456.565-.933.818-1.416.586.372 1.177.738 1.764 1.108.258.17.597.242.892.128.37-.145.59-.59.475-.973-.055-.205-.193-.384-.373-.496l-2.074-1.3c-.086-.03-.038-.114-.025-.17.367-1.18.545-2.417.54-3.65.003-.844.002-1.686 0-2.53 2.87.002 5.737 0 8.605 0 0 6.177-.002 12.353 0 18.53-.036.864-.42 1.706-1.044 2.306z" fill="#FFF"/>
</svg>