<svg width="14" height="14" viewBox="0 0 14 14" fill="none" xmlns="http://www.w3.org/2000/svg">
<path d="M6.46188 0.0568783L6.45401 0.0096283C4.98138 0.124253 3.54201 0.703503 2.36426 1.74388L7.00001 6.3805L8.56976 4.81075C7.39026 3.44663 6.70688 1.50238 6.46188 0.0568783Z" fill="#51BF7D"/>
<path d="M7.34563 0C7.57925 1.29937 8.17775 2.99512 9.19013 4.19037L11.6358 1.74475C10.4046 0.657125 8.88738 0.07525 7.34563 0Z" fill="#51BF7D"/>
<path d="M12.2561 2.36424L9.8105 4.80987C11.0049 5.82225 12.7006 6.42162 14 6.65438C13.9248 5.11262 13.3438 3.59537 12.2561 2.36424Z" fill="#51BF7D"/>
<path d="M2.037 2.04049L2.03875 2.03874L2.0405 2.03612L2.037 2.04049Z" fill="#51BF7D"/>
<path d="M1.74389 2.36424C0.703511 3.54199 0.124261 4.98137 0.00963593 6.454L0.0568859 6.46187C1.50239 6.70687 3.44664 7.39025 4.81076 8.56975L6.38051 7L1.74389 2.36424Z" fill="#51BF7D"/>
<path d="M0 7.34563C0.07525 8.88738 0.657125 10.4046 1.74475 11.6366L4.19037 9.191C2.99512 8.17775 1.29937 7.57838 0 7.34563Z" fill="#51BF7D"/>
<path d="M4.80988 9.80963L2.36426 12.2561C3.59538 13.3438 5.11351 13.9248 6.65438 14C6.42076 12.7006 5.82226 11.0049 4.80988 9.80963Z" fill="#51BF7D"/>
<path d="M7 7.62038L5.43112 9.18925C6.60975 10.5534 7.29225 12.4976 7.53812 13.9423L7.546 13.9895C9.01862 13.8749 10.458 13.2956 11.6357 12.2553L7 7.62038Z" fill="#51BF7D"/>
<path d="M13.9431 7.53812C12.4976 7.29225 10.5534 6.60975 9.18925 5.43112L7.62038 7L12.2561 11.6357C13.2965 10.458 13.8766 9.01862 13.9904 7.546L13.9431 7.53812Z" fill="#51BF7D"/>
</svg>
