<svg width="14" height="15" viewBox="0 0 14 15" fill="none" xmlns="http://www.w3.org/2000/svg">
<g clip-path="url(#clip0)">
<path d="M2.27598 7.65706H2.52769V9.17992H2.27598V7.65706ZM11.1028 8.98181H10.8487V10.5047H11.1028V8.98181ZM14.0002 7.34687V12.2151C14.0002 12.4021 13.8487 12.5536 13.6617 12.5536H9.22068H4.77962H0.338565C0.151626 12.5536 0.000152588 12.4021 0.000152588 12.2151V5.96296C0.000152588 5.77602 0.151626 5.62455 0.338565 5.62455H4.44121V3.67252C4.44121 3.48558 4.59268 3.33411 4.77962 3.33411H9.22061C9.40755 3.33411 9.55903 3.48558 9.55903 3.67252V7.00839H13.6617C13.8486 7.00846 14.0002 7.15993 14.0002 7.34687ZM3.20452 9.17992V7.65706H3.48025C3.66719 7.65706 3.81867 7.50558 3.81867 7.31865C3.81867 7.13171 3.66719 6.98023 3.48025 6.98023H1.32341C1.13647 6.98023 0.985001 7.13171 0.985001 7.31865C0.985001 7.50558 1.13647 7.65706 1.32341 7.65706H1.59915V9.17992H1.32341C1.13647 9.17992 0.985001 9.33139 0.985001 9.51833C0.985001 9.70527 1.13647 9.85674 1.32341 9.85674H3.48025C3.66719 9.85674 3.81867 9.70527 3.81867 9.51833C3.81867 9.33139 3.66719 9.17992 3.48025 9.17992H3.20452ZM7.33857 6.91614V5.39328H7.51826C7.7052 5.39328 7.85668 5.24181 7.85668 5.05487C7.85668 4.86793 7.7052 4.71645 7.51826 4.71645H6.48211C6.29517 4.71645 6.1437 4.86793 6.1437 5.05487C6.1437 5.24181 6.29517 5.39328 6.48211 5.39328H6.66174V6.91614H6.48211C6.29517 6.91614 6.1437 7.06761 6.1437 7.25455C6.1437 7.44149 6.29517 7.59296 6.48211 7.59296H7.51833C7.70527 7.59296 7.85674 7.44149 7.85674 7.25455C7.85674 7.06761 7.70527 6.91614 7.51833 6.91614H7.33857ZM12.7105 10.5047V8.98181H12.7758C12.9627 8.98181 13.1142 8.83034 13.1142 8.6434C13.1142 8.45646 12.9627 8.30498 12.7758 8.30498H10.1066C9.91964 8.30498 9.76817 8.45646 9.76817 8.6434C9.76817 8.83034 9.91964 8.98181 10.1066 8.98181H10.1719V10.5047H10.1066C9.91964 10.5047 9.76817 10.6561 9.76817 10.8431C9.76817 11.03 9.91964 11.1815 10.1066 11.1815H12.7758C12.9627 11.1815 13.1142 11.03 13.1142 10.8431C13.1142 10.6561 12.9627 10.5047 12.7758 10.5047H12.7105ZM11.7796 10.5047H12.0336V8.98181H11.7796V10.5047Z" fill="#51BF7D"/>
</g>
<defs>
<clipPath id="clip0">
<rect width="14" height="14" fill="white" transform="translate(0.000152588 0.943848)"/>
</clipPath>
</defs>
</svg>
