<svg xmlns="http://www.w3.org/2000/svg" viewBox="0 0 32 32">
    <g fill="#FFF">
        <path d="M32 14.146C32 8.55 27.787 4 22.608 4c-2.497 0-4.858 1.06-6.61 2.94C14.297 5.125 11.964 4 9.39 4 4.212 4 0 8.55 0 14.146c0 5.595 4.213 10.146 9.392 10.146 2.573 0 4.907-1.124 6.605-2.94.958 1.026 2.098 1.81 3.343 2.308.032.62.176 1.23.435 1.785.612 1.354 1.878 2.335 3.264 2.515 1.167.17 2.392-.216 3.29-1.044 1.042-.937 1.622-2.436 1.498-3.898-.01-.137-.027-.273-.05-.407C30.32 20.795 32 17.68 32 14.147zm-15.584 3.527l-.11.247-.065.133c-.02.042-.04.084-.062.126-1.32 2.582-3.867 4.335-6.786 4.335-4.272 0-7.747-3.754-7.747-8.37S5.12 5.778 9.392 5.778c2.92 0 5.465 1.753 6.786 4.335l.064.128.063.13c.038.083.076.166.112.25l.02.044c.366.865.595 1.796.673 2.75v.013c.01.113.017.226.022.34v.042c.005.11.008.223.008.336 0 .112-.003.225-.007.337v.042c-.006.114-.013.227-.022.34v.013c-.078.954-.307 1.884-.673 2.75-.008.015-.015.03-.02.045zm10.746 3.24c-.302-.507-.693-.95-1.153-1.29-.976-.74-2.244-.99-3.4-.695-1.222.305-2.294 1.226-2.84 2.444-.072.156-.135.316-.19.48-.934-.43-1.79-1.057-2.512-1.858.17-.258.324-.526.47-.8l.004-.008c.054-.102.107-.206.158-.31l.076-.16.052-.112c.558-1.226.893-2.59.948-4.032l.002-.07c.004-.118.006-.237.006-.356 0-.12-.003-.238-.006-.356l-.002-.07c-.055-1.442-.39-2.806-.948-4.033l-.052-.112c-.025-.054-.05-.107-.077-.16-.052-.104-.104-.207-.158-.31l-.005-.01c-.145-.272-.3-.54-.47-.798 1.455-1.61 3.44-2.52 5.542-2.52 4.27 0 7.746 3.753 7.746 8.368 0 2.778-1.26 5.244-3.194 6.767z"/>
        <path d="M3.824 14.124c0-.374.03-.748.09-1.113.057-.337-.152-.66-.465-.72-.314-.06-.613.165-.67.503-.07.437-.107.884-.107 1.33 0 .345.258.623.576.623s.574-.28.574-.622zM5.814 18.874c-.89-.85-1.516-1.95-1.808-3.183-.08-.332-.392-.533-.7-.448-.308.085-.494.424-.415.757.35 1.476 1.098 2.793 2.163 3.808.11.104.245.156.38.156.16 0 .32-.07.433-.21.21-.26.186-.653-.052-.88z"/>
    </g>
</svg>