<svg width="14" height="14" viewBox="0 0 14 14" fill="none" xmlns="http://www.w3.org/2000/svg">
<g clip-path="url(#clip0)">
<path d="M12.2482 14.0001C13.2146 14.0001 13.998 13.2167 13.998 12.2504C13.998 11.284 13.2146 10.5006 12.2482 10.5006C11.2819 10.5006 10.4985 11.284 10.4985 12.2504C10.4985 13.2167 11.2819 14.0001 12.2482 14.0001Z" fill="#51BF7D"/>
<path d="M1.70264 11.0718L0.131382 12.6352C-0.0435906 12.8014 -0.0435906 13.0814 0.131382 13.2564L0.743786 13.8688C0.918759 14.0437 1.19872 14.0437 1.36494 13.8688L2.93619 12.3054L1.70264 11.0718Z" fill="#51BF7D"/>
<path d="M13.7442 2.11067L11.8895 0.255959C11.5483 -0.0852381 10.9884 -0.0852381 10.6472 0.255959L4.46194 6.44124C4.12075 6.78244 4.12075 7.34235 4.46194 7.68355L4.7769 7.9985L2.32203 10.4534L3.55559 11.6869L6.01045 9.23205L6.31665 9.53826C6.65785 9.87945 7.21776 9.87945 7.55896 9.53826L13.7442 3.35297C14.0854 3.01178 14.0854 2.45187 13.7442 2.11067Z" fill="#51BF7D"/>
</g>
<defs>
<clipPath id="clip0">
<rect width="14" height="14" fill="white" transform="translate(0.000152588)"/>
</clipPath>
</defs>
</svg>
