<svg xmlns="http://www.w3.org/2000/svg" viewBox="0 0 32 32">
    <path d="M29.96 21.14c-.34-.523-.785-.998-1.36-1.258-.822-.387-1.805-.3-2.615.076-.657.312-1.138.94-1.306 1.645-.19.777-.112 1.634.267 2.343.165.237.356.493.32.8-.014.375-.413.66-.772.578-.225-.047-.4-.212-.532-.393-3.1-3.893-6.202-7.785-9.3-11.68-.347-.403-.803-.725-1.322-.86-.44-.13-.922-.083-1.347.086-2.7-3.39-5.404-6.78-8.106-10.173-.24-.293-.464-.598-.712-.884-.273-.317-.713-.472-1.125-.405-.605.09-1.088.673-1.048 1.286.004.374.22.694.455.965 2.857 3.594 5.723 7.183 8.577 10.78-.34.715-.368 1.574-.064 2.307.15.392.42.716.682 1.04l8.824 11.08c.63.7 1.367 1.316 2.198 1.765 1.05.576 2.27.844 3.464.744 1.174-.098 2.332-.497 3.293-1.184 1.447-1.025 2.348-2.718 2.532-4.468.162-1.457-.196-2.966-1.003-4.188zm-.64 3.895c-.092 1.18-.642 2.324-1.526 3.117-1.315 1.238-3.39 1.503-5.01.732-.747-.343-1.414-.848-1.982-1.438-3.033-3.802-6.064-7.606-9.095-11.41-.24-.283-.34-.677-.257-1.04.08-.403.405-.736.794-.852.484-.148 1.018.067 1.34.44l9.03 11.34c.7.937 2.08 1.306 3.136.778.58-.28.973-.86 1.106-1.48.16-.702-.014-1.46-.424-2.047-.162-.23-.266-.506-.252-.79.018-.512.42-.99.927-1.082.552-.1 1.116.21 1.402.678.61.886.897 1.984.81 3.055z" fill="#FFF"/>
</svg>