<svg xmlns="http://www.w3.org/2000/svg" viewBox="0 0 32 32">
    <g fill="#FFF">
        <path d="M15.696 10.068c-2.45 0-4.446 2.625-4.446 5.852 0 3.227 1.994 5.852 4.446 5.852 2.45 0 4.446-2.625 4.446-5.852 0-3.227-1.994-5.852-4.446-5.852zm0 9.97c-1.563 0-2.835-1.847-2.835-4.118 0-2.27 1.273-4.118 2.836-4.118s2.835 1.847 2.835 4.118c0 2.27-1.27 4.118-2.834 4.118z"/>
        <path d="M27.478 8H0v16H32V8h-4.522zm2.957 1.684v1.252c-.522-.244-.95-.69-1.174-1.252h1.175zm-28.87 0h1.25c-.22.56-.64 1.06-1.25 1.287V9.685zm0 12.632v-1.32c.61.224 1.05.665 1.264 1.32H1.564zm2.88 0c-.29-1.6-1.385-2.794-2.88-3.103v-6.43c1.47-.32 2.578-1.53 2.877-3.1h23.132c.327 1.497 1.474 2.737 2.862 3.084v6.46c-1.477.355-2.54 1.684-2.857 3.09H4.445zm25.99 0h-1.172c.22-.56.65-1.024 1.172-1.277v1.276z"/>
        <path d="M6.762 13.628c-1.174 0-2.13 1.028-2.13 2.29 0 1.264.956 2.292 2.13 2.292s2.13-1.028 2.13-2.29c0-1.264-.956-2.292-2.13-2.292zm0 2.85c-.286 0-.518-.25-.518-.558 0-.307.232-.557.518-.557.286 0 .518.25.518.557 0 .307-.233.557-.518.557zM24.63 13.628c-1.173 0-2.128 1.028-2.128 2.29 0 1.264.955 2.292 2.13 2.292 1.173 0 2.128-1.028 2.128-2.29 0-1.264-.955-2.292-2.13-2.292zm0 2.85c-.285 0-.517-.25-.517-.558 0-.307.232-.557.518-.557.287 0 .52.25.52.557 0 .307-.233.557-.52.557z"/>
    </g>
</svg>