<svg xmlns="http://www.w3.org/2000/svg" viewBox="0 0 32 32">
    <g fill="#FFF">
        <path d="M9.11 19.857c-.464-1.952-1.19-3.834-1.666-5.782-.427-1.75-.584-3.612-.086-5.365.448-1.627 1.517-3.062 2.905-4.063.948-.702 2.045-1.19 3.165-1.576 1.476-.488 3.01-.805 4.56-.97.012.594-.006 1.19.007 1.784-.01.308.32.564.628.494.266-.04.454-.3.43-.554 0-.767.006-1.533-.002-2.3.01-.313-.303-.52-.602-.524-.085.018-.172.034-.26.043-1.526.148-3.04.434-4.51.87-1.83.553-3.635 1.37-5.003 2.705-1.377 1.297-2.27 3.047-2.548 4.885-.212 1.32-.147 2.67.102 3.982.442 2.276 1.335 4.44 1.867 6.694.234.957.304 1.993-.083 2.924-.188.464-.472.89-.82 1.256-.21.203-.194.573.04.753.212.183.566.153.746-.06.898-.96 1.4-2.26 1.374-3.555-.022-.553-.118-1.1-.245-1.64z"/>
        <path d="M25.818 10.17c-2.034-1.747-4.072-3.49-6.107-5.236-.19-.18-.476-.146-.72-.173-2.09-.102-4.185.333-6.116 1.095-.946.37-1.747 1.047-2.3 1.873-.727 1.068-1.098 2.326-1.278 3.582-.302 2.214-.055 4.473.503 6.63.167.687.427 1.35.548 2.048.175.918.19 1.886-.11 2.78-.195.58-.525 1.116-.96 1.557-.112.116-.243.233-.266.4-.06.298.21.607.524.597 4.46.002 8.918 0 13.377 0 .185.015.38.05.552-.037.292-.116.394-.49.242-.747-.302-.465-.625-.92-1.008-1.326-.194-.2-.21-.492-.203-.75.026-.605.136-1.203.173-1.807.045-.684.1-1.384-.075-2.056-.21-.812-.62-1.56-1.093-2.253-1.002-1.442-2.248-2.7-3.49-3.946 1.048-.06 2.086.184 3.073.504.703.236 1.392.512 2.057.834.18.083.36.213.57.186.186-.014.334-.143.422-.294l1.78-2.79c.144-.207.105-.51-.096-.67zm-2.364 2.57c-1.3-.59-2.66-1.082-4.085-1.288-.88-.12-1.81-.133-2.643.197-.314.122-.404.568-.168.8 1.344 1.317 2.714 2.627 3.84 4.13.6.817 1.155 1.724 1.244 2.744.05.97-.164 1.93-.216 2.897-.02.47.01.967.256 1.383.145.26.383.45.56.688-3.868.01-7.735.005-11.603.003.7-1.1.962-2.425.848-3.705-.057-.838-.29-1.65-.538-2.45-.45-1.558-.735-3.165-.77-4.784-.02-1.168.087-2.35.45-3.47.316-.963.846-1.893 1.676-2.526.562-.447 1.263-.666 1.938-.896 1.507-.483 3.1-.76 4.69-.674.21-.01.345.156.488.276 1.785 1.532 3.575 3.06 5.36 4.592-.442.693-.884 1.39-1.328 2.083z"/>
        <path d="M17.72 7.693c-.056.23.082.473.3.57.578.305 1.154.613 1.732.918.24.14.58.058.716-.18.164-.245.054-.604-.217-.726-.616-.322-1.223-.664-1.847-.972-.29-.102-.634.1-.684.39zM23.958 25.856c-4.974-.016-9.95-.003-14.923-.007-.302-.025-.566.244-.556.533.005 1.268 0 2.536 0 3.805.003.217-.032.47.14.64.197.22.523.163.79.168h14.186c.202-.005.432.032.6-.104.152-.106.222-.29.212-.466V26.38c.013-.25-.19-.494-.45-.524zm-.612 4.11c-4.6-.003-9.202.007-13.803-.004 0-1.027.002-2.055 0-3.082 4.6-.004 9.2 0 13.802-.002v3.09z"/>
    </g>
</svg>