<svg width="14" height="15" viewBox="0 0 14 15" fill="none" xmlns="http://www.w3.org/2000/svg">
<g clip-path="url(#clip0)">
<path d="M2.45614 14.8235C2.61625 14.9837 2.87602 14.9837 3.03613 14.8235L5.16574 12.694C5.47346 12.3862 5.66028 11.9688 5.66028 11.5336V9.89319L5.93638 10.1831C6.41693 10.6636 7.19601 10.6636 7.67656 10.1831L8.25655 9.60299C8.73709 9.12255 8.73709 8.34346 8.25655 7.86292L7.96655 7.57293L9.70673 5.83275C10.0271 5.51242 10.0271 4.993 9.70673 4.67267L12.7207 1.64392C12.8811 1.48371 12.8811 1.22426 12.7207 1.06394C12.5604 0.903614 12.301 0.903614 12.1406 1.06394L8.83664 4.38268C8.83653 4.38268 8.83653 4.38279 8.83653 4.38279L7.96655 5.25277L7.38646 4.67267L6.80637 5.25277L7.38657 5.83275L5.64639 7.57293L5.0663 6.99283L4.4862 7.57293L5.0663 8.15291L4.14259 9.07662C4.02018 9.19913 3.99231 9.3837 4.06665 9.54018C4.21148 9.84491 4.15808 10.2213 3.90622 10.4732L1.29595 13.0834C1.13573 13.2435 1.13573 13.5032 1.29595 13.6634L2.45614 14.8235ZM7.67656 8.44301C7.83667 8.60323 7.83667 8.86289 7.67656 9.023L7.09647 9.60309C6.93625 9.76331 6.67659 9.76331 6.51648 9.60309L6.22638 9.3131L7.38646 8.15302L7.67656 8.44301Z" fill="#51BF7D"/>
<path d="M8.25652 3.80259C8.41898 3.64023 8.41898 3.38506 8.25652 3.2226L7.67653 2.64251C7.51407 2.48005 7.2589 2.48005 7.09644 2.64251L6.22636 3.51259L7.38644 4.67267L8.25652 3.80259Z" fill="#51BF7D"/>
<path d="M3.90611 5.83287L5.64628 4.0927L6.80636 5.25278L5.06619 6.99284L3.90611 5.83287Z" fill="#51BF7D"/>
<path d="M2.45614 7.28293C2.29368 7.44539 2.29368 7.70056 2.45614 7.86302L3.03613 8.44301C3.19859 8.60547 3.45376 8.60547 3.61622 8.44301L4.48631 7.57292L3.32623 6.41284L2.45614 7.28293Z" fill="#51BF7D"/>
<path d="M5.93637 3.2226C5.77391 3.06014 5.51874 3.06014 5.35628 3.2226C5.19392 3.38506 5.19392 3.64023 5.35628 3.80259L5.64638 4.09269L6.22636 3.51259L5.93637 3.2226Z" fill="#51BF7D"/>
<path d="M3.61612 5.54276C3.45376 5.3804 3.19859 5.3804 3.03613 5.54276C2.87367 5.70522 2.87367 5.96039 3.03613 6.12285L3.32612 6.41284L3.90622 5.83275L3.61612 5.54276Z" fill="#51BF7D"/>
</g>
<defs>
<clipPath id="clip0">
<rect width="14" height="14" fill="white" transform="translate(0 0.943665)"/>
</clipPath>
</defs>
</svg>
