<svg width="14" height="14" viewBox="0 0 14 14" fill="none" xmlns="http://www.w3.org/2000/svg">
<g clip-path="url(#clip0)">
<path d="M12.8058 1.1975C11.0995 -0.508861 8.18381 -0.368852 6.30857 1.50726C5.39238 2.42257 4.85947 3.6074 4.80697 4.84297L4.64071 8.74309L3.10411 10.2797C2.61846 10.0618 2.0103 10.1362 1.62265 10.5238L0.385319 11.7612C-0.126588 12.2731 -0.126588 13.1052 0.385319 13.6171C0.640835 13.8727 0.976856 14.0004 1.31375 14.0004C1.65065 14.0004 1.98579 13.8727 2.24219 13.6171L3.47951 12.3798C3.88204 11.9773 3.95642 11.3823 3.72628 10.8957L5.25938 9.36263L9.1595 9.19724H9.16037C10.3942 9.14474 11.579 8.61183 12.4961 7.69565C14.3722 5.81691 14.5113 2.90298 12.8058 1.1975ZM11.4696 1.29725C11.7269 1.43814 11.9728 1.60177 12.1872 1.81703C12.4016 2.03055 12.5661 2.27644 12.707 2.5337L11.8774 3.36326L10.6401 2.12593L11.4696 1.29725ZM9.09299 3.67215L10.0214 2.74372L11.2588 3.98104L10.3303 4.90948L9.09299 3.67215ZM9.71165 5.52814L8.78322 6.45657L7.54589 5.21925L8.47433 4.29081L9.71165 5.52814ZM9.84029 0.876351C10.0879 0.876351 10.3312 0.907853 10.5701 0.957731L10.0214 1.50639L9.43251 0.917478C9.56902 0.903477 9.70553 0.876351 9.84029 0.876351ZM8.43145 1.15374L9.40276 2.12505L8.47433 3.05349L7.26675 1.84591C7.6299 1.54927 8.0193 1.31213 8.43145 1.15374ZM6.64546 2.46195L7.85566 3.67215L6.92723 4.60058L5.95767 3.63102C6.11868 3.21275 6.35057 2.82072 6.64546 2.46195ZM5.68115 4.87973C5.68465 4.79397 5.7074 4.71171 5.71703 4.62683L6.30857 5.21837L5.76428 5.76353C5.70478 5.47826 5.66803 5.18599 5.68115 4.87973ZM5.52802 8.47357L5.57089 7.47251C5.70215 7.65715 5.83691 7.84004 5.99967 8.0028C6.16068 8.16468 6.34007 8.30119 6.52295 8.43157L5.52802 8.47357ZM7.33588 7.90391C7.07599 7.76128 6.82922 7.59589 6.61834 7.38413C6.4057 7.17237 6.24031 6.9256 6.09768 6.66659L6.92635 5.83791L8.16368 7.07524L7.33588 7.90391ZM9.12187 8.32131C8.8191 8.33619 8.52508 8.29944 8.23894 8.23906L8.78322 7.69478L9.37476 8.28631C9.28988 8.29506 9.20762 8.31781 9.12187 8.32131ZM10.3714 8.0448L9.40189 7.07524L10.3303 6.1468L11.5405 7.357C11.1809 7.6519 10.7888 7.88379 10.3714 8.0448ZM12.1592 6.73747L10.949 5.52814L11.8774 4.59971L12.8452 5.56752C12.6868 5.98054 12.4567 6.37344 12.1592 6.73747ZM12.4961 3.98104L13.0369 3.44026C13.113 3.80866 13.1322 4.18931 13.0894 4.57433L12.4961 3.98104Z" fill="#51BF7D"/>
<path d="M1.75239 3.5004C2.71895 3.5004 3.5025 2.71685 3.5025 1.75029C3.5025 0.783734 2.71895 0.000183105 1.75239 0.000183105C0.785832 0.000183105 0.00228119 0.783734 0.00228119 1.75029C0.00228119 2.71685 0.785832 3.5004 1.75239 3.5004Z" fill="#51BF7D"/>
</g>
<defs>
<clipPath id="clip0">
<rect width="14" height="14" fill="white" transform="translate(0.000152588 0.000183105)"/>
</clipPath>
</defs>
</svg>
