<svg width="14" height="14" viewBox="0 0 14 14" fill="none" xmlns="http://www.w3.org/2000/svg">
<g clip-path="url(#clip0)">
<path d="M8.97734 11.0411C8.16205 11.0411 7.49773 11.7054 7.49773 12.5207C7.49773 13.336 8.16205 14.0003 8.97734 14.0003C9.79566 14.0003 10.457 13.336 10.457 12.5207C10.457 11.7054 9.79264 11.0411 8.97734 11.0411Z" fill="#51BF7D"/>
<path d="M13.8872 1.01307L12.7247 0.052838C12.6794 0.0135833 12.619 -0.00453468 12.5586 0.00150451C12.4982 0.00754371 12.4439 0.0377393 12.4046 0.0860529L11.9245 0.686953C11.846 0.783581 11.8611 0.925502 11.9577 1.00401L12.0694 1.09762L2.72377 11.2586C2.72075 11.2616 2.71773 11.2646 2.71773 11.2676C2.59694 11.4126 2.42181 11.4367 2.2829 11.325C2.18024 11.2163 2.1742 11.0713 2.26781 10.9536C2.27083 10.9506 2.27083 10.9475 2.27385 10.9445L2.31008 10.8962L2.42483 10.7573C2.70263 10.4493 2.78718 10.0658 2.66337 9.70045C2.52749 9.30488 2.1591 8.99386 1.74844 8.92441C1.35891 8.85798 0.981457 9.01198 0.715732 9.35018C0.715732 9.3532 0.712712 9.3532 0.712712 9.35622L0.591928 9.51625C0.588909 9.51927 0.588909 9.52229 0.585889 9.52531C0.2024 10.09 0.00612586 10.7362 0.0333023 11.3401C0.0604787 11.9893 0.335262 12.56 0.824438 12.9858L0.854634 13.0129C0.857653 13.016 0.860673 13.019 0.863692 13.022C1.33777 13.4025 1.91451 13.6048 2.50334 13.6048C2.57279 13.6048 2.63922 13.6018 2.70867 13.5957C3.37298 13.5414 3.98294 13.2334 4.42682 12.7261C4.42984 12.7231 4.43286 12.72 4.43286 12.717L13.0236 1.88271L13.1172 1.96122C13.1595 1.99444 13.2078 2.01256 13.2622 2.01256C13.2712 2.01256 13.2773 2.01256 13.2863 2.01256C13.3467 2.00652 13.4011 1.97632 13.4403 1.92801L13.9204 1.32711C13.9959 1.23048 13.9839 1.09158 13.8872 1.01307Z" fill="#51BF7D"/>
</g>
<defs>
<clipPath id="clip0">
<rect width="14" height="14" fill="white" transform="translate(0.000152588 0.000244141)"/>
</clipPath>
</defs>
</svg>
