<svg xmlns="http://www.w3.org/2000/svg" viewBox="0 0 32 32">
    <g fill="#fff">
        <path d="M15.807 25.23c.76.418 1.522.842 2.33 1.165 2.076.864 4.375 1.216 6.604.89 2.68-.38 5.168-1.658 7.26-3.358v-1.583c-1.277 1.182-2.74 2.164-4.33 2.863.82-1.067 1.505-2.24 2.016-3.487 1.184-2.863 1.438-6.102.746-9.123-.48-2.11-1.424-4.112-2.744-5.818-1.633-2.126-3.84-3.795-6.324-4.766C19.05 1.1 16.504.8 14.042 1.13c-2.415.32-4.745 1.26-6.715 2.706-1.715 1.253-3.16 2.88-4.205 4.74-1.383 2.437-2.045 5.277-1.92 8.082.11 2.612.915 5.19 2.316 7.39-1.236.59-2.42 1.292-3.518 2.115.002.503.003 1.007.007 1.51.677-.556 1.39-1.065 2.136-1.522 2.173-1.334 4.632-2.282 7.192-2.403 2.24-.122 4.49.436 6.472 1.484zm9.868.452c-.1.09-.182.216-.308.27-2.4.545-4.95.177-7.18-.837 2.51-2.173 4.504-4.945 5.777-8.03 1.808.815 3.49 1.913 4.973 3.237-.66 2.01-1.786 3.858-3.262 5.36zm3.456-13.41c.605 2.2.66 4.55.158 6.776-3.602-3.06-8.26-4.81-12.965-4.87-1.08-1.964-1.83-4.113-2.2-6.33 3.02-.402 6.13-.092 9.014.9 2.1.722 4.085 1.797 5.84 3.17.112.08.11.235.154.355zM13.984 2.345c2.74-.412 5.605.033 8.085 1.29 2.648 1.328 4.843 3.552 6.15 6.233-4.178-2.73-9.32-3.916-14.253-3.24-.156-1.422-.14-2.86.018-4.283zM6.97 5.654c1.648-1.48 3.656-2.544 5.797-3.07-.406 4.198.49 8.503 2.524 12.183-1.136 1.92-2.59 3.645-4.297 5.07-1.51-2.003-2.652-4.29-3.334-6.714-.686-2.417-.917-4.965-.69-7.47zM2.62 18.61c-.517-2.69-.225-5.535.846-8.054C4.013 9.26 4.764 8.05 5.673 6.98c-.064 2.84.413 5.69 1.435 8.336.718 1.89 1.718 3.665 2.924 5.28-1.672 1.228-3.536 2.185-5.503 2.827-.926-1.467-1.59-3.103-1.91-4.813zm13.69-3.23c2.225.034 4.444.45 6.527 1.24-1.267 3.063-3.292 5.8-5.84 7.895-2.33-1.36-5.024-2.12-7.723-1.974 2.878-1.757 5.314-4.24 7.037-7.16z"/>
        <path d="M21.698 29.714c-1.718-.212-3.366-.836-4.868-1.693-1.797-1.02-3.566-1.696-5.627-1.855C8.648 25.955 6 26.547 4 27.64v1.328c2-1.016 3.982-1.66 6.233-1.64 2.15.003 4.156.63 6.03 1.68.992.568 1.976 1.053 3.066 1.396 1.617.514 3.308.712 4.996.532 1.426-.148 2.805-.557 4.107-1.158-.002-.443-.007-.885-.01-1.328-2.056 1.058-4.423 1.567-6.725 1.264z"/>
    </g>
</svg>