<svg xmlns="http://www.w3.org/2000/svg" viewBox="0 0 32 32">
    <path d="M31.842 2.096c-.1-.082-.232-.114-.358-.087l-1.486.31c-4.177.873-7.917 3.22-10.53 6.607l-8.96 11.606C8.065 23.7 4.38 25.66.403 25.908c-.226.014-.402.203-.402.43v3.23c0 .12.048.232.133.313.08.078.186.12.296.12h.02c2.348-.12 4.616-.698 6.694-1.675v1.245c0 .237.19.43.428.43.236 0 .428-.193.428-.43v-1.677c1.064-.57 2.07-1.25 3.004-2.03v3.707c0 .238.192.43.43.43.236 0 .428-.192.428-.43V25.1c.668-.634 1.29-1.32 1.862-2.062l1.142-1.48v8.012c0 .238.192.43.43.43.235 0 .428-.192.428-.43v-9.122l3.003-3.892V29.57c0 .238.192.43.43.43.236 0 .428-.192.428-.43V15.445l3.004-3.893V29.57c0 .237.19.43.428.43.237 0 .43-.193.43-.43V10.524c.883-.964 1.896-1.794 3.003-2.47V29.57c0 .238.193.43.43.43s.43-.192.43-.43V7.573c.948-.49 1.956-.873 3.003-1.134v23.128c0 .238.192.43.43.43.236 0 .427-.192.427-.43V6.248l.49-.1c.198-.043.34-.22.34-.423V2.43c0-.13-.058-.252-.158-.334zm-.7 3.28l-.49.102c-3.43.717-6.5 2.644-8.648 5.426L13.047 22.51c-2.964 3.84-7.386 6.228-12.19 6.6V26.74c4.07-.366 7.817-2.42 10.33-5.676l8.958-11.606c2.49-3.226 6.05-5.46 10.028-6.292l.97-.203v2.415z" fill="#fff"/>
</svg>