<svg xmlns="http://www.w3.org/2000/svg" viewBox="0 0 32 32">
    <g fill="#FFF">
        <path d="M30.586 7.856c-.324-.427-.794-.707-1.325-.79L25.68 6.27l.04-.72c.033-.597-.17-1.17-.573-1.614-.398-.44-.944-.702-1.54-.74l-3.126-.305C20.424 1.84 19.542 1 18.465 1H3.016C1.904 1 1 1.895 1 2.995V28.34c0 1.1.904 1.995 2.016 1.995h10.35l-.002.044 8.704.337.12.003c.42 0 .827-.115 1.18-.33l2.345.575.076.015c.1.013.197.02.295.02.443 0 .873-.14 1.234-.41.44-.326.725-.804.802-1.343L30.98 9.37c.077-.54-.063-1.078-.394-1.514zM2.526 28.34V2.995c0-.268.22-.486.49-.486h15.45c.272 0 .493.217.493.485V28.34c0 .268-.222.486-.493.486H3.017c-.272 0-.492-.218-.492-.486zm20.148.686c-.146.13-.334.194-.53.184l-1.832-.07c.11-.246.17-.516.17-.8V4.408l2.99.292.032.002c.195.01.375.096.506.24.13.144.197.33.186.523l-1.278 23.06c-.012.194-.098.372-.244.5zm6.796-19.87l-2.857 19.878c-.02.14-.095.265-.21.35-.106.08-.235.116-.367.105l-1.673-.412c.042-.152.068-.31.077-.47l1.154-20.81 3.36.746.06.01c.142.02.268.095.354.208s.122.254.102.394z"/>
        <path d="M12.613 11.94c-.626 0-1.26.22-1.834.63-.604-.4-1.245-.616-1.854-.616-1.326 0-2.217.968-2.217 2.41 0 1.238.946 2.43 1.74 3.21.065.062 1.568 1.53 2.35 1.53.784 0 2.287-1.467 2.35-1.53.796-.78 1.743-1.972 1.743-3.21 0-1.427-.938-2.423-2.28-2.423zM10.8 17.538c-.732-.424-2.567-2.034-2.567-3.173 0-.597.233-.9.693-.9.41 0 .906.234 1.365.64l.54.48.51-.507c.4-.398.865-.626 1.273-.626.656 0 .754.573.754.915 0 1.138-1.835 2.748-2.567 3.172z"/>
    </g>
</svg>