<svg xmlns="http://www.w3.org/2000/svg" viewBox="0 0 32 32">
    <path d="M31 16.082c-.115-1.082-.75-2.09-1.706-2.713-.096-.33-.246-.613-.445-.844-.534-.634-1.284-1.022-1.88-1.29-.808-.35-1.73-.63-2.902-.88-1.29-.265-2.716-.453-4.36-.576-1.195-.088-2.433-.133-3.682-.133-1.086 0-2.21.034-3.342.1v-.624-.98c0-.09.012-.307.156-.432.088-.078.23-.118.42-.118h7.234c1.267-.016 2.436-.897 2.78-2.094.213-.744.052-1.59-.428-2.26-.48-.693-1.256-1.156-2.074-1.236C20.764 2 20.756 2 20.748 2h-7.216c-1.455.05-2.875.6-3.997 1.547C8.067 4.763 7.16 6.587 7.11 8.43c-.007.402-.007.81-.006 1.205 0 .297 0 .603-.002.906-.907.23-2.03.575-3.02 1.187-.75.48-1.215 1.032-1.38 1.646-.956.618-1.59 1.626-1.7 2.715-.002.008-.002.017-.002.025v8.453c.095 1.072.712 2.085 1.654 2.71 1.47.962 3.14 1.454 4.435 1.776 1.52.367 3.163.624 5.023.785 1.29.108 2.6.163 3.89.163 1.42 0 2.85-.066 4.258-.197 2.54-.25 4.56-.645 6.358-1.244 1.093-.366 2.01-.803 2.804-1.338.897-.628 1.487-1.625 1.576-2.665.002-.008.002-.015.002-.022v-8.427-.026zM3.04 25.656c-.35-.34-.55-.832-.533-1.324v-2.777c-.002-1.742-.002-3.543.002-5.314 0-.585.36-1.18.923-1.534l.01.005c.03.017.065.037.108.053 1.57.714 3.24 1.088 4.672 1.36 1.503.27 3.104.46 4.76.56.997.062 2.003.094 2.99.094 2.536 0 5.047-.208 7.463-.618 1.584-.286 3.43-.682 5.138-1.452.03.018.068.05.098.075.033.027.067.055.105.082.438.348.703.863.708 1.378 0 .138 0 .276.002.415.003.524.006 1.065-.022 1.594-.057.514-.407 1.022-.94 1.36-1.525.998-3.346 1.473-5.09 1.84-.362.082-.614.463-.554.833.044.362.378.655.746.655.06 0 .12-.008.177-.023 2.01-.413 3.485-.9 4.783-1.583.29-.16.604-.336.9-.552 0 .395-.016.768-.195 1.085l-.005.01c-.26.507-.773.824-1.32 1.13-.866.477-1.887.86-3.215 1.204-1.25.318-2.626.556-4.21.73-.293.013-.56.2-.666.47-.1.223-.077.472.06.684.144.225.394.365.65.365.062 0 .123-.01.183-.025 1.558-.172 2.94-.41 4.22-.73 1.388-.35 2.48-.74 3.436-1.23l.05-.028c.34-.184.69-.372 1.01-.607v.034c.01.42.018.817-.127 1.178-.174.438-.52.74-.777.914-.944.623-2.066 1.1-3.532 1.504-2.36.634-4.946.966-8.137 1.046-.29.005-.58.007-.863.007-2.833 0-5.36-.235-7.722-.72-1.172-.25-2.697-.632-4.105-1.358l-.202-.113c-.364-.203-.707-.394-.983-.676zM4.885 12.94c.51-.3 1.068-.51 1.65-.68-.026.01-.053.025-.08.04-.307.18-.448.576-.322.91.1.294.39.498.712.498.022 0 .044 0 .067-.003.9-.054 1.672-.854 1.725-1.786 0-.017 0-.033-.002-.05-.027-.197-.02-.4-.012-.617.005-.127.01-.26.007-.39l-.004-.31c-.01-.712-.02-1.45-.006-2.167.05-1.31.604-2.57 1.523-3.454.91-.89 2.184-1.406 3.495-1.418h6.92c.243 0 .59.045.866.268.286.224.45.608.44 1.026-.012.424-.2.804-.505 1.018-.29.21-.63.253-.864.253h-4.098c-1.036 0-2.072 0-3.106-.002h-.02c-1.093 0-2.073.962-2.096 2.06-.003.294-.002.59 0 .878.002.49.004 1-.014 1.497v.02c.017.43.03.894-.005 1.354v.03c.047.928.815 1.728 1.712 1.79.026.002.052.003.08.003.288 0 .56-.173.68-.43.168-.34.034-.786-.294-.977-.14-.09-.287-.1-.405-.11-.067-.005-.132-.01-.172-.03-.032-.017-.057-.06-.06-.102-.012-.26-.013-.528-.013-.79 1.098-.074 2.215-.11 3.324-.11 1.155 0 2.33.04 3.49.12 1.595.117 3.007.302 4.314.564.872.18 1.8.398 2.676.77.48.218.934.446 1.198.808-1.263.562-2.614.863-3.892 1.123-2.483.465-5.108.7-7.803.7-1.327 0-2.694-.057-4.06-.17-1.516-.132-2.88-.327-4.17-.594-.982-.21-2.244-.516-3.45-1.05.14-.205.364-.362.572-.49zm1.818-.73c.123-.035.247-.07.372-.1-.008.016-.018.03-.03.04-.03.028-.09.035-.188.043-.048.003-.1.008-.154.017z" fill="#FFF"/>
</svg>