<svg xmlns="http://www.w3.org/2000/svg" viewBox="0 0 32 32">
    <g fill="#FFF">
        <path d="M30.734 29.862c-.194-.145-.45-.108-.676-.114-1.626-.002-3.253.006-4.88-.004.007-.91.006-1.82.002-2.728.01-.084-.022-.19.025-.26.487-.048.976-.074 1.464-.106.28.013.586-.12.68-.403.12-.25-.08-.497-.036-.75.265-1.717.966-3.327 1.262-5.036.238-1.34.284-2.73-.02-4.064-.296-1.335-.958-2.573-1.844-3.61-.445-.492-.61-1.165-.656-1.81-.07-1.014.094-2.025.317-3.01.2-.836.448-1.662.768-2.46.08-.18.076-.388-.022-.56-.505-.966-1.252-1.806-2.153-2.422C23.402 1.45 21.477 1.058 19.61 1h-.777c-1.526.05-3.047.268-4.522.666-.25.057-.462.258-.504.515-.023.193.035.38.064.57.235 1.384.424 2.777.56 4.175.148 1.594.245 3.2.135 4.8-.08.984-.217 2.005-.732 2.87-.467.798-1.19 1.413-1.966 1.9-.83.517-1.723.92-2.622 1.3-1.66.692-3.35 1.314-4.998 2.04-.83.367-1.646.81-2.304 1.446-.507.49-.88 1.135-.943 1.844v.44c.106.693.435 1.346.918 1.853-.342-.11-.75.092-.82.455-.136.727-.11 1.487.075 2.204.224.89.778 1.703 1.562 2.19.78.506 1.717.684 2.63.734h25.09c.28-.045.5-.268.545-.546v-.146c-.032-.175-.115-.346-.266-.446zm-28.05-7.548c.52-.574 1.216-.94 1.907-1.263 1.148-.51 2.318-.968 3.484-1.433.003.627-.01 1.255.004 1.88.012.33.33.6.657.573.318-.012.594-.3.586-.618.007-.587.002-1.175.002-1.76.003-.19-.11-.35-.233-.482.908-.367 1.814-.75 2.676-1.22-.077.2-.085.438.046.616.43.604.874 1.2 1.305 1.8.117.18.325.297.54.292.258 0 .506-.178.584-.425.07-.2.024-.427-.103-.593-.43-.588-.857-1.18-1.287-1.767-.1-.15-.264-.232-.432-.276.747-.485 1.473-1.028 2.03-1.73.926.567 1.872 1.097 2.805 1.653.21.135.5.134.703-.014.232-.156.33-.477.224-.737-.054-.167-.196-.28-.344-.36-.907-.527-1.81-1.064-2.718-1.587.25-.55.434-1.134.534-1.73.257-1.51.236-3.05.16-4.575-.112-1.95-.35-3.888-.672-5.813 1.318-.308 2.668-.488 4.022-.496 1.208-.002 2.432.126 3.575.534 1.294.438 2.44 1.317 3.14 2.498-.618 1.71-1.11 3.5-1.092 5.33.012.79.142 1.598.507 2.307.253.5.68.882.98 1.354.765 1.106 1.183 2.438 1.23 3.78.055 1.39-.22 2.773-.63 4.096-.318 1.082-.66 2.166-.81 3.287-1.25.088-2.5.175-3.75.26l-.456-3.37c-.026-.296-.282-.548-.578-.566-.237-.023-.433.133-.633.233-1.342.703-2.74 1.3-4.17 1.79-1.744.592-3.555 1.025-5.4 1.104-2.643.142-5.296.157-7.94-.003-.4-.374-.773-.834-.87-1.39-.073-.435.13-.864.42-1.18zm6.698 7.44c-.92-.012-1.837 0-2.756-.004-.706-.01-1.42.04-2.116-.11-.637-.13-1.272-.42-1.676-.946-.458-.586-.597-1.36-.565-2.087-.002-.27.096-.537.034-.806.152.158.336.316.567.32 2.175.143 4.356.158 6.532.09-.032 1.182.006 2.364-.02 3.545zm14.55-.007c-4.43.006-8.862 0-13.293.003V26.9c-.002-.246.013-.494-.023-.74 3.54-.077 6.96-1.253 10.113-2.797.154 1.04.28 2.085.43 3.125.05.294.343.517.638.498.71-.047 1.423-.098 2.134-.148 0 .97.002 1.94 0 2.91z"/>
        <path d="M16.524 8.04c1.228.123 2.458.24 3.687.36.255.042.523-.092.643-.32.21-.355-.04-.87-.45-.915-1.212-.127-2.424-.234-3.635-.358-.132-.012-.27-.025-.398.025-.228.083-.397.31-.404.553-.025.32.235.634.558.654zM20.463 12.31c.036-.318-.214-.615-.523-.666-1.06-.258-2.117-.516-3.175-.777-.128-.03-.264-.034-.387.013-.25.086-.424.342-.413.605 0 .288.227.543.506.596 1.073.265 2.146.524 3.218.788.36.104.758-.185.775-.558z"/>
    </g>
</svg>