<svg xmlns="http://www.w3.org/2000/svg" viewBox="0 0 32 32">
    <path d="M25.58 13.23c-.57 0-1.125.075-1.652.214l-.99-2.425v-.09H22.9l-.61-1.497 1.452-.866v-.453c0-1.487-1.25-2.08-2.092-2.113h-1.686v1.6h1.625c.03.004.18.025.315.094.03.016.06.033.085.053l-1.708 1.02.883 2.162H12.24l-.42-1.15h1.232v-1.6h-3.06L8.9 7.356 7.93 8.63l1.523 1.15h.654l.684 1.87-1.508 2.25c-.863-.428-1.834-.67-2.863-.67-3.54 0-6.42 2.864-6.42 6.385S2.88 26 6.42 26c2.885 0 5.33-1.903 6.138-4.512l.774.134c.29.826 1.08 1.42 2.008 1.42 1.172 0 2.125-.947 2.125-2.113 0-.33-.075-.64-.21-.917l4.77-6.977.414 1.013c-1.956 1.095-3.28 3.178-3.28 5.565 0 3.52 2.88 6.386 6.42 6.386S32 23.136 32 19.615s-2.88-6.385-6.42-6.385zm-5.153-.702l-4.38 6.407c-.22-.078-.46-.12-.707-.12-.072 0-.143.003-.214.01l-2.302-6.297h7.603zM6.42 24.4c-2.653 0-4.812-2.147-4.812-4.786s2.16-4.786 4.812-4.786c.7 0 1.362.15 1.962.417l-2.43 3.626c-.196.293-.23.66-.09.982.138.323.428.552.776.612l4.317.747c-.662 1.857-2.445 3.19-4.535 3.19zm4.812-4.786v.02l-3.46-.598 1.946-2.902c.93.874 1.514 2.11 1.514 3.48zm-.612-4.823l.854-1.273 2.22 6.075c-.105.13-.197.27-.27.423l-.59-.102c.004-.1.007-.198.007-.297 0-1.926-.862-3.654-2.22-4.825zm4.72 6.653c-.286 0-.518-.23-.518-.515 0-.284.232-.515.517-.515.284 0 .516.23.516.515 0 .284-.23.515-.517.515zM25.58 24.4c-2.653 0-4.812-2.147-4.812-4.786 0-1.716.914-3.224 2.282-4.07l1.785 4.37 1.49-.6-1.785-4.372c.335-.074.683-.114 1.04-.114 2.653 0 4.812 2.147 4.812 4.786S28.232 24.4 25.58 24.4z" fill="#FFF"/>
</svg>