<svg xmlns="http://www.w3.org/2000/svg" viewBox="0 0 32 32">
    <path d="M30.858 24.258c-.344-.815-1.256-1.287-2.52-1.744l-.195-.07c-1.183-.423-2.654-.95-4.853-3.293-1.71-1.82-2.694-5.673-3.167-7.524l-.135-.523c-.218-.827-.357-1.264-.45-1.554-.125-.393-.16-.5-.233-1.1-.046-.373-.3-.998-1.483-.998-.745 0-1.84.21-2.964.45-1.028.155-2.794.09-3.195-2.064-.26-1.4-1.108-2.486-2.16-2.767-.546-.145-1.608-.19-2.633 1.12l-.017.018-5.845 8.344-.005.258c-.046 2.22.455 2.55.668 2.69.32.21.685.49 1.108.814 1.212.93 2.872 2.204 5.42 3.358.5.227 1.03.45 1.588.684 2.55 1.07 5.44 2.284 7.334 4.666C19.018 27.41 20.944 29 24.17 29c4.8 0 5.97-1.292 6.515-2.687l.007-.018c.256-.654.454-1.353.166-2.037zm-8.633-3.965c2.45 2.61 4.177 3.228 5.438 3.68l.19.068c.68.247 1.077.443 1.31.59-.537.286-1.89.714-5.11.628-1.296-.035-3.248-1.26-3.74-1.984-.12-.174-.3-.384-.522-.616l.64-.097-.214-1.595-1.945.297c-.423-.36-.864-.716-1.278-1.04l1.61-.313-.27-1.587-3.13.608c-.453-.272-1.148-.643-1.945-1.046l3.477-.62-.248-1.59-5.57.993.012.08c-1.177-.56-2.303-1.067-3.022-1.362-1.283-.525-3.73-2.662-4.416-3.686l2.094-2.99c.16.688.424 1.436.854 1.988.97 1.247 2.99 1.847 4.894 1.847.725 0 1.433-.087 2.06-.26 1.336-.364 3.923-.952 5.023-1.2.037.136.078.286.122.455l.132.51c.545 2.14 1.562 6.12 3.555 8.243zm-4.36-11.228c.028.19.057.34.09.476-1.176.266-3.614.822-4.936 1.184-2.135.584-4.668-.09-5.424-1.06-.534-.684-.718-2.16-.75-2.756l.465-.666c.02.195.038.388.054.556l.04.437c.172 1.783 1.655 2.89 3.872 2.89.294 0 .597-.02.898-.06.638-.082 1.47-.26 2.35-.45 1.2-.26 2.563-.552 3.297-.552.016.002.03.002.044.002zm-8.728-4.43c.473.126.903.75 1.046 1.517.184.988.598 1.785 1.193 2.36l-.1.002c-.672 0-2.247-.14-2.372-1.443l-.04-.428c-.05-.57-.1-1.11-.182-1.538-.027-.14-.06-.268-.097-.386.172-.092.358-.134.552-.083zM18.27 23.98c-2.138-2.69-5.35-4.04-7.932-5.123-.55-.23-1.068-.448-1.55-.667-2.394-1.085-3.976-2.298-5.13-3.184-.39-.298-.732-.56-1.054-.78-.052-.217-.09-.676-.095-1.126l.048-.07c1.16 1.45 3.53 3.338 4.808 3.86 1.902.78 6.286 2.9 7.298 3.573 1.223.812 3.925 3.018 4.43 3.76.784 1.154 3.21 2.602 4.922 2.648.294.01.578.013.853.013 1.59 0 2.88-.13 3.858-.39-.586.462-1.81.897-4.558.897-2.355-.002-3.9-.894-5.9-3.41z" fill="#FFF"/>
</svg>