<svg width="14" height="14" viewBox="0 0 14 14" fill="none" xmlns="http://www.w3.org/2000/svg">
<g clip-path="url(#clip0)">
<path d="M1.40015 11.2002C0.626419 11.2002 0.000152588 11.8274 0.000152588 12.6002C0.000152588 13.373 0.626419 14.0002 1.40015 14.0002H2.80015V11.2002H1.40015Z" fill="#51BF7D"/>
<path d="M13.0668 0.000244141C12.7579 0.000244141 12.4835 0.150511 12.3136 0.381977L7.83735 6.48878L8.12575 6.09584L9.98308 7.53691L9.48095 8.32838L7.57415 6.84904L6.75468 7.96624L8.79962 9.40265L13.8555 1.43291C13.947 1.28824 14.0002 1.11744 14.0002 0.933578C14.0002 0.418378 13.582 0.000244141 13.0668 0.000244141Z" fill="#51BF7D"/>
<path d="M6.20309 8.71948L4.52402 11.0099C4.43629 11.1293 4.29629 11.2003 4.14789 11.2003H3.73349V14.0003H5.11296C5.59269 14.0003 6.03789 13.7548 6.29549 13.3507L8.29936 10.1913L6.20309 8.71948Z" fill="#51BF7D"/>
<path d="M4.20015 6.53357H0.466819C0.209219 6.53357 0.000152588 6.74264 0.000152588 7.00024V7.93357C0.000152588 8.19117 0.209219 8.40024 0.466819 8.40024H4.20015C4.45775 8.40024 4.66682 8.19117 4.66682 7.93357V7.00024C4.66682 6.74264 4.45775 6.53357 4.20015 6.53357Z" fill="#51BF7D"/>
</g>
<defs>
<clipPath id="clip0">
<rect width="14" height="14" fill="white" transform="translate(0.000152588 0.000244141)"/>
</clipPath>
</defs>
</svg>
