<svg width="14" height="14" viewBox="0 0 14 14" fill="none" xmlns="http://www.w3.org/2000/svg">
<g clip-path="url(#clip0)">
<path fill-rule="evenodd" clip-rule="evenodd" d="M13.992 9.04547C13.9315 10.0214 13.1175 10.877 11.8315 11.4799C10.588 12.063 8.88116 12.4236 7.00566 12.4236C5.13026 12.4236 3.4233 12.063 2.1798 11.4799C0.8939 10.877 0.0798886 10.0215 0.0194333 9.04568C-0.0220097 9.35149 0.0156948 9.95615 0.0156948 10.2939C0.0156948 11.3733 0.838999 12.3265 2.17019 12.9948C3.41615 13.6204 5.12642 14.0073 7.00566 14.0073C8.8849 14.0073 10.5952 13.6204 11.8411 12.9948C13.1723 12.3264 13.9957 11.3733 13.9957 10.2939C13.9958 10.2717 14.0075 9.15944 13.992 9.04547Z" fill="#51BF7D"/>
<path fill-rule="evenodd" clip-rule="evenodd" d="M5.72242 9.36548C6.38914 9.36548 6.79481 9.15826 6.88506 9.05199C6.79481 8.94571 6.38914 8.73849 5.72242 8.73849C5.0556 8.73849 4.64993 8.94571 4.55968 9.05199C4.64993 9.15826 5.0556 9.36548 5.72242 9.36548Z" fill="#51BF7D"/>
<path fill-rule="evenodd" clip-rule="evenodd" d="M7.00566 11.6045C8.46695 11.6045 13.1766 11.0155 13.1766 8.92863C13.1766 6.84175 8.46695 6.25279 7.00566 6.25279C6.62989 6.25279 6.03923 6.29177 5.3692 6.38513V7.93561C5.48466 7.92482 5.6029 7.91937 5.72242 7.91937C6.20169 7.91937 6.65948 8.00781 7.01142 8.16856C7.6241 8.4483 7.71563 8.84212 7.71563 9.052C7.71563 9.26178 7.6241 9.6557 7.01142 9.93544C6.65948 10.0961 6.20169 10.1846 5.72242 10.1846C5.24305 10.1846 4.78526 10.0961 4.43331 9.93544C3.82064 9.6557 3.7291 9.26178 3.7291 9.052C3.7291 8.84212 3.82064 8.4483 4.43331 8.16856C4.47102 8.15136 4.51011 8.13513 4.55006 8.11964V6.52142C4.54942 6.52153 4.54888 6.52163 4.54824 6.52174V4.17477L7.73817 2.54515C7.8751 2.47518 7.96141 2.3343 7.96141 2.18049C7.96141 2.02657 7.8751 1.88569 7.73817 1.81573L4.32501 0.0721364C4.19801 0.00719498 4.04644 0.0130696 3.92489 0.0875173C3.80334 0.161965 3.7291 0.294304 3.7291 0.436898V6.70791C2.22498 7.10322 0.834831 7.79483 0.834831 8.92863C0.834831 11.0155 5.54437 11.6045 7.00566 11.6045Z" fill="#51BF7D"/>
</g>
<defs>
<clipPath id="clip0">
<rect width="14" height="14" fill="white"/>
</clipPath>
</defs>
</svg>
