<svg width="14" height="14" viewBox="0 0 14 14" fill="none" xmlns="http://www.w3.org/2000/svg">
<g clip-path="url(#clip0)">
<path d="M13.7039 6.32849C13.0172 3.18138 12.049 2.40549 11.4595 2.09433C10.5152 1.59601 9.42058 1.88598 9.05743 2.07393C8.6451 2.2863 8.36675 2.69063 7.9476 2.8662C7.46325 3.06817 6.80455 3.12296 6.30904 2.87901C5.9143 2.68425 5.56595 2.2683 5.08762 2.08434C4.4813 1.85037 3.47146 1.52242 2.47161 2.23911C2.23524 2.40869 0.549513 3.82206 0.0431844 8.23736C-0.269159 10.9598 1.22341 11.8356 1.16862 11.7961C1.55256 12.0712 2.41243 12.5364 3.57747 11.8077C4.35615 11.321 4.98804 10.3595 4.98804 10.3595C4.98804 10.3595 5.2696 9.82479 5.64354 9.59759C5.90831 9.43643 6.30424 9.55882 6.30424 9.55882H7.70525C7.70525 9.55882 8.14998 9.50284 8.46235 9.6408C8.76549 9.77319 8.93665 10.0999 8.93665 10.0999C8.93665 10.0999 9.86011 11.2933 10.7452 11.9016C11.1219 12.16 12.6361 12.4576 13.418 11.5025C13.9287 10.8774 14.277 8.9557 13.7039 6.32849ZM6.21946 6.04975C6.21946 6.28891 6.02948 6.48249 5.79512 6.48249H4.73369V7.56592C4.73369 7.8055 4.54371 7.99944 4.30935 7.99944H3.99099C3.75663 7.99944 3.56667 7.80589 3.56667 7.56592V6.48249H2.50481C2.27044 6.48249 2.08046 6.2893 2.08046 6.04975V5.72501C2.08046 5.48543 2.27044 5.29147 2.50481 5.29147H3.56623V4.20923C3.56623 3.97006 3.75622 3.77569 3.99058 3.77569H4.30894C4.5433 3.77569 4.73328 3.96965 4.73328 4.20923V5.29186H5.79471C6.02907 5.29186 6.21905 5.48543 6.21905 5.7254V6.04975H6.21946ZM9.20901 7.56551C8.76947 7.56551 8.41314 7.20236 8.41314 6.75324C8.41314 6.3049 8.76947 5.94137 9.20901 5.94137C9.64854 5.94137 10.0049 6.30452 10.0049 6.75324C10.0053 7.20236 9.64851 7.56551 9.20901 7.56551ZM10.6684 5.76138C10.2336 5.76138 9.8813 5.40185 9.8813 4.9579C9.8813 4.51516 10.2336 4.15563 10.6684 4.15563C11.1031 4.15563 11.4554 4.51519 11.4554 4.9579C11.4555 5.40185 11.1031 5.76138 10.6684 5.76138Z" fill="#51BF7D"/>
</g>
<defs>
<clipPath id="clip0">
<rect width="14" height="14" fill="white" transform="translate(0.000152588)"/>
</clipPath>
</defs>
</svg>
