<svg width="14" height="14" viewBox="0 0 14 14" fill="none" xmlns="http://www.w3.org/2000/svg">
<path d="M13.7676 1.20692C13.6609 0.709894 13.2531 0.307376 12.7543 0.205872C11.3884 -0.0680156 8.99063 0.0625059 7.68595 0.421889L13.5841 6.33232C14.0102 4.90237 14.0625 2.5886 13.7676 1.20692Z" fill="#51BF7D"/>
<path d="M0.432041 7.67185C0.0336038 9.08982 -0.0659024 11.3854 0.20886 12.7522C0.310365 13.2501 0.712007 13.6579 1.2099 13.7646C1.95019 13.923 2.69485 14 3.43338 14C4.07303 14 5.72501 13.7383 6.3422 13.582L0.432041 7.67185Z" fill="#51BF7D"/>
<path d="M7.68344 0.423757C5.98674 0.915529 4.41254 1.82557 3.12011 3.11713C1.82855 4.40869 0.918512 5.98288 0.425864 7.67958L6.33325 13.587C8.02996 13.1005 9.6059 12.193 10.901 10.898C12.196 9.60292 13.1043 8.02785 13.5908 6.33115L7.68344 0.423757ZM9.4974 6.86842C9.41164 6.95418 9.29964 6.99705 9.18763 6.99705C9.07563 6.99705 8.96362 6.95418 8.87787 6.8693L8.31259 6.30315L7.61869 6.99705L8.18396 7.56233C8.3546 7.73296 8.3546 8.01035 8.18396 8.18098C8.09908 8.26673 7.98708 8.30961 7.87507 8.30961C7.76307 8.30961 7.65106 8.26674 7.56531 8.18186L7.00003 7.61571L6.30613 8.30961L6.8714 8.87489C7.04204 9.04552 7.04204 9.32291 6.8714 9.49354C6.78652 9.57929 6.67452 9.62217 6.56252 9.62217C6.45051 9.62217 6.3385 9.57929 6.25275 9.49442L5.68748 8.92826L3.97536 10.5948C3.88961 10.6805 3.7776 10.7234 3.6656 10.7234C3.55359 10.7234 3.44159 10.6805 3.35583 10.5956C3.1852 10.425 3.1852 10.1476 3.35583 9.97699L5.06882 8.30961L4.50267 7.74434C4.33204 7.5737 4.33204 7.29632 4.50267 7.12568C4.67331 6.95505 4.95069 6.95505 5.12133 7.12568L5.68748 7.69096L6.38138 6.99705L5.81523 6.43178C5.6446 6.26115 5.6446 5.98376 5.81523 5.81313C5.98586 5.64249 6.26325 5.64249 6.43388 5.81313L7.00003 6.3784L7.69394 5.68449L7.12779 5.11922C6.95716 4.94859 6.95716 4.6712 7.12779 4.50057C7.29842 4.32993 7.57581 4.32993 7.74644 4.50057L8.31259 5.06584L10.0164 3.3771C10.187 3.20647 10.4644 3.20647 10.635 3.3771C10.8057 3.54774 10.8057 3.82512 10.635 3.99576L8.93125 5.68449L9.4974 6.24977C9.66803 6.4204 9.66803 6.69779 9.4974 6.86842Z" fill="#51BF7D"/>
</svg>
