<svg xmlns="http://www.w3.org/2000/svg" viewBox="0 0 32 32">
    <g fill="#fff">
        <path d="M29.998 14.748c-.044-3.422-.957-6.893-2.937-9.692-.708-1.028-1.706-1.805-2.75-2.456C21.666.988 18.6.144 15.527 0h-1.03C12.21.08 9.91.65 7.955 1.88c-1.98 1.214-3.54 3.063-4.57 5.158-.38.778-.72 1.58-.946 2.42-.574 2.09-.547 4.312-.146 6.43.225 1.182.56 2.343 1.02 3.452.067.187.207.338.383.423 6.468 3.505 12.935 7.013 19.402 10.52.214.13.495.118.702-.025.86-.557 1.577-1.318 2.2-2.136 1.118-1.488 1.944-3.186 2.577-4.94.965-2.694 1.46-5.566 1.418-8.434zm-4.26 11.413c-.634 1.038-1.378 2.035-2.35 2.77-6.307-3.422-12.614-6.847-18.926-10.26-.53-1.31-.873-2.7-1.047-4.104-.25-2.02-.084-4.132.726-6.01.836-2.052 2.177-3.925 3.982-5.195 1.862-1.33 4.144-1.957 6.402-2.018 2.737-.072 5.483.558 7.95 1.758 1.237.627 2.462 1.382 3.34 2.488 1.05 1.416 1.81 3.048 2.265 4.758-2.592-.378-5.173-.852-7.72-1.468-1.967-.486-3.925-1.045-5.792-1.848-.84-.35-1.832-.288-2.63.15-1.013.53-1.675 1.662-1.67 2.818.015 1.444.123 2.894.424 4.308.122.524.264 1.046.494 1.532.19.41.565.68.92.93 1.054.693 2.213 1.196 3.364 1.7 3.882 1.626 7.866 2.99 11.86 4.305-.427 1.175-.95 2.318-1.592 3.388zM13.95 11.78c-.787.263-1.716-.107-2.12-.842-.333-.563-.33-1.306-.003-1.872.264-.466.736-.807 1.26-.897.965-.208 1.99.533 2.127 1.526.168.89-.412 1.83-1.263 2.083zm13.797 9.727c-3.072-1.002-6.13-2.057-9.15-3.213-1.217-.473-2.43-.96-3.62-1.5-.745-.35-1.494-.702-2.182-1.16-.19-.133-.407-.268-.486-.503-.314-.767-.45-1.594-.558-2.414.656.41 1.46.573 2.217.427.933-.16 1.767-.793 2.21-1.64.384-.712.46-1.57.266-2.35 2.4.794 4.87 1.35 7.348 1.83 1.528.287 3.062.54 4.603.75.574 3.25.278 6.623-.65 9.774z"/>
        <path d="M13.262 9.347c-.494.093-.684.798-.305 1.133.338.367 1.016.15 1.094-.345.118-.455-.344-.908-.788-.788zM27.02 12.033c-.272.058-.492.31-.508.59.12 2.125.115 4.3-.45 6.363-.064.27-.232.54-.153.826.07.32.406.54.723.49.234-.033.445-.202.522-.43.325-.924.498-1.896.61-2.868.152-1.45.166-2.918.052-4.372-.02-.393-.424-.696-.798-.6zM22.255 30.822c-.182-.137-.39-.228-.588-.338l-18.43-9.99c-.285-.184-.694-.108-.883.18-.23.31-.115.807.23.974 6.21 3.37 12.424 6.736 18.634 10.106.17.095.344.194.534.246h.175c.183-.048.364-.142.463-.314.175-.27.12-.665-.135-.864z"/>
    </g>
</svg>