<svg xmlns="http://www.w3.org/2000/svg" viewBox="0 0 32 32">
    <path d="M31.735 10.378c-.5-1.564-1.683-2.91-3.194-3.675-1.193-.613-2.605-.847-3.942-.61-1.448.24-2.778 1-3.735 2.058-1.314-1.48-3.403-2.342-5.44-2.112-1.637.168-3.164 1-4.21 2.203-1.182-1.37-3.006-2.25-4.88-2.237C4.664 6 3.03 6.705 1.867 7.838.718 8.938.004 10.46 0 12.018c-.014 1.272.442 2.53 1.23 3.55.95 1.24 2.39 2.148 3.976 2.44-.44 1.156-.473 2.448-.088 3.623.543 1.7 1.896 3.136 3.595 3.858.968.414 2.05.59 3.106.482 1.59-.157 3.096-.936 4.136-2.092.995 1.09 2.392 1.856 3.898 2.06 1.346.196 2.753-.08 3.928-.73 1.496-.815 2.65-2.207 3.087-3.802.312-1.108.257-2.306-.15-3.385 2.333-.395 4.337-2.13 5.018-4.288.35-1.086.35-2.27-.003-3.354zm-10.857.233c.216.93.283 1.914-.015 2.834-.272-.92-.26-1.914.015-2.833zm-9.65.35c.137.743.123 1.5.004 2.244-.18-.736-.178-1.51-.005-2.245zm-9.05 3.775c-.815-1.175-1.008-2.69-.62-4.038.3-1.057 1.01-2.008 1.974-2.608 1.174-.746 2.677-.952 4.043-.65 1.16.25 2.22.92 2.886 1.862-.8 1.423-.96 3.167-.376 4.688-1.748.31-3.31 1.37-4.256 2.798-1.458-.12-2.855-.875-3.65-2.053zm7.88.568c-.675.71-1.593 1.196-2.573 1.394.687-.697 1.592-1.19 2.573-1.394zm2.465 9.24c-1.377.33-2.906.14-4.103-.604-.934-.57-1.636-1.466-1.965-2.474-.355-1.09-.313-2.293.118-3.356 1.792-.06 3.505-.924 4.642-2.234.897 1.034 2.148 1.79 3.522 2.093-.62 1.59-.438 3.43.46 4.892-.655.83-1.617 1.43-2.674 1.68zm-.054-9.154l.05-.046c.918.215 1.743.707 2.403 1.348-.925-.198-1.81-.633-2.454-1.303zm3.508 6.08c-.325-.985-.325-2.067 0-3.05.07.442.2.878.2 1.33.047.583-.092 1.153-.2 1.72zm-.02-5.464c-.932-1.02-2.216-1.754-3.613-2.012.588-1.524.424-3.268-.374-4.695.9-1.277 2.514-2.014 4.113-1.993 1.55-.027 3.1.67 4.025 1.866-.868 1.442-1.055 3.243-.457 4.81-1.43.24-2.738.988-3.69 2.023zm3.874-.748c-.732.8-1.776 1.31-2.867 1.49.733-.8 1.773-1.32 2.867-1.49zm4.096 8.384c-1.104.867-2.607 1.202-4.01 1-1.254-.168-2.434-.81-3.194-1.78.885-1.45 1.08-3.268.476-4.85 1.42-.255 2.723-1.007 3.666-2.045 1.12 1.24 2.764 2.06 4.486 2.14.777 1.886.266 4.25-1.424 5.535zm-1.96-8.318c.94.212 1.792.702 2.467 1.357-.937-.207-1.822-.67-2.468-1.356zm8.178-1.14c-.715 1.495-2.344 2.504-4.052 2.61-.902-1.372-2.376-2.396-4.032-2.763.622-1.574.442-3.396-.435-4.85.687-.908 1.747-1.535 2.89-1.765 1.303-.262 2.722-.072 3.855.612.986.58 1.723 1.523 2.047 2.583.357 1.17.276 2.47-.274 3.573z" fill="#fff"/>
</svg>