<svg width="14" height="14" viewBox="0 0 14 14" fill="none" xmlns="http://www.w3.org/2000/svg">
<path d="M4.8965 10.7656L3.23487 9.10397L1.45862 11.246C1.11562 10.9353 0.587122 10.938 0.256372 11.2696C-0.0848776 11.6108 -0.0848776 12.1656 0.256372 12.5068L1.49362 13.7441C1.66425 13.9147 1.88825 13.9996 2.11225 13.9996C2.33625 13.9996 2.56025 13.9147 2.73087 13.7441C3.06162 13.4133 3.06512 12.8857 2.7545 12.5427L4.8965 10.7656Z" fill="#51BF7D"/>
<path d="M11.8125 0.000442505C11.1527 0.000442505 10.5359 0.291818 10.1185 0.799317C10.1071 0.811567 10.0984 0.824692 10.0896 0.837817L3.79312 8.43019C3.79837 8.43457 3.8045 8.43632 3.80887 8.44069L5.55887 10.1907C5.56412 10.1959 5.565 10.2021 5.56937 10.2073L13.1609 3.91082C13.1749 3.90207 13.1871 3.89244 13.2002 3.88194C13.7086 3.46544 14 2.84769 14 2.18794C14 0.982193 13.0191 0.000442505 11.8125 0.000442505Z" fill="#51BF7D"/>
<path d="M1.75 3.50044C2.7165 3.50044 3.5 2.71694 3.5 1.75044C3.5 0.783944 2.7165 0.000442505 1.75 0.000442505C0.783502 0.000442505 0 0.783944 0 1.75044C0 2.71694 0.783502 3.50044 1.75 3.50044Z" fill="#51BF7D"/>
</svg>
