<svg xmlns="http://www.w3.org/2000/svg" viewBox="0 0 32 32">
    <g fill="#FFF">
        <path d="M16 1C7.73 1 1 7.73 1 16s6.73 15 15 15 15-6.73 15-15S24.27 1 16 1zm0 28.492C8.56 29.492 2.508 23.44 2.508 16S8.56 2.508 16 2.508 29.492 8.56 29.492 16 23.44 29.492 16 29.492z"/>
        <path d="M18.325 6.02l.306-1.475c-2.215-.46-4.497-.267-6.598.553l.55 1.404c1.827-.714 3.813-.88 5.743-.48zM24.462 7.693c-.773-.773-1.646-1.43-2.595-1.954l-.728 1.32c.824.454 1.584 1.026 2.256 1.698 2.832 2.832 3.717 7.077 2.257 10.816l1.404.55c1.68-4.297.66-9.176-2.595-12.43zM13.985 25.98l-.306 1.476c.785.163 1.58.244 2.372.244 1.44 0 2.87-.268 4.226-.797l-.55-1.404c-1.827.713-3.813.88-5.743.48zM6.657 12.425l-1.404-.55c-1.68 4.298-.66 9.177 2.595 12.432.773.773 1.646 1.43 2.595 1.953l.728-1.32c-.825-.455-1.584-1.027-2.256-1.7-2.832-2.83-3.718-7.076-2.257-10.815z"/>
        <path d="M16 7.813c-4.514 0-8.187 3.673-8.187 8.187s3.673 8.187 8.187 8.187 8.187-3.673 8.187-8.187S20.514 7.813 16 7.813zm0 9.6c-.78 0-1.414-.633-1.414-1.413s.634-1.414 1.414-1.414 1.414.634 1.414 1.414-.634 1.414-1.414 1.414zm1.462-3.94c-.195-.114-.404-.206-.624-.272V9.376c1.245.157 2.383.656 3.32 1.402l-2.696 2.695zm-2.132-.316c-.282.066-.548.174-.792.315l-2.694-2.694c.977-.78 2.176-1.292 3.486-1.423v3.802zm-1.858 1.38c-.142.245-.25.51-.315.793H9.355c.13-1.31.644-2.51 1.423-3.486l2.694 2.694zm-.27 2.3c.065.22.156.43.27.625l-2.694 2.694c-.746-.935-1.246-2.074-1.402-3.32H13.2zm1.336 1.69c.244.143.51.25.792.316v3.802c-1.31-.13-2.51-.644-3.486-1.423l2.694-2.694zm2.3.272c.22-.067.43-.158.624-.272l2.694 2.694c-.935.746-2.074 1.246-3.32 1.402V18.8zm1.69-1.338c.113-.195.205-.404.27-.624h3.827c-.157 1.245-.656 2.383-1.402 3.32l-2.695-2.696zm.315-2.132c-.066-.282-.174-.548-.315-.792l2.694-2.694c.78.977 1.292 2.176 1.423 3.486h-3.802z"/>
    </g>
</svg>