<svg xmlns="http://www.w3.org/2000/svg" viewBox="0 0 32 32">
    <g fill="#FFF">
        <path d="M30.998 10.556c-.123-1.16-.424-2.242-.893-3.21-.76-1.597-2.002-2.992-3.495-3.927-1.194-.753-2.564-1.227-3.962-1.37-.093-.01-.186-.016-.275-.022-.105-.007-.205-.014-.303-.025L22.05 2h-.738c-.895.06-1.614.18-2.263.38-1.965.576-3.714 1.822-4.926 3.508-.673.927-1.168 1.968-1.47 3.092-.172.62-.278 1.317-.325 2.126l-.002.01v.702c.058 1.146.285 2.216.673 3.177.396 1 .96 1.922 1.68 2.743.718.82 1.555 1.497 2.485 2.014 1.233.696 2.668 1.102 4.15 1.174h.734c.836-.053 1.558-.172 2.205-.365 2.244-.64 4.225-2.174 5.433-4.21.71-1.177 1.162-2.554 1.307-3.982l.005-.02v-1.774l-.002-.018zm-5.44-6.164c.41.233.798.5 1.158.795-.54-.19-1.113-.35-1.716-.475.182-.114.37-.22.56-.32zm-4.11-.757c.046-.04.09-.077.132-.115.057-.05.11-.1.165-.14h.05c.71 0 1.454.115 2.213.344-.685.46-1.228.943-1.656 1.472-.782.925-1.438 2.086-1.948 3.454-.393 1.074-.67 2.16-.823 3.227v.008c-.255.186-.562.405-.897.612-.088-.675-.13-1.355-.125-2.03.003-1.418.215-2.69.63-3.783.4-1.056 1.138-2.054 2.26-3.05zm-5.43 3.338c.24-.71.616-1.42 1.154-2.17l.003-.006c.022-.032.085-.072.147-.11l.07-.046c.644-.413 1.345-.733 2.068-.945-.502.576-.912 1.173-1.222 1.78l-.002.004c-.48.968-.8 2.117-.955 3.417-.152 1.39-.108 2.84.132 4.313-.377.186-.722.345-1.067.475-.32-1.006-.536-2.048-.64-3.105-.12-1.403-.018-2.583.313-3.607zm-1.834 7.3c-.39-1.073-.556-2.21-.478-3.31v-.004c.053-.96.283-1.903.668-2.777-.056.457-.083.936-.08 1.434.013 1.442.266 2.95.753 4.485-.288.074-.577.13-.863.17zm2.213 3.253c-.64-.575-1.18-1.235-1.605-1.966.313-.06.612-.135.88-.206l.007-.002c1.354-.38 2.726-1.025 4.077-1.914.215-.143.44-.302.682-.485.517.08 1.057.2 1.668.37-.278.375-.578.725-.847 1.03-.758.843-1.558 1.546-2.373 2.087-.892.585-1.708.94-2.49 1.086zm5.396 1.05c-.688.403-1.267.653-1.823.788l-.042-.01c-.01 0-.02-.003-.03-.005-.75-.178-1.447-.45-2.083-.81 1.062-.41 2.122-1.073 3.162-1.978.956-.847 1.79-1.783 2.484-2.785.697.266 1.368.606 1.997 1.015.05.036.1.07.15.1.003.004.007.007.012.01-.618.86-1.303 1.64-2.04 2.318-.606.557-1.19 1-1.787 1.356zm1.278.85l-.08.014c.596-.4 1.183-.88 1.773-1.447.706-.683 1.348-1.43 1.913-2.222.306.31.596.684.895 1.15-1.172 1.302-2.8 2.21-4.5 2.507zm6.252-5.58c-.224.712-.52 1.357-.88 1.925-.354-.493-.695-.884-1.05-1.208-1.195-1.088-2.764-1.928-4.663-2.498-.603-.184-1.216-.316-1.735-.414.154-.834.38-1.668.673-2.485 1.248.067 2.442.327 3.552.775.555.227 1.065.5 1.515.814.95.676 1.803 1.672 2.602 3.043l-.015.05zm.35-2.042c-.04-.054-.082-.108-.124-.162-.647-.85-1.317-1.51-2.05-2.024-1.428-.984-3.194-1.588-5.25-1.795.37-.734.808-1.384 1.304-1.937.654.058 1.332.186 2.067.39 1.203.344 2.233.84 3.06 1.475.023.02.045.036.067.054.04.032.095.075.11.098.59 1.2.87 2.558.814 3.902zM14.797 20.016c-.115-.98-.745-1.92-1.67-2.28-.042-.048-.066-.11-.098-.166-.345-.64-1.004-1.082-1.713-1.183-.38-.578-.963-1.033-1.636-1.188-.412-.097-.87-.027-1.212.234-.55.408-1.015.918-1.514 1.384-.03.03-.068.048-.11.054-.575.115-1.144.26-1.712.4-.13.03-.23.126-.34.2-.116.088-.254.16-.322.298-.523.842-1.004 1.71-1.46 2.59-.07.11-.033.244-.026.366.053.667.075 1.335.078 2.004-.68.75-1.377 1.48-2.062 2.223.313.323.632.64.947.96.407-.416.817-.83 1.22-1.25.593.33 1.207.637 1.867.798-.238-.598-.388-1.23-.546-1.853-.066-.263-.126-.53-.128-.804-.006-.662-.02-1.324-.07-1.984-.013-.092.04-.17.08-.247.368-.676.74-1.35 1.145-2.005.633-.162 1.27-.314 1.908-.453.06-.01.126-.035.182.002.5.256 1 .512 1.497.77-.086.128-.173.262-.193.418-.038.218.083.46.29.54.294.127.602.22.894.353.165-.176.304-.375.44-.574l.46.236c-.147.36-.34.715-.643.966-.35.295-.83.392-1.278.35-.666-.056-1.273-.417-1.74-.887.027-.217.07-.43.086-.646.004-.118-.128-.21-.235-.163-.09.023-.115.12-.128.2-.05.297-.102.594-.15.893.195.212.41.402.635.58.204.796.39 1.6.513 2.414.227-.378.482-.742.786-1.06.168-.18.356-.345.578-.455.074.29.194.578.412.79.295.305.71.442 1.116.516.22.54.63.992 1.13 1.28-.457.39-.914.783-1.42 1.106-.13.08-.266.167-.423.18-.507.048-1.018.045-1.526.076-.323.003-.582.23-.825.418-.994.826-1.834 1.818-2.756 2.722.284.285.567.573.852.86.865-.794 1.654-1.668 2.493-2.49.083-.065.15-.174.265-.176.56-.037 1.124-.03 1.683-.093.31-.04.594-.19.863-.345.575-.35 1.096-.78 1.605-1.22.71-.618 1.39-1.274 2.06-1.937.555-.557.793-1.398.674-2.175-.087-.593-.393-1.14-.823-1.547zm-6.683-2.48c.32-.31.636-.626.98-.91.073-.057.152-.135.253-.11.358.06.658.315.864.606.06.1.14.21.132.33-.246.293-.504.576-.763.86-.49-.257-.98-.512-1.466-.775zm1.945 1.026c.235-.267.476-.53.705-.803.42-.118.892.087 1.116.46.096.148.137.322.163.494-.18.21-.35.428-.54.628-.47-.28-.96-.523-1.444-.78zm.974 3.946c-.06.038-.126.01-.187-.005-.206-.057-.414-.155-.543-.334-.126-.175-.16-.395-.186-.604.51-.202.92-.617 1.17-1.107.048-.094.09-.192.162-.27.32-.358.637-.716.94-1.088.095-.162.31-.095.437-.017.37.236.624.655.666 1.095-.036.128-.128.233-.2.343-.384.515-.854.956-1.347 1.36-.287.232-.58.46-.912.625zm2.99.3c-.422.42-.85.83-1.285 1.236-.484-.132-.86-.537-1.076-.983.843-.556 1.61-1.242 2.227-2.048.238.228.43.527.457.864.03.337-.076.696-.323.932z"/>
    </g>
</svg>