<svg xmlns="http://www.w3.org/2000/svg" viewBox="0 0 32 32">
    <g fill="#FFF">
        <path d="M27.518 7.6c1.857.016 3.536-1.608 3.48-3.382-.047-1.65-1.555-3.108-3.273-3.218h-.365c-1.722.108-3.232 1.57-3.276 3.223C24.032 5.98 25.68 7.59 27.518 7.6zm-1.712-4.66c.303-.367.755-.608 1.233-.696.692-.126 1.466.005 2.004.462.67.56.842 1.522.586 2.313-.18.575-.66 1.053-1.257 1.248-.806.266-1.792.142-2.412-.445-.78-.746-.825-2.06-.154-2.883zM30.13 28.744c-.275-.2-.702-.12-.89.156-.448.59-1.214.906-1.968.908-.74.002-1.5-.15-2.142-.514-2.787-1.45-5.574-2.897-8.36-4.346 1.245-1.346 2.467-2.71 3.668-4.092.55-.64 1.147-1.268 1.48-2.044.343-.75.403-1.622.102-2.393-.38-1-1.196-1.777-2.08-2.39-.597-.422-1.205-.83-1.808-1.245.266-.178.535-.352.802-.53.184.103.367.222.587.242.025.334.055.675.186.99.165.346.474.604.78.837.654.48 1.384.852 2.117 1.208.996.477 2.016.904 3.04 1.32.458.187.94.338 1.438.372.45.028.93-.135 1.217-.476.235-.308.177-.724.037-1.058-.29-.686-.883-1.21-1.527-1.598-1.107-.7-2.258-1.33-3.39-1.99.408-.995.775-2.007 1.042-3.045.133-.546.25-1.102.248-1.666-.002-.646-.25-1.284-.674-1.788-.62-.737-1.52-1.232-2.474-1.465-1.27-.258-2.608-.11-3.816.326-1.793.648-3.32 1.827-4.613 3.154l-5.76-3.22c-.153-.082-.306-.19-.49-.197-.265-.018-.527.142-.62.377-.114.254-.01.576.236.722 1.93 1.09 3.88 2.153 5.802 3.255-.582.697-1.145 1.454-1.338 2.344-.232.972-.023 2.006.465 2.878.408.727.978 1.386 1.71 1.834.935.613 1.92 1.156 2.846 1.785.202.152.44.285.565.51.088.223-.108.423-.23.595-1.186 1.458-2.4 2.894-3.606 4.334-3.59-1.86-7.173-3.727-10.76-5.59-.3-.18-.733-.057-.882.248-.16.282-.025.667.278.805 7.857 4.082 15.712 8.17 23.57 12.25.977.388 2.073.558 3.12.382.92-.154 1.766-.67 2.283-1.412.154-.256.066-.61-.19-.776zM18.71 5.418c1.05-.273 2.21-.31 3.23.083.6.237 1.158.657 1.39 1.252.218.545.106 1.14-.006 1.696-.29 1.28-.772 2.51-1.287 3.72-.104.262.022.58.278.715 1.32.744 2.646 1.476 3.923 2.286.36.25.733.505.996.853-.338.01-.66-.108-.968-.226-.975-.392-1.946-.795-2.902-1.228-.69-.32-1.384-.642-2.014-1.062-.202-.148-.443-.304-.5-.557-.147-.695-.09-1.42.023-2.115.045-.257-.052-.55-.296-.686-.212-.13-.5-.116-.7.028-.328.217-.66.43-.984.652-1.555-.853-3.095-1.73-4.647-2.59 1.23-1.245 2.716-2.345 4.465-2.822zM13.83 23.42c1.15-1.372 2.303-2.742 3.435-4.13.32-.378.53-.864.474-1.357-.058-.603-.464-1.128-.97-1.472-.967-.667-2.006-1.233-2.99-1.88-.616-.386-1.12-.94-1.422-1.582-.284-.597-.354-1.29-.165-1.92.21-.733.727-1.33 1.204-1.92 1.45.804 2.89 1.623 4.343 2.422-.362.25-.735.48-1.097.73-.316.218-.315.72 0 .937.952.656 1.922 1.288 2.856 1.97.657.492 1.296 1.128 1.423 1.95.126.81-.3 1.583-.823 2.19-1.454 1.696-2.94 3.37-4.47 5.002-.597-.318-1.2-.627-1.8-.94z"/>
    </g>
</svg>