<svg xmlns="http://www.w3.org/2000/svg" viewBox="0 0 32 32">
    <path d="M31.412 14.755c-.3-.034-.574.185-.672.476-.513 1.227-1.382 2.286-2.477 2.964-1.18.743-2.54 1.087-3.892 1.263-2.024.256-4.067.167-6.102.185 0-1.7.002-3.4 0-5.1.983-.003 1.968.005 2.952-.004.337-.004.623-.338.606-.693 0-.72.002-1.442 0-2.163.014-.375-.31-.708-.664-.682H.778c-.353-.024-.678.31-.66.685-.002.74-.007 1.482.002 2.222.008.357.325.654.658.633.965.002 1.93 0 2.897 0-.002 1.633 0 3.264 0 4.895-1.03-.016-2.057-.04-3.085-.042-.346.003-.625.366-.588.724.016.35.323.643.655.625 6.068.07 12.135.295 18.205.252 2.015-.007 4.04.055 6.04-.25 1.337-.202 2.67-.576 3.853-1.28 1.454-.845 2.604-2.245 3.223-3.872.106-.386-.188-.816-.566-.837zm-14.42 4.888c-4.014-.004-8.027-.104-12.04-.182-.002-1.64 0-3.278 0-4.918h12.04c-.002 1.7 0 3.4 0 5.1zM1.39 13.19v-.836H20.55v.835H1.393z" fill="#FFF"/>
</svg>