<svg xmlns="http://www.w3.org/2000/svg" viewBox="0 0 32 32">
    <g fill="#FFF">
        <path d="M2.7 8.204l17.852 10.918c.41.233.787.536 1.25.658.516.15 1.114.057 1.525-.292.404-.336.6-.857.633-1.365.05-.842.11-1.684.152-2.528-.012-1.24-.76-2.466-1.892-3.036C17.2 10.19 12.178 7.82 7.157 5.452 6.544 5.16 5.86 5.045 5.182 5h-.568c-.698.043-1.394.212-2.012.537-.476.257-.858.746-.835 1.297.01.588.443 1.076.933 1.37zm3.204-1.57c.19.043.376.105.554.186 4.96 2.34 9.918 4.677 14.877 7.018.696.272 1.172.984 1.213 1.707-.035.802-.096 1.602-.14 2.404-.015.103-.005.235-.1.304-.11.068-.234-.013-.333-.06-1.952-1.094-3.863-2.254-5.775-3.412-4.283-2.613-8.542-5.265-12.78-7.946.77-.354 1.66-.38 2.484-.203zM27.7 24.564L2.527 9.527c-.25-.15-.51-.348-.822-.302-.39.03-.685.377-.704.75v.033c.03.25.155.498.386.627C9.32 15.38 17.26 20.11 25.19 24.858c-.32.42-.845.71-1.39.66-.445-.03-.804-.314-1.18-.514-2.846-1.62-5.666-3.28-8.488-4.938-3.9-2.297-7.794-4.606-11.684-6.92-.23-.147-.536-.163-.78-.04-.36.17-.53.63-.362.985.11.27.393.397.63.54 4.536 2.715 9.08 5.418 13.642 8.09 2.305 1.344 4.608 2.692 6.944 3.984.34.202.74.278 1.135.297h.52c.945-.05 1.837-.567 2.343-1.348.28.164.56.335.84.5.32.196.777.112 1.007-.18.25-.29.225-.764-.062-1.022-.183-.156-.402-.26-.604-.386zM30.822 17.954c-.283-.83-.91-1.542-1.707-1.938-.646-.325-1.4-.442-2.116-.32-1.136.175-2.14.977-2.545 2.028-.322.817-.3 1.758.07 2.557.358.8 1.046 1.453 1.877 1.774.83.33 1.797.318 2.616-.04.74-.312 1.353-.904 1.68-1.625.355-.76.398-1.647.124-2.436zm-2.453 2.67c-.867.384-1.966-.045-2.374-.872-.383-.705-.218-1.657.42-2.168.21-.178.47-.302.742-.362.94-.232 1.97.396 2.21 1.306.26.815-.185 1.777-1 2.097z"/>
    </g>
</svg>