<svg xmlns="http://www.w3.org/2000/svg" viewBox="0 0 32 32">
    <g fill="#FFF">
        <path d="M25.885 1H25.2c-1.568.094-3.105.463-4.587.973-2.273.772-4.445 1.805-6.668 2.704-1.642.665-3.318 1.276-5.06 1.608-1.29.247-2.62.317-3.92.106-.105-.415-.083-.93-.457-1.216-.41-.363-1.11-.237-1.377.24-.194.295-.133.663-.058.987 1.526 7.945 3.042 15.89 4.568 23.833.062.397.403.695.786.767h.278c.486-.1.865-.596.76-1.1-.426-2.258-.867-4.513-1.293-6.77 2.04-.404 4-1.123 5.92-1.91 1.932-.79 3.833-1.655 5.777-2.42 1.52-.592 3.066-1.132 4.666-1.456 1.466-.302 2.99-.402 4.467-.128C28.037 11.796 26.998 6.39 25.885 1zM5.727 10.35c.935.062 1.876.005 2.8-.14-.195-.99-.413-1.973-.595-2.963.966-.086 1.914-.303 2.85-.548.198.938.408 1.874.61 2.812.978-.312 1.938-.678 2.89-1.065-.197-.914-.425-1.82-.61-2.738.975-.375 1.934-.79 2.894-1.206.19.834.38 1.67.576 2.502 0 .073.085.204-.03.227-.936.416-1.878.822-2.826 1.212.192.91.424 1.813.61 2.726-.96.39-1.912.797-2.893 1.125-.194-.928-.414-1.85-.604-2.778-.944.283-1.896.542-2.87.69.193.974.407 1.943.6 2.917-.926.186-1.868.314-2.815.312-.198-1.03-.402-2.057-.588-3.087zm6.9 4.7c-.943.37-1.907.69-2.888.936-.195-.956-.407-1.91-.605-2.865.975-.203 1.928-.496 2.87-.818.21.915.404 1.835.62 2.75zm-5.132 4.405c-.203-.994-.405-1.988-.6-2.983.962-.067 1.915-.24 2.848-.483.198.944.41 1.887.605 2.833-.932.284-1.886.5-2.853.632zm3.473 2.166c-.21-.93-.407-1.865-.618-2.797.98-.29 1.938-.645 2.886-1.025.218.904.41 1.813.625 2.718-.95.402-1.912.78-2.892 1.105zm11.582-4.548c-.207-.94-.414-1.88-.612-2.82.94-.285 1.892-.543 2.865-.69.19.99.414 1.97.59 2.96-.963.087-1.91.3-2.843.55zm2.25-3.51c-.203-.97-.403-1.943-.607-2.915-.974.213-1.932.493-2.873.826.205.93.41 1.858.613 2.788-.823.26-1.63.562-2.433.88-.138.047-.266.14-.414.148-.11-.104-.103-.27-.142-.407-.176-.757-.338-1.517-.525-2.27-.847.365-1.694.73-2.538 1.102-.115.06-.257.084-.35.177.19.896.41 1.786.61 2.68.882-.392 1.772-.77 2.66-1.15.066-.024.13-.063.202-.055.068.054.08.143.102.223.186.822.37 1.645.558 2.466-.975.382-1.938.796-2.9 1.213-.208-.895-.413-1.79-.616-2.688-.973.396-1.93.832-2.907 1.22-.202-.914-.417-1.825-.614-2.74.975-.377 1.942-.773 2.897-1.196-.215-.898-.408-1.8-.625-2.697.973-.415 1.938-.847 2.912-1.262-.216-.9-.416-1.803-.626-2.704.964-.414 1.924-.836 2.9-1.224-.192-.913-.42-1.818-.61-2.73.953-.386 1.906-.782 2.9-1.05.197.917.403 1.83.6 2.748-.975.303-1.937.647-2.885 1.028.2.914.41 1.825.614 2.738.948-.354 1.91-.67 2.886-.937-.218-.938-.4-1.883-.62-2.82.937-.29 1.895-.508 2.866-.635.2.993.404 1.985.598 2.98-.962.068-1.914.243-2.847.482.2.955.413 1.907.6 2.863.94-.178 1.89-.315 2.847-.31.2 1.03.398 2.06.594 3.09-.945-.07-1.894-.01-2.827.138z"/>
        <path d="M17.802 9.914c.218.896.412 1.797.623 2.694.954-.41 1.922-.785 2.895-1.144-.208-.916-.41-1.835-.616-2.75-.977.37-1.948.766-2.902 1.2z"/>
    </g>
</svg>