<svg xmlns="http://www.w3.org/2000/svg" viewBox="0 0 32 32">
    <g fill="#FFF">
        <path d="M31 23.892c-.043-2.193-1.468-2.854-2.224-2.9-.428-.032-.853-.115-1.263-.247l-2.486-.8c-.592-.192-1.14-.487-1.63-.878l-4.71-3.753-15.09-14.3L3.283 1c-.73-.027-1.42.363-1.79 1.004l-.284.49c-.205.354-.26.77-.157 1.167.105.4.354.73.703.93.372.216.83.254 1.23.104l.252-.094 11.958 12.186 5.794 5.998c.555.574.985 1.246 1.28 1.996l.583 1.483c.382.972 1.245 1.68 2.252 1.848l1.602.268c.223.037.45.056.676.056.567 0 1.12-.115 1.642-.342 1.137-.493 1.897-1.63 1.938-2.898l.04-1.28v-.022zm-1.75 1.244c-.02.584-.37 1.108-.894 1.335-.31.136-.64.204-.977.204-.135 0-.27-.01-.403-.033l-1.602-.266c-.42-.07-.78-.365-.94-.77l-.582-1.483c-.38-.967-.937-1.834-1.653-2.575l-5.8-6.002-.013-.014 1.192 1.128 4.764 3.8c.652.518 1.38.91 2.168 1.164l2.488.8c.537.174 1.094.283 1.654.324h.004l-.018.002h.025c.158.026.597.185.622 1.157l-.038 1.23zM18.78 23.593c-.604-.486-1.348-.785-2.113-.854-.02-.006-.037.013-.053.024-.066.055-.132.11-.192.172-.167.164-.28.375-.388.582-.324.64-.575 1.32-.916 1.952-.15.278-.316.554-.543.775-.233.227-.49.433-.784.572-.246.117-.518.18-.79.172-.246-.007-.49-.067-.72-.155-.004.505.083 1.01.256 1.483.272.752.767 1.415 1.396 1.888.073-.316.17-.64.383-.89.154-.16.31-.324.493-.45.165-.114.352-.19.545-.242.346-.092.706-.11 1.063-.116.46-.003.917.028 1.374.068.402.035.804.066 1.207.063.338-.004.68-.03 1.006-.128.422-.993.444-2.156.055-3.163-.26-.69-.71-1.304-1.277-1.757z"/>
        <path d="M13.288 26.368c.283-.067.53-.24.73-.45.188-.202.354-.422.498-.657.365-.586.55-1.263.842-1.888.104-.222.23-.435.394-.615-.412.06-.815.18-1.19.367-.642.316-1.2.812-1.598 1.418-.337.51-.56 1.1-.645 1.712.15.03.307.05.453.106.167.05.346.048.515.008zM18.53 29.38c-.648-.072-1.293-.19-1.947-.203-.36-.006-.728.014-1.074.128-.262.085-.51.238-.673.47-.173.238-.24.538-.255.83.33.157.676.273 1.034.335.715.127 1.463.053 2.14-.217.692-.27 1.3-.75 1.754-1.35-.324.043-.654.046-.98.006z"/>
    </g>
</svg>