<svg xmlns="http://www.w3.org/2000/svg" viewBox="0 0 32 32">
    <path d="M27.816 2.002h-23.6c-.368-.016-.744.126-.97.415-.364.42-.316 1.096.09 1.472.224.233.56.316.878.312.94.012 1.88-.013 2.817.01.464 5.54.936 11.083 1.41 16.624.026.488.43.852.88 1.006h.524c.398-.165.78-.474.833-.916.056-.8-.184-1.597-.127-2.395.452-.478.983-.882 1.452-1.345.75.85 1.53 1.683 2.38 2.438-.062.173-.098.36-.098.553V30h3.432v-9.822c0-.173-.027-.34-.077-.496.807-.688 1.547-1.452 2.215-2.27.658.566 1.3 1.147 1.98 1.69-.027.582-.124 1.162-.112 1.745.013.492.444.847.893.996h.444c.467-.148.887-.52.915-1.02.416-5.126.833-10.252 1.247-15.378.04-.417.193-.82.166-1.244.837-.012 1.675.015 2.512-.006.53-.007 1.017-.42 1.083-.935.125-.657-.485-1.3-1.167-1.258zM14.624 4.22c-.724.917-1.545 1.76-2.387 2.576-.85-.83-1.666-1.7-2.467-2.575 1.618-.012 3.236-.006 4.854 0zm1.702 1.5c.6.99 1.255 1.95 2.01 2.835-.764.722-1.562 1.41-2.34 2.117-.728-.762-1.484-1.498-2.192-2.278.897-.84 1.722-1.747 2.522-2.673zM9.72 9.047c-.06-.588-.098-1.177-.16-1.764.337.34.664.688 1.003 1.027-.272.254-.554.5-.844.736zm.558 6.672c-.018-.24-.04-.48-.047-.72.132.15.257.305.384.46-.108.093-.22.18-.336.26zm2.004-1.757c-.69-.805-1.322-1.655-1.96-2.5.61-.5 1.21-1.01 1.803-1.53.736.75 1.492 1.48 2.22 2.24-.688.597-1.367 1.203-2.063 1.79zm3.783 4.184c-.817-.772-1.59-1.59-2.31-2.45.735-.647 1.462-1.306 2.208-1.94.745.716 1.482 1.44 2.26 2.127-.658.808-1.39 1.556-2.158 2.264zm3.54-3.988c-.658-.636-1.332-1.256-1.977-1.905.754-.705 1.532-1.387 2.3-2.08.55.49 1.127.95 1.732 1.38-.653.892-1.342 1.76-2.054 2.606zm2.446 2.212c-.26-.216-.512-.442-.76-.673.292-.357.562-.732.884-1.065-.01.58-.082 1.16-.123 1.738zm.542-6.908c-.348-.243-.673-.516-.992-.796.363-.374.745-.73 1.142-1.07-.04.622-.094 1.244-.15 1.866zm-2.57-2.416c-.73-.886-1.412-1.817-1.945-2.828 1.643-.003 3.286 0 4.93 0-.986.95-1.97 1.905-2.984 2.828z" fill="#FFF"/>
</svg>