<svg width="14" height="14" viewBox="0 0 14 14" fill="none" xmlns="http://www.w3.org/2000/svg">
<path d="M7.36967 7.26293C7.13518 10.53 5.36691 12.454 4.14637 13.3989C4.72295 13.657 5.34067 13.8364 5.98725 13.9309L6.25236 13.7157C7.85701 12.4146 9.79851 10.1004 10.2474 6.45448C9.35404 6.51923 8.38723 6.76246 7.36967 7.26293Z" fill="#51BF7D"/>
<path d="M13.7279 5.0642L13.3735 4.84634C12.1075 4.06589 8.79232 2.49624 4.75708 4.17613C5.26717 4.98283 5.98987 5.77028 7.00918 6.45798C9.93324 5.03095 12.5126 5.60316 13.9545 6.18063C13.909 5.79828 13.832 5.42555 13.7279 5.0642Z" fill="#51BF7D"/>
<path d="M7.00306 0.00088501C5.77376 0.00088501 4.61884 0.32024 3.6144 0.877581L3.6179 0.909079C3.69927 1.64841 3.90926 2.52073 4.3301 3.40705C8.21398 1.7499 11.4976 2.85758 13.1959 3.74041C12.0226 1.51717 9.69089 0.00088501 7.00306 0.00088501Z" fill="#51BF7D"/>
<path d="M2.80857 1.40605C2.23986 1.83303 1.73851 2.34225 1.32291 2.91971L1.36054 3.16382C1.67902 5.21732 2.6782 8.10027 5.5699 10.411C6.04762 9.55006 6.41072 8.48262 6.50084 7.1702C3.97137 5.45443 3.08068 3.17432 2.80857 1.40605Z" fill="#51BF7D"/>
<path d="M0.64396 4.08426C0.234485 4.97495 0 5.96276 0 7.00657C0 9.51329 1.32029 11.7059 3.29854 12.944L3.38254 12.8836C3.87776 12.5292 4.52172 11.9561 5.10093 11.1547C2.28798 8.9402 1.11381 6.22525 0.64396 4.08426Z" fill="#51BF7D"/>
<path d="M13.8819 7.10021C13.1469 6.77473 12.2072 6.49475 11.1311 6.44137C10.7155 10.1074 8.90432 12.5275 7.25592 13.9992C10.9569 13.867 13.923 10.8686 14 7.15183L13.8819 7.10021Z" fill="#51BF7D"/>
</svg>
