<svg xmlns="http://www.w3.org/2000/svg" viewBox="0 0 32 32">
    <g fill="#FFF">
        <path d="M16.276 5.27c1.048-.334 1.7-1.56 1.395-2.632-.26-1.065-1.386-1.813-2.453-1.603-.31.058-.61.18-.867.36-.847.57-1.177 1.782-.736 2.71.423 1 1.65 1.553 2.662 1.166z"/>
        <path d="M30.982 14.752c-.693-2.913-1.4-5.823-2.092-8.735-.03-.183-.15-.327-.3-.427-.62-.45-1.234-.907-1.855-1.357-.06-.056-.168-.1-.155-.198-.012-.505.007-1.012-.005-1.518 0-.22-.15-.433-.366-.48-.216-.052-.43.04-.638.09-1.156.332-2.24.885-3.254 1.533-1.963 1.283-3.69 2.905-5.26 4.65-.182.19-.327.44-.586.532-.43.176-.854.36-1.28.54-.922-1.934-1.82-3.88-2.738-5.815-.217-.478-.85-.71-1.313-.466-1.436.806-2.732 1.837-3.984 2.907-.594.545-1.2 1.076-1.76 1.656-.444.455-.922.88-1.31 1.385-.454.58-.803 1.247-.998 1.96-.243.87-.214 1.805.022 2.673-.695.04-1.392.086-2.09.09-.03.335-.02.67-.013 1.006.833.016 1.665-.044 2.496-.098.326.617.74 1.185 1.238 1.67.946 1.005 1.878 2.023 2.824 3.026.04.064.144.11.126.196-.132.117-.285.206-.43.304-1.586 1.06-3.172 2.117-4.755 3.18-.265.185-.588.338-.727.652-.207.415-.083.972.298 1.238.3.237.73.252 1.062.07 2.488-1.287 4.974-2.582 7.46-3.87.268-.133.51-.33.655-.596.25-.42.234-.974-.01-1.392-.96-1.653-1.926-3.304-2.89-4.955-.036-.066-.057-.14-.078-.214 2.256-.463 4.478-1.158 6.54-2.203.45-.245.928-.427 1.396-.628 1.407-.605 2.816-1.2 4.223-1.805.336-.132.582-.456.622-.82.078-.51-.293-1.017-.786-1.117-.447-.113-.832.198-1.238.323.212-.292.5-.512.752-.767 1.44-1.343 3.01-2.578 4.797-3.403.323-.14.644-.29.99-.36.02.406-.006.813.01 1.22 0 .206.176.337.323.447l1.86 1.357c.082.068.193.126.208.246.36 1.51.724 3.018 1.086 4.527.293 1.27.63 2.53.895 3.807-.172.378-.395.732-.602 1.092-.453-.034-.907-.064-1.36-.103-.876-1.185-1.78-2.348-2.664-3.527-.123-.167-.264-.347-.485-.367-.75-.128-1.465-.562-1.848-1.24-.296-.496-.37-1.087-.378-1.657-.328-.002-.656-.018-.984-.02-.046.876.174 1.78.692 2.49.338.48.817.83 1.325 1.108.07.148-.005.33-.012.49-.475 3.07-2.237 5.81-4.507 7.842-.402.366-.834.695-1.236 1.062-2.333 2.147-3.92 5.034-4.827 8.072-.065.243-.167.484-.157.74.312.05.62.126.927.2.1-.253.148-.523.234-.78.805-2.587 2.108-5.056 3.996-6.997.558-.585 1.21-1.066 1.805-1.61 1.167-1.054 2.195-2.27 3.01-3.625.903-1.492 1.526-3.16 1.778-4.895.22.24.402.512.602.77.693.907 1.38 1.82 2.073 2.728.102.144.27.223.444.224.633.03 1.263.117 1.897.123.19.005.338-.14.422-.298.254-.448.5-.902.757-1.348.092-.156.188-.342.13-.535zM7.622 13.08c-.097-.19-.207-.396-.172-.616.037-.09.112-.153.177-.22 1.536-1.372 3.124-2.705 4.896-3.756.393.712.695 1.474 1.06 2.203.054.156.188.307.17.474-1.94.922-4.03 1.493-6.13 1.916z"/>
    </g>
</svg>