<svg width="14" height="14" viewBox="0 0 14 14" fill="none" xmlns="http://www.w3.org/2000/svg">
<g clip-path="url(#clip0)">
<path d="M5.35953 9.05096C5.81177 9.05096 6.17984 8.68289 6.17984 8.23065C6.17984 7.77841 5.81177 7.41034 5.35953 7.41034C4.90729 7.41034 4.53922 7.77841 4.53922 8.23065C4.53922 8.68289 4.90729 9.05096 5.35953 9.05096Z" fill="#51BF7D"/>
<path d="M6.59 6.59003C7.04224 6.59003 7.41031 6.22195 7.41031 5.76971C7.41031 5.31747 7.04224 4.9494 6.59 4.9494C6.13776 4.9494 5.76968 5.31747 5.76968 5.76971C5.76968 6.22195 6.13776 6.59003 6.59 6.59003Z" fill="#51BF7D"/>
<path d="M4.12906 11.5119C4.5813 11.5119 4.94937 11.1438 4.94937 10.6916C4.94937 10.2393 4.5813 9.87128 4.12906 9.87128C3.67682 9.87128 3.30875 10.2393 3.30875 10.6916C3.30875 11.1438 3.67682 11.5119 4.12906 11.5119Z" fill="#51BF7D"/>
<path d="M7.00015 8.23065C7.00015 8.68289 7.36823 9.05096 7.82047 9.05096C8.27271 9.05096 8.64078 8.68289 8.64078 8.23065C8.64078 7.77841 8.27271 7.41034 7.82047 7.41034C7.36823 7.41034 7.00015 7.77841 7.00015 8.23065Z" fill="#51BF7D"/>
<path d="M8.23062 10.6916C8.23062 11.1438 8.59869 11.5119 9.05093 11.5119C9.50317 11.5119 9.87125 11.1438 9.87125 10.6916C9.87125 10.2393 9.50317 9.87128 9.05093 9.87128C8.59869 9.87128 8.23062 10.2393 8.23062 10.6916Z" fill="#51BF7D"/>
<path d="M6.59 9.87128C6.13776 9.87128 5.76968 10.2393 5.76968 10.6916C5.76968 11.1438 6.13776 11.5119 6.59 11.5119C7.04224 11.5119 7.41031 11.1438 7.41031 10.6916C7.41031 10.2393 7.04224 9.87128 6.59 9.87128Z" fill="#51BF7D"/>
<path d="M1.73776 14.0002H11.5392V8.54382L8.73776 2.99561C8.32835 2.1769 7.50526 1.66815 6.59 1.66815C5.67473 1.66815 4.85164 2.1769 4.44223 2.99561L0.183655 11.4582C0.063385 11.6982 0.000152588 11.9669 0.000152588 12.2352C0.000152588 13.1933 0.779663 14.0002 1.73776 14.0002ZM3.95656 9.06837C3.80905 8.82228 3.7189 8.53795 3.7189 8.23065C3.7189 7.38492 4.36415 6.69502 5.18703 6.60744C5.03952 6.36134 4.94937 6.07701 4.94937 5.76971C4.94937 4.86491 5.6852 4.12909 6.59 4.12909C7.4948 4.12909 8.23062 4.86491 8.23062 5.76971C8.23062 6.07701 8.14047 6.36134 7.99297 6.60744C8.81584 6.69502 9.46109 7.38492 9.46109 8.23065C9.46109 8.53795 9.37094 8.82228 9.22343 9.06837C10.0463 9.15596 10.6916 9.84586 10.6916 10.6916C10.6916 11.5964 9.95573 12.3322 9.05093 12.3322C8.55853 12.3322 8.12135 12.1098 7.82047 11.7654C7.51958 12.1098 7.0824 12.3322 6.59 12.3322C6.0976 12.3322 5.66042 12.1098 5.35953 11.7654C5.05864 12.1098 4.62146 12.3322 4.12906 12.3322C3.22426 12.3322 2.48843 11.5964 2.48843 10.6916C2.48843 9.84586 3.13368 9.15596 3.95656 9.06837Z" fill="#51BF7D"/>
<path d="M13.1798 0.000183105C12.7267 0.000183105 12.3595 0.367401 12.3595 0.820496V2.48846H14.0002V0.820496C14.0002 0.367401 13.6329 0.000183105 13.1798 0.000183105Z" fill="#51BF7D"/>
<path d="M12.3595 3.30878H14.0002V14.0002H12.3595V3.30878Z" fill="#51BF7D"/>
</g>
<defs>
<clipPath id="clip0">
<rect width="14" height="14" fill="white" transform="translate(0.000152588 0.000183105)"/>
</clipPath>
</defs>
</svg>
