<svg xmlns="http://www.w3.org/2000/svg" viewBox="0 0 32 32">
    <g fill="#FFF">
        <path d="M30.65 22.78c-1.45-1.175-3.11-2.078-4.88-2.602-1.292-.386-2.65-.512-3.99-.396.256-.594.25-1.28.05-1.89-.195-.623-.527-1.184-.856-1.738-1.414-2.356-2.906-4.662-4.287-7.04-.276-.458-.674-.865-1.18-1.03-.54-.18-1.133-.06-1.63.2-2.165 1.152-4.346 2.274-6.467 3.51-.33.198-.68.377-.957.654-.43.42-.726 1.012-.72 1.633 0 .328.118.653.338.89.423.464 1.08.644 1.678.562.428-.05.813-.262 1.198-.447 1.547-.76 3.065-1.584 4.63-2.302.158-.07.402-.212.5.018.307.805.685 1.578 1.006 2.376-3.23 2.002-6.46 4-9.69 6-1.247-.405-2.45-.996-3.49-1.825-.35-.24-.87.035-.902.468v.152c.033.202.157.37.32.482.98.755 2.092 1.314 3.237 1.744 2.6.962 5.43 1.2 8.16.805 1.91-.27 3.764-.837 5.63-1.322 1.74-.447 3.534-.813 5.333-.648 2.177.22 4.238 1.19 5.984 2.532.222.153.4.414.687.434.312.035.596-.217.65-.53v-.175c-.034-.218-.182-.386-.35-.51zm-9.86-3.776c-.074.37-.314.67-.564.93-.047.058-.124.06-.19.077-1.956.35-3.85.987-5.786 1.425-1.177.268-2.374.46-3.58.497-1.223.034-2.45-.07-3.652-.312 3.038-1.877 6.073-3.76 9.11-5.637.256-.134.398-.468.298-.752-.375-.906-.794-1.793-1.157-2.705-.17-.463-.476-.926-.955-1.072-.452-.143-.912.046-1.32.236-1.66.767-3.27 1.646-4.918 2.44-.273.12-.56.26-.862.237-.19-.024-.29-.23-.32-.405-.036-.204.094-.386.233-.512.247-.222.544-.372.824-.543 2.184-1.273 4.43-2.424 6.658-3.61.21-.106.48-.183.68-.014.288.243.436.61.633.926 1.196 2.03 2.462 4.016 3.686 6.03.338.566.692 1.126.976 1.725.147.32.273.678.204 1.04z"/>
        <path d="M24.79 17.838c1.114-.035 2.152-.736 2.728-1.713.403-.674.58-1.503.43-2.287-.308-1.727-2.013-3.11-3.715-2.815-1.133.19-2.125 1.035-2.576 2.123-.267.632-.332 1.357-.165 2.026.364 1.512 1.78 2.715 3.298 2.666zm-1.692-4.907c.275-.33.66-.55 1.07-.64.66-.148 1.405-.027 1.93.437.642.554.828 1.52.62 2.333-.15.64-.625 1.184-1.228 1.396-.807.29-1.808.128-2.387-.558-.675-.813-.678-2.152-.005-2.967z"/>
    </g>
</svg>