<svg xmlns="http://www.w3.org/2000/svg" viewBox="0 0 32 32">
    <g fill="#FFF">
        <path d="M30.25 29.007c-1.547-2.128-3.096-4.254-4.646-6.38.152-.14.313-.273.476-.403 1.453-1.215 2.53-2.71 3.24-4.302.406.063.87.083 1.206-.15.48-.287.624-.876.3-1.29-.18-.27-.55-.38-.86-.522.576-2.444.338-5.02-.73-7.352-.97-2.13-2.665-4.07-4.952-5.38-1.214-.7-2.598-1.197-4.05-1.454-.1-.184-.2-.38-.385-.52-.326-.246-.826-.325-1.238-.187-.308.09-.517.31-.69.526-2.22.04-4.398.674-6.18 1.753-2.33 1.39-4.004 3.436-4.924 5.66-.87 2.118-1.082 4.414-.634 6.62.146.768.41 1.517.698 2.258-1.56-.077-3.115-.196-4.673-.28-.577-.027-1.13.352-1.195.823-.103.497.356 1.008.964 1.082 1.908.272 3.82.54 5.73.808.23.036.47.048.688.118.17.163.3.354.455.526 1.41 1.605 3.35 2.93 5.63 3.613 1.98.608 4.186.704 6.23.265.758-.147 1.472-.405 2.182-.662 1.913 2.134 3.843 4.257 5.756 6.39.324.408 1.028.556 1.546.317.533-.22.762-.8.512-1.238-.132-.223-.306-.426-.458-.64zM8.217 17.977c-1.34-2.743-1.408-5.877-.262-8.672.785-1.906 2.176-3.668 4.103-4.93 1.64-1.077 3.7-1.767 5.813-1.787.095 1.308.156 2.618.24 3.926.044.317-.118.614-.223.912l-1.922 5.24c-.14.378.006.828.403 1.064.227.162.55.162.793.3.84.524 1.432 1.286 1.717 2.113-.03.423-.358.787-.638 1.13-.122.183-.404.17-.62.207-1.518.2-3.035.404-4.553.606-.422.05-.843.145-1.273.113-1.19-.075-2.384-.15-3.577-.223zm8.08 6.008c-2.496-.405-4.707-1.676-6.227-3.324.73.07 1.448.244 2.185.267 2.365-.152 4.73-.314 7.094-.465.205-.043.302.136.41.242.788.897 1.627 1.764 2.388 2.676-1.807.7-3.886.94-5.85.605zm3.433-14.74c.145-.48.346-.946.508-1.422.114-.347.315-.686.28-1.055-.07-1.323-.164-2.644-.227-3.966.888.147 1.725.454 2.514.81 2.32 1.085 4.064 2.883 5.094 4.885 1.135 2.215 1.455 4.704.938 7.067-1.43-.5-2.84-1.032-4.267-1.538-.176-.066-.363-.12-.522-.212-.184-.34-.32-.7-.533-1.03-.835-1.438-2.188-2.645-3.785-3.54zm5.24 12.502c-.547-.73-1.065-1.475-1.614-2.205-.084-.117-.178-.23-.24-.356.01-.1.113-.177.17-.262.705-.815 1.124-1.78 1.246-2.773 1.23.448 2.464.888 3.69 1.34-.267.704-.668 1.37-1.11 2.012-.59.82-1.29 1.594-2.143 2.245z"/>
        <path d="M15.032 12.286c1.006-.402 1.596-1.383 1.363-2.282-.18-.814-1-1.5-1.99-1.664-1.09-.21-2.302.252-2.815 1.066-.494.73-.378 1.694.273 2.333.73.76 2.128 1 3.17.546z"/>
    </g>
</svg>