<svg xmlns="http://www.w3.org/2000/svg" viewBox="0 0 32 32">
    <path d="M30.818 13.664c-.37-2.378-1.33-4.66-2.767-6.59-1.622-2.186-3.847-3.927-6.37-4.956-2.196-.91-4.608-1.26-6.974-1.066-3.23.273-6.35 1.636-8.755 3.81-2.137 1.928-3.71 4.482-4.447 7.266-.445 1.613-.57 3.304-.473 4.97.194 2.704 1.146 5.347 2.716 7.558 1.37 1.93 3.193 3.538 5.292 4.632 2.11 1.113 4.493 1.703 6.88 1.71 2.822.03 5.64-.78 8.032-2.28 2.424-1.52 4.407-3.742 5.62-6.335 1.287-2.692 1.712-5.774 1.248-8.72zm-8.125-9.67c1.97 1.096 3.66 2.686 4.875 4.583 1.224 1.89 1.963 4.09 2.135 6.338-.017.108.06.27-.052.34-.59.105-1.197.11-1.797.118.06-.424.298-.81.31-1.24-.033-.538-.838-.757-1.13-.293-.226.464-.3.986-.486 1.465-.388-.03-.775-.082-1.155-.168.084-.425.365-.862.198-1.297-.193-.432-.874-.45-1.088-.03-.14.328-.22.677-.327 1.015-.428-.077-.83-.25-1.234-.405.092-.458.453-.832.467-1.305-.013-.514-.73-.758-1.064-.376-.25.344-.362.768-.57 1.138-.46-.237-.89-.52-1.33-.79.238-.328.583-.557.825-.88.19-.26.088-.663-.176-.835-.212-.144-.525-.166-.72.018-.33.284-.612.618-.94.902-.285-.22-.545-.47-.804-.72-.135-.14-.295-.27-.36-.458.356-.205.896-.337.958-.815.072-.423-.378-.804-.782-.674-.347.123-.634.368-.974.506-.108.045-.156-.098-.215-.157-.212-.306-.43-.61-.61-.936.308-.158.685-.188.947-.424.348-.357.08-1.046-.427-1.05-.383.028-.72.244-1.092.328l-.057-.03c-.166-.315-.313-.646-.413-.99.363-.084.855-.064 1.05-.447.21-.372-.072-.892-.5-.91-.32.014-.628.112-.94.176-.06-.274-.208-.572-.15-.844.393-.138.83-.12 1.21-.292.456-.245.385-1.013-.13-1.138-.447-.07-.88.14-1.326.18-.034-.427-.07-.854-.07-1.28 2.74-.27 5.55.328 7.946 1.673zm-4.908 25.652c-1.216.106-2.448.166-3.66-.032-4.24-.535-8.122-3.224-10.166-6.97-1.08-1.948-1.684-4.165-1.7-6.39.678-.103 1.363-.155 2.047-.123-.06.456-.327.873-.31 1.337.105.522.894.665 1.156.187.19-.47.296-.972.455-1.454.412 0 .826.05 1.22.174-.055.31-.167.605-.245.908-.108.36.21.765.586.748.243.015.492-.132.58-.363.134-.33.193-.685.342-1.01.434.13.865.273 1.284.448-.11.46-.454.84-.492 1.315-.023.52.705.803 1.05.42.268-.36.383-.806.6-1.195.49.248.962.535 1.407.857-.268.302-.587.557-.847.867-.268.358 0 .938.452.958.355.05.588-.254.81-.473.202-.184.37-.405.596-.563.286.162.506.425.75.644.173.184.385.337.503.564-.3.176-.65.292-.896.545-.313.382 0 1.037.504 1 .46-.06.803-.434 1.235-.573.298.378.61.767.793 1.215-.295.095-.602.168-.873.32-.388.25-.325.936.12 1.087.48.166.9-.252 1.368-.284.22.324.348.705.473 1.074-.364.1-.847.055-1.073.416-.242.362.014.922.46.94.338-.006.664-.122 1-.16.092.283.157.573.21.867-.434.15-.912.145-1.332.336-.44.248-.35.98.133 1.122.473.088.93-.172 1.403-.174.05.47.07.945.06 1.416zm9.437-5.707c-1.548 2.175-3.73 3.905-6.226 4.87-.63.254-1.288.433-1.944.607-.027-.49-.04-.98-.095-1.467.37-.102.773-.113 1.12-.288.413-.25.334-.935-.118-1.093-.404-.117-.806.104-1.21.126-.05-.302-.158-.593-.173-.9.416-.085.848-.117 1.25-.262.347-.13.5-.606.28-.91-.14-.224-.424-.32-.68-.268-.415.08-.823.193-1.242.257-.184-.416-.34-.844-.534-1.257.358-.14.73-.24 1.078-.405.347-.18.396-.708.113-.968-.15-.182-.407-.223-.622-.152-.38.12-.748.277-1.128.396-.088-.03-.108-.138-.16-.204-.232-.41-.51-.79-.777-1.177.348-.25.83-.35 1.068-.728.27-.446-.24-1.04-.724-.877-.395.155-.732.43-1.124.59l-.055-.015c-.46-.49-.934-.974-1.45-1.41.216-.34.704-.538.684-.996.028-.452-.513-.76-.897-.544-.295.204-.503.506-.79.72-.602-.34-1.16-.77-1.794-1.06.08-.444.5-.818.384-1.293-.123-.444-.77-.583-1.06-.223-.21.294-.297.655-.486.962-.486-.19-.977-.365-1.475-.52.083-.345.212-.675.3-1.017.08-.31-.11-.662-.42-.75-.298-.105-.653.065-.762.36-.13.357-.215.73-.326 1.094-.413-.05-.82-.15-1.234-.17.05-.307.226-.6.176-.917-.085-.42-.66-.625-.987-.348-.353.282-.263.82-.52 1.15-.787-.008-1.573.033-2.355.134.038-1.184.32-2.35.69-3.47.98-2.862 2.94-5.372 5.475-7.024 1.518-.997 3.236-1.68 5.02-2.012.03.466.032.933.082 1.398-.343.066-.693.12-1.023.24-.414.195-.43.838-.04 1.068.398.266.867-.107 1.273-.03.08.253.117.516.187.77-.41.142-.855.148-1.26.303-.367.156-.456.695-.184.978.138.164.365.226.572.188.42-.062.83-.178 1.248-.24.157.396.327.787.487 1.183-.4.21-.934.212-1.227.588-.287.41.093 1.025.587.958.425-.102.82-.303 1.24-.42.265.45.558.885.856 1.314-.307.243-.72.337-.98.638-.3.408.076 1.07.59.968.43-.11.77-.434 1.187-.583.24.157.398.426.62.615.243.277.567.484.79.774-.175.287-.546.442-.628.79-.104.376.224.798.62.758.49 0 .677-.618 1.082-.743.54.364 1.087.72 1.67 1.01-.09.412-.463.762-.38 1.204.088.452.72.65 1.034.302.234-.283.315-.655.504-.965.455.19.922.354 1.398.486-.06.415-.298.793-.298 1.215.034.497.727.742 1.06.368.292-.36.273-.865.48-1.27.365.088.738.14 1.11.16-.003.355-.28.717-.074 1.06.208.384.818.414 1.055.045.167-.308.203-.668.344-.99.755.047 1.507-.07 2.26-.086-.095 2.64-.974 5.25-2.512 7.405z" fill="#FFF"/>
</svg>