<svg width="14" height="14" viewBox="0 0 14 14" fill="none" xmlns="http://www.w3.org/2000/svg">
<g clip-path="url(#clip0)">
<path d="M13.9351 11.6801L12.8117 9.22215C12.8117 9.22215 13.2841 7.15983 13.2845 7.12931C13.2873 6.95301 13.2202 6.783 13.0975 6.65657L10.8777 4.36392C10.9427 4.4671 10.9942 4.58076 11.0214 4.70696C11.0848 5.00108 11.0205 5.29218 10.8665 5.52457L11.1975 6.90249C11.2915 7.29464 11.0715 7.70055 10.6889 7.8333C10.3679 7.94339 10.5761 7.87194 9.35821 8.28993C9.13836 8.40919 8.99539 8.63412 8.98422 8.88494L8.84728 11.9456C8.82957 12.3403 9.13537 12.6745 9.53008 12.6922C9.54076 12.6926 9.55173 12.6928 9.56247 12.6928C9.94294 12.6928 10.2595 12.3931 10.2766 12.0094L10.395 9.3623L11.4357 8.82483L11.3628 9.12733C11.3253 9.28287 11.3412 9.44659 11.4077 9.59214L12.6338 12.2749C12.7975 12.633 13.2207 12.793 13.5818 12.6281C13.9412 12.464 14.0993 12.0394 13.9351 11.6801Z" fill="#51BF7D"/>
<path d="M9.53542 6.12493L9.53218 6.46535L7.31779 7.22523C7.00645 7.33189 6.84063 7.67099 6.94751 7.98256C7.03231 8.22983 7.26353 8.3854 7.51134 8.3854C7.57542 8.3854 7.64084 8.37492 7.70481 8.35278L10.3179 7.45628C10.5568 7.37429 10.7182 7.15071 10.7206 6.89807L10.732 5.68896C10.5906 5.83124 10.4092 5.93649 10.1987 5.98196L9.53542 6.12493Z" fill="#51BF7D"/>
<path d="M6.09476 3.36351C6.58214 3.64181 7.18924 3.50229 7.51715 3.06428C7.55536 3.26969 7.65125 3.46669 7.80756 3.62829C8.23044 4.06445 8.92742 4.07565 9.36385 3.65275C9.80071 3.22984 9.81161 2.53358 9.389 2.09667C8.96635 1.66007 8.26957 1.64862 7.83291 2.07152C7.78916 2.11412 7.75256 2.16118 7.71716 2.20866C7.66015 1.90102 7.47779 1.61882 7.18505 1.45159C6.65693 1.1505 5.98481 1.33446 5.68394 1.86241C5.38311 2.39058 5.56658 3.06242 6.09476 3.36351Z" fill="#51BF7D"/>
<path d="M7.46451 8.95897C7.46336 8.95831 5.54983 7.76832 5.54865 7.7676L6.22422 6.58275L6.50275 6.99333C6.54352 7.05336 6.59843 7.0995 6.65645 7.14049C6.78079 6.97628 6.95359 6.84589 7.16319 6.77394L8.2407 6.40412L8.19482 6.41417C8.08418 6.43791 7.97406 6.42393 7.87811 6.38087L6.65341 5.83036L5.70029 5.40183L7.9829 5.91557C8.0698 5.93489 8.15736 5.9344 8.23955 5.91648L10.0984 5.51572C10.4202 5.44656 10.6246 5.12942 10.5553 4.80734C10.4861 4.48552 10.1703 4.28057 9.84688 4.35041L8.11656 4.72348L5.96203 4.23842L6.65485 4.25266C6.61244 4.21701 6.56777 4.18348 6.51791 4.15508L6.16629 3.95435C5.94802 3.82999 5.68912 3.79715 5.44668 3.86352C5.20427 3.92989 4.99814 4.08986 4.87355 4.30807L2.02274 9.55165L0.195337 11.4864C-0.0759293 11.7735 -0.0631541 12.2262 0.224246 12.4975C0.511129 12.769 0.964292 12.756 1.23536 12.4686L3.137 10.4554C3.18638 10.4035 3.22738 10.3441 3.25904 10.2798L4.10646 8.55495C4.10832 8.5561 4.10976 8.55774 4.11162 8.55892L6.3779 9.96804L6.41051 11.9891C6.417 12.3801 6.73606 12.6929 7.12566 12.6929C7.12963 12.6929 7.13359 12.6929 7.13755 12.6929C7.53246 12.6864 7.8476 12.361 7.84128 11.9658L7.80212 9.55492C7.79822 9.31179 7.67107 9.08755 7.46451 8.95897Z" fill="#51BF7D"/>
</g>
<defs>
<clipPath id="clip0">
<rect width="14" height="14" fill="white"/>
</clipPath>
</defs>
</svg>
