<svg xmlns="http://www.w3.org/2000/svg" viewBox="0 0 32 32">
    <g fill="#FFF">
        <path d="M4.545 2.026c-.282-.568-.865-.95-1.49-1.026h-.37c-.41.064-.81.228-1.107.522-.328.305-.516.734-.578 1.174v26.622c.063.407.228.804.52 1.1.304.33.733.52 1.173.582h.376c.648-.086 1.25-.5 1.514-1.107.204-.42.17-.9.166-1.354V3.343c.012-.446.014-.916-.205-1.318zm-1.78.234c.367-.08.75.242.733.62.002 6.04.002 12.08 0 18.12H2.252c-.006-6.022 0-12.043-.003-18.065-.028-.314.2-.625.515-.675zm.732 26.867c.013.355-.33.666-.682.618-.31-.022-.575-.307-.563-.62-.006-1.46 0-2.917-.002-4.375.417-.002.833.003 1.25 0-.003 1.458.002 2.918-.003 4.377zM2.25 23.5c.003-.417-.003-.834 0-1.25.415-.002.83.004 1.245-.002.013.417-.003.834.006 1.252-.416-.003-.833.002-1.25 0zM8.044 1H7.67c-.364.065-.725.2-1.006.446-.435.36-.68.924-.665 1.487V28.54c0 .45-.04.922.158 1.34.268.62.888 1.053 1.558 1.12h.34c.408-.06.81-.223 1.107-.514.39-.36.6-.89.587-1.42V3.053c.014-.356-.043-.72-.21-1.038C9.252 1.45 8.67 1.07 8.043 1zM8.5 29.124c.012.362-.34.672-.696.622-.305-.033-.566-.313-.553-.625-.003-1.456.003-2.912-.003-4.368.418-.004.835-.003 1.253-.004-.002 1.46 0 2.918 0 4.376zm0-5.624c-.417 0-.834-.002-1.25 0v-1.25H8.5c-.002.416 0 .833 0 1.25zm0-2.5H7.25c.002-6.04-.003-12.082.002-18.122-.016-.35.315-.662.664-.625.344.01.617.343.582.682.004 6.022 0 12.043.003 18.065zM30.778 2.394c-.38-.382-.763-.76-1.14-1.144-.115-.12-.257-.21-.42-.25h-.194c-.258.05-.434.254-.54.482-2.282 4.12-4.573 8.237-6.86 12.356-2.316-4.168-4.63-8.338-6.948-12.506-.092-.177-.268-.286-.457-.332h-.192c-.175.044-.325.15-.446.28-.386.394-.786.777-1.17 1.174-.195.197-.206.515-.073.75.41.818.816 1.64 1.232 2.457.16.35.67.45.952.19.274-.252.527-.525.792-.786 1.87 3.35 3.73 6.706 5.593 10.06-1.606 2.902-3.223 5.796-4.83 8.696-.175.296-.05.72.266.863.3.16.698.018.843-.285l4.435-7.984c1.48 2.66 2.957 5.324 4.437 7.986.112.214.344.37.59.35.316-.01.593-.288.597-.603.013-.22-.128-.407-.225-.592-1.563-2.81-3.123-5.62-4.685-8.43 1.866-3.352 3.725-6.71 5.593-10.06.255.253.504.513.765.76.195.2.527.23.76.08.135-.08.214-.22.283-.356.29-.59.59-1.174.88-1.763.13-.27.286-.53.38-.817v-.192c-.04-.145-.113-.28-.222-.384zM14.295 4.318c-.224-.438-.44-.88-.662-1.32.114-.115.23-.23.343-.347.237.426.475.85.71 1.278l-.39.39zm14.658 0c-.13-.128-.26-.26-.39-.392.238-.424.464-.854.71-1.273.112.117.225.232.338.347-.216.44-.437.88-.657 1.32zM14.788 24.826c-.57-.26-1.268-.41-1.85-.107-.493.25-.732.83-.678 1.363.073.854.557 1.61 1.12 2.23-.35.59-.708 1.174-1.053 1.765-.223.367.048.87.466.922h.188c.187-.053.358-.163.452-.337l.915-1.527c.59.377 1.29.7 2.008.58.484-.072.905-.442 1.03-.917.174-.64-.047-1.31-.356-1.87-.52-.898-1.304-1.655-2.242-2.104zm1.416 3.595c-.013.092-.127.09-.197.083-.372-.043-.708-.23-1.017-.432.112-.2.25-.388.343-.6.122-.297-.035-.67-.332-.793-.236-.107-.54-.046-.71.152-.09.104-.154.227-.226.344-.287-.397-.572-.844-.57-1.35.35-.08.69.084.988.25.637.378 1.177.93 1.523 1.587.11.238.225.494.2.76zM29.872 28.314c.524-.584.976-1.277 1.098-2.066.08-.496-.042-1.063-.45-1.39-.423-.357-1.03-.36-1.54-.22-.79.223-1.474.725-2.034 1.316-.48.513-.882 1.12-1.066 1.804-.127.492-.122 1.067.206 1.482.28.376.77.534 1.226.503.577-.038 1.11-.3 1.59-.605.318.52.625 1.048.943 1.567.09.158.26.247.43.295h.18c.276-.05.496-.267.544-.543v-.19c-.044-.12-.1-.232-.163-.34-.323-.536-.648-1.072-.965-1.613zm-.687-1.14c-.118-.2-.233-.44-.474-.513-.345-.136-.774.105-.826.476-.066.36.226.637.38.932-.36.233-.767.468-1.212.426-.058-.457.197-.877.44-1.24.408-.565.946-1.052 1.585-1.336.21-.093.44-.143.668-.108.026.512-.277.964-.56 1.364z"/>
    </g>
</svg>