<svg width="48" height="48" viewBox="0 0 48 48" fill="none" xmlns="http://www.w3.org/2000/svg">
<path d="M39.3597 17.7446L24.348 10.1397C24.0642 9.99576 23.7284 9.99576 23.4449 10.1397L8.36623 17.7786C7.95347 17.9875 7.73826 18.4522 7.84553 18.9023C7.95313 19.3517 8.35523 19.6692 8.81797 19.6692H11.5977V32.9465H11.112C10.56 32.9465 10.1126 33.3939 10.1126 33.946V37.4719C10.1126 38.0239 10.56 38.4714 11.112 38.4714H36.6809C37.2333 38.4714 37.6803 38.0239 37.6803 37.4719V33.946C37.6803 33.3939 37.2333 32.9465 36.6809 32.9465H36.4537V19.6692H38.9749C38.9776 19.6695 38.9802 19.6695 38.9816 19.6692C39.5333 19.6692 39.981 19.2218 39.981 18.6698C39.981 18.2517 39.7242 17.8935 39.3597 17.7446ZM23.8963 12.1515L34.7907 17.6703H13.0022L23.8963 12.1515ZM34.4549 19.6692V32.9305H31.8374V19.6692H34.4549ZM29.8385 19.6692V32.9305H27.1884V19.6692H29.8385ZM25.1895 19.6692V32.9305H22.5394V19.6692H25.1895ZM20.5405 19.6692V32.9305H17.8904V19.6692H20.5405ZM15.8916 19.6692V32.9305H13.5962V19.6692H15.8916ZM35.6815 36.4725H12.1111V34.9454H35.6811V36.4725H35.6815Z" fill="#129A48"/>
</svg>
