<svg width="17" height="17" viewBox="0 0 17 17" fill="none" xmlns="http://www.w3.org/2000/svg">
<g clip-path="url(#clip0)">
<path d="M12.7274 12.3599H13.8163C14.2994 13.1789 15.1801 13.6816 16.1319 13.6816H16.2582V9.04651H16.1319C15.1801 9.04651 14.2994 9.54925 13.8163 10.3682H12.7274V12.3599Z" fill="#E8E8E8"/>
<path d="M12.1213 7.37976H1.01252V15.3484H12.1213V7.37976Z" fill="#E8E8E8"/>
<path d="M9.65325 6.77247C9.80047 6.78398 9.94746 6.78483 10.0917 6.77446C11.6533 6.66225 12.8853 5.36163 12.8853 3.77348C12.8853 2.11167 11.5364 0.764526 9.87241 0.764526C8.29686 0.764526 7.004 1.97236 6.871 3.51141C6.85593 3.68578 6.85595 3.8612 6.871 4.03555C6.95551 5.01443 7.53299 5.90805 8.38829 6.39252C8.76616 6.60656 9.21067 6.73782 9.65325 6.77247ZM9.87241 2.47189C10.5922 2.47189 11.1757 3.05464 11.1757 3.77349C11.1757 4.49235 10.5922 5.0751 9.87241 5.0751C9.1526 5.0751 8.56909 4.49235 8.56909 3.77349C8.56909 3.05464 9.1526 2.47189 9.87241 2.47189Z" fill="#E8E8E8"/>
<path d="M3.03074 6.77247C3.17796 6.78398 3.32495 6.78483 3.46921 6.77446C5.03078 6.66225 6.2628 5.36163 6.2628 3.77348C6.2628 2.11167 4.91387 0.764526 3.2499 0.764526C1.67435 0.764526 0.381486 1.97236 0.248487 3.51141C0.233421 3.68578 0.233438 3.8612 0.248487 4.03555C0.332997 5.01443 0.910485 5.90805 1.76578 6.39252C2.14365 6.60656 2.58816 6.73782 3.03074 6.77247ZM3.2499 2.47189C3.9697 2.47189 4.55322 3.05464 4.55322 3.77349C4.55322 4.49235 3.9697 5.0751 3.2499 5.0751C2.53009 5.0751 1.94658 4.49235 1.94658 3.77349C1.94658 3.05464 2.53009 2.47189 3.2499 2.47189Z" fill="#E8E8E8"/>
</g>
<defs>
<clipPath id="clip0">
<rect width="16.021" height="16" fill="white" transform="translate(0.237183 0.0563965)"/>
</clipPath>
</defs>
</svg>
