<svg width="167" height="32" viewBox="0 0 167 32" fill="none" xmlns="http://www.w3.org/2000/svg">
<g filter="url(#filter0_d)">
<rect width="167" height="30" fill="white"/>
</g>
<path d="M112.4 17.2122L111.351 18.2608L105.156 12.0486L106.204 11L112.4 17.2122Z" fill="#06662C"/>
<path d="M101.047 18.254L100 17.2041L106.204 11L107.251 12.05L101.047 18.254Z" fill="#06662C"/>
<path d="M0 0H100L83.5 30H0V0Z" fill="#129A48"/>
<path d="M20.7402 16.6406C20.6641 17.5371 20.3682 18.334 19.8525 19.0312C19.3428 19.7285 18.6689 20.2646 17.8311 20.6396C16.999 21.0146 16.0967 21.1934 15.124 21.1758C13.7881 21.1465 12.7363 20.7158 11.9688 19.8838C11.2012 19.0518 10.7822 17.9238 10.7119 16.5C10.6592 15.5508 10.7617 14.5166 11.0195 13.3975C11.2832 12.2783 11.708 11.3057 12.2939 10.4795C12.8857 9.64746 13.5801 9.02637 14.377 8.61621C15.1797 8.2002 16.0557 8.00098 17.0049 8.01855C18.3994 8.04199 19.501 8.46094 20.3096 9.27539C21.124 10.0898 21.5664 11.2119 21.6367 12.6416L18.6396 12.6328C18.6514 11.8535 18.5107 11.2969 18.2178 10.9629C17.9248 10.6289 17.4619 10.4502 16.8291 10.4268C15.2471 10.374 14.2832 11.6045 13.9375 14.1182C13.7793 15.2549 13.7002 16.0664 13.7002 16.5527C13.6709 17.9941 14.2041 18.7354 15.2998 18.7764C16.0088 18.7998 16.5742 18.627 16.9961 18.2578C17.418 17.8828 17.6875 17.3555 17.8047 16.6758L20.7402 16.6406ZM26.7959 21C26.7139 20.7715 26.6729 20.4844 26.6729 20.1387C26.0225 20.8535 25.2461 21.1992 24.3438 21.1758C23.5176 21.1641 22.832 20.8887 22.2871 20.3496C21.7422 19.8105 21.4873 19.1572 21.5225 18.3896C21.5518 17.3584 21.9824 16.5674 22.8145 16.0166C23.6465 15.46 24.7832 15.1816 26.2246 15.1816L27.1914 15.1992L27.2969 14.6631L27.332 14.1973C27.3086 13.6641 27.042 13.3887 26.5322 13.3711C25.8994 13.3594 25.5098 13.708 25.3633 14.417L22.4629 14.4258C22.4922 13.7871 22.7002 13.2334 23.0869 12.7646C23.4736 12.29 23.998 11.9268 24.6602 11.6748C25.3281 11.417 26.0371 11.2969 26.7871 11.3145C27.5078 11.332 28.1377 11.4844 28.6768 11.7715C29.2217 12.0527 29.6289 12.4482 29.8984 12.958C30.168 13.4619 30.2705 14.0449 30.2061 14.707L29.4941 19.1807L29.4502 19.7256C29.4268 20.1592 29.4824 20.5283 29.6172 20.833L29.6084 21H26.7959ZM25.1436 19.084C25.7354 19.1074 26.2539 18.8467 26.6992 18.3018L26.9893 16.7725L26.2422 16.7637C25.7793 16.7754 25.3809 16.9131 25.0469 17.1768C24.7129 17.4346 24.5166 17.7891 24.458 18.2402C24.4287 18.4805 24.4727 18.6797 24.5898 18.8379C24.7129 18.9902 24.8975 19.0723 25.1436 19.084ZM36.1475 18.2754C36.2236 17.8887 35.9248 17.5986 35.251 17.4053L34.627 17.2471C33.6074 16.9775 32.8604 16.5996 32.3857 16.1133C31.9111 15.627 31.6885 15.0498 31.7178 14.3818C31.7471 13.4678 32.1514 12.7266 32.9307 12.1582C33.7158 11.584 34.6709 11.3027 35.7959 11.3145C36.915 11.3262 37.8203 11.6104 38.5117 12.167C39.209 12.7236 39.5635 13.4736 39.5752 14.417L36.6924 14.4082C36.7158 13.6582 36.3848 13.2832 35.6992 13.2832C35.4062 13.2832 35.1338 13.3711 34.8818 13.5469C34.6299 13.7168 34.4805 13.9453 34.4336 14.2324C34.334 14.707 34.7529 15.0322 35.6904 15.208C36.5049 15.4014 37.1348 15.627 37.5801 15.8848C38.0254 16.1367 38.3652 16.4502 38.5996 16.8252C38.834 17.2002 38.9424 17.6514 38.9248 18.1787C38.9072 18.7529 38.7197 19.2656 38.3623 19.7168C38.0049 20.168 37.4863 20.5283 36.8066 20.7979C36.1328 21.0674 35.4004 21.1934 34.6094 21.1758C33.9238 21.1699 33.2852 21.0264 32.6934 20.7451C32.1074 20.4639 31.6475 20.083 31.3135 19.6025C30.9854 19.1162 30.8154 18.5596 30.8037 17.9326L33.4932 17.9502C33.5049 18.7939 33.9268 19.21 34.7588 19.1982C35.1162 19.1982 35.4209 19.1191 35.6729 18.9609C35.9248 18.7969 36.083 18.5684 36.1475 18.2754ZM44.0049 12.5273C44.7139 11.7012 45.5312 11.2939 46.457 11.3057C47.4121 11.3291 48.1182 11.6777 48.5752 12.3516C49.0381 13.0254 49.2051 13.9395 49.0762 15.0938L48.0918 21H45.2002L46.1934 15.0586C46.2168 14.8594 46.2227 14.6719 46.2109 14.4961C46.1699 13.916 45.8477 13.6172 45.2441 13.5996C44.7227 13.5879 44.2598 13.7783 43.8555 14.1709L42.6426 21H39.751L42.0977 7.5H44.9893L44.0049 12.5273ZM55.1846 21.1758C53.8545 21.1465 52.7881 20.707 51.9854 19.8574C51.1826 19.0078 50.7285 17.8711 50.623 16.4473C50.5645 15.7441 50.6201 14.918 50.79 13.9688C50.96 13.0137 51.2617 12.1348 51.6953 11.332C52.1289 10.5293 52.6709 9.86133 53.3213 9.32812C54.4111 8.43164 55.665 7.99805 57.083 8.02734C57.9561 8.04492 58.7178 8.24707 59.3682 8.63379C60.0244 9.01465 60.5488 9.56543 60.9414 10.2861C61.334 11.0068 61.5625 11.8271 61.627 12.7471C61.6738 13.3975 61.6328 14.1387 61.5039 14.9707C61.3809 15.7969 61.1494 16.5879 60.8096 17.3438C60.4756 18.0938 60.042 18.7559 59.5088 19.3301C58.9756 19.9043 58.3457 20.3613 57.6191 20.7012C56.8984 21.0352 56.0869 21.1934 55.1846 21.1758ZM58.6123 12.7207C58.5537 11.2559 57.9854 10.4941 56.9072 10.4355C56.0752 10.3945 55.3867 10.7256 54.8418 11.4287C54.2969 12.126 53.9365 13.1572 53.7607 14.5225C53.6494 15.3662 53.6084 16.0195 53.6377 16.4824C53.6963 17.9707 54.2705 18.7354 55.3604 18.7764C56.0752 18.8115 56.6904 18.5566 57.2061 18.0117C57.7217 17.4609 58.0938 16.6641 58.3223 15.6211C58.5508 14.5723 58.6475 13.6055 58.6123 12.7207ZM67.7969 19.9629C67.0879 20.8008 66.2324 21.208 65.2305 21.1846C64.2988 21.1729 63.5957 20.8477 63.1211 20.209C62.6523 19.5703 62.4707 18.7148 62.5762 17.6426L63.6045 11.4902H66.4961L65.4502 17.6777C65.4326 17.8477 65.4326 18.0029 65.4502 18.1436C65.4912 18.624 65.7754 18.873 66.3027 18.8906C66.9121 18.9141 67.4307 18.6738 67.8584 18.1699L69.0361 11.4902H71.9453L70.293 21H67.6035L67.7969 19.9629ZM77.2715 9.12598L76.8584 11.4902H78.3789L78.0186 13.5469H76.498L75.7598 17.915C75.7188 18.2139 75.7363 18.4395 75.8125 18.5918C75.8945 18.7441 76.0938 18.8262 76.4102 18.8379C76.5332 18.8438 76.7852 18.8291 77.166 18.7939L76.9551 20.9385C76.4688 21.0967 75.9502 21.1699 75.3994 21.1582C74.5029 21.1465 73.832 20.8828 73.3867 20.3672C72.9414 19.8516 72.7598 19.1514 72.8418 18.2666L73.6152 13.5469H72.4375L72.7891 11.4902H73.9668L74.3799 9.12598H77.2715Z" fill="white"/>
<defs>
<filter id="filter0_d" x="0" y="0" width="167" height="32" filterUnits="userSpaceOnUse" color-interpolation-filters="sRGB">
<feFlood flood-opacity="0" result="BackgroundImageFix"/>
<feColorMatrix in="SourceAlpha" type="matrix" values="0 0 0 0 0 0 0 0 0 0 0 0 0 0 0 0 0 0 127 0"/>
<feOffset dy="2"/>
<feColorMatrix type="matrix" values="0 0 0 0 0 0 0 0 0 0 0 0 0 0 0 0 0 0 0.25 0"/>
<feBlend mode="normal" in2="BackgroundImageFix" result="effect1_dropShadow"/>
<feBlend mode="normal" in="SourceGraphic" in2="effect1_dropShadow" result="shape"/>
</filter>
</defs>
</svg>
