<svg width="42" height="28" viewBox="0 0 42 28" fill="none" xmlns="http://www.w3.org/2000/svg">
<path d="M26.25 28L42 0H0V28H26.25Z" fill="#129A48"/>
<path d="M10.8984 9.62695C10.8431 10.1185 10.6755 10.5547 10.3955 10.9355C10.1156 11.3132 9.75098 11.6045 9.30176 11.8096C8.85254 12.0114 8.36751 12.1074 7.84668 12.0977C7.37793 12.0879 6.9694 11.9805 6.62109 11.7754C6.27279 11.5671 5.99772 11.2676 5.7959 10.877C5.59733 10.4831 5.48503 10.0306 5.45898 9.51953C5.4362 9.11914 5.47689 8.62109 5.58105 8.02539C5.68848 7.42969 5.87728 6.90072 6.14746 6.43848C6.4209 5.97624 6.74479 5.61003 7.11914 5.33984C7.64648 4.96224 8.2487 4.77995 8.92578 4.79297C9.66146 4.80599 10.2441 5.03385 10.6738 5.47656C11.1068 5.91602 11.3444 6.52799 11.3867 7.3125L9.96094 7.30762C9.96094 6.8584 9.87142 6.52962 9.69238 6.32129C9.51335 6.11296 9.23503 6.00228 8.85742 5.98926C8.36914 5.97298 7.96712 6.14714 7.65137 6.51172C7.33887 6.8763 7.12891 7.40853 7.02148 8.1084C6.91732 8.78874 6.87174 9.29818 6.88477 9.63672C6.90104 10.0664 6.99707 10.3838 7.17285 10.5889C7.34863 10.7907 7.5944 10.8965 7.91016 10.9062C8.34635 10.9225 8.69466 10.82 8.95508 10.5986C9.21875 10.374 9.3929 10.0534 9.47754 9.63672L10.8984 9.62695ZM15.6787 10.5352H13.1982L12.4658 12H10.8887L14.6875 4.89062H16.0107L17.3633 12H15.9033L15.6787 10.5352ZM13.7842 9.34863H15.498L15.0977 6.70215L13.7842 9.34863ZM21.9922 10.1006C22.0605 9.71322 21.8701 9.41699 21.4209 9.21191L20.4785 8.83594C19.3848 8.34766 18.8656 7.67546 18.9209 6.81934C18.9437 6.4222 19.0739 6.07064 19.3115 5.76465C19.5492 5.45866 19.8828 5.2194 20.3125 5.04688C20.7422 4.87109 21.2061 4.78646 21.7041 4.79297C22.391 4.80599 22.946 5.01107 23.3691 5.4082C23.7923 5.80208 24.0007 6.33105 23.9941 6.99512H22.5684C22.5846 6.67285 22.513 6.4222 22.3535 6.24316C22.1973 6.06413 21.9531 5.97135 21.6211 5.96484C21.2956 5.95833 21.0124 6.0332 20.7715 6.18945C20.5306 6.34245 20.3874 6.55404 20.3418 6.82422C20.2799 7.17904 20.5176 7.46061 21.0547 7.66895L21.6992 7.91309L22.0703 8.08398C23.0306 8.55924 23.4798 9.22656 23.418 10.0859C23.3887 10.5059 23.2536 10.8688 23.0127 11.1748C22.7751 11.4775 22.4495 11.7103 22.0361 11.873C21.626 12.0358 21.1735 12.1123 20.6787 12.1025C20.1742 12.0928 19.7249 11.987 19.3311 11.7852C18.9372 11.5833 18.6377 11.2985 18.4326 10.9307C18.2406 10.5889 18.151 10.1982 18.1641 9.75879L19.5947 9.76367C19.5492 10.5352 19.9284 10.9274 20.7324 10.9404C21.0807 10.9404 21.3672 10.8639 21.5918 10.7109C21.8164 10.5579 21.9499 10.3545 21.9922 10.1006ZM29.7217 12H28.291L28.8184 8.95312H26.0596L25.5273 12H24.0967L25.332 4.89062H26.7627L26.2598 7.77148H29.0234L29.5215 4.89062H30.9521L29.7217 12ZM7.95898 23.0977C7.48698 23.0879 7.07031 22.9772 6.70898 22.7656C6.35091 22.5508 6.06608 22.2432 5.85449 21.8428C5.64616 21.4391 5.52572 20.9769 5.49316 20.4561C5.45736 19.9222 5.51432 19.3525 5.66406 18.7471C5.8138 18.1416 6.05469 17.6094 6.38672 17.1504C6.71875 16.6914 7.10775 16.348 7.55371 16.1201C8.00293 15.8923 8.48796 15.7832 9.00879 15.793C9.4873 15.8027 9.9056 15.9167 10.2637 16.1348C10.6217 16.3496 10.9033 16.6605 11.1084 17.0674C11.3135 17.471 11.4307 17.93 11.46 18.4443C11.4925 19.0173 11.4307 19.6064 11.2744 20.2119C11.1182 20.8174 10.8757 21.3415 10.5469 21.7842C10.2181 22.2269 9.83236 22.5589 9.38965 22.7803C8.9502 23.0016 8.47331 23.1074 7.95898 23.0977ZM9.98535 19.25L10.0244 18.7861C10.057 18.2067 9.97884 17.7673 9.79004 17.4678C9.60449 17.1683 9.32129 17.012 8.94043 16.999C8.34473 16.9795 7.87109 17.2432 7.51953 17.79C7.17122 18.3369 6.97428 19.1019 6.92871 20.085C6.89616 20.6611 6.97266 21.1055 7.1582 21.418C7.34375 21.7272 7.63184 21.8883 8.02246 21.9014C8.53353 21.9242 8.95671 21.7256 9.29199 21.3057C9.62728 20.8825 9.84701 20.2852 9.95117 19.5137L9.98535 19.25ZM18.335 15.8906L17.5342 20.5781C17.4235 21.3626 17.098 21.9827 16.5576 22.4385C16.0173 22.8942 15.3467 23.1156 14.5459 23.1025C14.0446 23.0928 13.6084 22.9837 13.2373 22.7754C12.8695 22.5638 12.5977 22.2676 12.4219 21.8867C12.2461 21.5026 12.1859 21.068 12.2412 20.583L13.0371 15.8906H14.4678L13.6719 20.5879C13.6491 20.7702 13.6475 20.9411 13.667 21.1006C13.7321 21.6279 14.0462 21.9014 14.6094 21.9209C15.013 21.9339 15.3434 21.8232 15.6006 21.5889C15.8577 21.3545 16.0238 21.0192 16.0986 20.583L16.8994 15.8906H18.335ZM24.5117 17.0771H22.4023L21.377 23H19.9463L20.9717 17.0771H18.8867L19.0967 15.8906H24.7217L24.5117 17.0771Z" fill="white"/>
</svg>
