<svg width="15" height="15" viewBox="0 0 15 15" fill="none" xmlns="http://www.w3.org/2000/svg">
<g clip-path="url(#clip0)">
<path d="M13.4401 3.12187H11.5807V1.25024C11.5807 0.586119 11.0163 0.0471191 10.3229 0.0471191H1.95569C1.26225 0.0471191 0.697876 0.586119 0.697876 1.25024V9.65943C0.697876 10.0081 0.834376 10.3371 1.08331 10.5865C1.33225 10.835 1.66169 10.9719 2.01081 10.9719C2.36125 10.9719 2.69069 10.8354 2.93306 10.5935L3.86975 9.68918C4.02156 10.1901 4.50019 10.5602 5.07288 10.5602H8.80256C9.09394 10.5602 9.36913 10.674 9.58088 10.8853L12.4557 13.663C12.7042 13.9106 13.0341 14.0471 13.3845 14.0471C13.7336 14.0471 14.0631 13.9111 14.3129 13.6608C14.5614 13.4123 14.6979 13.0833 14.6979 12.7346V4.32499C14.6979 3.66218 14.1335 3.12187 13.4401 3.12187ZM2.32013 9.96874C2.15344 10.1354 1.86994 10.1354 1.70194 9.96787C1.61794 9.88299 1.57288 9.77624 1.57288 9.65943V1.25024C1.57288 1.06868 1.74481 0.922119 1.95569 0.922119H10.3229C10.5338 0.922119 10.7057 1.06912 10.7057 1.25024V6.28149C10.7057 6.46262 10.5338 6.60962 10.3229 6.60962H6.59319C6.06775 6.60962 5.57294 6.81437 5.20675 7.18143L2.32013 9.96874ZM13.8229 12.7346C13.8229 12.8519 13.7774 12.9586 13.6947 13.0422C13.5245 13.2115 13.248 13.215 13.0699 13.0378L10.1947 10.2614C9.82281 9.88824 9.32844 9.68481 8.80256 9.68481H5.07288C4.862 9.68481 4.69006 9.53693 4.69006 9.35668V8.89599L5.81969 7.80487C6.02663 7.59837 6.30138 7.48462 6.59319 7.48462H10.3229C11.0163 7.48462 11.5807 6.94518 11.5807 6.28149V3.99687H13.4401C13.6509 3.99687 13.8229 4.14387 13.8229 4.32499V12.7346ZM6.16663 5.29712C6.52888 5.29712 6.82288 5.00312 6.82288 4.64087C6.82288 4.27862 6.52888 3.98462 6.16663 3.98462C5.80438 3.98462 5.51038 4.27818 5.51038 4.64087C5.51038 5.00356 5.80438 5.29712 6.16663 5.29712ZM3.54163 3.98462C3.17938 3.98462 2.88538 4.27818 2.88538 4.64087C2.88538 5.00356 3.17938 5.29712 3.54163 5.29712C3.90388 5.29712 4.19788 5.00312 4.19788 4.64087C4.19788 4.27862 3.90388 3.98462 3.54163 3.98462ZM8.79163 5.29712C9.15388 5.29712 9.44788 5.00312 9.44788 4.64087C9.44788 4.27862 9.15388 3.98462 8.79163 3.98462C8.42938 3.98462 8.13538 4.27818 8.13538 4.64087C8.13538 5.00356 8.42938 5.29712 8.79163 5.29712Z" fill="#222222"/>
</g>
<defs>
<clipPath id="clip0">
<rect width="14" height="14" fill="white" transform="translate(0.697876 0.0471191)"/>
</clipPath>
</defs>
</svg>
