<svg width="13" height="13" viewBox="0 0 13 13" fill="none" xmlns="http://www.w3.org/2000/svg">
<g clip-path="url(#clip0)">
<path d="M11.5285 3.84292C10.8958 2.36792 9.8207 1.2952 8.33339 0.660864C7.59001 0.343826 6.81121 0.181885 5.99758 0.181885C5.18409 0.181885 4.41103 0.342296 3.66849 0.660864C2.19349 1.29351 1.11362 2.36555 0.479838 3.84292C0.16225 4.58307 0.00744629 5.3585 0.00744629 6.17199C0.00744629 6.98564 0.16225 7.7675 0.479838 8.50781C1.11362 9.98518 2.19362 11.0636 3.66849 11.6965C4.41117 12.015 5.18407 12.1753 5.99758 12.1753C6.81109 12.1753 7.59002 12.0133 8.33327 11.6965C9.82058 11.0621 10.8957 9.98267 11.5285 8.50781C11.847 7.76513 12.0074 6.98564 12.0074 6.17199C12.0074 5.3585 11.8472 4.58558 11.5285 3.84292ZM10.5707 8.82275C10.0997 9.63049 9.45441 10.2713 8.64174 10.7451C7.834 11.2161 6.94896 11.4536 5.99772 11.4536C5.28262 11.4536 4.60027 11.3159 3.95066 11.0337C3.30107 10.7517 2.74021 10.3809 2.27103 9.91185C1.80186 9.44267 1.42843 8.87634 1.14919 8.22563C0.87078 7.5773 0.735858 6.88725 0.735858 6.17201C0.735858 5.22064 0.969603 4.34009 1.43796 3.53458C1.90798 2.72614 2.55337 2.08465 3.36029 1.61223C4.16707 1.13984 5.04637 0.90357 5.99758 0.90357C6.94896 0.90357 7.83384 1.14124 8.6416 1.61223C9.45427 2.08604 10.0981 2.72751 10.5705 3.53456C11.0429 4.34149 11.2791 5.22064 11.2791 6.17199C11.2791 7.12338 11.0445 8.00993 10.5707 8.82275Z" fill="#ED1C24"/>
<path d="M6.37816 6.11845V2.71983C6.37816 2.51646 6.20096 2.35242 5.99757 2.35242C5.80735 2.35242 5.63672 2.51646 5.63672 2.71983V6.17092C5.63672 6.17751 5.64988 6.20382 5.64988 6.22343C5.63672 6.34155 5.66962 6.43996 5.74829 6.51876L7.71013 8.48046C7.8414 8.61173 8.08411 8.61173 8.21529 8.48046C8.36615 8.32958 8.35623 8.11065 8.21529 7.96871L6.37816 6.11845Z" fill="#ED1C24"/>
</g>
<defs>
<clipPath id="clip0">
<rect width="12" height="12" fill="white" transform="translate(0.00744629 0.17749)"/>
</clipPath>
</defs>
</svg>
