<svg width="25" height="24" viewBox="0 0 25 24" fill="none" xmlns="http://www.w3.org/2000/svg">
<path d="M6.60874 21.8312C5.50571 20.5794 4.40271 19.2775 3.70076 17.7253C2.99885 16.0729 2.79829 14.1702 3.14927 12.3677C3.50024 10.5651 4.30241 8.86265 5.4556 7.4106C5.35534 8.6624 5.80658 9.96424 6.6589 10.9156C6.15751 8.51218 6.95972 5.90845 8.5641 4.00575C10.1685 2.10305 12.3746 0.8512 14.6808 0C13.5277 1.20172 13.3773 3.10442 13.8285 4.70674C14.2798 6.30901 15.2324 7.71102 16.0847 9.16308C16.937 10.6151 17.7392 12.1173 17.7894 13.7696C18.2406 12.9184 18.742 12.0672 19.0428 11.1159C19.3437 10.1645 19.4941 9.16308 19.2434 8.21171C20.1459 9.3133 20.6473 10.4148 20.8979 11.8169C21.1486 13.2189 21.0985 14.6709 20.9481 16.0729C20.7475 17.6252 20.3464 19.2275 19.4941 20.5293C18.4914 22.0815 16.887 23.1831 15.1322 23.7839C12.0236 24.3347 8.96518 23.8841 6.60874 21.8312Z" fill="#06662C"/>
<path d="M10.4192 23.6838C14.5305 25.2862 18.5916 20.4292 16.3354 16.6739C16.3354 16.6238 16.2853 16.6238 16.2853 16.5737C16.4858 18.6266 15.9844 20.1288 15.0318 20.98C15.5332 19.7783 15.1822 18.3763 14.5806 17.1746C13.9789 16.023 13.1266 14.9715 12.4748 13.8699C11.823 12.7182 11.3217 11.4163 11.6225 10.1145C10.4192 11.0158 9.56687 12.3677 9.2159 13.8198C8.86492 15.2718 9.06548 16.8742 9.71729 18.2261C8.96523 17.6753 8.41373 16.774 8.36358 15.8227C7.56136 16.774 7.06002 18.0258 7.11013 19.2776C7.11017 21.2304 8.6644 22.9829 10.4192 23.6838Z" fill="#0BD75C"/>
</svg>
