<svg width="141" height="39" viewBox="0 0 141 39" fill="none" xmlns="http://www.w3.org/2000/svg">
<g filter="url(#filter0_d)">
<path d="M6.09707 22.6897C6.09707 22.6897 34.0089 22.6897 47.8655 22.6897C53.1462 22.6897 58.4268 22.6897 63.7074 22.6897C64.1441 22.6897 64.3029 22.7688 64.2632 23.2431C64.2235 24.35 64.2235 25.4569 64.2632 26.5638C64.2632 26.9591 64.1441 27.0381 63.7868 27.0381C58.7444 27.0381 53.702 27.0381 48.6199 27.0381C33.056 27.0381 1.37231 27.0381 1.37231 27.0381L6.09707 22.6897Z" fill="#129A48"/>
<path d="M125.169 5.57282H68.3133L73.0381 1.02673C73.0381 1.02673 111.074 1.02673 129.815 1.02673C129.973 1.02673 130.291 1.02673 130.291 1.02673L125.169 5.57282Z" fill="#222222"/>
<path d="M21.1447 12.1744C18.5242 14.5858 16.0229 16.9182 13.4421 19.2901C13.4421 16.9182 13.4421 14.6254 13.4421 12.1744C10.8217 14.5858 8.32031 16.9182 5.73956 19.3691C5.73956 18.6971 5.73956 18.1437 5.73956 17.5902C5.73956 16.2066 5.73956 14.823 5.73956 13.4394C5.73956 13.2418 5.85867 12.9651 5.97779 12.8465C10.2261 8.89335 14.4347 4.94023 18.683 1.02664C18.8021 0.908047 18.9212 0.789453 19.1595 0.591797C19.1595 2.56836 19.1595 4.42632 19.1595 6.44242C21.502 4.50539 23.6857 2.60789 25.9488 0.631328C25.9488 6.7982 25.9488 12.8465 25.9488 18.9343C24.3607 18.9343 22.7725 18.9343 21.1447 18.9343C21.1447 16.7601 21.1447 14.5463 21.1447 12.1744Z" fill="#222222"/>
<path d="M89.6739 9.17015C92.2547 11.5816 94.7957 13.9534 97.4559 16.4044C97.4559 16.1276 97.4956 15.9695 97.4956 15.8509C97.4956 13.7953 97.4956 11.7397 97.4956 9.68405C97.4956 9.24921 97.6147 9.13062 98.0515 9.13062C99.2426 9.17015 100.394 9.17015 101.585 9.13062C102.022 9.13062 102.101 9.24921 102.101 9.68405C102.101 14.2697 102.101 18.8158 102.101 23.4014C102.101 24.5083 102.101 25.6547 102.101 26.7615C102.101 26.9197 102.101 27.0778 102.101 27.394C98.0912 23.6781 94.2002 20.0808 90.2298 16.3648C90.2298 16.7206 90.1901 16.8787 90.1901 17.0764C90.1901 20.1994 90.1901 23.3223 90.1901 26.4848C90.1901 27.0778 90.1901 27.0778 89.5945 27.0778C88.4034 27.0778 87.2123 27.0778 86.0212 27.0778C85.7433 27.0778 85.6241 26.9987 85.6241 26.6825C85.6241 22.2154 85.6241 17.7879 85.6241 13.3209C85.6241 13.1628 85.6639 12.9651 85.783 12.8861C87.0535 11.6211 88.3637 10.3956 89.6739 9.17015Z" fill="#129A48"/>
<path d="M45.0862 18.9739C43.5775 18.9739 42.0688 18.9739 40.5203 18.9739C40.5203 18.1833 40.5203 17.4322 40.5203 16.602C37.7807 16.602 35.0809 16.602 32.381 16.602C32.381 16.5625 32.3413 16.523 32.3413 16.4834C32.4604 16.4044 32.5795 16.3253 32.6589 16.2067C34.0089 14.9417 35.3985 13.6372 36.7484 12.4117C36.9073 12.2536 37.1852 12.1745 37.3837 12.135C38.3763 12.0955 39.4086 12.135 40.4409 12.135C40.4409 10.5933 40.4409 9.13063 40.4409 7.54938C36.1926 11.463 31.984 15.3766 27.696 19.3297C27.696 19.1716 27.6562 19.053 27.6562 18.9344C27.6562 17.1159 27.6562 15.2975 27.6562 13.4791C27.6562 13.2814 27.7754 13.0442 27.8945 12.9256C32.0237 9.01204 36.1132 5.13798 40.2424 1.22439C40.3615 1.1058 40.5203 1.02673 40.6394 1.02673C42.0688 1.02673 43.5378 1.02673 45.0068 1.02673C45.0863 6.99595 45.0862 12.9652 45.0862 18.9739Z" fill="#222222"/>
<path d="M55.965 11.7792C53.1857 14.3487 50.4461 16.9182 47.6272 19.5273C47.6272 19.2901 47.5875 19.1715 47.5875 19.0529C47.5875 17.1949 47.5875 15.3765 47.5875 13.5185C47.5875 13.3209 47.7066 13.0442 47.8654 12.886C49.255 11.5815 50.6447 10.3165 52.0343 9.05152C52.1931 8.89339 52.3519 8.73527 52.5504 8.57714C50.9226 6.95636 49.3344 5.37511 47.7066 3.75433C48.7786 2.72652 49.8506 1.69871 50.9623 0.670898C52.6299 2.25215 54.2577 3.8334 55.965 5.45417C56.5208 4.94027 57.037 4.46589 57.5531 3.99152C58.506 3.0823 59.4986 2.17308 60.4515 1.3034C60.5706 1.1848 60.8089 1.06621 60.9677 1.06621C63.072 1.06621 65.1763 1.06621 67.3203 1.06621C67.36 1.06621 67.4394 1.06621 67.5982 1.10574C64.8586 3.63574 62.1985 6.08667 59.4986 8.61667C60.0545 9.17011 60.6103 9.68401 61.1662 10.2375C62.1191 11.1467 63.072 12.0559 64.0249 13.0046C64.144 13.1232 64.2631 13.3209 64.2631 13.479C64.2631 15.416 64.2631 17.3926 64.2631 19.3296C64.2631 19.3692 64.2631 19.4482 64.2234 19.6063C61.4441 16.9182 58.7045 14.3487 55.965 11.7792Z" fill="#222222"/>
<path d="M120.524 9.17001C119.571 10.0792 118.697 10.9094 117.784 11.7395C117.387 12.1348 116.95 12.4906 116.553 12.8859C116.275 13.2022 115.958 13.3208 115.521 13.3208C113.456 13.2813 111.431 13.3208 109.367 13.3208C108.97 13.3208 108.771 13.4394 108.811 13.8742C108.851 14.4277 108.851 14.9416 108.811 15.495C108.771 15.9298 108.97 16.0484 109.327 16.0484C111.352 16.0484 113.377 16.0484 115.402 16.0484C116.037 16.0484 116.037 16.0484 116.037 16.7205C116.037 17.7087 116.037 18.7366 116.037 19.7248C116.037 20.1597 115.878 20.2783 115.481 20.2783C113.456 20.2783 111.431 20.2783 109.406 20.2783C108.811 20.2783 108.811 20.2783 108.811 20.9108C108.811 21.3852 108.811 21.8595 108.811 22.2944C108.811 22.6502 108.93 22.7687 109.248 22.7687C111.312 22.7687 113.417 22.7687 115.481 22.7687C115.918 22.7687 116.037 22.8873 115.997 23.3222C115.958 24.4291 115.997 25.5755 115.997 26.6823C115.997 26.9986 115.878 27.1172 115.561 27.1172C111.908 27.1172 108.255 27.1172 104.602 27.1172C104.285 27.1172 104.166 27.0381 104.166 26.6823C104.166 22.3734 104.166 18.0645 104.166 13.7952C104.166 13.5975 104.245 13.3998 104.404 13.2813C105.793 11.9767 107.143 10.7117 108.533 9.44673C108.652 9.32813 108.89 9.20954 109.049 9.20954C112.781 9.20954 116.474 9.20954 120.206 9.20954C120.365 9.13048 120.404 9.13048 120.524 9.17001Z" fill="#129A48"/>
<path d="M71.8069 9.24915C71.8069 13.7557 71.8069 18.2227 71.8069 22.6898C72.0054 22.6898 72.1642 22.7293 72.3627 22.7293C73.792 22.7293 75.1817 22.7293 76.611 22.7293C76.9287 22.7293 77.0478 22.8084 77.0478 23.1641C77.0478 24.3105 77.0478 25.4569 77.0478 26.5638C77.0478 26.9196 76.9684 27.0777 76.5713 27.0777C73.6332 27.0777 70.6554 27.0777 67.7174 27.0777C67.36 27.0777 67.2409 26.9987 67.2409 26.6033C67.2409 22.334 67.2409 18.0251 67.2409 13.7557C67.2409 13.558 67.3203 13.3209 67.4394 13.2023C68.8291 11.8977 70.2187 10.6327 71.5686 9.36774C71.648 9.32821 71.6877 9.32821 71.8069 9.24915Z" fill="#129A48"/>
<path d="M83.44 9.24915C83.44 9.4468 83.44 9.60493 83.44 9.76305C83.44 15.337 83.44 20.9504 83.44 26.5243C83.44 26.9591 83.3209 27.0777 82.9238 27.0777C81.7327 27.0382 80.5416 27.0382 79.3108 27.0777C78.9932 27.0777 78.8344 26.9987 78.8344 26.6429C78.8344 22.334 78.8344 18.0251 78.8344 13.7557C78.8344 13.558 78.9535 13.3209 79.0726 13.2023C80.4225 11.9373 81.8121 10.6723 83.2018 9.40727C83.2812 9.32821 83.3209 9.28868 83.44 9.24915Z" fill="#129A48"/>
<path d="M2.52363 31.5052H6.69254L6.49402 32.4935H3.51623L3.31771 33.6004H4.74705C5.2632 33.6004 5.69994 33.719 5.97787 33.9562C6.2558 34.1934 6.41461 34.5492 6.41461 35.0235C6.41461 35.4188 6.33521 35.7351 6.13669 36.0118C5.93817 36.2885 5.66024 36.4862 5.3029 36.6443C4.94557 36.8024 4.50883 36.8815 3.99268 36.8815H1.49133L2.52363 31.5052ZM4.07208 35.9723C4.42942 35.9723 4.70735 35.8932 4.86616 35.7351C5.06468 35.577 5.14409 35.3793 5.14409 35.1026C5.14409 34.9049 5.06468 34.7468 4.94557 34.6677C4.82646 34.5887 4.58823 34.5096 4.31031 34.5096H3.1589L2.88097 35.9327H4.07208V35.9723Z" fill="#222222"/>
<path d="M12.4897 31.5052L9.47217 35.8142C9.19424 36.2095 8.87661 36.5257 8.55898 36.7234C8.24135 36.921 7.92372 37.0001 7.56639 37.0001C7.28846 37.0001 7.01053 36.921 6.7326 36.8024L7.12964 35.8932C7.28846 35.9327 7.40757 35.9723 7.56639 35.9723C7.7252 35.9723 7.88402 35.9327 8.04283 35.8537C8.20165 35.7746 8.32076 35.656 8.47958 35.4979L8.55898 35.3793L7.28846 31.5052H8.51928L9.35306 34.3515L11.3383 31.5052H12.4897Z" fill="#222222"/>
<path d="M15.5466 34.1538L16.7774 36.8815H15.4672L14.554 34.7073H13.6805L13.2438 36.8815H12.0527L13.085 31.5052H14.2761L13.8393 33.6795H14.6334L16.4201 31.5052H17.77L15.5466 34.1538Z" fill="#222222"/>
<path d="M24.2018 31.5052L23.1695 36.8815H22.0578L22.6534 33.6795L20.6682 36.2885H20.1123L19.0403 33.6399L18.405 36.8815H17.2933L18.3256 31.5052H19.3182L20.6285 34.8259L23.1298 31.5052H24.2018Z" fill="#222222"/>
<path d="M26.5048 32.5329L26.2666 33.6793H28.6885L28.49 34.6281H26.068L25.8298 35.8535H28.6488L28.4503 36.8418H24.4402L25.4725 31.4656H29.3635L29.1649 32.4539H26.5048V32.5329Z" fill="#222222"/>
<path d="M32.9368 34.1538L34.1676 36.8815H32.8971L31.9839 34.7073H31.1104L30.6737 36.8815H29.4825L30.5148 31.5052H31.706L31.2692 33.6795H32.0633L33.85 31.5052H35.1999L32.9368 34.1538Z" fill="#222222"/>
<path d="M36.7487 32.5331L36.5104 33.6795H38.9324L38.7735 34.6282H36.3516L36.1134 35.8932H38.9324L38.7338 36.8815H34.7238L35.7561 31.5052H39.6867L39.4882 32.4935H36.7487V32.5331Z" fill="#222222"/>
<path d="M44.2924 31.9399C44.6497 32.2167 44.8085 32.6515 44.8085 33.1654C44.8085 33.6003 44.6894 33.9956 44.4909 34.3514C44.2924 34.6676 44.0145 34.9443 43.6174 35.1024C43.2601 35.3001 42.7836 35.3792 42.2675 35.3792H41.1161L40.8381 36.8418H39.647L40.6793 31.4656H42.7836C43.4586 31.5051 43.9351 31.6632 44.2924 31.9399ZM43.2998 34.1142C43.4983 33.9165 43.6174 33.6398 43.6174 33.284C43.6174 33.0468 43.538 32.8492 43.3792 32.691C43.2204 32.5724 42.9822 32.4934 42.6645 32.4934H41.7116L41.3543 34.3514H42.3866C42.7439 34.3909 43.0616 34.3118 43.2998 34.1142Z" fill="#222222"/>
<path d="M46.4757 36.6838C46.0786 36.4861 45.8007 36.2094 45.6022 35.8536C45.4037 35.4978 45.2845 35.1025 45.2845 34.6282C45.2845 34.0352 45.4037 33.4818 45.6816 32.9678C45.9595 32.4935 46.3168 32.0982 46.833 31.8214C47.3094 31.5447 47.8653 31.3866 48.5006 31.3866C48.977 31.3866 49.374 31.4657 49.7314 31.6238C50.0887 31.7819 50.3666 32.0191 50.5255 32.3353L49.652 33.0864C49.374 32.6516 48.977 32.4539 48.4212 32.4539C48.0241 32.4539 47.7065 32.533 47.4286 32.7307C47.1506 32.9283 46.9124 33.1655 46.7536 33.4817C46.5948 33.798 46.5154 34.1538 46.5154 34.5491C46.5154 34.9444 46.6345 35.3002 46.9124 35.5374C47.1506 35.7746 47.508 35.8932 47.9844 35.8932C48.5403 35.8932 48.977 35.6955 49.374 35.2607L50.0887 36.0117C49.5726 36.6442 48.8579 36.921 47.905 36.921C47.3094 36.9605 46.833 36.8814 46.4757 36.6838Z" fill="#222222"/>
<path d="M54.099 34.1538L55.3298 36.8815H54.0593L53.1461 34.7073H52.2726L51.8359 36.8815H50.6448L51.6771 31.5052H52.8682L52.4315 33.6795H53.2255L55.0122 31.5052H56.3621L54.099 34.1538Z" fill="#222222"/>
<path d="M59.5784 35.7351H57.1565L56.4815 36.8815H55.211L58.5461 31.5052H59.7372L61.0078 36.8815H59.8166L59.5784 35.7351ZM59.3799 34.7863L58.9432 32.7307L57.7123 34.7863H59.3799Z" fill="#222222"/>
<path d="M66.6058 31.5052L65.5735 36.8815H64.3824L64.6604 35.4584H63.6281L62.4369 36.8815H61.1267L62.5561 35.2607C62.2781 35.1421 62.0796 34.9445 61.9605 34.7073C61.8414 34.4701 61.762 34.1934 61.762 33.8376C61.762 33.3632 61.8811 32.9679 62.0796 32.6121C62.3178 32.2563 62.5958 31.9796 62.9928 31.782C63.3898 31.5843 63.8663 31.5052 64.3824 31.5052H66.6058ZM63.2707 32.8493C63.0325 33.047 62.9531 33.3237 62.9531 33.719C62.9531 33.9562 63.0325 34.1538 63.1516 34.312C63.3104 34.4306 63.5089 34.5096 63.7869 34.5096H64.8192L65.2162 32.5726H64.1839C63.8266 32.5331 63.5089 32.6517 63.2707 32.8493Z" fill="#222222"/>
<path d="M72.4817 34.1538L73.7125 36.8815H72.442L71.5288 34.7073H70.6553L70.2186 36.8815H69.0275L70.0598 31.5052H71.2509L70.8141 33.6795H71.6082L73.3949 31.5052H74.7448L72.4817 34.1538Z" fill="#222222"/>
<path d="M75.5789 36.6838C75.1818 36.4861 74.9039 36.2094 74.7054 35.8536C74.5069 35.4978 74.3878 35.1025 74.3878 34.6282C74.3878 34.0352 74.5069 33.4818 74.7848 32.9678C75.0627 32.4935 75.4201 32.0982 75.8965 31.8214C76.373 31.5447 76.9288 31.3866 77.5641 31.3866C78.0802 31.3866 78.517 31.4657 78.914 31.6633C79.311 31.861 79.589 32.1377 79.7875 32.4935C79.986 32.8492 80.1051 33.2446 80.1051 33.7189C80.1051 34.3119 79.986 34.8653 79.7081 35.3792C79.4302 35.8536 79.0728 36.2489 78.5964 36.5257C78.1199 36.8024 77.5641 36.9605 76.9288 36.9605C76.4127 36.9605 75.9362 36.8814 75.5789 36.6838ZM78.0008 35.6164C78.2787 35.4188 78.517 35.1816 78.6758 34.8653C78.8346 34.5491 78.914 34.1933 78.914 33.798C78.914 33.4027 78.7949 33.0469 78.5567 32.8097C78.3184 32.5725 77.9611 32.4539 77.5244 32.4539C77.1273 32.4539 76.8097 32.533 76.5318 32.7307C76.2538 32.9283 76.0156 33.1655 75.8568 33.4817C75.698 33.798 75.6186 34.1538 75.6186 34.5491C75.6186 34.9444 75.7377 35.3002 75.9759 35.5374C76.2141 35.7746 76.5715 35.8932 77.0082 35.8932C77.4053 35.9327 77.7229 35.8141 78.0008 35.6164Z" fill="#222222"/>
<path d="M87.3707 31.5052L86.3384 36.8815H85.2267L85.8222 33.6795L83.837 36.2885H83.2812L82.2092 33.6399L81.5739 36.8815H80.4622L81.4945 31.5052H82.4871L83.7973 34.8259L86.2987 31.5052H87.3707Z" fill="#222222"/>
<path d="M93.3661 31.5052L92.3338 36.8815H91.1427L91.9765 32.5331H89.634L88.8002 36.8815H87.6091L88.6414 31.5052H93.3661Z" fill="#222222"/>
<path d="M97.4161 35.7351H94.9942L94.3192 36.8815H93.0487L96.3838 31.5052H97.575L98.8455 36.8815H97.6544L97.4161 35.7351ZM97.2176 34.7863L96.7809 32.7307L95.5501 34.7863H97.2176Z" fill="#222222"/>
<path d="M105.317 31.5052L104.285 36.8815H103.094L103.531 34.7073H101.188L100.751 36.8815H99.5602L100.592 31.5052H101.784L101.387 33.6004H103.729L104.126 31.5052H105.317Z" fill="#222222"/>
<path d="M106.627 31.5052H107.818L107.143 34.984L110.28 31.5052H111.431L110.359 36.8815H109.168L109.883 33.4027L106.746 36.8815H105.595L106.627 31.5052Z" fill="#222222"/>
<path d="M116.831 31.5052L115.799 36.8815H114.608L114.886 35.4584H113.853L112.662 36.8815H111.352L112.781 35.2607C112.503 35.1421 112.305 34.9445 112.186 34.7073C112.067 34.4701 111.987 34.1934 111.987 33.8376C111.987 33.3632 112.106 32.9679 112.305 32.6121C112.543 32.2563 112.821 31.9796 113.218 31.782C113.615 31.5843 114.092 31.5052 114.608 31.5052H116.831ZM113.496 32.8493C113.258 33.047 113.178 33.3237 113.178 33.719C113.178 33.9562 113.258 34.1538 113.377 34.312C113.536 34.4306 113.734 34.5096 114.012 34.5096H115.045L115.442 32.5726H114.409C114.052 32.5331 113.734 32.6517 113.496 32.8493Z" fill="#222222"/>
<path d="M137.676 1.46153C138.192 1.73825 138.549 2.17309 138.867 2.687C139.145 3.2009 139.304 3.79387 139.304 4.42637C139.304 5.05887 139.145 5.65184 138.867 6.16574C138.589 6.67965 138.192 7.11449 137.676 7.39121C137.16 7.70746 136.604 7.82606 136.008 7.82606C135.413 7.82606 134.857 7.66793 134.341 7.39121C133.824 7.07496 133.467 6.67965 133.149 6.16574C132.872 5.65184 132.713 5.05887 132.713 4.4659C132.713 3.8334 132.872 3.27997 133.149 2.76606C133.427 2.25216 133.824 1.81731 134.341 1.54059C134.857 1.22434 135.413 1.10575 136.008 1.10575C136.643 1.02669 137.199 1.14528 137.676 1.46153ZM137.477 6.9959C137.914 6.71918 138.271 6.3634 138.509 5.92856C138.748 5.45418 138.867 4.97981 138.867 4.42637C138.867 3.87293 138.748 3.35903 138.509 2.92419C138.271 2.48934 137.914 2.13356 137.477 1.85684C137.04 1.61966 136.564 1.46153 136.008 1.46153C135.492 1.46153 134.976 1.58012 134.539 1.85684C134.102 2.13356 133.745 2.48934 133.507 2.92419C133.269 3.35903 133.149 3.87293 133.149 4.42637C133.149 4.97981 133.269 5.45418 133.507 5.92856C133.745 6.3634 134.102 6.75871 134.539 6.9959C134.976 7.27262 135.452 7.39121 135.968 7.39121C136.524 7.39121 137.04 7.23309 137.477 6.9959ZM137.477 4.54497C137.358 4.74262 137.16 4.90075 136.882 4.97981L137.715 6.32387H137.08L136.326 5.0984H136.167H135.293V6.32387H134.658V2.48934H136.127C136.604 2.48934 136.961 2.60794 137.239 2.84512C137.517 3.08231 137.636 3.39856 137.636 3.79387C137.676 4.07059 137.636 4.34731 137.477 4.54497ZM136.842 4.34731C137.001 4.22872 137.08 4.03106 137.08 3.79387C137.08 3.55668 137.001 3.35903 136.842 3.24044C136.683 3.12184 136.445 3.04278 136.167 3.04278H135.333V4.5845H136.167C136.445 4.5845 136.683 4.50543 136.842 4.34731Z" fill="#222222"/>
</g>
<defs>
<filter id="filter0_d" x="0.372314" y="0.591797" width="139.931" height="38.4083" filterUnits="userSpaceOnUse" color-interpolation-filters="sRGB">
<feFlood flood-opacity="0" result="BackgroundImageFix"/>
<feColorMatrix in="SourceAlpha" type="matrix" values="0 0 0 0 0 0 0 0 0 0 0 0 0 0 0 0 0 0 127 0"/>
<feOffset dy="1"/>
<feGaussianBlur stdDeviation="0.5"/>
<feColorMatrix type="matrix" values="0 0 0 0 0 0 0 0 0 0 0 0 0 0 0 0 0 0 0.25 0"/>
<feBlend mode="normal" in2="BackgroundImageFix" result="effect1_dropShadow"/>
<feBlend mode="normal" in="SourceGraphic" in2="effect1_dropShadow" result="shape"/>
</filter>
</defs>
</svg>
