<svg width="48" height="48" viewBox="0 0 48 48" fill="none" xmlns="http://www.w3.org/2000/svg">
<g clip-path="url(#clip0)">
<path d="M47.9999 24C47.9999 31.9238 41.5999 38.4 33.5999 38.4C25.6761 38.4 19.2 31.9238 19.2 24C19.2 16.0762 25.5999 9.59998 33.5238 9.59998C41.5999 9.59998 47.9999 16.0762 47.9999 24Z" fill="#FFB600"/>
<path d="M33.5999 9.59998C41.5238 9.59998 47.9999 16.0762 47.9999 24C47.9999 31.9238 41.5999 38.4 33.5999 38.4C25.6761 38.4 19.2 31.9238 19.2 24" fill="#F7981D"/>
<path d="M33.6001 9.59998C41.5239 9.59998 48.0001 16.0762 48.0001 24C48.0001 31.9238 41.6001 38.4 33.6001 38.4" fill="#FF8500"/>
<path d="M14.2476 9.59998C6.4 9.67617 0 16.0762 0 24C0 31.9238 6.4 38.4 14.4 38.4C18.1333 38.4 21.4857 36.9524 24.0762 34.6666C24.6095 34.2095 25.0667 33.6762 25.5238 33.1428H22.5524C22.1714 32.6857 21.7905 32.1524 21.4857 31.6952H26.5905C26.8952 31.2381 27.2 30.7047 27.4286 30.1714H20.6476C20.419 29.7143 20.1905 29.1809 20.0381 28.6476H27.9619C28.419 27.2 28.7238 25.6762 28.7238 24.0762C28.7238 23.0095 28.5714 22.019 28.419 21.0285H19.581C19.6571 20.4952 19.8095 20.0381 19.9619 19.5047H27.8857C27.7333 18.9714 27.5048 18.4381 27.2762 17.9809H20.5714C20.8 17.4476 21.1048 16.9905 21.4095 16.4571H26.5143C26.2095 15.9238 25.8286 15.3905 25.3714 14.9333H22.5524C23.0095 14.4 23.4667 13.9428 24 13.4857C21.4857 11.1238 18.0571 9.75236 14.3238 9.75236C14.3238 9.59998 14.3238 9.59998 14.2476 9.59998Z" fill="#FF5050"/>
<path d="M0 24.0001C0 31.9239 6.4 38.4001 14.4 38.4001C18.1333 38.4001 21.4857 36.9524 24.0762 34.6667C24.6095 34.2096 25.0667 33.6762 25.5238 33.1429H22.5524C22.1714 32.6858 21.7905 32.1524 21.4857 31.6953H26.5905C26.8952 31.2381 27.2 30.7048 27.4286 30.1715H20.6476C20.419 29.7143 20.1905 29.181 20.0381 28.6477H27.9619C28.419 27.2001 28.7238 25.6762 28.7238 24.0762C28.7238 23.0096 28.5714 22.0191 28.419 21.0286H19.581C19.6571 20.4953 19.8095 20.0382 19.9619 19.5048H27.8857C27.7333 18.9715 27.5048 18.4382 27.2762 17.981H20.5714C20.8 17.4477 21.1048 16.9905 21.4095 16.4572H26.5143C26.2095 15.9239 25.8286 15.3905 25.3714 14.9334H22.5524C23.0095 14.4001 23.4667 13.9429 24 13.4858C21.4857 11.1239 18.0571 9.75244 14.3238 9.75244H14.2476" fill="#E52836"/>
<path d="M14.3999 38.4001C18.1333 38.4001 21.4857 36.9524 24.0761 34.6667C24.6095 34.2096 25.0666 33.6762 25.5237 33.1429H22.5523C22.1714 32.6858 21.7904 32.1524 21.4857 31.6953H26.5904C26.8952 31.2381 27.1999 30.7048 27.4285 30.1715H20.6476C20.419 29.7143 20.1904 29.181 20.038 28.6477H27.9618C28.419 27.2001 28.7237 25.6762 28.7237 24.0762C28.7237 23.0096 28.5714 22.0191 28.419 21.0286H19.5809C19.6571 20.4953 19.8095 20.0382 19.9618 19.5048H27.8856C27.7333 18.9715 27.5047 18.4382 27.2761 17.981H20.5714C20.7999 17.4477 21.1047 16.9905 21.4095 16.4572H26.5142C26.2095 15.9239 25.8285 15.3905 25.3714 14.9334H22.5523C23.0095 14.4001 23.4666 13.9429 23.9999 13.4858C21.4857 11.1239 18.0571 9.75244 14.3237 9.75244H14.2476" fill="#CB2026"/>
<path d="M19.5049 27.6573L19.7335 26.362C19.6573 26.362 19.5049 26.4382 19.3525 26.4382C18.8192 26.4382 18.743 26.1335 18.8192 25.9811L19.2764 23.3144H20.1145L20.343 21.8668H19.5811L19.7335 20.9525H18.2097C18.2097 20.9525 17.2954 25.9811 17.2954 26.5906C17.2954 27.5049 17.8287 27.8858 18.5145 27.8858C18.9716 27.8858 19.3526 27.7335 19.5049 27.6573Z" fill="white"/>
<path d="M20.0383 25.2191C20.0383 27.3524 21.486 27.8858 22.705 27.8858C23.8479 27.8858 24.305 27.6572 24.305 27.6572L24.6098 26.2096C24.6098 26.2096 23.7717 26.5905 23.0098 26.5905C21.3336 26.5905 21.6383 25.3715 21.6383 25.3715H24.7621C24.7621 25.3715 24.9907 24.381 24.9907 24.0001C24.9907 23.0096 24.4574 21.7905 22.7812 21.7905C21.1812 21.6381 20.0383 23.3143 20.0383 25.2191ZM22.705 23.0096C23.5431 23.0096 23.3907 24.0001 23.3907 24.0762H21.7145C21.7145 24.0001 21.8669 23.0096 22.705 23.0096Z" fill="white"/>
<path d="M32.3812 27.6572L32.6859 25.981C32.6859 25.981 31.924 26.362 31.3907 26.362C30.324 26.362 29.8669 25.5239 29.8669 24.6096C29.8669 22.781 30.7811 21.7905 31.8478 21.7905C32.6097 21.7905 33.2192 22.2477 33.2192 22.2477L33.4478 20.6477C33.4478 20.6477 32.5335 20.2667 31.6954 20.2667C29.9431 20.2667 28.1907 21.7905 28.1907 24.6858C28.1907 26.5905 29.105 27.8858 30.9335 27.8858C31.5431 27.8858 32.3812 27.6572 32.3812 27.6572Z" fill="white"/>
<path d="M11.124 21.6382C10.0573 21.6382 9.29543 21.9429 9.29543 21.9429L9.06685 23.2382C9.06685 23.2382 9.75257 22.9334 10.743 22.9334C11.2764 22.9334 11.7335 23.0096 11.7335 23.4668C11.7335 23.7715 11.6573 23.8477 11.6573 23.8477C11.6573 23.8477 11.2002 23.8477 10.9716 23.8477C9.67638 23.8477 8.22876 24.381 8.22876 26.1334C8.22876 27.5048 9.14304 27.8096 9.67638 27.8096C10.743 27.8096 11.2002 27.1239 11.2764 27.1239L11.2002 27.7334H12.5716L13.1811 23.5429C13.1811 21.7144 11.6573 21.6382 11.124 21.6382ZM11.4288 25.0668C11.4288 25.2953 11.2764 26.5144 10.3621 26.5144C9.90495 26.5144 9.75257 26.1334 9.75257 25.9048C9.75257 25.5239 9.98114 24.9906 11.124 24.9906C11.3526 25.0668 11.4288 25.0668 11.4288 25.0668Z" fill="white"/>
<path d="M14.6286 27.8095C15.0096 27.8095 16.9143 27.8857 16.9143 25.8286C16.9143 23.9238 15.0857 24.3047 15.0857 23.5428C15.0857 23.1619 15.3905 23.0095 15.9238 23.0095C16.1524 23.0095 16.9905 23.0857 16.9905 23.0857L17.2191 21.7143C17.2191 21.7143 16.6857 21.5619 15.7715 21.5619C14.6286 21.5619 13.4857 22.019 13.4857 23.5428C13.4857 25.2952 15.3905 25.1428 15.3905 25.8286C15.3905 26.2857 14.8572 26.3619 14.4762 26.3619C13.7905 26.3619 13.1048 26.1333 13.1048 26.1333L12.8762 27.5047C12.9524 27.6571 13.3334 27.8095 14.6286 27.8095Z" fill="white"/>
<path d="M45.0286 20.4191L44.7239 22.4762C44.7239 22.4762 44.1144 21.7143 43.2763 21.7143C41.9048 21.7143 40.6858 23.3905 40.6858 25.3714C40.6858 26.5905 41.2953 27.8857 42.5905 27.8857C43.5048 27.8857 44.0382 27.2762 44.0382 27.2762L43.962 27.8095H45.4858L46.6286 20.4953L45.0286 20.4191ZM44.3429 24.4572C44.3429 25.2953 43.962 26.3619 43.1239 26.3619C42.5905 26.3619 42.2858 25.9048 42.2858 25.1429C42.2858 23.9238 42.8191 23.1619 43.5048 23.1619C44.0382 23.1619 44.3429 23.5429 44.3429 24.4572Z" fill="white"/>
<path d="M2.8192 27.7334L3.73349 22.2476L3.88587 27.7334H4.95253L6.93349 22.2476L6.09539 27.7334H7.69539L8.91444 20.4191H6.40015L4.87634 24.9143L4.80015 20.4191H2.59063L1.37158 27.7334H2.8192Z" fill="white"/>
<path d="M26.4382 27.7334C26.8953 25.2191 26.9715 23.162 28.0382 23.5429C28.1905 22.5524 28.4191 22.1715 28.5715 21.7905C28.5715 21.7905 28.4953 21.7905 28.2667 21.7905C27.581 21.7905 27.0477 22.7048 27.0477 22.7048L27.2001 21.8667H25.7524L24.762 27.8096H26.4382V27.7334Z" fill="white"/>
<path d="M35.8857 21.6382C34.819 21.6382 34.0571 21.9429 34.0571 21.9429L33.8286 23.2382C33.8286 23.2382 34.5143 22.9334 35.5048 22.9334C36.0381 22.9334 36.4952 23.0096 36.4952 23.4668C36.4952 23.7715 36.4191 23.8477 36.4191 23.8477C36.4191 23.8477 35.9619 23.8477 35.7333 23.8477C34.4381 23.8477 32.9905 24.381 32.9905 26.1334C32.9905 27.5048 33.9048 27.8096 34.4381 27.8096C35.5048 27.8096 35.9619 27.1239 36.0381 27.1239L35.9619 27.7334H37.3333L37.9429 23.5429C38.0191 21.7144 36.4191 21.6382 35.8857 21.6382ZM36.2667 25.0668C36.2667 25.2953 36.1143 26.5144 35.2 26.5144C34.7429 26.5144 34.5905 26.1334 34.5905 25.9048C34.5905 25.5239 34.8191 24.9906 35.9619 24.9906C36.1905 25.0668 36.1905 25.0668 36.2667 25.0668Z" fill="white"/>
<path d="M39.2382 27.7334C39.6953 25.2191 39.7715 23.162 40.8382 23.5429C40.9906 22.5524 41.2192 22.1715 41.3715 21.7905C41.3715 21.7905 41.2954 21.7905 41.0668 21.7905C40.3811 21.7905 39.8477 22.7048 39.8477 22.7048L40.0001 21.8667H38.5525L37.562 27.8096H39.2382V27.7334Z" fill="white"/>
<path d="M17.1431 26.5906C17.1431 27.5049 17.6764 27.8858 18.3621 27.8858C18.8954 27.8858 19.3526 27.7335 19.505 27.6573L19.7335 26.362C19.6574 26.362 19.505 26.4382 19.3526 26.4382C18.8193 26.4382 18.7431 26.1335 18.8193 25.9811L19.2764 23.3144H20.1145L20.3431 21.8668H19.5812L19.7335 20.9525" fill="#DCE5E5"/>
<path d="M20.8 25.2191C20.8 27.3524 21.4858 27.8858 22.7048 27.8858C23.8477 27.8858 24.3048 27.6572 24.3048 27.6572L24.6096 26.2096C24.6096 26.2096 23.7715 26.5905 23.0096 26.5905C21.3334 26.5905 21.6381 25.3715 21.6381 25.3715H24.762C24.762 25.3715 24.9905 24.381 24.9905 24.0001C24.9905 23.0096 24.4572 21.7905 22.781 21.7905C21.181 21.6381 20.8 23.3143 20.8 25.2191ZM22.7048 23.0096C23.5429 23.0096 23.6953 24.0001 23.6953 24.0762H21.7143C21.7143 24.0001 21.8667 23.0096 22.7048 23.0096Z" fill="#DCE5E5"/>
<path d="M32.3812 27.6572L32.686 25.981C32.686 25.981 31.9241 26.362 31.3907 26.362C30.3241 26.362 29.8669 25.5239 29.8669 24.6096C29.8669 22.781 30.7812 21.7905 31.8479 21.7905C32.6098 21.7905 33.2193 22.2477 33.2193 22.2477L33.4479 20.6477C33.4479 20.6477 32.5336 20.2667 31.6955 20.2667C29.9431 20.2667 28.9526 21.7905 28.9526 24.6858C28.9526 26.5905 29.105 27.8858 30.9336 27.8858C31.5431 27.8858 32.3812 27.6572 32.3812 27.6572Z" fill="#DCE5E5"/>
<path d="M9.06685 23.3143C9.06685 23.3143 9.75257 23.0096 10.743 23.0096C11.2764 23.0096 11.7335 23.0858 11.7335 23.5429C11.7335 23.8477 11.6573 23.9239 11.6573 23.9239C11.6573 23.9239 11.2002 23.9239 10.9716 23.9239C9.67638 23.9239 8.22876 24.4572 8.22876 26.2096C8.22876 27.581 9.14304 27.8858 9.67638 27.8858C10.743 27.8858 11.2002 27.2 11.2764 27.2L11.2002 27.8096H12.5716L13.1811 23.6191C13.1811 21.8667 11.6573 21.7905 11.0478 21.7905L9.06685 23.3143ZM12.1907 25.0667C12.1907 25.2953 11.2764 26.5143 10.3621 26.5143C9.90495 26.5143 9.75257 26.1334 9.75257 25.9048C9.75257 25.5239 9.98114 24.9905 11.124 24.9905C11.3526 25.0667 12.1907 25.0667 12.1907 25.0667Z" fill="#DCE5E5"/>
<path d="M12.9526 27.6571C12.9526 27.6571 13.4098 27.8095 14.705 27.8095C15.086 27.8095 16.9907 27.8857 16.9907 25.8286C16.9907 23.9238 15.1622 24.3047 15.1622 23.5428C15.1622 23.1619 15.4669 23.0095 16.0003 23.0095C16.2288 23.0095 17.0669 23.0857 17.0669 23.0857L17.2955 21.7143C17.2955 21.7143 16.7622 21.5619 15.8479 21.5619C14.705 21.5619 14.3241 22.019 14.3241 23.5428C14.3241 25.2952 15.4669 25.1428 15.4669 25.8286C15.4669 26.2857 14.9336 26.3619 14.5526 26.3619" fill="#DCE5E5"/>
<path d="M44.7239 22.4763C44.7239 22.4763 44.1143 21.7144 43.2762 21.7144C41.9048 21.7144 41.4477 23.3906 41.4477 25.3715C41.4477 26.5906 41.2953 27.8858 42.5905 27.8858C43.5048 27.8858 44.0381 27.2763 44.0381 27.2763L43.9619 27.8096H45.4858L46.6286 20.4954L44.7239 22.4763ZM44.6477 24.4573C44.6477 25.2954 43.9619 26.362 43.1239 26.362C42.5905 26.362 42.2858 25.9049 42.2858 25.143C42.2858 23.9239 42.8191 23.162 43.5048 23.162C44.0381 23.162 44.6477 23.543 44.6477 24.4573Z" fill="#DCE5E5"/>
<path d="M2.8192 27.7334L3.73349 22.2476L3.88587 27.7334H4.95253L6.93349 22.2476L6.09539 27.7334H7.69539L8.91444 20.4191H7.00968L4.87634 24.9143L4.80015 20.4191H3.96206L1.37158 27.7334H2.8192Z" fill="#DCE5E5"/>
<path d="M24.8384 27.7334H26.4384C26.8955 25.2191 26.9717 23.162 28.0384 23.5429C28.1908 22.5524 28.4193 22.1715 28.5717 21.7905C28.5717 21.7905 28.4955 21.7905 28.267 21.7905C27.5812 21.7905 27.0479 22.7048 27.0479 22.7048L27.2003 21.8667" fill="#DCE5E5"/>
<path d="M33.8286 23.3143C33.8286 23.3143 34.5143 23.0096 35.5048 23.0096C36.0381 23.0096 36.4952 23.0858 36.4952 23.5429C36.4952 23.8477 36.4191 23.9239 36.4191 23.9239C36.4191 23.9239 35.9619 23.9239 35.7333 23.9239C34.4381 23.9239 32.9905 24.4572 32.9905 26.2096C32.9905 27.581 33.9048 27.8858 34.4381 27.8858C35.5048 27.8858 35.9619 27.2 36.0381 27.2L35.9619 27.8096H37.3333L37.9429 23.6191C37.9429 21.8667 36.4191 21.7905 35.8095 21.7905L33.8286 23.3143ZM36.9524 25.0667C36.9524 25.2953 36.0381 26.5143 35.1238 26.5143C34.6667 26.5143 34.5143 26.1334 34.5143 25.9048C34.5143 25.5239 34.7429 24.9905 35.8857 24.9905C36.1905 25.0667 36.9524 25.0667 36.9524 25.0667Z" fill="#DCE5E5"/>
<path d="M37.6382 27.7334H39.2382C39.6953 25.2191 39.7715 23.162 40.8382 23.5429C40.9906 22.5524 41.2191 22.1715 41.3715 21.7905C41.3715 21.7905 41.2953 21.7905 41.0668 21.7905C40.381 21.7905 39.8477 22.7048 39.8477 22.7048L40.0001 21.8667" fill="#DCE5E5"/>
</g>
<defs>
<clipPath id="clip0">
<rect width="48" height="48" fill="white"/>
</clipPath>
</defs>
</svg>
