<svg width="20" height="20" viewBox="0 0 20 20" fill="none" xmlns="http://www.w3.org/2000/svg">
<path d="M13.0384 0.199588C12.8187 0.403904 12.7432 0.718235 12.8462 1.00022C13.2122 2.00211 13.3979 3.06077 13.3979 4.14689C13.3979 6.61851 12.4354 8.94242 10.6878 10.6906C8.93986 12.4391 6.61532 13.402 4.14276 13.402C3.05922 13.402 2.00193 13.2164 1.00018 12.8502C0.718349 12.7472 0.404168 12.8226 0.199698 13.0425C-0.00477192 13.2623 -0.0574152 13.5814 0.065877 13.8553C0.866361 15.6352 2.14948 17.1523 3.77624 18.2422C5.44343 19.3591 7.38879 19.9664 9.40236 19.9986C10.8346 20.0215 12.2285 19.7557 13.5453 19.2087C14.8141 18.6817 15.9536 17.9189 16.9322 16.9417C17.9106 15.9645 18.6748 14.8262 19.2036 13.5582C19.7324 12.29 20.0002 10.95 20 9.57276C20 9.52088 19.9997 9.4687 19.9989 9.41666C19.9695 7.40082 19.3625 5.45212 18.2438 3.78159C17.1528 2.15241 15.6338 0.867466 13.8513 0.0659213C13.5774 -0.0573697 13.2583 -0.0048795 13.0384 0.199588ZM17.2694 4.43421C18.2617 5.91599 18.8 7.64497 18.8263 9.43391C18.8437 10.7045 18.6075 11.94 18.121 13.1067C17.6516 14.2325 16.9728 15.2435 16.1035 16.1118C15.234 16.9801 14.2219 17.6576 13.0953 18.1256C11.9279 18.6107 10.6917 18.8463 9.42113 18.826C7.63416 18.7975 5.90807 18.2587 4.42902 17.2678C3.26262 16.4864 2.29536 15.4579 1.59223 14.2589C2.42003 14.4689 3.27422 14.5749 4.14276 14.5749C6.92874 14.5749 9.54778 13.4898 11.5174 11.5198C13.4864 9.55018 14.5709 6.93177 14.5709 4.14689C14.5709 3.27622 14.4647 2.42051 14.2547 1.59195C15.456 2.2963 16.4866 3.26539 17.2694 4.43421Z" fill="black"/>
</svg>
