<svg width="17" height="16" viewBox="0 0 17 16" fill="none" xmlns="http://www.w3.org/2000/svg">
<path d="M11.3437 0.159671C11.1652 0.323123 11.1038 0.574588 11.1875 0.800174C11.4849 1.60169 11.6358 2.44861 11.6358 3.31751C11.6358 5.29481 10.8537 7.15394 9.43382 8.5525C8.01364 9.9513 6.12495 10.7216 4.11599 10.7216C3.23562 10.7216 2.37657 10.5731 1.56265 10.2802C1.33366 10.1978 1.07839 10.2581 0.912254 10.434C0.746123 10.6099 0.70335 10.8651 0.803525 11.0842C1.45392 12.5082 2.49646 13.7218 3.8182 14.5938C5.17279 15.4873 6.7534 15.9732 8.38942 15.9989C9.55309 16.0172 10.6856 15.8046 11.7556 15.367C12.7865 14.9453 13.7123 14.3351 14.5074 13.5534C15.3024 12.7716 15.9232 11.861 16.353 10.8466C16.7825 9.83204 17.0001 8.76002 17 7.65821C17 7.61671 16.9998 7.57496 16.9991 7.53333C16.9752 5.92066 16.482 4.3617 15.5731 3.02527C14.6867 1.72193 13.4525 0.693973 12.0041 0.0527371C11.7816 -0.0458958 11.5224 -0.0039036 11.3437 0.159671Z" fill="white"/>
</svg>
