<svg width="106" height="106" viewBox="0 0 106 106" fill="none" xmlns="http://www.w3.org/2000/svg">
<g opacity="0.4">
<g clip-path="url(#clip0)">
<path d="M79.4439 97.3513L24.7866 89.8825C22.096 89.5154 20.2129 87.0363 20.5809 84.3457L31.2923 5.96255C31.6593 3.27197 34.1385 1.38885 36.8291 1.75686L91.4864 9.2257C94.176 9.59273 96.0601 12.0719 95.6921 14.7625L84.9806 93.1466C84.6126 95.8362 82.1344 97.7193 79.4439 97.3513Z" fill="#BCFFD7"/>
<path d="M80.1232 99.1091C79.8217 99.1091 79.5163 99.0876 79.2129 99.0465L24.5547 91.5776C22.8008 91.3369 21.2455 90.4296 20.1748 89.0201C19.104 87.6107 18.646 85.8686 18.8858 84.1147L29.5972 5.73055C29.837 3.97663 30.7453 2.4214 32.1547 1.35065C33.5641 0.280873 35.3043 -0.177182 37.0602 0.0616329L91.7184 7.53145C93.4723 7.77124 95.0266 8.67854 96.0973 10.0879C97.1681 11.4973 97.6261 13.2395 97.3864 14.9934L86.6749 93.3775C86.4351 95.1324 85.5278 96.6867 84.1174 97.7574C82.9527 98.6422 81.561 99.1091 80.1232 99.1091ZM79.6749 95.6571C80.5294 95.7725 81.3662 95.5523 82.0494 95.0336C82.7306 94.5148 83.17 93.7632 83.2865 92.9156L93.9979 14.5305C94.1134 13.6819 93.8922 12.8392 93.3735 12.157C92.8557 11.4758 92.104 11.0363 91.2555 10.9199L36.5972 3.45104C35.7457 3.33457 34.9059 3.55675 34.2237 4.0745C33.5425 4.59324 33.1031 5.34492 32.9866 6.19252L22.2752 84.5776C22.1597 85.4262 22.3809 86.2689 22.8986 86.9511C23.4174 87.6323 24.1691 88.0717 25.0167 88.1882L79.6749 95.6571Z" fill="#3BB54A"/>
<path d="M75.4565 104.29H20.2902C17.5752 104.29 15.374 102.088 15.374 99.3734V20.2611C15.374 17.5451 17.5752 15.3439 20.2902 15.3439H75.4565C78.1715 15.3439 80.3727 17.5451 80.3727 20.2611V99.3734C80.3727 102.088 78.1715 104.29 75.4565 104.29Z" fill="#06662C"/>
<path d="M75.4564 106H20.2912C16.6366 106 13.6641 103.027 13.6641 99.3724V20.2611C13.6641 16.6074 16.6366 13.634 20.2912 13.634H75.4564C79.1101 13.634 82.0836 16.6074 82.0836 20.2611V99.3734C82.0836 103.027 79.1101 106 75.4564 106ZM20.2912 17.0547C18.5226 17.0547 17.0848 18.4925 17.0848 20.2611V99.3724C17.0848 101.141 18.5226 102.579 20.2912 102.579H75.4564C77.2241 102.579 78.6618 101.141 78.6618 99.3724V20.2611C78.6618 18.4935 77.2241 17.0547 75.4564 17.0547H20.2912Z" fill="#129A48"/>
<path d="M70.3249 104.29H15.1587C12.4436 104.29 10.2424 102.088 10.2424 99.3734V20.2611C10.2424 17.5451 12.4436 15.3439 15.1587 15.3439H70.3249C73.0399 15.3439 75.2411 17.5451 75.2411 20.2611V99.3734C75.2411 102.088 73.0399 104.29 70.3249 104.29Z" fill="#53BC79"/>
<path d="M70.3249 106H15.1596C11.506 106 8.53253 103.027 8.53253 99.3724V20.2611C8.53253 16.6074 11.506 13.634 15.1596 13.634H70.3249C73.9785 13.634 76.952 16.6074 76.952 20.2611V99.3734C76.952 103.027 73.9785 106 70.3249 106ZM15.1596 17.0547C13.391 17.0547 11.9533 18.4925 11.9533 20.2611V99.3724C11.9533 101.141 13.391 102.579 15.1596 102.579H70.3249C72.0925 102.579 73.5313 101.141 73.5313 99.3724V20.2611C73.5313 18.4935 72.0925 17.0547 70.3249 17.0547H15.1596Z" fill="#129A48"/>
<path d="M64.978 54.6856C64.978 66.966 55.0231 76.9218 42.7417 76.9218C30.4614 76.9218 20.5055 66.966 20.5055 54.6856C20.5055 42.4043 30.4614 32.4494 42.7417 32.4494C55.0231 32.4494 64.978 42.4043 64.978 54.6856Z" fill="#51BF7D"/>
<path d="M42.7417 78.6317C29.5374 78.6317 18.7957 67.89 18.7957 54.6857C18.7957 41.4804 29.5374 30.7386 42.7417 30.7386C55.947 30.7386 66.6888 41.4804 66.6888 54.6857C66.6888 67.89 55.947 78.6317 42.7417 78.6317ZM42.7417 34.1593C31.4245 34.1593 22.2164 43.3674 22.2164 54.6857C22.2164 66.0029 31.4245 75.211 42.7417 75.211C54.06 75.211 63.2681 66.0029 63.2681 54.6857C63.2681 43.3674 54.059 34.1593 42.7417 34.1593Z" fill="#129A48"/>
<path d="M42.7418 78.6317C34.1092 78.6317 27.348 68.1131 27.348 54.6857C27.348 41.2572 34.1092 30.7386 42.7418 30.7386C51.3753 30.7386 58.1365 41.2572 58.1365 54.6857C58.1365 68.1131 51.3743 78.6317 42.7418 78.6317ZM42.7418 34.1593C36.2517 34.1593 30.7687 43.5583 30.7687 54.6857C30.7687 65.8121 36.2517 75.211 42.7418 75.211C49.2328 75.211 54.7158 65.8121 54.7158 54.6857C54.7158 43.5583 49.2318 34.1593 42.7418 34.1593Z" fill="#129A48"/>
<path d="M64.9779 56.3955H20.5055C19.561 56.3955 18.7957 55.6301 18.7957 54.6856C18.7957 53.7411 19.561 52.9748 20.5055 52.9748H64.9779C65.9234 52.9748 66.6888 53.7411 66.6888 54.6856C66.6888 55.6301 65.9234 56.3955 64.9779 56.3955Z" fill="#129A48"/>
<path d="M42.7418 76.9218C41.7973 76.9218 41.0319 76.1555 41.0319 75.211V32.4495C41.0319 31.504 41.7973 30.7386 42.7418 30.7386C43.6863 30.7386 44.4526 31.504 44.4526 32.4495V75.211C44.4526 76.1555 43.6863 76.9218 42.7418 76.9218Z" fill="#129A48"/>
<path d="M42.7418 95.7373H23.9263C22.9818 95.7373 22.2164 94.971 22.2164 94.0265C22.2164 93.082 22.9818 92.3156 23.9263 92.3156H42.7418C43.6863 92.3156 44.4526 93.082 44.4526 94.0265C44.4526 94.971 43.6863 95.7373 42.7418 95.7373Z" fill="#129A48"/>
<path d="M17.0848 34.1593C16.1403 34.1593 15.374 33.3939 15.374 32.4494V25.2233C15.374 22.6052 17.5037 20.4754 20.1219 20.4754H25.6371C26.5816 20.4754 27.348 21.2418 27.348 22.1863C27.348 23.1308 26.5816 23.8962 25.6371 23.8962H20.1209C19.3898 23.8962 18.7947 24.4912 18.7947 25.2233V32.4494C18.7957 33.3939 18.0293 34.1593 17.0848 34.1593Z" fill="#129A48"/>
<path d="M59.8474 87.185H23.9263C22.9818 87.185 22.2164 86.4186 22.2164 85.4742C22.2164 84.5297 22.9818 83.7633 23.9263 83.7633H59.8474C60.7919 83.7633 61.5573 84.5297 61.5573 85.4742C61.5573 86.4186 60.7919 87.185 59.8474 87.185Z" fill="#129A48"/>
<path d="M73.5313 83.7633C72.5858 83.7633 71.8204 82.9979 71.8204 82.0534V75.211C71.8204 74.2665 72.5858 73.5011 73.5313 73.5011C74.4758 73.5011 75.2411 74.2665 75.2411 75.211V82.0534C75.2411 82.9979 74.4758 83.7633 73.5313 83.7633Z" fill="#129A48"/>
<path d="M76.952 80.3426H70.1095C69.165 80.3426 68.3996 79.5772 68.3996 78.6317C68.3996 77.6872 69.165 76.9218 70.1095 76.9218H76.952C77.8964 76.9218 78.6618 77.6872 78.6618 78.6317C78.6618 79.5772 77.8964 80.3426 76.952 80.3426Z" fill="#129A48"/>
</g>
</g>
<defs>
<clipPath id="clip0">
<rect width="106" height="106" fill="white"/>
</clipPath>
</defs>
</svg>
