<svg width="21" height="21" viewBox="0 0 21 21" fill="none" xmlns="http://www.w3.org/2000/svg">
<path d="M1.70931 17.093H5.43722V19.2907C5.43722 19.6651 5.73024 19.9581 6.10466 19.9581H14.8954C15.2698 19.9581 15.5628 19.6651 15.5628 19.2907V17.093H19.2907C19.6651 17.093 19.9581 16.8 19.9581 16.4256V4.57443C19.9581 4.20001 19.6651 3.90699 19.2907 3.90699H15.5628V1.70931C15.5628 1.33489 15.2698 1.04187 14.8954 1.04187H6.10466C5.73024 1.04187 5.43722 1.33489 5.43722 1.70931V3.90699H1.70931C1.33489 3.90699 1.04187 4.20001 1.04187 4.57443V16.4256C1.04187 16.7837 1.35117 17.093 1.70931 17.093ZM14.2279 18.6233H6.7721V13.1209H14.2279V18.6233ZM6.7721 2.37675H14.2279V3.90699H6.7721V2.37675ZM2.37675 5.24187H6.10466H14.8954H18.6233V15.7582H15.5628V13.1209H16.7512C17.1256 13.1209 17.4186 12.8279 17.4186 12.4535C17.4186 12.0791 17.1256 11.7861 16.7512 11.7861H14.8954H6.10466H4.26513C3.89071 11.7861 3.59768 12.0791 3.59768 12.4535C3.59768 12.8279 3.89071 13.1209 4.26513 13.1209H5.4535V15.7582H2.37675V5.24187Z" fill="#06662C"/>
<path d="M14.0326 8.67674H15.7581C16.1326 8.67674 16.4256 8.38372 16.4256 8.0093C16.4256 7.63488 16.1326 7.34186 15.7581 7.34186H14.0326C13.6581 7.34186 13.3651 7.63488 13.3651 8.0093C13.3651 8.38372 13.6581 8.67674 14.0326 8.67674Z" fill="#06662C"/>
</svg>
