<svg width="15" height="15" viewBox="0 0 15 15" fill="none" xmlns="http://www.w3.org/2000/svg">
<g clip-path="url(#clip0)">
<path d="M13.9283 13.3331L10.5261 9.93093C11.4387 8.88171 11.9913 7.51275 11.9913 6.01652C11.9913 2.72295 9.31236 0.0471191 6.02189 0.0471191C2.72832 0.0471191 0.0524902 2.72605 0.0524902 6.01652C0.0524902 9.30699 2.73143 11.9859 6.02189 11.9859C7.51812 11.9859 8.88708 11.4334 9.93631 10.5207L13.3385 13.923C13.4192 14.0037 13.5279 14.0471 13.6334 14.0471C13.739 14.0471 13.8476 14.0068 13.9283 13.923C14.0897 13.7615 14.0897 13.4946 13.9283 13.3331ZM0.887524 6.01652C0.887524 3.18548 3.19085 0.885257 6.01879 0.885257C8.84983 0.885257 11.1501 3.18858 11.1501 6.01652C11.1501 8.84446 8.84983 11.1509 6.01879 11.1509C3.19085 11.1509 0.887524 8.84756 0.887524 6.01652Z" fill="#BDBDBD"/>
</g>
<defs>
<clipPath id="clip0">
<rect width="14" height="14" fill="white" transform="translate(0.0507812 0.0471191)"/>
</clipPath>
</defs>
</svg>
