<svg width="15" height="15" viewBox="0 0 15 15" fill="none" xmlns="http://www.w3.org/2000/svg">
<g clip-path="url(#clip0)">
<path d="M14.7749 13.3331L11.3727 9.93093C12.2853 8.88171 12.8379 7.51275 12.8379 6.01652C12.8379 2.72295 10.1589 0.0471191 6.86845 0.0471191C3.57488 0.0471191 0.899048 2.72605 0.899048 6.01652C0.899048 9.30699 3.57798 11.9859 6.86845 11.9859C8.36468 11.9859 9.73364 11.4334 10.7829 10.5207L14.1851 13.923C14.2658 14.0037 14.3744 14.0471 14.48 14.0471C14.5855 14.0471 14.6942 14.0068 14.7749 13.923C14.9363 13.7615 14.9363 13.4946 14.7749 13.3331ZM1.73408 6.01652C1.73408 3.18548 4.03741 0.885257 6.86535 0.885257C9.69639 0.885257 11.9966 3.18858 11.9966 6.01652C11.9966 8.84446 9.69639 11.1509 6.86535 11.1509C4.03741 11.1509 1.73408 8.84756 1.73408 6.01652Z" fill="black"/>
</g>
<defs>
<clipPath id="clip0">
<rect width="14" height="14" fill="white" transform="translate(0.897339 0.0471191)"/>
</clipPath>
</defs>
</svg>
