<svg width="17" height="16" viewBox="0 0 17 16" fill="none" xmlns="http://www.w3.org/2000/svg">
<path d="M11.0053 5.16407C10.2745 4.44449 9.24274 3.97888 8.12501 3.97888C7.00729 3.97888 5.97554 4.42333 5.24472 5.16407C4.5139 5.88364 4.04102 6.89952 4.04102 8.00005C4.04102 9.10058 4.5139 10.1164 5.24472 10.836C5.97554 11.5556 7.00729 12.0212 8.12501 12.0212C9.24274 12.0212 10.2745 11.5768 11.0053 10.836C11.7361 10.1164 12.209 9.10058 12.209 8.00005C12.209 6.89952 11.7576 5.88364 11.0053 5.16407ZM10.2315 10.0741C9.69412 10.6032 8.94181 10.9207 8.12501 10.9207C7.30821 10.9207 6.5559 10.6032 6.01853 10.0741C5.48116 9.54502 5.15874 8.80428 5.15874 8.00005C5.15874 7.19581 5.48116 6.45507 6.01853 5.92597C6.5559 5.39687 7.30821 5.07941 8.12501 5.07941C8.94181 5.07941 9.69412 5.39687 10.2315 5.92597C10.7689 6.45507 11.0913 7.19581 11.0913 8.00005C11.0913 8.80428 10.7689 9.54502 10.2315 10.0741Z" fill="white"/>
<path d="M15.691 7.44983H14.0359C13.735 7.44983 13.4771 7.7038 13.4771 8.00009C13.4771 8.29639 13.735 8.55036 14.0359 8.55036H15.691C15.9919 8.55036 16.2499 8.29639 16.2499 8.00009C16.2499 7.7038 15.9919 7.44983 15.691 7.44983Z" fill="white"/>
<path d="M8.12502 13.2699C7.8241 13.2699 7.56616 13.5239 7.56616 13.8202V15.4498C7.56616 15.7461 7.8241 16.0001 8.12502 16.0001C8.42595 16.0001 8.68389 15.7461 8.68389 15.4498V13.8202C8.68389 13.5239 8.42595 13.2699 8.12502 13.2699Z" fill="white"/>
<path d="M13.8641 12.8889L12.6818 11.7249C12.4884 11.5133 12.123 11.5133 11.908 11.7249C11.6931 11.9365 11.6931 12.2752 11.908 12.4868L13.0902 13.6508C13.3052 13.8625 13.6491 13.8625 13.8641 13.6508C14.079 13.4392 14.079 13.1006 13.8641 12.8889Z" fill="white"/>
<path d="M8.12502 0C7.8241 0 7.56616 0.253968 7.56616 0.550265V2.17989C7.56616 2.47619 7.8241 2.73016 8.12502 2.73016C8.42595 2.73016 8.68389 2.47619 8.68389 2.17989V0.550265C8.68389 0.253968 8.42595 0 8.12502 0Z" fill="white"/>
<path d="M13.8855 2.34916C13.6706 2.13752 13.3267 2.13752 13.1117 2.34916L11.9295 3.51318C11.7146 3.72482 11.7146 4.06345 11.9295 4.27509C12.123 4.48673 12.4884 4.48673 12.7033 4.27509L13.8855 3.11106C14.1005 2.89942 14.1005 2.5608 13.8855 2.34916Z" fill="white"/>
<path d="M2.21396 7.44983H0.558862C0.257937 7.44983 0 7.7038 0 8.00009C0 8.29639 0.236442 8.55036 0.558862 8.55036H2.21396C2.51488 8.55036 2.77282 8.29639 2.77282 8.00009C2.77282 7.7038 2.51488 7.44983 2.21396 7.44983Z" fill="white"/>
<path d="M4.32048 11.7249C4.12702 11.5133 3.76161 11.5133 3.54667 11.7249L2.36446 12.8889C2.14951 13.1006 2.14951 13.4392 2.36446 13.6508C2.5794 13.8625 2.92332 13.8625 3.13827 13.6508L4.32048 12.4868C4.53542 12.2752 4.53542 11.9365 4.32048 11.7249Z" fill="white"/>
<path d="M4.32048 3.51318L3.13827 2.34916C2.92332 2.13752 2.5794 2.13752 2.36446 2.34916C2.14951 2.5608 2.14951 2.89942 2.36446 3.11106L3.54667 4.27509C3.76161 4.48673 4.10553 4.48673 4.32048 4.27509C4.53542 4.06345 4.53542 3.72482 4.32048 3.51318Z" fill="white"/>
</svg>
