<svg width="17" height="17" viewBox="0 0 17 17" fill="none" xmlns="http://www.w3.org/2000/svg">
<g clip-path="url(#clip0)">
<path d="M15.6226 4.55808C14.2332 4.35858 12.7535 4.21408 11.2094 4.13277L13.7891 1.5564L12.7878 0.556396L9.27447 4.06508C8.94582 4.05933 8.61492 4.0564 8.28188 4.0564L4.27662 0.0563965L3.27531 1.0564L6.31361 4.09071C4.42172 4.15699 2.61597 4.31765 0.941148 4.55808C0.510395 6.2413 0.271362 8.10108 0.271362 10.0564C0.271362 12.0117 0.510395 13.8715 0.941054 15.5547C3.18841 15.8774 5.67133 16.0564 8.28188 16.0564C10.8924 16.0564 13.3753 15.8774 15.6226 15.5547C16.0534 13.8715 16.2924 12.0117 16.2924 10.0564C16.2924 8.10108 16.0534 6.2413 15.6226 4.55808ZM13.7874 13.7219C12.1019 13.937 10.2398 14.0564 8.28188 14.0564C6.32397 14.0564 4.46177 13.937 2.77634 13.7219C2.45329 12.5998 2.27399 11.36 2.27399 10.0564C2.27399 8.7528 2.45326 7.51296 2.77634 6.39083C4.46177 6.17574 6.32397 6.0564 8.28188 6.0564C10.2397 6.0564 12.1019 6.17574 13.7873 6.39083C14.1105 7.51296 14.2898 8.7528 14.2898 10.0564C14.2898 11.36 14.1105 12.5998 13.7874 13.7219Z" fill="#E8E8E8"/>
</g>
<defs>
<clipPath id="clip0">
<rect width="16.021" height="16" fill="white" transform="translate(0.271362 0.0563965)"/>
</clipPath>
</defs>
</svg>
