<svg width="48" height="48" viewBox="0 0 48 48" fill="none" xmlns="http://www.w3.org/2000/svg">
<g clip-path="url(#clip0)">
<path d="M17.6001 30.8952L20.0382 17.1809H23.8477L21.4858 30.8952H17.6001Z" fill="#3C58BF"/>
<path d="M17.6001 30.8952L20.7239 17.1809H23.8477L21.4858 30.8952H17.6001Z" fill="#293688"/>
<path d="M35.2763 17.3333C34.5144 17.0285 33.2953 16.7238 31.7715 16.7238C27.962 16.7238 25.2191 18.6285 25.2191 21.3714C25.2191 23.4285 27.1239 24.4952 28.6477 25.1809C30.1715 25.8666 30.6287 26.3238 30.6287 26.9333C30.6287 27.8476 29.4096 28.3047 28.3429 28.3047C26.8191 28.3047 25.981 28.0761 24.6858 27.5428L24.1525 27.3142L23.6191 30.438C24.5334 30.819 26.2096 31.1999 27.962 31.1999C32.0001 31.1999 34.6668 29.2952 34.6668 26.3999C34.6668 24.7999 33.6763 23.5809 31.3906 22.5904C30.0191 21.9047 29.181 21.5238 29.181 20.838C29.181 20.2285 29.8668 19.619 31.3906 19.619C32.6858 19.619 33.6001 19.8476 34.2858 20.1523L34.6668 20.3047L35.2763 17.3333Z" fill="#3C58BF"/>
<path d="M35.2763 17.3333C34.5144 17.0285 33.2953 16.7238 31.7715 16.7238C27.962 16.7238 25.9049 18.6285 25.9049 21.3714C25.9049 23.4285 27.1239 24.4952 28.6477 25.1809C30.1715 25.8666 30.6287 26.3238 30.6287 26.9333C30.6287 27.8476 29.4096 28.3047 28.3429 28.3047C26.8191 28.3047 25.981 28.0761 24.6858 27.5428L24.1525 27.3142L23.6191 30.438C24.5334 30.819 26.2096 31.1999 27.962 31.1999C32.0001 31.1999 34.6668 29.2952 34.6668 26.3999C34.6668 24.7999 33.6763 23.5809 31.3906 22.5904C30.0191 21.9047 29.181 21.5238 29.181 20.838C29.181 20.2285 29.8668 19.619 31.3906 19.619C32.6858 19.619 33.6001 19.8476 34.2858 20.1523L34.6668 20.3047L35.2763 17.3333Z" fill="#293688"/>
<path d="M41.8285 17.1809C40.9143 17.1809 40.2285 17.2571 39.8476 18.1714L34.1333 30.8952H38.2476L39.0095 28.6095H43.8857L44.3428 30.8952H48L44.8 17.1809H41.8285ZM40.0762 26.3238C40.3047 25.638 41.6 22.2857 41.6 22.2857C41.6 22.2857 41.9047 21.4476 42.1333 20.9142L42.3619 22.2095C42.3619 22.2095 43.1238 25.6381 43.2762 26.4H40.0762V26.3238Z" fill="#3C58BF"/>
<path d="M42.7428 17.1809C41.8285 17.1809 41.1428 17.2571 40.7619 18.1714L34.1333 30.8952H38.2476L39.0095 28.6095H43.8857L44.3428 30.8952H48L44.8 17.1809H42.7428ZM40.0762 26.3238C40.3809 25.5619 41.6 22.2857 41.6 22.2857C41.6 22.2857 41.9047 21.4476 42.1333 20.9142L42.3619 22.2095C42.3619 22.2095 43.1238 25.6381 43.2762 26.4H40.0762V26.3238Z" fill="#293688"/>
<path d="M10.5905 26.781L10.2096 24.8001C9.52384 22.5143 7.31432 20.0001 4.87622 18.781L8.30479 30.9715H12.4191L18.5905 17.2572H14.4762L10.5905 26.781Z" fill="#3C58BF"/>
<path d="M10.5905 26.781L10.2096 24.8001C9.52384 22.5143 7.31432 20.0001 4.87622 18.781L8.30479 30.9715H12.4191L18.5905 17.2572H15.2381L10.5905 26.781Z" fill="#293688"/>
<path d="M0 17.1809L0.685714 17.3333C5.5619 18.4761 8.91428 21.3714 10.2095 24.8L8.83809 18.3238C8.60952 17.4095 7.92381 17.1809 7.08571 17.1809H0Z" fill="#FFBC00"/>
<path d="M0 17.1809C4.87619 18.3238 8.91428 21.2952 10.2095 24.7238L8.91428 19.3142C8.68571 18.4 7.92381 17.8666 7.08571 17.8666L0 17.1809Z" fill="#F7981D"/>
<path d="M0 17.1809C4.87619 18.3238 8.91428 21.2952 10.2095 24.7238L9.29524 21.7523C9.06667 20.838 8.7619 19.9238 7.69524 19.5428L0 17.1809Z" fill="#ED7C00"/>
<path d="M14.4 26.3239L11.8095 23.7334L10.5905 26.6286L10.2857 24.7239C9.60001 22.4382 7.39049 19.9239 4.95239 18.7048L8.38096 30.8953H12.4952L14.4 26.3239Z" fill="#051244"/>
<path d="M21.4858 30.8952L18.2096 27.5428L17.6001 30.8952H21.4858Z" fill="#051244"/>
<path d="M30.2477 26.1714C30.5525 26.4761 30.7049 26.7047 30.6287 27.0095C30.6287 27.9238 29.4096 28.3809 28.343 28.3809C26.8191 28.3809 25.981 28.1523 24.6858 27.619L24.1525 27.3904L23.6191 30.5142C24.5334 30.8952 26.2096 31.2761 27.962 31.2761C30.4001 31.2761 32.381 30.5904 33.5239 29.3714L30.2477 26.1714Z" fill="#051244"/>
<path d="M34.6667 30.8953H38.2477L39.0096 28.6095H43.8858L44.3429 30.8953H48.0001L46.7048 25.3334L42.1334 20.9143L42.362 22.1334C42.362 22.1334 43.1239 25.5619 43.2763 26.3238H40.0763C40.381 25.5619 41.6001 22.2857 41.6001 22.2857C41.6001 22.2857 41.9048 21.4476 42.1334 20.9143" fill="#051244"/>
</g>
<defs>
<clipPath id="clip0">
<rect width="48" height="48" fill="white"/>
</clipPath>
</defs>
</svg>
