<svg width="32" height="33" viewBox="0 0 32 33" fill="none" xmlns="http://www.w3.org/2000/svg">
<g clip-path="url(#clip0)">
<path d="M28.9956 14.9508C28.2612 14.1647 26.8247 13.721 24.7621 14.1903C24.7621 14.1903 22.4119 11.7293 18.7213 12.7439C18.7213 12.7439 17.2837 13.1887 15.6524 13.1299C16.1827 12.5377 17.0639 12.4152 17.0639 12.4152C19.8059 11.788 20.4317 10.7834 20.4317 10.7834C21.4038 9.73968 19.7369 8.45664 19.7369 8.45664C19.9109 8.35089 20.0494 8.17694 20.0494 8.17694C20.6746 7.79608 17.863 7.37892 17.863 7.37892C18.0191 6.87469 13.3138 6.85848 13.3138 6.85848C13.5576 5.78094 12.5835 5.22877 12.5835 5.22877C10.5012 4.36096 10.0146 6.51058 10.0146 6.51058C9.32072 6.47762 9.45836 6.90642 9.59072 7.00687C9.74899 7.12725 10.2396 7.0141 10.2927 7.20691C10.3614 7.45893 10.1677 8.04441 10.3281 8.25061C10.3824 8.31987 10.6156 8.35477 10.6156 8.35477C10.7895 8.72082 10.7032 8.91821 10.8063 8.91046C11.0116 8.89319 11.8574 8.84331 11.8574 8.84331C11.9615 9.22311 13.7326 10.6482 13.7326 10.6482C13.618 11.0622 12.2971 11.0837 11.4157 11.0518C10.8041 10.4288 10.1094 9.61683 9.79058 8.87768C8.97176 6.98854 6.96842 3.95878 2.66408 4.75363L1.5067 3.30933L1.47022 4.39533L0.710791 3.56488L1.13377 5.3717C1.13377 5.3717 0.31178 5.66092 0.121263 9.90622C0.121263 9.90622 -0.409048 12.51 0.74833 12.8001C0.74833 12.8001 1.74727 13.182 2.21501 12.0417C2.74638 12.1507 3.44007 12.2626 4.31299 12.3449C4.3745 12.9189 4.52765 13.6091 4.90886 14.1618C4.90886 14.1618 5.09022 15.4275 4.51091 15.8618C4.51091 15.8618 3.86093 17.0555 4.90886 17.9227C4.90886 17.9227 5.30682 18.4664 4.18486 18.4664C4.18486 18.4664 2.19615 17.9227 2.23264 19.4791C2.23264 19.4791 1.25555 20.746 2.95558 21.6125L4.58282 22.625C4.58282 22.625 5.30682 22.952 6.97036 22.8792L7.00579 22.551C7.00579 22.551 8.27261 22.9136 7.65682 21.6853L7.54738 21.2146C7.54738 21.2146 8.99326 21.6478 8.99326 20.7458C8.99326 20.7458 14.9978 22.7333 17.8917 20.8165C17.8917 20.8165 18.7971 20.3478 19.0137 20.927C19.0137 20.927 19.1229 22.952 24.4764 22.8438C24.4764 22.8438 24.9098 22.774 24.8733 23.5322C24.8733 23.5322 24.1502 26.7896 25.1994 27.9107C26.2473 29.0314 26.6098 29.394 26.7182 28.671L26.7547 27.8376C26.7547 27.8376 27.1527 27.6939 27.0443 26.3187C27.0443 26.3187 26.6828 26.0292 26.2848 26.2105C26.2848 26.2105 25.9588 23.6062 26.537 22.4113C26.537 22.4113 27.5141 20.7851 25.7411 20.6027C25.7411 20.6027 24.4389 20.9289 24.6567 19.9518C24.6567 19.9518 26.7547 17.1683 25.4881 15.1062C25.4881 15.1062 25.6338 14.6718 26.2475 15.2874C26.2475 15.2874 31.2029 19.0475 32 15.829C31.997 15.8181 29.6801 15.6847 28.9956 14.9508ZM2.52026 11.546C2.90253 11.2439 3.76611 10.4568 3.70989 9.52343C3.70989 9.52343 4.28814 9.05515 4.28814 11.2235C4.28814 11.2235 4.26629 11.452 4.2714 11.788C3.57348 11.721 2.98695 11.6323 2.52026 11.546ZM3.7818 20.05C3.7818 20.05 5.22874 20.4855 5.51848 21.2814C5.51848 21.2814 4.43389 21.3522 3.7818 20.05ZM13.2178 12.5398C13.0542 12.4529 12.8938 12.3525 12.7428 12.2423H13.4189L13.2178 12.5398Z" fill="url(#paint0_linear)"/>
</g>
<defs>
<linearGradient id="paint0_linear" x1="16" y1="3.30933" x2="16" y2="29.0452" gradientUnits="userSpaceOnUse">
<stop stop-color="#050505"/>
<stop offset="1" stop-color="#A2A2A2"/>
</linearGradient>
<clipPath id="clip0">
<rect width="32" height="32" fill="white" transform="translate(0 0.17749)"/>
</clipPath>
</defs>
</svg>
