<svg width="32" height="33" viewBox="0 0 32 33" fill="none" xmlns="http://www.w3.org/2000/svg">
<g clip-path="url(#clip0)">
<path d="M29.7068 10.2389C29.5774 9.62468 28.3814 8.78419 27.7672 8.52576C27.7672 8.52576 27.6057 8.10554 27.2177 7.94399C26.8296 7.78243 26.3448 6.19845 26.3772 8.13797C26.3772 8.13797 25.3105 7.58845 24.7933 7.58845C24.7933 7.58845 24.373 8.332 24.7933 9.14001C24.7933 9.14001 24.0497 9.46334 22.8861 10.0126C21.7223 10.5622 19.1687 10.4653 16.5828 9.43086C13.9968 8.3964 11.1521 8.33172 9.50366 9.7542C9.50366 9.7542 7.1763 10.3038 6.56205 11.0473C5.94786 11.7909 2.45673 12.7282 1.03448 10.1422C-0.387775 7.55619 -0.0968622 11.1442 0.452708 11.9524C1.00228 12.7607 2.90937 16.3487 7.95205 12.9869C7.95205 12.9869 8.30764 15.1204 9.9563 15.7669C11.605 16.4133 11.605 18.4822 11.4757 18.9347C11.3463 19.3871 11.6372 21.1974 11.4757 21.7147C11.3141 22.2318 12.5423 23.1369 12.8332 24.7856C12.8332 24.7856 12.801 25.6582 13.5768 24.7856C13.5768 24.7856 13.7383 25.1412 14.2232 24.9149C14.2232 24.9149 14.9668 25.2705 15.0959 24.5916C15.2252 23.9127 15.2252 23.6865 14.5141 23.2016C13.8031 22.7167 12.0897 20.551 13.415 19.3871C14.7404 18.2233 14.999 17.9325 14.999 16.4131C14.999 16.4131 17.4557 16.9627 17.876 17.9971C17.876 17.9971 17.6819 19.7427 17.5851 20.0335C17.4882 20.3244 15.2577 20.4538 14.6435 22.0053C14.6435 22.0053 14.6758 22.3933 14.9668 22.3609C14.9668 22.3609 15.0962 22.9751 15.4193 22.7489C15.7424 22.5227 16.8093 21.7144 17.9084 21.7469C19.0076 21.7791 18.8782 20.8418 19.0723 20.5184C19.2662 20.1952 19.5894 19.2578 19.5894 19.1284C19.5894 19.1284 20.462 20.0982 20.3976 20.6153C20.3329 21.1324 20.0096 21.068 19.654 21.1324C19.2984 21.1969 18.4902 21.8435 18.6196 22.1344C18.6196 22.1344 17.9084 22.9749 18.3609 22.9749C18.8134 22.9749 20.074 22.5869 20.5267 22.1667C20.9791 21.7464 22.0135 21.7464 21.9489 20.8091C21.8842 19.8718 21.7549 18.8049 21.7549 18.8049C21.7549 18.8049 25.4076 17.0918 26.6036 15.4109C27.7996 13.73 28.2523 13.2774 29.4158 13.5685C30.5794 13.8596 30.7734 13.4716 30.7734 13.4716C30.7734 13.4716 32.228 12.6312 31.9694 11.9523C31.9697 11.952 29.8361 10.8529 29.7068 10.2389Z" fill="url(#paint0_linear)"/>
</g>
<defs>
<linearGradient id="paint0_linear" x1="16.0001" y1="7.18164" x2="16.0001" y2="25.1734" gradientUnits="userSpaceOnUse">
<stop stop-color="#030303"/>
<stop offset="1" stop-color="#A1A1A1"/>
</linearGradient>
<clipPath id="clip0">
<rect width="32" height="32" fill="white" transform="translate(0 0.17749)"/>
</clipPath>
</defs>
</svg>
