<svg width="12" height="16" viewBox="0 0 12 16" fill="none" xmlns="http://www.w3.org/2000/svg">
<path d="M6.67052 0.55132C6.23208 -0.196612 5.76784 -0.170821 5.3294 0.55132C3.31772 3.54305 0.274414 8.03064 0.274414 10.2744C0.274414 11.8477 0.919183 13.2919 1.95081 14.3236C2.98244 15.3552 4.42672 16 5.99996 16C7.57319 16 9.01748 15.3552 10.0491 14.3236C11.0807 13.2919 11.7255 11.8477 11.7255 10.2744C11.7255 8.00485 8.6822 3.54305 6.67052 0.55132ZM10.1265 12.8277C9.71383 13.4983 9.12064 14.0915 8.3985 14.5041C8.06322 14.6847 7.65057 14.5815 7.47003 14.2462C7.26371 13.8851 7.39266 13.4725 7.72794 13.2919C8.24375 13.0083 8.65641 12.5956 8.96589 12.1056C9.27538 11.6156 9.45592 11.0482 9.48171 10.455C9.5075 10.0681 9.81699 9.78441 10.2039 9.8102C10.5907 9.83599 10.8744 10.1455 10.8486 10.5323C10.797 11.3576 10.5391 12.1314 10.1265 12.8277Z" fill="white"/>
</svg>
