<svg width="14" height="14" viewBox="0 0 14 14" fill="none" xmlns="http://www.w3.org/2000/svg">
<path d="M12.7306 1.7615C12.1134 1.14426 11.2839 0.777771 10.3388 0.777771C9.41294 0.777771 8.56424 1.16355 7.947 1.7615C7.32976 2.37874 6.96327 3.20815 6.96327 4.1533C6.96327 4.55836 7.29118 4.88627 7.69625 4.88627C8.10131 4.88627 8.42922 4.55836 8.42922 4.1533C8.42922 3.6325 8.64139 3.15028 8.98859 2.80309C9.33579 2.45589 9.81801 2.24371 10.3388 2.24371C10.8596 2.24371 11.3418 2.45589 11.689 2.80309C12.0362 3.15028 12.2484 3.6325 12.2484 4.1533C12.2484 4.67409 12.0362 5.15631 11.689 5.50351C11.3418 5.85071 10.8596 6.06288 10.3388 6.06288C10.3195 6.06288 10.3002 6.06288 10.2809 6.06288H1.31168C0.906613 6.06288 0.578705 6.39079 0.578705 6.79585C0.578705 7.20092 0.906613 7.52883 1.31168 7.52883H10.2809C10.3002 7.52883 10.3195 7.52883 10.3388 7.52883C11.2647 7.52883 12.1134 7.14305 12.7306 6.5451C13.3478 5.92786 13.7143 5.09845 13.7143 4.1533C13.7143 3.22744 13.3286 2.37874 12.7306 1.7615Z" fill="white"/>
<path d="M7.75407 8.35822C7.73478 8.35822 7.71549 8.35822 7.6962 8.35822H0.732971C0.327908 8.35822 0 8.68612 0 9.09119C0.0192887 9.47696 0.347197 9.80487 0.75226 9.80487H7.71549C7.73478 9.80487 7.75407 9.80487 7.77336 9.80487C8.13984 9.80487 8.46775 9.95918 8.7185 10.1906C8.94997 10.4221 9.10428 10.7693 9.10428 11.1358C9.10428 11.5023 8.94997 11.8302 8.7185 12.0809C8.48704 12.3124 8.13984 12.4667 7.77336 12.4667C7.40687 12.4667 7.07896 12.3124 6.82821 12.0809C6.59674 11.8495 6.44243 11.5023 6.44243 11.1358C6.44243 10.7307 6.11453 10.4028 5.70946 10.4028C5.3044 10.4028 4.97649 10.7307 4.97649 11.1358C4.97649 11.9073 5.28511 12.6017 5.78662 13.1033C6.28812 13.6048 6.98252 13.9134 7.75407 13.9134C8.52562 13.9134 9.22001 13.6048 9.72152 13.1033C10.223 12.6017 10.5316 11.9073 10.5316 11.1358C10.5316 10.3642 10.223 9.66985 9.72152 9.16834C9.22001 8.66684 8.52562 8.35822 7.75407 8.35822Z" fill="white"/>
</svg>
