<?xml version="1.0" encoding="utf-8"?>
<!-- Generator: Adobe Illustrator 23.0.2, SVG Export Plug-In . SVG Version: 6.00 Build 0)  -->
<svg version="1.1" id="Layer_1" xmlns="http://www.w3.org/2000/svg" xmlns:xlink="http://www.w3.org/1999/xlink" x="0px" y="0px"
	 viewBox="0 0 1080 1080" style="enable-background:new 0 0 0 0;" xml:space="preserve">
<style type="text/css">
	.st0{fill:#F1F2F2;}
	.st1{fill:#404041;}
	.st2{fill:#0A9F30;}
</style>
<g>
	<polygon class="st0" points="263.2,373.85 663.71,373.85 631.86,523.62 814.65,523.62 775.8,706.3 389.31,706.3 421.17,556.53 
		224.35,556.53 	"/>
	<g>
		<path class="st1" d="M840.77,539.47c-2.37,0-4.55-0.4-6.54-1.21c-1.99-0.8-3.72-1.92-5.18-3.33c-1.46-1.42-2.6-3.09-3.42-5.03
			c-0.82-1.93-1.23-4.04-1.23-6.32c0-2.25,0.41-4.34,1.23-6.28c0.82-1.93,1.96-3.6,3.42-5c1.46-1.4,3.19-2.51,5.18-3.31
			c1.99-0.8,4.17-1.21,6.54-1.21c2.37,0,4.56,0.4,6.56,1.21c2,0.8,3.74,1.91,5.22,3.31c1.48,1.4,2.63,3.07,3.47,5
			c0.83,1.93,1.25,4.02,1.25,6.28c0,2.28-0.42,4.39-1.25,6.32c-0.83,1.93-1.99,3.61-3.47,5.03c-1.48,1.42-3.22,2.53-5.22,3.33
			C845.33,539.06,843.14,539.47,840.77,539.47z M840.77,537.58c2.02,0,3.9-0.34,5.64-1.01c1.74-0.67,3.26-1.62,4.56-2.85
			c1.3-1.23,2.32-2.7,3.05-4.41c0.73-1.71,1.1-3.6,1.1-5.68c0-1.96-0.36-3.79-1.08-5.49c-0.72-1.7-1.72-3.17-3.01-4.41
			c-1.29-1.24-2.81-2.22-4.56-2.94c-1.76-0.72-3.66-1.08-5.7-1.08c-2.08,0-3.98,0.36-5.7,1.08c-1.73,0.72-3.23,1.7-4.5,2.94
			c-1.27,1.24-2.26,2.71-2.96,4.39c-0.7,1.68-1.05,3.5-1.05,5.46c0,1.99,0.35,3.83,1.05,5.53c0.7,1.7,1.69,3.17,2.96,4.43
			c1.27,1.26,2.77,2.25,4.5,2.96C836.8,537.22,838.7,537.58,840.77,537.58z M833.84,513.84h8.47c0.88,0,1.69,0.18,2.43,0.55
			c0.75,0.37,1.38,0.85,1.91,1.45c0.53,0.6,0.94,1.28,1.25,2.04c0.31,0.76,0.46,1.53,0.46,2.33c0,1.32-0.36,2.5-1.07,3.56
			c-0.72,1.05-1.66,1.77-2.83,2.15l4.7,7.42h-3.91l-4.3-6.8h-3.64v6.8h-3.47V513.84z M842.09,523.49c0.91,0,1.61-0.3,2.11-0.9
			c0.5-0.6,0.75-1.4,0.75-2.39c0-1.02-0.28-1.82-0.86-2.39c-0.57-0.57-1.28-0.86-2.13-0.86h-4.65v6.54H842.09z"/>
	</g>
	<g>
		<polygon class="st1" points="311.56,479.21 314.65,496.88 342.57,496.88 352.45,480.44 343.33,523.62 380.26,523.62 
			405.12,406.76 366.36,406.76 337.42,453.22 328.38,406.76 289.97,406.76 265.12,523.62 302.06,523.62 		"/>
		<path class="st1" d="M424.27,523.62l12.51-26.74h18.41l1.35,26.74h25.69h11.79h29.24l22.08-26.74l13.33,26.74h39.55l-28.52-56.64
			l50.02-60.23h-45.86l-21.14,25.6l-12.77-25.6H500.4l27.65,55.46l-36.04,43.65l-11.03-99.11H448.6l-62.71,116.86H424.27z
			 M445.91,475.75l8.17-17.45l0.63,17.45H445.91z"/>
	</g>
	<polygon class="st2" points="473.87,640.49 491.75,556.53 454.81,556.53 429.96,673.39 513.39,673.39 520.35,640.49 	"/>
	<polygon class="st2" points="543.79,556.53 518.93,673.39 555.87,673.39 580.72,556.53 	"/>
	<polygon class="st2" points="649.81,556.53 639.37,606.12 614.64,556.53 586.38,556.53 561.53,673.39 598.47,673.39 608.88,624.29 
		633.36,673.39 661.9,673.39 686.75,556.53 	"/>
	<polygon class="st2" points="765.63,589.44 772.6,556.53 692.29,556.53 667.43,673.39 749.15,673.39 756.12,640.49 711.35,640.49 
		713.7,629.55 750.7,629.55 757.38,598.51 720.35,598.51 722.26,589.44 	"/>
</g>
</svg>
