<svg width="17" height="17" viewBox="0 0 17 17" fill="none" xmlns="http://www.w3.org/2000/svg">
<g clip-path="url(#clip0)">
<path d="M1.2821 3.67737H16.1588V4.82023H1.2821V3.67737Z" fill="#3CDEF6"/>
<path d="M1.2821 5.39392H16.1588V11.1059H1.2821V5.39392Z" fill="#29A3EC"/>
<path d="M1.2821 11.6797H16.1588V12.8226H1.2821V11.6797Z" fill="#3CDEF6"/>
<path d="M8.43408 3.39471V13.105H9.00356V3.39471H8.43408Z" fill="white"/>
<path d="M0.852173 4.8205V5.39418H16.5857V4.8205H0.852173Z" fill="white"/>
<path d="M0.852173 11.1057V11.6793H16.5857V11.1057H0.852173Z" fill="white"/>
<path d="M0.852173 7.96307V8.53675H1.8532V7.96307H0.852173Z" fill="white"/>
<path d="M15.5848 7.96307V8.53675H16.5859V7.96307H15.5848Z" fill="white"/>
<path d="M4.71289 4.96384V11.5358H5.28657V4.96384H4.71289Z" fill="white"/>
<path d="M12.1552 4.96384V11.5358H12.7246V4.96384H12.1552Z" fill="white"/>
<path d="M4.85645 7.96307V8.53675H12.5817V7.96307H4.85645Z" fill="white"/>
<path d="M0.708496 3.10822V13.3916H16.7295V3.10822H0.708496ZM1.28289 3.67736H16.1596V12.8225H1.28289V3.67736Z" fill="#5A3392"/>
</g>
<defs>
<clipPath id="clip0">
<rect width="16.021" height="16" fill="white" transform="translate(0.708496 0.249939)"/>
</clipPath>
</defs>
</svg>
