<svg width="17" height="17" viewBox="0 0 17 17" fill="none" xmlns="http://www.w3.org/2000/svg">
<g clip-path="url(#clip0)">
<path d="M15.1036 13.2499H2.33448C1.57476 13.2499 0.958862 12.6348 0.958862 11.8761V4.62375C0.958862 3.86503 1.57476 3.24994 2.33448 3.24994H15.1036C15.8633 3.24994 16.4792 3.86503 16.4792 4.62375V11.8761C16.4792 12.6348 15.8633 13.2499 15.1036 13.2499Z" fill="white"/>
<path d="M14.9834 11.7756C14.9834 12.5893 15.6531 13.246 16.4678 13.246H15.4665C14.6517 13.246 14.0026 12.5903 14.0026 11.7766V4.72331C14.0026 3.90959 14.6517 3.25412 15.4665 3.25412H16.4678C15.653 3.25412 14.9834 3.91168 14.9834 4.7254V11.7756Z" fill="#E6E6E6"/>
<path d="M2.44854 11.7756C2.44854 12.5893 1.78473 13.246 0.969971 13.246H1.97129C2.78608 13.246 3.46212 12.5903 3.46212 11.7766V4.72331C3.46212 3.90959 2.78608 3.25412 1.97129 3.25412H0.969971C1.78476 3.25412 2.44854 3.91168 2.44854 4.7254V11.7756Z" fill="#E6E6E6"/>
<path d="M13.238 9.74485V9.25506C13.7939 9.25506 14.2445 8.80416 14.2445 8.24997C14.2445 7.69575 13.7939 7.24488 13.238 7.24488V6.7551C14.0554 6.7551 14.7349 7.42569 14.7349 8.24997C14.7349 9.07425 14.0554 9.74485 13.238 9.74485Z" fill="#ED1C24"/>
<path d="M4.1996 9.74485C3.38221 9.74485 2.70276 9.07425 2.70276 8.24997C2.70276 7.42569 3.38221 6.7551 4.1996 6.7551V7.24488C3.64378 7.24488 3.19318 7.69578 3.19318 8.24997C3.19318 8.80419 3.64378 9.25506 4.1996 9.25506V9.74485Z" fill="#ED1C24"/>
<path d="M12.7242 6.24484C12.0369 6.24484 11.4777 5.68638 11.4777 4.99994C11.4777 4.3135 12.0369 3.75504 12.7242 3.75504C13.4115 3.75504 13.9708 4.3135 13.9708 4.99994C13.9708 5.68638 13.4116 6.24484 12.7242 6.24484ZM12.7242 4.24485C12.3073 4.24485 11.9681 4.5836 11.9681 4.99994C11.9681 5.41631 12.3073 5.75503 12.7242 5.75503C13.1411 5.75503 13.4803 5.41628 13.4803 4.99994C13.4803 4.5836 13.1411 4.24485 12.7242 4.24485Z" fill="#ED1C24"/>
<path d="M12.7242 12.7448C12.0369 12.7448 11.4777 12.1863 11.4777 11.4999C11.4777 10.8135 12.0369 10.255 12.7242 10.255C13.4115 10.255 13.9708 10.8135 13.9708 11.4999C13.9708 12.1864 13.4116 12.7448 12.7242 12.7448ZM12.7242 10.7448C12.3073 10.7448 11.9681 11.0836 11.9681 11.4999C11.9681 11.9163 12.3073 12.255 12.7242 12.255C13.1411 12.255 13.4803 11.9163 13.4803 11.4999C13.4803 11.0836 13.1411 10.7448 12.7242 10.7448Z" fill="#ED1C24"/>
<path d="M8.9799 7.98874H8.49011V8.51117H8.9799V7.98874Z" fill="#0071BC"/>
<path d="M13.0014 11.2541H12.4463V11.7438H13.0014V11.2541Z" fill="#0071BC"/>
<path d="M13.0014 4.75607H12.4463V5.24585H13.0014V4.75607Z" fill="#0071BC"/>
<path d="M4.71371 6.24484C4.02634 6.24484 3.46716 5.68638 3.46716 4.99994C3.46716 4.3135 4.02634 3.75504 4.71371 3.75504C5.40102 3.75504 5.96022 4.3135 5.96022 4.99994C5.96022 5.68638 5.40105 6.24484 4.71371 6.24484ZM4.71371 4.24485C4.29682 4.24485 3.95762 4.5836 3.95762 4.99994C3.95762 5.41631 4.29682 5.75503 4.71371 5.75503C5.13063 5.75503 5.46976 5.41628 5.46976 4.99994C5.46976 4.5836 5.1306 4.24485 4.71371 4.24485Z" fill="#ED1C24"/>
<path d="M4.71371 12.7448C4.02634 12.7448 3.46716 12.1863 3.46716 11.4999C3.46716 10.8135 4.02634 10.255 4.71371 10.255C5.40102 10.255 5.96022 10.8135 5.96022 11.4999C5.96022 12.1864 5.40105 12.7448 4.71371 12.7448ZM4.71371 10.7448C4.29682 10.7448 3.95762 11.0836 3.95762 11.4999C3.95762 11.9163 4.29682 12.255 4.71371 12.255C5.13063 12.255 5.46976 11.9163 5.46976 11.4999C5.46976 11.0836 5.1306 10.7448 4.71371 10.7448Z" fill="#ED1C24"/>
<path d="M4.99088 11.2541H4.43579V11.7438H4.99088V11.2541Z" fill="#0071BC"/>
<path d="M4.99088 4.75607H4.43579V5.24585H4.99088V4.75607Z" fill="#0071BC"/>
<path d="M8.9799 10.0132H8.49011V10.503H8.9799V10.0132Z" fill="#ED1C24"/>
<path d="M8.9799 10.7642H8.49011V11.254H8.9799V10.7642Z" fill="#ED1C24"/>
<path d="M8.9799 11.4826H8.49011V11.9724H8.9799V11.4826Z" fill="#ED1C24"/>
<path d="M8.9799 5.24582H8.49011V5.7356H8.9799V5.24582Z" fill="#ED1C24"/>
<path d="M8.9799 5.99686H8.49011V6.48664H8.9799V5.99686Z" fill="#ED1C24"/>
<path d="M9.96547 8.24992C9.96547 7.64161 9.5262 7.13414 8.94791 7.02645V6.74799H8.45749V7.03283C7.89528 7.1532 7.47241 7.65308 7.47241 8.24995C7.47241 8.84682 7.89528 9.34673 8.45749 9.46707V9.7521H8.94791V9.47345C9.52624 9.3657 9.96547 8.85823 9.96547 8.24992ZM8.71892 9.00501C8.302 9.00501 7.96284 8.66626 7.96284 8.24992C7.96284 7.83358 8.30203 7.49483 8.71892 7.49483C9.13582 7.49483 9.47501 7.83358 9.47501 8.24992C9.47501 8.66626 9.13582 9.00501 8.71892 9.00501Z" fill="#ED1C24"/>
<path d="M14.9632 3.25406H14.4734V13.2459H14.9632V3.25406Z" fill="#0071BC"/>
<path d="M2.96378 3.25406H2.474V13.2459H2.96378V3.25406Z" fill="#0071BC"/>
<path d="M10.9743 3.25406H10.4845V13.2459H10.9743V3.25406Z" fill="#0071BC"/>
<path d="M6.95267 3.25406H6.46289V13.2459H6.95267V3.25406Z" fill="#0071BC"/>
<path d="M15.0288 3.00504H2.40923C1.47425 3.00504 0.713623 3.76472 0.713623 4.69841V11.8014C0.713623 12.7351 1.47431 13.4948 2.40923 13.4948H15.0288C15.9637 13.4948 16.7244 12.7351 16.7244 11.8014V4.69847C16.7244 3.76472 15.9637 3.00504 15.0288 3.00504ZM8.71901 4.00922C8.38523 4.00922 8.10145 3.79719 8.00151 3.49485H9.43658C9.33657 3.79719 9.0528 4.00922 8.71901 4.00922ZM16.2339 11.8014C16.2339 12.4651 15.6933 13.005 15.0288 13.005H8.94797V12.2337H8.45754V13.005H2.40923C1.74466 13.005 1.20405 12.4651 1.20405 11.8014V4.69847C1.20405 4.03479 1.74466 3.49488 2.40923 3.49488H7.49609C7.5921 3.98135 7.97297 4.36741 8.45751 4.47122V5.01741H8.94794V4.47763C9.44791 4.38441 9.84374 3.99219 9.94187 3.49491H15.0287C15.6933 3.49491 16.2339 4.03482 16.2339 4.6985L16.2339 11.8014Z" fill="#ED1C24"/>
</g>
<defs>
<clipPath id="clip0">
<rect width="16.021" height="16" fill="white" transform="matrix(-1 0 0 1 16.7295 0.249939)"/>
</clipPath>
</defs>
</svg>
