<svg width="17" height="17" viewBox="0 0 17 17" fill="none" xmlns="http://www.w3.org/2000/svg">
<g clip-path="url(#clip0)">
<path d="M9.19824 14.3436L8.80457 13.4061L8.26074 14.3436L0.729495 14.3436L0.729495 11.5311L1.66699 11.1842L0.729495 10.5936L0.729495 5.90613L1.66699 5.51245L0.729495 4.96863L0.729495 2.15613L8.26074 2.15613L8.65454 3.09363L9.19824 2.15613L16.7295 2.15613L16.7295 4.96863L15.792 5.5592L16.7295 5.90613L16.7295 10.5936L15.792 11.1842L16.7295 11.5311L16.7295 14.3436L9.19824 14.3436Z" fill="#90E36A"/>
<path d="M9.19825 14.3436L8.80457 13.4061L8.26075 14.3436L0.729502 14.3436L0.729503 11.5311L1.667 11.1842L0.729503 10.5936L0.729503 8.24988L16.7295 8.24988L16.7295 10.5936L15.792 11.1842L16.7295 11.5311L16.7295 14.3436L9.19825 14.3436Z" fill="#56C225"/>
<path d="M16.7295 11.5311L12.9482 11.5311L12.9482 4.96863L16.7295 4.96863L16.7295 5.90613L13.8857 5.90613L13.8857 10.5936L16.7295 10.5936L16.7295 11.5311Z" fill="#DEECF1"/>
<path d="M4.51074 11.5311L0.729492 11.5311L0.729492 10.5936L3.57324 10.5936L3.57324 5.90611L0.729492 5.90611L0.729492 4.96861L4.51074 4.96861L4.51074 11.5311Z" fill="#DEECF1"/>
<path d="M9.19824 10.5467C10.267 10.331 11.0732 9.38427 11.0732 8.24987C11.0732 7.11547 10.267 6.16869 9.19824 5.95299L9.19824 2.15611L8.26074 2.15611L8.26074 5.95299C7.19202 6.16869 6.38574 7.11547 6.38574 8.24987C6.38574 9.38427 7.19202 10.331 8.26074 10.5467L8.26074 14.3436L9.19824 14.3436L9.19824 10.5467ZM7.32324 8.24987C7.32324 7.64049 7.71704 7.12487 8.26074 6.92797L8.26074 9.57177C7.71704 9.37487 7.32324 8.85924 7.32324 8.24987ZM9.19824 6.92797C9.74207 7.12487 10.1357 7.64049 10.1357 8.24987C10.1357 8.85924 9.74207 9.37487 9.19824 9.57177L9.19824 6.92797Z" fill="#DEECF1"/>
<path d="M12.9482 11.5311L12.9482 8.24988L13.8857 8.24988L13.8857 10.5936L16.7295 10.5936L16.7295 11.5311L12.9482 11.5311Z" fill="#C6E2E7"/>
<path d="M4.51074 8.24985L4.51074 11.5311L0.729492 11.5311L0.729492 10.5936L3.57324 10.5936L3.57324 8.24985L4.51074 8.24985Z" fill="#C6E2E7"/>
<path d="M9.19825 14.3436L8.26075 14.3436L8.26075 10.5468C7.19203 10.3311 6.38576 9.38428 6.38576 8.24988L7.32325 8.24988C7.32325 8.85925 7.71705 9.37488 8.26075 9.57178L8.26075 8.24988L9.19825 8.24988L9.19825 9.57178C9.74207 9.37488 10.1357 8.85925 10.1357 8.24988L11.0732 8.24988C11.0732 9.38428 10.267 10.3311 9.19825 10.5468L9.19825 14.3436Z" fill="#C6E2E7"/>
</g>
<defs>
<clipPath id="clip0">
<rect width="16" height="16" fill="white" transform="translate(16.7295 0.249878) rotate(90)"/>
</clipPath>
</defs>
</svg>
