<svg width="167" height="51" viewBox="0 0 167 51" fill="none" xmlns="http://www.w3.org/2000/svg">
<g filter="url(#filter0_d)">
<path d="M1.97375 37.6292C2.1748 37.5288 2.37584 37.4283 2.57689 37.2274C4.08472 35.821 5.69307 34.5151 7.2009 33.1087C7.50246 32.8074 7.80403 32.7069 8.20612 32.7069C25.2948 32.7069 42.2831 32.7069 59.3718 32.7069C65.9057 32.7069 72.3391 32.7069 78.873 32.7069C79.3757 32.7069 79.5767 32.8074 79.5767 33.4101C79.5767 34.716 79.5767 36.0219 79.5767 37.3279C79.5767 37.8301 79.4762 37.9306 78.9736 37.9306C72.7412 37.9306 66.5088 37.9306 60.377 37.9306C41.1773 37.9306 22.0781 37.9306 2.87845 37.9306C2.67741 37.9306 2.47636 37.9306 2.1748 37.9306C2.07428 37.8301 2.07428 37.7297 1.97375 37.6292Z" fill="white"/>
<path d="M154.466 12.4148H84.5023L96.766 0.761963C96.766 0.761963 166.729 0.761963 166.93 0.761963C167.031 0.862419 154.466 12.4148 154.466 12.4148Z" fill="#3BB54A"/>
<path d="M26.5013 20.3508C23.2846 23.264 20.1684 25.9763 17.0522 28.7891C17.0522 25.9763 17.0522 23.264 17.0522 20.3508C13.8355 23.264 10.8199 25.9763 7.60315 28.8895C7.60315 28.0859 7.60315 27.4831 7.60315 26.78C7.60315 25.1727 7.60315 23.4649 7.60315 21.8576C7.60315 21.6567 7.70367 21.2549 7.90472 21.1544C13.1319 16.433 18.359 11.8121 23.5861 7.09066C23.7872 6.9902 23.8877 6.78929 24.1893 6.58838C24.1893 8.89886 24.1893 11.2093 24.1893 13.5198C27.0039 11.2093 29.718 8.89886 32.5326 6.58838C32.5326 13.9216 32.5326 21.054 32.5326 28.2868C30.6227 28.2868 28.6122 28.2868 26.6018 28.2868C26.5013 25.7754 26.5013 23.0631 26.5013 20.3508Z" fill="white"/>
<path d="M110.839 16.7345C114.056 19.5472 117.172 22.36 120.389 25.2732C120.389 24.9719 120.389 24.7709 120.389 24.57C120.389 22.1591 120.389 19.6477 120.389 17.2368C120.389 16.7345 120.59 16.634 121.092 16.634C122.5 16.634 124.007 16.634 125.415 16.634C125.917 16.634 126.118 16.7345 126.118 17.3372C126.118 22.7618 126.118 28.1864 126.118 33.611C126.118 34.917 126.118 36.3233 126.118 37.6293C126.118 37.8302 126.118 38.0311 126.118 38.3324C121.193 33.9124 116.368 29.5928 111.543 25.2732C111.543 25.675 111.543 25.876 111.543 26.0769C111.543 29.7937 111.543 33.5106 111.543 37.2274C111.543 37.9306 111.543 37.9306 110.839 37.9306C109.331 37.9306 107.924 37.9306 106.416 37.9306C106.014 37.9306 105.913 37.8302 105.913 37.4283C105.913 32.1042 105.913 26.8805 105.913 21.5564C105.913 21.3554 106.014 21.1545 106.114 21.0541C107.522 19.6477 109.13 18.2413 110.839 16.7345Z" fill="white"/>
<path d="M55.8535 28.3873C53.9436 28.3873 52.1342 28.3873 50.2243 28.3873C50.2243 27.4832 50.2243 26.5791 50.2243 25.5745C46.8065 25.5745 43.4893 25.5745 40.1721 25.5745C40.1721 25.5745 40.1721 25.4741 40.0715 25.4741C40.1721 25.3736 40.3731 25.2732 40.4736 25.1727C42.1825 23.6659 43.7909 22.159 45.4997 20.6522C45.7008 20.4513 46.0023 20.3508 46.3039 20.3508C47.5102 20.3508 48.817 20.3508 50.1237 20.3508C50.1237 18.5426 50.1237 16.7344 50.1237 14.9262C44.8966 19.5472 39.6695 24.1682 34.4423 28.8896C34.4423 28.6887 34.3418 28.5882 34.3418 28.3873C34.3418 26.2777 34.3418 24.0677 34.3418 21.9581C34.3418 21.7572 34.4423 21.4559 34.6434 21.2549C39.6695 16.634 44.7961 12.013 49.8222 7.39207C49.9227 7.29162 50.1237 7.19116 50.3248 7.19116C52.1342 7.19116 53.8431 7.19116 55.753 7.19116C55.8535 14.1226 55.8535 21.2549 55.8535 28.3873Z" fill="white"/>
<path d="M69.3236 19.8485C65.9059 22.8622 62.4881 25.8759 59.0704 28.99C59.0704 28.6886 59.0704 28.5882 59.0704 28.3872C59.0704 26.1772 59.0704 23.9672 59.0704 21.8576C59.0704 21.5563 59.2714 21.2549 59.4725 21.054C61.1813 19.5471 62.8902 18.0403 64.5991 16.433C64.8001 16.2321 65.0012 16.0312 65.2022 15.8303C63.1918 13.9216 61.2819 12.013 59.2714 10.1043C60.5782 8.89885 61.885 7.69338 63.2923 6.48792C65.3027 8.39657 67.4137 10.3052 69.4241 12.2139C70.1278 11.6112 70.7309 11.0084 71.4346 10.5061C72.6408 9.40113 73.8471 8.39657 75.0534 7.29156C75.2544 7.1911 75.4555 6.99019 75.6565 6.99019C78.2701 6.99019 80.8836 6.99019 83.4972 6.99019C83.5977 6.99019 83.5977 6.99019 83.7988 6.99019C80.4816 10.0039 77.1643 12.9171 73.8471 15.9307C74.5508 16.6339 75.2544 17.2367 75.9581 17.8394C77.1643 18.9444 78.2701 20.0494 79.4763 21.1544C79.5769 21.2549 79.7779 21.5563 79.7779 21.7572C79.7779 24.0677 79.7779 26.3781 79.7779 28.6886C79.7779 28.7891 79.7779 28.7891 79.6774 28.99C76.0586 25.9763 72.6408 22.8622 69.3236 19.8485Z" fill="white"/>
<path d="M148.736 16.7344C147.53 17.8394 146.424 18.8439 145.419 19.8485C144.916 20.3508 144.413 20.7526 143.911 21.2549C143.509 21.6567 143.207 21.7572 142.604 21.7572C140.091 21.7572 137.578 21.7572 135.065 21.7572C134.562 21.7572 134.361 21.8576 134.361 22.4603C134.361 23.0631 134.361 23.7663 134.361 24.369C134.361 24.8713 134.562 24.9717 134.964 24.9717C137.477 24.9717 139.99 24.9717 142.403 24.9717C143.207 24.9717 143.207 24.9717 143.207 25.7754C143.207 26.9808 143.207 28.1863 143.207 29.3918C143.207 29.8941 143.006 30.095 142.503 30.095C139.99 30.095 137.477 30.095 135.065 30.095C134.361 30.095 134.361 30.095 134.361 30.7982C134.361 31.3004 134.361 31.9032 134.361 32.4054C134.361 32.8073 134.462 32.9077 134.964 32.9077C137.578 32.9077 140.091 32.9077 142.704 32.9077C143.207 32.9077 143.408 33.0082 143.408 33.6109C143.408 34.9168 143.408 36.3232 143.408 37.6291C143.408 38.031 143.308 38.1314 142.906 38.1314C138.382 38.1314 133.959 38.1314 129.436 38.1314C129.034 38.1314 128.933 38.031 128.933 37.6291C128.933 32.5059 128.933 27.3827 128.933 22.2594C128.933 22.0585 129.034 21.7572 129.235 21.6567C130.943 20.1499 132.652 18.643 134.361 17.1362C134.562 17.0357 134.763 16.8348 134.964 16.8348C139.588 16.8348 144.112 16.8348 148.736 16.8348C148.535 16.7344 148.535 16.7344 148.736 16.7344Z" fill="white"/>
<path d="M88.8248 16.8348C88.8248 22.159 88.8248 27.4831 88.8248 32.8073C89.1264 32.8073 89.3274 32.8073 89.5284 32.8073C91.2373 32.8073 93.0467 32.8073 94.7556 32.8073C95.1577 32.8073 95.2582 32.9077 95.2582 33.3096C95.2582 34.6155 95.2582 36.0219 95.2582 37.3278C95.2582 37.7296 95.1577 37.9305 94.6551 37.9305C91.0363 37.9305 87.4175 37.9305 83.7987 37.9305C83.3966 37.9305 83.1956 37.8301 83.1956 37.3278C83.1956 32.2045 83.1956 27.1818 83.1956 22.0585C83.1956 21.8576 83.2961 21.5563 83.4971 21.4558C85.206 19.949 86.9149 18.4421 88.6237 16.9353C88.6237 16.9353 88.6237 16.9353 88.8248 16.8348Z" fill="white"/>
<path d="M103.099 16.8348C103.099 17.0358 103.099 17.2367 103.099 17.4376C103.099 24.0676 103.099 30.6977 103.099 37.3278C103.099 37.8301 102.998 38.031 102.496 38.031C100.988 38.031 99.5806 38.031 98.0728 38.031C97.6707 38.031 97.4697 37.9305 97.4697 37.5287C97.4697 32.4055 97.4697 27.2822 97.4697 22.2594C97.4697 22.0585 97.5702 21.7572 97.7712 21.5563C99.4801 20.0494 101.189 18.5426 102.797 17.0357C102.898 16.9353 102.998 16.9353 103.099 16.8348Z" fill="white"/>
<path d="M2.27554 41.8491H7.40215L7.20111 43.0546H3.4818L3.18023 44.3605H4.98963C5.69328 44.3605 6.19589 44.461 6.49746 44.7623C6.79902 45.0637 7.00007 45.4655 7.00007 46.0683C7.00007 46.5705 6.89954 46.8719 6.59798 47.2737C6.39693 47.5751 5.99485 47.8765 5.59276 48.0774C5.09015 48.2783 4.58754 48.3787 3.98441 48.3787H0.96875L2.27554 41.8491ZM4.08493 47.1733C4.48702 47.1733 4.88911 47.0728 5.09015 46.8719C5.29119 46.671 5.49224 46.4701 5.49224 46.1687C5.49224 45.9678 5.39172 45.7669 5.29119 45.6664C5.09015 45.566 4.88911 45.4655 4.48702 45.4655H2.97919L2.67762 47.1733H4.08493Z" fill="white"/>
<path d="M14.5392 41.8484L10.8199 46.9716C10.5183 47.4739 10.1163 47.7753 9.71417 48.0766C9.31208 48.378 8.90999 48.4785 8.50791 48.4785C8.20634 48.4785 7.80425 48.378 7.50269 48.2775L8.0053 47.1725C8.20634 47.273 8.40738 47.273 8.50791 47.273C8.70895 47.273 8.90999 47.273 9.11104 47.1725C9.31208 47.0721 9.4126 46.9716 9.61365 46.7707L9.71417 46.6703L8.0053 41.8484H9.51312L10.5183 45.2639L12.9309 41.8484H14.5392Z" fill="white"/>
<path d="M18.2584 44.9625L19.7662 48.1771H18.1579L17.0522 45.6657H15.9464L15.4438 48.2776H13.936L15.2428 41.9489H16.7506L16.248 44.5607H17.2532L19.4647 41.9489H21.073L18.2584 44.9625Z" fill="white"/>
<path d="M28.9139 41.8484L27.6071 48.1771H26.1998L27.004 44.3598L24.5915 47.4739H23.8878L22.5811 44.2593L21.7769 48.0766H20.3696L21.6764 41.7479H22.8826L24.491 45.7662L27.6071 41.7479H28.9139V41.8484Z" fill="white"/>
<path d="M31.7285 43.0539L31.4269 44.4602H34.3421L34.141 45.5653H31.1254L30.8238 47.0721H34.3421L34.141 48.2776H29.2155L30.5222 41.9489H35.3473L35.1462 43.0539H31.7285Z" fill="white"/>
<path d="M39.7703 44.9625L41.2781 48.1771H39.6698L38.5641 45.5652H37.4583L36.9557 48.1771H35.4479L36.7547 41.8484H38.162L37.6594 44.4602H38.6646L40.8761 41.8484H42.5849L39.7703 44.9625Z" fill="white"/>
<path d="M44.4947 43.0539L44.1932 44.4602H47.1083L46.9073 45.5653H43.8916L43.59 47.0721H47.1083L46.9073 48.2776H41.9817L43.2885 41.9489H48.1135L47.9125 43.1543H44.4947V43.0539Z" fill="white"/>
<path d="M53.7429 42.3507C54.145 42.652 54.346 43.1543 54.346 43.8575C54.346 44.3598 54.2455 44.8621 53.9439 45.2639C53.6424 45.6657 53.3408 45.9671 52.8382 46.168C52.3356 46.3689 51.833 46.4694 51.2298 46.4694H49.8225L49.521 48.2776H48.0131L49.3199 41.9489H51.9335C52.7377 41.8484 53.3408 42.0493 53.7429 42.3507ZM52.5366 44.9625C52.8382 44.7616 52.9387 44.4603 52.9387 43.958C52.9387 43.6566 52.8382 43.4557 52.6371 43.2548C52.4361 43.0539 52.1345 43.0539 51.7324 43.0539H50.5262L50.1241 45.2639H51.3303C51.833 45.2639 52.235 45.1634 52.5366 44.9625Z" fill="white"/>
<path d="M56.4569 47.9762C55.9543 47.7753 55.6527 47.3734 55.3511 46.9716C55.0496 46.5698 54.949 46.0675 54.949 45.5652C54.949 44.862 55.1501 44.1589 55.4516 43.6566C55.7532 43.0538 56.2558 42.652 56.8589 42.2502C57.4621 41.9488 58.1657 41.7479 58.9699 41.7479C59.573 41.7479 60.0757 41.8484 60.4777 42.0493C60.8798 42.2502 61.2819 42.5516 61.483 42.8529L60.3772 43.757C60.0756 43.2548 59.573 43.0538 58.8694 43.0538C58.3668 43.0538 57.9647 43.1543 57.6631 43.3552C57.261 43.5561 57.06 43.8575 56.8589 44.2593C56.6579 44.6611 56.5574 45.063 56.5574 45.5652C56.5574 46.0675 56.7584 46.4693 57.06 46.7707C57.3616 47.0721 57.7636 47.1725 58.3668 47.1725C59.0704 47.1725 59.573 46.9716 60.0757 46.4693L60.9803 47.3734C60.3772 48.0766 59.4725 48.4785 58.2663 48.4785C57.4621 48.378 56.859 48.2775 56.4569 47.9762Z" fill="white"/>
<path d="M65.8054 44.9625L67.3132 48.1771H65.7049L64.5992 45.5652H63.4934L62.9908 48.1771H61.483L62.7898 41.8484H64.2976L63.795 44.4602H64.8002L67.0117 41.8484H68.7206L65.8054 44.9625Z" fill="white"/>
<path d="M72.5403 46.8712H69.5246L68.7205 48.2776H67.1121L71.2335 41.9489H72.7413L74.3497 48.2776H72.8419L72.5403 46.8712ZM72.3393 45.7662L71.8366 43.3552L70.3288 45.7662H72.3393Z" fill="white"/>
<path d="M81.2859 41.8484L79.9791 48.1771H78.4713L78.7728 46.4694H77.466L75.9582 48.1771H74.3499L76.0587 46.2684C75.7572 46.0675 75.4556 45.8666 75.3551 45.5652C75.154 45.2639 75.0535 44.9625 75.0535 44.5607C75.0535 44.0584 75.154 43.5561 75.4556 43.1543C75.7572 42.7525 76.1592 42.4511 76.5613 42.1498C77.0639 41.9488 77.6671 41.8484 78.2702 41.8484H81.2859ZM77.1645 43.4557C76.8629 43.6566 76.7624 44.0584 76.7624 44.4602C76.7624 44.7616 76.8629 44.9625 77.0639 45.1634C77.265 45.3643 77.466 45.3643 77.8681 45.3643H79.1749L79.6775 43.0539H78.3707C77.8681 43.0539 77.466 43.1543 77.1645 43.4557Z" fill="white"/>
<path d="M88.5234 44.9625L90.0312 48.1771H88.4228L87.3171 45.5652H86.2114L85.7088 48.1771H84.2009L85.5077 41.8484H87.0155L86.4124 44.4602H87.4176L89.6291 41.8484H91.338L88.5234 44.9625Z" fill="white"/>
<path d="M92.3432 47.9762C91.8406 47.7753 91.539 47.3734 91.2375 46.9716C91.0364 46.5698 90.8354 46.0675 90.8354 45.5652C90.8354 44.8621 91.0364 44.1589 91.338 43.6566C91.6396 43.0539 92.1422 42.652 92.7453 42.2502C93.3484 41.9488 94.0521 41.7479 94.7557 41.7479C95.3589 41.7479 95.962 41.8484 96.4646 42.0493C96.9672 42.2502 97.2688 42.652 97.5703 43.0538C97.7714 43.4557 97.9724 43.958 97.9724 44.4602C97.9724 45.1634 97.7714 45.8666 97.4698 46.3689C97.1683 46.9716 96.6657 47.3734 96.0625 47.7753C95.4594 48.0766 94.7557 48.2775 94.0521 48.2775C93.3484 48.378 92.7453 48.2775 92.3432 47.9762ZM95.3589 46.7707C95.761 46.5698 95.962 46.2684 96.163 45.8666C96.3641 45.4648 96.4646 45.063 96.4646 44.6611C96.4646 44.1589 96.2636 43.757 95.962 43.4557C95.6604 43.1543 95.2583 43.0538 94.6552 43.0538C94.1526 43.0538 93.7505 43.1543 93.449 43.3552C93.0469 43.5561 92.8458 43.8575 92.6448 44.2593C92.4437 44.6611 92.3432 45.063 92.3432 45.4648C92.3432 45.9671 92.5443 46.3689 92.8458 46.6703C93.1474 46.9716 93.5495 47.0721 94.1526 47.0721C94.5547 47.0721 94.9568 46.9716 95.3589 46.7707Z" fill="white"/>
<path d="M106.919 41.8484L105.612 48.1771H104.205L105.009 44.3598L102.596 47.4739H101.893L100.586 44.2593L99.7818 48.0766H98.3745L99.6812 41.7479H100.888L102.496 45.7662L105.612 41.7479H106.919V41.8484Z" fill="white"/>
<path d="M114.257 41.8484L112.95 48.1771H111.543L112.548 42.9534H109.633L108.628 48.1771H107.12L108.427 41.8484H114.257Z" fill="white"/>
<path d="M119.283 46.8712H116.267L115.463 48.2776H113.855L117.976 41.9489H119.484L121.093 48.2776H119.585L119.283 46.8712ZM118.982 45.7662L118.479 43.3552L116.971 45.7662H118.982Z" fill="white"/>
<path d="M129.034 41.8484L127.727 48.1771H126.219L126.722 45.5652H123.807L123.304 48.1771H121.796L123.103 41.8484H124.611L124.108 44.3598H127.023L127.526 41.8484H129.034Z" fill="white"/>
<path d="M130.642 41.8484H132.15L131.346 45.9671L135.266 41.8484H136.673L135.366 48.1771H133.859L134.763 44.0584L130.843 48.1771H129.436L130.642 41.8484Z" fill="white"/>
<path d="M143.207 41.8484L141.901 48.1771H140.393L140.694 46.4694H139.388L137.88 48.1771H136.271L137.98 46.2684C137.679 46.0675 137.377 45.8666 137.277 45.5652C137.076 45.2639 136.975 44.9625 136.975 44.5607C136.975 44.0584 137.076 43.5561 137.377 43.1543C137.679 42.7525 138.081 42.4511 138.483 42.1498C138.985 41.9488 139.589 41.8484 140.192 41.8484H143.207ZM139.086 43.4557C138.784 43.6566 138.684 44.0584 138.684 44.4602C138.684 44.7616 138.784 44.9625 138.985 45.1634C139.186 45.3643 139.388 45.3643 139.79 45.3643H141.096L141.599 43.0539H140.292C139.79 43.0539 139.388 43.1543 139.086 43.4557Z" fill="white"/>
<path d="M109.633 7.09068C109.734 7.29159 109.834 7.4925 109.834 7.79387C109.834 8.3966 109.633 8.89888 109.13 9.20025C108.628 9.50161 108.025 9.70253 107.221 9.70253H104.004L105.21 3.8761H108.125C108.728 3.8761 109.231 3.97655 109.633 4.17747C109.935 4.37838 110.136 4.7802 110.136 5.18202C110.136 5.48339 110.035 5.78476 109.834 6.08612C109.633 6.28703 109.432 6.48795 109.03 6.68886C109.332 6.78931 109.533 6.88977 109.633 7.09068ZM108.025 8.29615C108.226 8.19569 108.226 7.99478 108.226 7.79387C108.226 7.59296 108.125 7.4925 108.025 7.39205C107.924 7.29159 107.723 7.29159 107.522 7.29159H106.115L105.914 8.49706H107.321C107.623 8.49706 107.824 8.3966 108.025 8.29615ZM106.617 4.98111L106.416 6.08612H107.623C107.924 6.08612 108.125 5.98567 108.326 5.88521C108.527 5.78476 108.527 5.58384 108.527 5.38293C108.527 5.08157 108.326 4.88066 107.824 4.88066H106.617V4.98111Z" fill="white"/>
<path d="M114.559 5.08157L114.358 6.08612H116.971L116.77 7.29159H114.157L113.956 8.3966H116.971L116.67 9.70253H112.046L113.252 3.8761H117.775L117.474 5.18202H114.559V5.08157Z" fill="white"/>
<path d="M124.611 4.37838C125.013 4.67974 125.214 5.18202 125.214 5.78476C125.214 6.28703 125.113 6.68886 124.912 7.09068C124.711 7.4925 124.309 7.69341 123.907 7.89432C123.505 8.09524 123.002 8.19569 122.399 8.19569H121.193L120.891 9.70253H119.283L120.489 3.8761H122.902C123.606 3.8761 124.209 3.97655 124.611 4.37838ZM123.304 6.5884C123.505 6.38749 123.606 6.18658 123.606 5.88521C123.606 5.6843 123.505 5.48339 123.404 5.38293C123.304 5.28248 123.002 5.18202 122.701 5.18202H121.796L121.495 6.88977H122.5C122.801 6.78931 123.103 6.78931 123.304 6.5884Z" fill="white"/>
<path d="M133.658 3.87609L132.452 9.70252H130.843L131.245 7.49249H129.034L128.632 9.60206H127.023L128.23 3.77563H129.838L129.436 5.98566H131.647L132.049 3.77563H133.658V3.87609Z" fill="white"/>
<path d="M137.88 5.08155L137.679 6.0861H140.292L140.091 7.29157H137.478L137.277 8.39658H140.292L139.991 9.70251H135.367L136.573 3.87608H141.096L140.795 5.182H137.88V5.08155ZM137.679 3.27335C137.578 3.17289 137.478 3.07244 137.478 2.87152C137.478 2.67061 137.578 2.4697 137.679 2.36925C137.779 2.26879 137.98 2.16833 138.181 2.16833C138.382 2.16833 138.483 2.26879 138.583 2.36925C138.684 2.4697 138.784 2.57016 138.784 2.77107C138.784 2.97198 138.684 3.17289 138.583 3.27335C138.483 3.3738 138.282 3.47426 138.081 3.47426C137.88 3.3738 137.779 3.3738 137.679 3.27335ZM139.388 3.27335C139.287 3.17289 139.186 3.07244 139.186 2.87152C139.186 2.67061 139.287 2.4697 139.388 2.36925C139.488 2.26879 139.689 2.16833 139.89 2.16833C140.091 2.16833 140.192 2.26879 140.292 2.36925C140.393 2.4697 140.493 2.57016 140.493 2.77107C140.493 2.97198 140.393 3.17289 140.292 3.27335C140.192 3.3738 139.991 3.47426 139.79 3.47426C139.689 3.3738 139.488 3.3738 139.388 3.27335Z" fill="white"/>
<path d="M148.133 5.18202H146.324L145.419 9.70253H143.81L144.715 5.18202H143.006L143.308 3.8761H148.434L148.133 5.18202Z" fill="white"/>
</g>
<defs>
<filter id="filter0_d" x="0.96875" y="0.761963" width="165.962" height="49.7165" filterUnits="userSpaceOnUse" color-interpolation-filters="sRGB">
<feFlood flood-opacity="0" result="BackgroundImageFix"/>
<feColorMatrix in="SourceAlpha" type="matrix" values="0 0 0 0 0 0 0 0 0 0 0 0 0 0 0 0 0 0 127 0"/>
<feOffset dy="2"/>
<feColorMatrix type="matrix" values="0 0 0 0 0 0 0 0 0 0 0 0 0 0 0 0 0 0 0.5 0"/>
<feBlend mode="normal" in2="BackgroundImageFix" result="effect1_dropShadow"/>
<feBlend mode="normal" in="SourceGraphic" in2="effect1_dropShadow" result="shape"/>
</filter>
</defs>
</svg>
