<svg width="133" height="57" viewBox="0 0 133 57" fill="none" xmlns="http://www.w3.org/2000/svg">
<g filter="url(#filter0_d)">
<path d="M12.5757 1.12008H25.3559L24.598 4.86783H16.7024L16.3655 6.57327H19.8817C21.4117 6.57327 22.5907 6.92418 23.4189 7.626C24.2611 8.32783 24.6822 9.3174 24.6822 10.5947C24.6822 11.6615 24.3874 12.5949 23.7979 13.395C23.2083 14.1811 22.3662 14.7916 21.2713 15.2268C20.1765 15.6479 18.8851 15.8584 17.3972 15.8584H9.62802L12.5757 1.12008ZM17.7552 12.3844C18.3166 12.3844 18.7588 12.2581 19.0816 12.0054C19.4185 11.7527 19.5869 11.4159 19.5869 10.9948C19.5869 10.3491 19.1307 10.0262 18.2184 10.0262H15.6707L15.2075 12.3844H17.7552Z" fill="white"/>
<path d="M35.3785 5.64686C37.0208 5.64686 38.249 5.98373 39.0631 6.65748C39.8772 7.33124 40.2843 8.34888 40.2843 9.71043C40.2843 10.9316 39.9755 12.0124 39.3578 12.9529C38.7402 13.8793 37.863 14.5951 36.726 15.1004C35.589 15.6058 34.2696 15.8584 32.7677 15.8584H25.3985L28.3462 1.12008H33.2309L32.3256 5.64686H35.3785ZM33.0625 12.3844C33.666 12.3844 34.1714 12.1879 34.5784 11.7948C34.9855 11.3878 35.189 10.8825 35.189 10.2789C35.189 9.87185 35.0767 9.57708 34.8521 9.3946C34.6416 9.21213 34.2977 9.12089 33.8204 9.12089H31.6307L30.978 12.3844H33.0625ZM43.6951 1.12008H48.6641L45.7164 15.8584H40.7475L43.6951 1.12008Z" fill="white"/>
<path d="M56.4329 16.1953C54.931 16.1953 53.6046 15.9216 52.4536 15.3742C51.3166 14.8127 50.4323 14.0337 49.8007 13.0371C49.1831 12.0405 48.8743 10.8965 48.8743 9.60515C48.8743 7.8927 49.2673 6.36974 50.0533 5.03627C50.8534 3.7028 51.9553 2.6641 53.3589 1.92016C54.7766 1.16219 56.3838 0.783203 58.1805 0.783203C59.5982 0.783203 60.8544 1.04288 61.9493 1.56223C63.0441 2.06754 63.8583 2.79042 64.3916 3.73087L60.8123 6.53116C60.1526 5.38016 59.1701 4.80466 57.8647 4.80466C57.0927 4.80466 56.4049 4.99416 55.8013 5.37314C55.1977 5.75213 54.7275 6.28552 54.3906 6.97331C54.0537 7.64706 53.8853 8.41907 53.8853 9.28933C53.8853 10.1596 54.159 10.8614 54.7064 11.3948C55.2679 11.9142 56.0048 12.1738 56.9172 12.1738C58.1664 12.1738 59.2613 11.6054 60.2017 10.4684L63.1284 13.2687C62.2721 14.3214 61.2966 15.0724 60.2017 15.5215C59.1209 15.9707 57.8647 16.1953 56.4329 16.1953Z" fill="white"/>
<path d="M78.6687 4.9731H74.2894L72.1628 15.8584H67.2781L69.4046 4.9731H65.1516L65.9096 1.12008H79.4267L78.6687 4.9731Z" fill="white"/>
<path d="M87.5081 1.12008C89.4732 1.12008 90.9962 1.54819 92.077 2.40442C93.1578 3.26065 93.6982 4.46077 93.6982 6.00479C93.6982 7.24 93.3894 8.32783 92.7718 9.26828C92.1683 10.2087 91.298 10.9386 90.161 11.458C89.0381 11.9773 87.7327 12.237 86.2449 12.237H83.6972L82.9814 15.8584H78.0124L80.9601 1.12008H87.5081ZM86.4975 8.40503C87.1853 8.40503 87.7187 8.23659 88.0977 7.89971C88.4767 7.5488 88.6661 7.06454 88.6661 6.44694C88.6661 5.45034 88.0485 4.95205 86.8133 4.95205H85.15L84.4552 8.40503H86.4975Z" fill="white"/>
<path d="M103.539 5.64686C105.181 5.64686 106.41 5.98373 107.224 6.65748C108.038 7.33124 108.445 8.34888 108.445 9.71043C108.445 10.9316 108.136 12.0124 107.519 12.9529C106.901 13.8793 106.024 14.5951 104.887 15.1004C103.75 15.6058 102.43 15.8584 100.928 15.8584H93.5592L96.5069 1.12008H101.392L100.486 5.64686H103.539ZM101.223 12.3844C101.827 12.3844 102.332 12.1879 102.739 11.7948C103.146 11.3878 103.35 10.8825 103.35 10.2789C103.35 9.87185 103.237 9.57708 103.013 9.3946C102.802 9.21213 102.458 9.12089 101.981 9.12089H99.7915L99.1388 12.3844H101.223ZM111.856 1.12008H116.825L113.877 15.8584H108.908L111.856 1.12008Z" fill="white"/>
<path d="M123.457 4.86783L123.12 6.59432H129.352L128.636 10.1736H122.383L122.004 12.1107H129.394L128.636 15.8584H116.382L119.33 1.12008H131.31L130.552 4.86783H123.457Z" fill="white"/>
<path d="M18.6109 27.7393C19.2426 28.02 19.7268 28.4061 20.0637 28.8973C20.4146 29.3746 20.5901 29.9501 20.5901 30.6238C20.5901 32.1819 19.9444 33.3539 18.653 34.14C17.3757 34.926 15.7264 35.319 13.7052 35.319H5.19904L8.14671 20.5807H15.958C17.6845 20.5807 18.9969 20.8895 19.8953 21.5071C20.7936 22.1107 21.2428 22.9739 21.2428 24.0968C21.2428 24.925 21.0112 25.6549 20.548 26.2865C20.0848 26.9041 19.4391 27.3884 18.6109 27.7393ZM12.3366 24.0547L11.8945 26.2444H14.421C15.5159 26.2444 16.0633 25.8163 16.0633 24.9601C16.0633 24.6653 15.951 24.4407 15.7264 24.2863C15.5018 24.1319 15.179 24.0547 14.7579 24.0547H12.3366ZM13.9789 31.845C14.4842 31.845 14.8913 31.7327 15.2001 31.5081C15.5089 31.2695 15.6633 30.9326 15.6633 30.4975C15.6633 30.1887 15.544 29.9501 15.3053 29.7816C15.0808 29.6132 14.793 29.529 14.4421 29.529H11.2418L10.7786 31.845H13.9789Z" fill="white"/>
<path d="M31.5688 25.1075C33.2111 25.1075 34.4393 25.4443 35.2534 26.1181C36.0675 26.7918 36.4746 27.8095 36.4746 29.171C36.4746 30.3922 36.1658 31.473 35.5482 32.4135C34.9306 33.3399 34.0533 34.0558 32.9163 34.5611C31.7794 35.0664 30.4599 35.319 28.958 35.319H21.5889L24.5365 20.5807H29.4212L28.5159 25.1075H31.5688ZM29.2528 31.845C29.8564 31.845 30.3617 31.6485 30.7687 31.2555C31.1758 30.8484 31.3793 30.3431 31.3793 29.7395C31.3793 29.3325 31.267 29.0377 31.0425 28.8552C30.8319 28.6727 30.488 28.5815 30.0108 28.5815H27.8211L27.1684 31.845H29.2528ZM39.8855 20.5807H44.8544L41.9067 35.319H36.9378L39.8855 20.5807Z" fill="white"/>
<path d="M61.6137 20.5807L58.666 35.319H53.7813L55.9078 24.4337H51.4231L49.2966 35.319H44.4119L47.3596 20.5807H61.6137Z" fill="white"/>
<path d="M78.6003 20.5807L75.6526 35.319H70.7679L72.9365 24.4337H69.5888L68.9361 27.3182C68.4589 29.4518 67.9395 31.1081 67.3781 32.2872C66.8166 33.4662 66.1358 34.3154 65.3357 34.8348C64.5497 35.3401 63.5391 35.5928 62.3039 35.5928C61.5319 35.5928 60.8511 35.5015 60.2615 35.319L61.3143 31.3397C61.4827 31.3818 61.6582 31.4029 61.8407 31.4029C62.2898 31.4029 62.6758 31.2414 62.9987 30.9186C63.3355 30.5958 63.6443 30.0694 63.9251 29.3395C64.2198 28.6096 64.5146 27.606 64.8094 26.3286L66.1569 20.5807H78.6003Z" fill="white"/>
<path d="M89.3517 32.7504H83.73L82.2562 35.319H77.0136L86.404 20.5807H91.2887L94.7838 35.319H89.8359L89.3517 32.7504ZM88.6569 29.171L87.941 25.4022L85.7724 29.171H88.6569Z" fill="white"/>
<path d="M110.142 24.4337H105.763L103.636 35.319H98.7516L100.878 24.4337H96.6251L97.3831 20.5807H110.9L110.142 24.4337Z" fill="white"/>
<path d="M119.571 25.1075C121.213 25.1075 122.442 25.4443 123.256 26.1181C124.07 26.7918 124.477 27.8095 124.477 29.171C124.477 30.3922 124.168 31.473 123.551 32.4135C122.933 33.3399 122.056 34.0558 120.919 34.5611C119.782 35.0664 118.462 35.319 116.96 35.319H109.591L112.539 20.5807H117.424L116.518 25.1075H119.571ZM117.255 31.845C117.859 31.845 118.364 31.6485 118.771 31.2555C119.178 30.8484 119.382 30.3431 119.382 29.7395C119.382 29.3325 119.269 29.0377 119.045 28.8552C118.834 28.6727 118.49 28.5815 118.013 28.5815H115.823L115.171 31.845H117.255ZM127.888 20.5807H132.857L129.909 35.319H124.94L127.888 20.5807Z" fill="white"/>
<path d="M18.4442 39.3398L15.4965 54.0782H10.5276L11.6225 48.646H7.03252L5.93768 54.0782H0.96875L3.91642 39.3398H8.88534L7.83261 44.5614H12.4225L13.4753 39.3398H18.4442Z" fill="white"/>
<path d="M29.2127 51.5095H23.5911L22.1173 54.0782H16.8746L26.2651 39.3398H31.1498L34.6449 54.0782H29.697L29.2127 51.5095ZM28.5179 47.9302L27.8021 44.1614L25.6334 47.9302H28.5179Z" fill="white"/>
<path d="M54.2135 46.6248L57.0348 54.0782H51.7711L49.9815 48.7513H48.3602L47.2864 54.0782H42.3175L45.2652 39.3398H50.2341L49.1393 44.8351H50.4026L54.6135 39.3398H60.1299L54.2135 46.6248Z" fill="white"/>
<path d="M68.8549 51.5095H63.2333L61.7595 54.0782H56.5168L65.9072 39.3398H70.792L74.287 54.0782H69.3392L68.8549 51.5095ZM68.1601 47.9302L67.4443 44.1614L65.2756 47.9302H68.1601Z" fill="white"/>
<path d="M85.0378 39.3398C87.0029 39.3398 88.5259 39.768 89.6067 40.6242C90.6875 41.4804 91.2279 42.6805 91.2279 44.2245C91.2279 45.4598 90.9191 46.5476 90.3015 47.488C89.6979 48.4285 88.8277 49.1584 87.6907 49.6777C86.5678 50.1971 85.2624 50.4568 83.7745 50.4568H81.2269L80.511 54.0782H75.5421L78.4898 39.3398H85.0378ZM84.0272 46.6248C84.715 46.6248 85.2484 46.4564 85.6273 46.1195C86.0063 45.7686 86.1958 45.2843 86.1958 44.6667C86.1958 43.6701 85.5782 43.1718 84.343 43.1718H82.6797L81.9849 46.6248H84.0272Z" fill="white"/>
<path d="M105.498 43.1929H101.119L98.9924 54.0782H94.1076L96.2342 43.1929H91.9811L92.7391 39.3398H106.256L105.498 43.1929Z" fill="white"/>
<path d="M121.996 39.3398L113.848 50.6041C112.907 51.8815 111.89 52.843 110.795 53.4886C109.7 54.1343 108.556 54.4572 107.363 54.4572C106.408 54.4572 105.433 54.2466 104.436 53.8255L106.015 50.3515C106.478 50.4778 106.9 50.541 107.279 50.541C107.728 50.541 108.128 50.4497 108.479 50.2673C108.844 50.0848 109.188 49.8111 109.51 49.4461L105.994 39.3398H111.132L112.816 45.4668L117.09 39.3398H121.996Z" fill="white"/>
</g>
<defs>
<filter id="filter0_d" x="0.96875" y="0.783203" width="131.888" height="55.674" filterUnits="userSpaceOnUse" color-interpolation-filters="sRGB">
<feFlood flood-opacity="0" result="BackgroundImageFix"/>
<feColorMatrix in="SourceAlpha" type="matrix" values="0 0 0 0 0 0 0 0 0 0 0 0 0 0 0 0 0 0 127 0"/>
<feOffset dy="2"/>
<feColorMatrix type="matrix" values="0 0 0 0 0 0 0 0 0 0 0 0 0 0 0 0 0 0 0.5 0"/>
<feBlend mode="normal" in2="BackgroundImageFix" result="effect1_dropShadow"/>
<feBlend mode="normal" in="SourceGraphic" in2="effect1_dropShadow" result="shape"/>
</filter>
</defs>
</svg>
