<svg width="166" height="50" viewBox="0 0 166 50" fill="none" xmlns="http://www.w3.org/2000/svg">
<g filter="url(#filter0_d)">
<path d="M1.00513 36.8915C1.20617 36.791 1.40721 36.6905 1.60826 36.4894C3.11609 35.0821 4.72444 33.7753 6.23227 32.368C6.53383 32.0665 6.8354 31.9659 7.23749 31.9659C24.3262 31.9659 41.3144 31.9659 58.4032 31.9659C64.9371 31.9659 71.3705 31.9659 77.9044 31.9659C78.407 31.9659 78.6081 32.0665 78.6081 32.6696C78.6081 33.9764 78.6081 35.2832 78.6081 36.59C78.6081 37.0926 78.5075 37.1931 78.0049 37.1931C71.7726 37.1931 65.5402 37.1931 59.4084 37.1931C40.2087 37.1931 21.1095 37.1931 1.90982 37.1931C1.70878 37.1931 1.50774 37.1931 1.20617 37.1931C1.10565 37.0926 1.10565 36.992 1.00513 36.8915Z" fill="white"/>
<path d="M153.497 11.6605H83.5336L95.7973 0C95.7973 0 165.761 0 165.962 0C166.062 0.100522 153.497 11.6605 153.497 11.6605Z" fill="white"/>
<path d="M25.5324 19.6018C22.3157 22.517 19.1995 25.2311 16.0833 28.0457C16.0833 25.2311 16.0833 22.517 16.0833 19.6018C12.8666 22.517 9.85098 25.2311 6.63428 28.1462C6.63428 27.342 6.63428 26.7389 6.63428 26.0352C6.63428 24.4269 6.63428 22.718 6.63428 21.1097C6.63428 20.9086 6.7348 20.5065 6.93584 20.406C12.163 15.6815 17.3901 11.0575 22.6173 6.33293C22.8183 6.23241 22.9188 6.03137 23.2204 5.83032C23.2204 8.14233 23.2204 10.4543 23.2204 12.7663C26.035 10.4543 28.7491 8.14233 31.5637 5.83032C31.5637 13.1684 31.5637 20.3055 31.5637 27.5431C29.6538 27.5431 27.6434 27.5431 25.6329 27.5431C25.5324 25.03 25.5324 22.3159 25.5324 19.6018Z" fill="white"/>
<path d="M109.87 15.983C113.087 18.7976 116.203 21.6122 119.42 24.5273C119.42 24.2258 119.42 24.0247 119.42 23.8237C119.42 21.4112 119.42 18.8981 119.42 16.4856C119.42 15.983 119.621 15.8824 120.124 15.8824C121.531 15.8824 123.039 15.8824 124.446 15.8824C124.949 15.8824 125.15 15.983 125.15 16.5861C125.15 22.0143 125.15 27.4425 125.15 32.8707C125.15 34.1774 125.15 35.5848 125.15 36.8915C125.15 37.0926 125.15 37.2936 125.15 37.5952C120.224 33.1722 115.399 28.8498 110.574 24.5273C110.574 24.9294 110.574 25.1305 110.574 25.3315C110.574 29.0508 110.574 32.7701 110.574 36.4894C110.574 37.1931 110.574 37.1931 109.87 37.1931C108.363 37.1931 106.955 37.1931 105.447 37.1931C105.045 37.1931 104.945 37.0926 104.945 36.6905C104.945 31.3628 104.945 26.1357 104.945 20.808C104.945 20.607 105.045 20.4059 105.146 20.3054C106.553 18.8981 108.162 17.4908 109.87 15.983Z" fill="white"/>
<path d="M54.8849 27.6436C52.9749 27.6436 51.1656 27.6436 49.2556 27.6436C49.2556 26.7389 49.2556 25.8342 49.2556 24.829C45.8379 24.829 42.5207 24.829 39.2034 24.829C39.2034 24.829 39.2034 24.7285 39.1029 24.7285C39.2034 24.6279 39.4045 24.5274 39.505 24.4269C41.2139 22.9191 42.8222 21.4112 44.5311 19.9034C44.7321 19.7024 45.0337 19.6019 45.3353 19.6019C46.5415 19.6019 47.8483 19.6019 49.1551 19.6019C49.1551 17.7925 49.1551 15.9831 49.1551 14.1737C43.928 18.7977 38.7008 23.4217 33.4737 28.1462C33.4737 27.9452 33.3732 27.8447 33.3732 27.6436C33.3732 25.5326 33.3732 23.3212 33.3732 21.2102C33.3732 21.0092 33.4737 20.7076 33.6747 20.5065C38.7008 15.8825 43.8274 11.2585 48.8535 6.63452C48.9541 6.53399 49.1551 6.43347 49.3562 6.43347C51.1656 6.43347 52.8744 6.43347 54.7843 6.43347C54.8849 13.3695 54.8849 20.5065 54.8849 27.6436Z" fill="white"/>
<path d="M68.3548 19.0992C64.9371 22.1148 61.5193 25.1305 58.1016 28.2467C58.1016 27.9451 58.1016 27.8446 58.1016 27.6435C58.1016 25.432 58.1016 23.2206 58.1016 21.1096C58.1016 20.808 58.3026 20.5065 58.5037 20.3054C60.2125 18.7976 61.9214 17.2898 63.6303 15.6814C63.8313 15.4804 64.0324 15.2793 64.2334 15.0783C62.223 13.1684 60.313 11.2584 58.3026 9.34853C59.6094 8.14226 60.9162 6.936 62.3235 5.72974C64.3339 7.63965 66.4449 9.54957 68.4553 11.4595C69.159 10.8564 69.7621 10.2532 70.4658 9.75061C71.672 8.64487 72.8783 7.63965 74.0846 6.53391C74.2856 6.43339 74.4866 6.23235 74.6877 6.23235C77.3013 6.23235 79.9148 6.23235 82.5284 6.23235C82.6289 6.23235 82.6289 6.23235 82.83 6.23235C79.5127 9.248 76.1955 12.1631 72.8783 15.1788C73.5819 15.8825 74.2856 16.4856 74.9893 17.0887C76.1955 18.1945 77.3013 19.3002 78.5075 20.4059C78.608 20.5065 78.8091 20.808 78.8091 21.0091C78.8091 23.3211 78.8091 25.6331 78.8091 27.9451C78.8091 28.0456 78.8091 28.0456 78.7086 28.2467C75.0898 25.231 71.672 22.1148 68.3548 19.0992Z" fill="white"/>
<path d="M147.767 15.983C146.561 17.0888 145.455 18.094 144.45 19.0992C143.947 19.6018 143.445 20.0039 142.942 20.5065C142.54 20.9086 142.238 21.0091 141.635 21.0091C139.122 21.0091 136.609 21.0091 134.096 21.0091C133.594 21.0091 133.393 21.1097 133.393 21.7128C133.393 22.3159 133.393 23.0196 133.393 23.6227C133.393 24.1253 133.594 24.2258 133.996 24.2258C136.509 24.2258 139.022 24.2258 141.434 24.2258C142.238 24.2258 142.238 24.2258 142.238 25.03C142.238 26.2363 142.238 27.4425 142.238 28.6488C142.238 29.1514 142.037 29.3525 141.535 29.3525C139.022 29.3525 136.509 29.3525 134.096 29.3525C133.393 29.3525 133.393 29.3525 133.393 30.0561C133.393 30.5587 133.393 31.1618 133.393 31.6645C133.393 32.0665 133.493 32.1671 133.996 32.1671C136.609 32.1671 139.122 32.1671 141.736 32.1671C142.238 32.1671 142.44 32.2676 142.44 32.8707C142.44 34.1775 142.44 35.5848 142.44 36.8916C142.44 37.2937 142.339 37.3942 141.937 37.3942C137.413 37.3942 132.99 37.3942 128.467 37.3942C128.065 37.3942 127.964 37.2937 127.964 36.8916C127.964 31.765 127.964 26.6384 127.964 21.5117C127.964 21.3107 128.065 21.0091 128.266 20.9086C129.975 19.4008 131.684 17.8929 133.393 16.3851C133.594 16.2846 133.795 16.0836 133.996 16.0836C138.62 16.0836 143.143 16.0836 147.767 16.0836C147.566 15.983 147.566 15.983 147.767 15.983Z" fill="white"/>
<path d="M87.856 16.0835C87.856 21.4112 87.856 26.7388 87.856 32.0665C88.1576 32.0665 88.3586 32.0665 88.5597 32.0665C90.2686 32.0665 92.078 32.0665 93.7868 32.0665C94.1889 32.0665 94.2894 32.167 94.2894 32.5691C94.2894 33.8759 94.2894 35.2832 94.2894 36.59C94.2894 36.9921 94.1889 37.1931 93.6863 37.1931C90.0675 37.1931 86.4487 37.1931 82.8299 37.1931C82.4278 37.1931 82.2268 37.0926 82.2268 36.59C82.2268 31.4634 82.2268 26.4373 82.2268 21.3106C82.2268 21.1096 82.3273 20.808 82.5284 20.7075C84.2372 19.1997 85.9461 17.6918 87.655 16.184C87.655 16.184 87.655 16.184 87.856 16.0835Z" fill="white"/>
<path d="M102.13 16.0835C102.13 16.2845 102.13 16.4856 102.13 16.6866C102.13 23.3211 102.13 29.9555 102.13 36.59C102.13 37.0926 102.03 37.2936 101.527 37.2936C100.019 37.2936 98.6119 37.2936 97.1041 37.2936C96.702 37.2936 96.501 37.1931 96.501 36.791C96.501 31.6644 96.501 26.5378 96.501 21.5117C96.501 21.3106 96.6015 21.0091 96.8025 20.808C98.5114 19.3002 100.22 17.7924 101.829 16.2845C101.929 16.184 102.03 16.184 102.13 16.0835Z" fill="white"/>
<path d="M1.30679 41.1138H6.43341L6.23236 42.32H2.51305L2.21148 43.6268H4.02088C4.72453 43.6268 5.22714 43.7273 5.52871 44.0289C5.83027 44.3305 6.03132 44.7326 6.03132 45.3357C6.03132 45.8383 5.9308 46.1399 5.62923 46.542C5.42819 46.8435 5.0261 47.1451 4.62401 47.3461C4.1214 47.5472 3.61879 47.6477 3.01566 47.6477H0L1.30679 41.1138ZM3.11618 46.4414C3.51827 46.4414 3.92036 46.3409 4.1214 46.1399C4.32244 45.9388 4.52349 45.7378 4.52349 45.4362C4.52349 45.2352 4.42297 45.0341 4.32244 44.9336C4.1214 44.8331 3.92036 44.7326 3.51827 44.7326H2.01044L1.70887 46.4414H3.11618Z" fill="white"/>
<path d="M13.5704 41.1134L9.8511 46.24C9.54953 46.7426 9.14745 47.0442 8.74536 47.3458C8.34327 47.6473 7.94118 47.7479 7.53909 47.7479C7.23753 47.7479 6.83544 47.6473 6.53387 47.5468L7.03648 46.4411C7.23753 46.5416 7.43857 46.5416 7.53909 46.5416C7.74014 46.5416 7.94118 46.5416 8.14223 46.4411C8.34327 46.3405 8.44379 46.24 8.64484 46.039L8.74536 45.9385L7.03648 41.1134H8.54431L9.54953 44.5312L11.9621 41.1134H13.5704Z" fill="white"/>
<path d="M17.2898 44.2296L18.7976 47.4464H17.1893L16.0835 44.9333H14.9778L14.4752 47.5469H12.9673L14.2741 41.214H15.782L15.2794 43.8276H16.2846L18.4961 41.214H20.1044L17.2898 44.2296Z" fill="white"/>
<path d="M27.9451 41.1135L26.6383 47.4463H25.231L26.0351 43.6265L23.6226 46.7427H22.919L21.6122 43.526L20.808 47.3458H19.4007L20.7075 41.0129H21.9137L23.5221 45.0338L26.6383 41.0129H27.9451V41.1135Z" fill="white"/>
<path d="M30.7596 42.3197L30.4581 43.727H33.3732L33.1722 44.8328H30.1565L29.8549 46.3406H33.3732L33.1722 47.5469H28.2466L29.5534 41.214H34.3784L34.1774 42.3197H30.7596Z" fill="white"/>
<path d="M38.8014 44.2296L40.3093 47.4463H38.7009L37.5952 44.8327H36.4894L35.9868 47.4463H34.479L35.7858 41.1134H37.1931L36.6905 43.727H37.6957L39.9072 41.1134H41.6161L38.8014 44.2296Z" fill="white"/>
<path d="M43.526 42.3197L43.2244 43.727H46.1396L45.9385 44.8328H42.9229L42.6213 46.3406H46.1396L45.9385 47.5469H41.0129L42.3197 41.214H47.1448L46.9437 42.4203H43.526V42.3197Z" fill="white"/>
<path d="M52.7739 41.6161C53.176 41.9177 53.3771 42.4203 53.3771 43.1239C53.3771 43.6265 53.2766 44.1292 52.975 44.5312C52.6734 44.9333 52.3719 45.2349 51.8692 45.4359C51.3666 45.637 50.864 45.7375 50.2609 45.7375H48.8536L48.552 47.5469H47.0442L48.351 41.214H50.9645C51.7687 41.1135 52.3719 41.3145 52.7739 41.6161ZM51.5677 44.2297C51.8692 44.0286 51.9698 43.7271 51.9698 43.2245C51.9698 42.9229 51.8692 42.7218 51.6682 42.5208C51.4672 42.3198 51.1656 42.3198 50.7635 42.3198H49.5572L49.1552 44.5312H50.3614C50.864 44.5312 51.2661 44.4307 51.5677 44.2297Z" fill="white"/>
<path d="M55.4881 47.2453C54.9855 47.0443 54.6839 46.6422 54.3824 46.2401C54.0808 45.838 53.9803 45.3354 53.9803 44.8328C53.9803 44.1291 54.1813 43.4255 54.4829 42.9229C54.7845 42.3197 55.2871 41.9176 55.8902 41.5155C56.4933 41.214 57.197 41.0129 58.0012 41.0129C58.6043 41.0129 59.1069 41.1135 59.509 41.3145C59.9111 41.5155 60.3132 41.8171 60.5142 42.1187L59.4085 43.0234C59.1069 42.5208 58.6043 42.3197 57.9006 42.3197C57.398 42.3197 56.9959 42.4202 56.6944 42.6213C56.2923 42.8223 56.0912 43.1239 55.8902 43.526C55.6892 43.9281 55.5886 44.3302 55.5886 44.8328C55.5886 45.3354 55.7897 45.7375 56.0912 46.039C56.3928 46.3406 56.7949 46.4411 57.398 46.4411C58.1017 46.4411 58.6043 46.2401 59.1069 45.7375L60.0116 46.6422C59.4085 47.3458 58.5038 47.7479 57.2975 47.7479C56.4933 47.6474 55.8902 47.5469 55.4881 47.2453Z" fill="white"/>
<path d="M64.8366 44.2296L66.3444 47.4463H64.7361L63.6303 44.8327H62.5246L62.022 47.4463H60.5142L61.8209 41.1134H63.3288L62.8262 43.727H63.8314L66.0429 41.1134H67.7517L64.8366 44.2296Z" fill="white"/>
<path d="M71.5716 46.1396H68.556L67.7518 47.5469H66.1434L70.2648 41.214H71.7727L73.381 47.5469H71.8732L71.5716 46.1396ZM71.3706 45.0338L70.868 42.6213L69.3601 45.0338H71.3706Z" fill="white"/>
<path d="M80.3171 41.1134L79.0103 47.4463H77.5024L77.804 45.7374H76.4972L74.9894 47.4463H73.381L75.0899 45.5364C74.7883 45.3353 74.4868 45.1343 74.3863 44.8327C74.1852 44.5312 74.0847 44.2296 74.0847 43.8275C74.0847 43.3249 74.1852 42.8223 74.4868 42.4202C74.7883 42.0181 75.1904 41.7165 75.5925 41.415C76.0951 41.2139 76.6983 41.1134 77.3014 41.1134H80.3171ZM76.1957 42.7218C75.8941 42.9228 75.7936 43.3249 75.7936 43.727C75.7936 44.0285 75.8941 44.2296 76.0951 44.4306C76.2962 44.6317 76.4972 44.6317 76.8993 44.6317H78.2061L78.7087 42.3197H77.4019C76.8993 42.3197 76.4972 42.4202 76.1957 42.7218Z" fill="white"/>
<path d="M87.5546 44.2296L89.0624 47.4463H87.4541L86.3484 44.8327H85.2426L84.74 47.4463H83.2322L84.539 41.1134H86.0468L85.4437 43.727H86.4489L88.6604 41.1134H90.3692L87.5546 44.2296Z" fill="white"/>
<path d="M91.3745 47.2453C90.8719 47.0443 90.5703 46.6422 90.2687 46.2401C90.0677 45.838 89.8666 45.3354 89.8666 44.8328C89.8666 44.1291 90.0677 43.4255 90.3692 42.9229C90.6708 42.3197 91.1734 41.9176 91.7766 41.5155C92.3797 41.214 93.0833 41.0129 93.787 41.0129C94.3901 41.0129 94.9933 41.1135 95.4959 41.3145C95.9985 41.5155 96.3 41.9176 96.6016 42.3197C96.8026 42.7218 97.0037 43.2244 97.0037 43.727C97.0037 44.4307 96.8027 45.1343 96.5011 45.6369C96.1995 46.2401 95.6969 46.6422 95.0938 47.0443C94.4906 47.3458 93.787 47.5469 93.0833 47.5469C92.3797 47.6474 91.7766 47.5469 91.3745 47.2453ZM94.3901 46.039C94.7922 45.838 94.9933 45.5364 95.1943 45.1343C95.3953 44.7323 95.4959 44.3302 95.4959 43.9281C95.4959 43.4255 95.2948 43.0234 94.9933 42.7218C94.6917 42.4202 94.2896 42.3197 93.6865 42.3197C93.1839 42.3197 92.7818 42.4202 92.4802 42.6213C92.0781 42.8223 91.8771 43.1239 91.676 43.526C91.475 43.9281 91.3745 44.3302 91.3745 44.7323C91.3745 45.2349 91.5755 45.637 91.8771 45.9385C92.1786 46.2401 92.5807 46.3406 93.1839 46.3406C93.5859 46.3406 93.988 46.2401 94.3901 46.039Z" fill="white"/>
<path d="M105.95 41.1135L104.643 47.4463H103.236L104.04 43.6265L101.628 46.7427H100.924L99.6172 43.526L98.8131 47.3458H97.4058L98.7125 41.0129H99.9188L101.527 45.0338L104.643 41.0129H105.95V41.1135Z" fill="white"/>
<path d="M113.288 41.1134L111.981 47.4463H110.574L111.579 42.2191H108.664L107.659 47.4463H106.151L107.458 41.1134H113.288Z" fill="white"/>
<path d="M118.314 46.1396H115.299L114.494 47.5469H112.886L117.008 41.214H118.515L120.124 47.5469H118.616L118.314 46.1396ZM118.013 45.0338L117.51 42.6213L116.002 45.0338H118.013Z" fill="white"/>
<path d="M128.065 41.1134L126.758 47.4463H125.25L125.753 44.8327H122.838L122.335 47.4463H120.827L122.134 41.1134H123.642L123.139 43.6265H126.055L126.557 41.1134H128.065Z" fill="white"/>
<path d="M129.673 41.1134H131.181L130.377 45.2348L134.297 41.1134H135.705L134.398 47.4463H132.89L133.795 43.3249L129.874 47.4463H128.467L129.673 41.1134Z" fill="white"/>
<path d="M142.239 41.1134L140.932 47.4463H139.424L139.726 45.7374H138.419L136.911 47.4463H135.303L137.011 45.5364C136.71 45.3353 136.408 45.1343 136.308 44.8327C136.107 44.5312 136.006 44.2296 136.006 43.8275C136.006 43.3249 136.107 42.8223 136.408 42.4202C136.71 42.0181 137.112 41.7165 137.514 41.415C138.017 41.2139 138.62 41.1134 139.223 41.1134H142.239ZM138.117 42.7218C137.816 42.9228 137.715 43.3249 137.715 43.727C137.715 44.0285 137.816 44.2296 138.017 44.4306C138.218 44.6317 138.419 44.6317 138.821 44.6317H140.128L140.63 42.3197H139.323C138.821 42.3197 138.419 42.4202 138.117 42.7218Z" fill="white"/>
<path d="M105.749 2.91541L104.643 8.54463H103.035L103.839 4.12167H101.728L100.924 8.54463H99.3157L100.421 2.91541H105.749Z" fill="#39B54A"/>
<path d="M114.997 2.9151L113.891 8.54433H112.283L113.188 4.12136H111.579L111.278 5.32762C111.077 6.1318 110.876 6.83545 110.675 7.23754C110.474 7.74015 110.172 8.04172 109.971 8.24276C109.669 8.4438 109.368 8.54433 108.865 8.54433C108.664 8.54433 108.363 8.54433 108.162 8.44381L108.463 7.13702C108.564 7.13702 108.564 7.13702 108.664 7.13702C108.865 7.13702 109.066 7.0365 109.167 6.93598C109.267 6.83545 109.468 6.53389 109.569 6.23232C109.669 5.93076 109.77 5.52867 109.971 5.02606L110.474 2.81458H114.997V2.9151Z" fill="#39B54A"/>
<path d="M122.134 7.43865H119.722L119.118 8.54439H117.41L121.028 2.91516H122.637L124.044 8.54439H122.436L122.134 7.43865ZM121.833 6.23239L121.43 4.42299L120.325 6.23239H121.833Z" fill="#39B54A"/>
<path d="M132.488 4.12136H130.779L129.975 8.54433H128.366L129.171 4.12136H127.462L127.663 2.81458H132.689L132.488 4.12136Z" fill="#39B54A"/>
<path d="M136.308 2.91516H137.916L137.212 6.23239L140.228 2.91516H141.736L140.63 8.54439H139.022L139.726 5.22717L136.71 8.54439H135.202L136.308 2.91516Z" fill="#39B54A"/>
<path d="M150.079 4.12136H148.37L147.566 8.54433H145.958L146.762 4.12136H145.053L145.254 2.81458H150.28L150.079 4.12136Z" fill="#39B54A"/>
</g>
<defs>
<filter id="filter0_d" x="0" y="0" width="165.962" height="49.7479" filterUnits="userSpaceOnUse" color-interpolation-filters="sRGB">
<feFlood flood-opacity="0" result="BackgroundImageFix"/>
<feColorMatrix in="SourceAlpha" type="matrix" values="0 0 0 0 0 0 0 0 0 0 0 0 0 0 0 0 0 0 127 0"/>
<feOffset dy="2"/>
<feColorMatrix type="matrix" values="0 0 0 0 0 0 0 0 0 0 0 0 0 0 0 0 0 0 0.5 0"/>
<feBlend mode="normal" in2="BackgroundImageFix" result="effect1_dropShadow"/>
<feBlend mode="normal" in="SourceGraphic" in2="effect1_dropShadow" result="shape"/>
</filter>
</defs>
</svg>
