<svg width="16" height="14" viewBox="0 0 16 14" fill="none" xmlns="http://www.w3.org/2000/svg">
<path d="M8.79485 10.052L7.99999 5.28571L7.20571 10.052C6.65885 10.3383 6.28571 10.9114 6.28571 11.5714C6.28571 12.5183 7.05313 13.2857 7.99999 13.2857C8.94685 13.2857 9.71428 12.5183 9.71428 11.5714C9.71428 10.9114 9.34171 10.3383 8.79485 10.052Z" fill="#0a9f30"/>
<path d="M8 0.714294C3.58171 0.714294 0 4.29601 0 8.71429C0 9.89087 0.253714 11.008 0.709714 12.0132C1.02057 11.8349 1.36514 11.6674 1.73829 11.5132C1.35543 10.6583 1.14286 9.71144 1.14286 8.71429C1.14286 4.92744 4.21314 1.85715 8 1.85715C11.7869 1.85715 14.8571 4.92744 14.8571 8.71429C14.8571 9.71144 14.6446 10.6583 14.2617 11.5132C14.6349 11.6674 14.9794 11.8343 15.2903 12.0132C15.7469 11.008 16 9.89087 16 8.71429C16 4.29601 12.4183 0.714294 8 0.714294Z" fill="#0a9f30"/>
<path d="M2.18744 11.2154L1.83487 10.1292L4.00915 9.42345L4.36173 10.5103L2.18744 11.2154ZM5.17887 5.81659L3.83601 3.96745L4.76173 3.29545L6.10458 5.14516L5.17887 5.81659ZM7.42858 2.42859H8.57144V4.7143H7.42858V2.42859ZM4.00858 8.02916L1.83487 7.32287L2.18858 6.23602L4.3623 6.9423L4.00858 8.02916ZM11.9903 8.02859L11.6377 6.94173L13.8126 6.23602L14.1652 7.3223L11.9903 8.02859ZM9.89487 5.14459L11.2389 3.29602L12.164 3.96802L10.8206 5.81716L9.89487 5.14459ZM13.8126 11.2154L11.6383 10.5097L11.9909 9.42345L14.1652 10.1292L13.8126 11.2154Z" fill="#0a9f30"/>
</svg>
