<svg width="43" height="43" viewBox="0 0 43 43" fill="none" xmlns="http://www.w3.org/2000/svg">
<path d="M16.9706 20.5195L25.4558 12.0343L34.6482 21.2267L30.4056 25.4693H28.9914L25.4558 21.9338L16.9706 30.419L7.77817 21.2267L12.0208 16.984H13.435L16.9706 20.5195Z" fill="#007DC4"/>
<path d="M25.4558 4.24264L29.6985 8.48528L16.9706 21.2132L12.7279 16.9706L25.4558 4.24264Z" fill="#354896"/>
<path d="M38.1838 16.9706L42.4264 21.2132L33.9411 29.6985L29.6985 25.4558L38.1838 16.9706Z" fill="#354896"/>
<path d="M25.4558 12.7279L29.6985 8.48528L42.4264 21.2132L38.1838 25.4558L25.4558 12.7279Z" fill="#354896"/>
<path d="M16.9706 38.1838L12.7279 33.9411L25.4558 21.2132L29.6985 25.4558L16.9706 38.1838Z" fill="#354896"/>
<path d="M4.24263 25.4558L-6.52996e-06 21.2132L8.48527 12.7279L12.7279 16.9706L4.24263 25.4558Z" fill="#354896"/>
<path d="M16.9706 29.6985L12.7279 33.9411L-6.52996e-06 21.2132L4.24263 16.9706L16.9706 29.6985Z" fill="#354896"/>
</svg>
