<svg width="40" height="12" viewBox="0 0 40 12" fill="none" xmlns="http://www.w3.org/2000/svg">
<path d="M18.125 1.76001L10.7812 11.36H13.4375C15.0521 9.12003 18.9062 4.06402 20.1562 2.40001C21.4062 0.736003 21.4062 0.480002 23.2812 0.800003C23.2812 0.640002 22.7188 0 21.0938 0C19.4688 0 18.5938 1.12 18.125 1.76001Z" fill="#114191"/>
<path d="M22.6562 1.76001L15.3125 11.36H17.9688C19.5833 9.12003 23.4375 4.06402 24.6875 2.40001C25.9375 0.736003 25.9375 0.480002 27.8125 0.800003C27.8125 0.640002 27.25 0 25.625 0C24 0 23.125 1.12 22.6562 1.76001Z" fill="#114191"/>
<path d="M27.1875 1.76001L19.8438 11.36H22.5C24.1146 9.12003 27.9688 4.06402 29.2188 2.40001C30.4688 0.736003 30.4688 0.480002 32.3438 0.800003C32.3438 0.640002 31.7812 0 30.1562 0C28.5312 0 27.6562 1.12 27.1875 1.76001Z" fill="#114191"/>
<path d="M18.9062 11.1269C28.1398 11.1269 35.625 9.17248 35.625 6.76158C35.625 5.1875 32.4342 3.80801 27.6493 3.04001C34.8997 3.73931 40 5.40281 40 7.34365C40 9.91528 31.0457 12 20 12C8.95431 12 0 9.91528 0 7.34365C0 6.08148 2.15702 4.9366 5.65965 4.09792C3.48249 4.83497 2.1875 5.75879 2.1875 6.76158C2.1875 9.17248 9.67274 11.1269 18.9062 11.1269Z" fill="#114191"/>
</svg>
