<svg width="32" height="33" viewBox="0 0 32 33" fill="none" xmlns="http://www.w3.org/2000/svg">
<g clip-path="url(#clip0)">
<path d="M9.27208 25.9582C8.03377 25.6231 7.02128 24.6877 6.61065 23.424L3.24658 13.069C3.11178 12.6542 3.05243 12.2329 3.05876 11.8193L0.902939 13.3476C-0.0601888 14.0303 -0.289433 15.3769 0.393256 16.3402L6.68997 25.2221C7.10703 25.8104 7.7719 26.1249 8.44568 26.1249C8.72526 26.1249 9.00645 26.0695 9.27208 25.9582ZM2.67711 15.661L1.88742 15.2812L1.72021 15.3988L2.16056 16.0245L1.79727 16.2801L0.699667 14.72L1.06285 14.4644L1.49258 15.0752L1.61589 14.9884L1.52907 14.1364L1.97908 13.8196L1.9926 14.8661L3.11854 15.3503L2.67711 15.661Z" fill="url(#paint0_linear)"/>
<path d="M6.25774 9.83477C5.13491 10.1997 4.5148 11.4167 4.87959 12.5397L8.24377 22.894C8.53763 23.7985 9.38452 24.3766 10.2898 24.3766C10.5082 24.3766 10.7303 24.343 10.9486 24.2719L10.9363 24.27C9.59434 23.6832 8.6544 22.3518 8.6544 20.776V9.88886C8.6544 9.58739 8.70709 9.29418 8.77106 9.01245L6.25774 9.83477ZM7.13737 12.6579L6.48376 12.0743L6.29058 12.1412L6.54043 12.8641L6.12069 13.0092L5.49767 11.2063L5.91742 11.0613L6.16126 11.7672L6.30368 11.718L6.45608 10.8751L6.97617 10.6954L6.69959 11.7045L7.64748 12.4815L7.13737 12.6579Z" fill="url(#paint1_linear)"/>
<path d="M13.6271 5.81082V5.81018H13.6442" fill="url(#paint2_linear)"/>
<path d="M10.3716 9.8889V20.7762C10.3716 21.9178 11.2482 22.8112 12.3723 22.869C12.046 22.5646 11.7805 22.2022 11.5714 21.792C11.1022 20.871 11.0234 19.8243 11.3416 18.845L14.7082 8.4691C14.7944 8.20412 14.9096 8.0207 15.0452 7.69873H12.5051C11.3246 7.69884 10.3716 8.70833 10.3716 9.8889ZM13.1286 10.8112H12.5889L12.1617 10.06H11.8743V10.8112H11.445V8.8794H11.8743V9.63067H12.108L12.5273 8.8794H13.0775L12.4866 9.75496L13.1286 10.8112Z" fill="url(#paint3_linear)"/>
<path d="M16.3436 9.0216L12.9793 19.3759C12.616 20.4938 13.2296 21.7045 14.3431 22.0751C14.163 21.7255 14.0351 21.3465 13.967 20.9469C13.7936 19.9278 14.0259 18.904 14.6215 18.0643L20.918 9.18237C21.1087 8.91341 21.332 8.67386 21.5795 8.46587L19.0484 7.64334C18.8301 7.5725 18.6082 7.5387 18.3896 7.5387C17.4844 7.5388 16.6375 8.11717 16.3436 9.0216ZM18.6417 10.8522L18.2236 10.6983L18.2495 10.3128L17.6852 10.1052L17.4563 10.4161L17.0382 10.2622L18.2747 8.6846L18.7211 8.8487L18.6417 10.8522Z" fill="url(#paint4_linear)"/>
<path d="M18.2749 9.95929L18.3236 9.24987L18.3164 9.24719L17.8951 9.81945L18.2749 9.95929Z" fill="url(#paint5_linear)"/>
<path d="M31.0972 13.7678L25.3113 9.66594C24.9367 9.40021 24.5038 9.27271 24.0747 9.27271C23.401 9.27271 22.736 9.58716 22.3189 10.1755L16.0224 19.0572C15.3396 20.0205 15.5689 21.367 16.532 22.0498L22.3178 26.1516C22.6924 26.4174 23.1253 26.5448 23.5545 26.5448C24.2282 26.5448 24.8931 26.2304 25.3102 25.642L31.6068 16.7603C32.2896 15.7971 32.0602 14.4505 31.0972 13.7678ZM24.1146 10.1568L24.5023 10.4322L23.9013 12.3448L23.538 12.087L23.664 11.7216L23.1737 11.3735L22.8714 11.6139L22.5081 11.3559L24.1146 10.1568ZM25.8969 14.9278C28.0091 20.1313 25.3808 21.5661 24.1267 21.1671C23.4107 20.9395 23.0917 20.4559 22.9787 19.9069L22.163 21.26L21.1516 20.5422L22.1144 19.3801C21.5753 19.4379 21.0289 19.2404 20.5913 18.6579C19.8011 17.6055 20.288 14.651 25.8969 14.9278Z" fill="url(#paint6_linear)"/>
<path d="M23.7811 11.3868L24.0139 10.7151L24.0075 10.7107L23.4511 11.1525L23.7811 11.3868Z" fill="url(#paint7_linear)"/>
</g>
<defs>
<linearGradient id="paint0_linear" x1="4.63607" y1="11.8193" x2="4.63607" y2="26.1249" gradientUnits="userSpaceOnUse">
<stop/>
<stop offset="1" stop-color="#A5A5A5"/>
</linearGradient>
<linearGradient id="paint1_linear" x1="7.86176" y1="9.01245" x2="7.86176" y2="24.3766" gradientUnits="userSpaceOnUse">
<stop/>
<stop offset="1" stop-color="#A5A5A5"/>
</linearGradient>
<linearGradient id="paint2_linear" x1="13.6357" y1="5.81018" x2="13.6357" y2="5.81082" gradientUnits="userSpaceOnUse">
<stop/>
<stop offset="1" stop-color="#A5A5A5"/>
</linearGradient>
<linearGradient id="paint3_linear" x1="12.7084" y1="7.69873" x2="12.7084" y2="22.869" gradientUnits="userSpaceOnUse">
<stop/>
<stop offset="1" stop-color="#A5A5A5"/>
</linearGradient>
<linearGradient id="paint4_linear" x1="17.2271" y1="7.5387" x2="17.2271" y2="22.0751" gradientUnits="userSpaceOnUse">
<stop/>
<stop offset="1" stop-color="#A5A5A5"/>
</linearGradient>
<linearGradient id="paint5_linear" x1="18.1094" y1="9.24719" x2="18.1094" y2="9.95929" gradientUnits="userSpaceOnUse">
<stop/>
<stop offset="1" stop-color="#A5A5A5"/>
</linearGradient>
<linearGradient id="paint6_linear" x1="23.8146" y1="9.27271" x2="23.8146" y2="26.5448" gradientUnits="userSpaceOnUse">
<stop/>
<stop offset="1" stop-color="#A5A5A5"/>
</linearGradient>
<linearGradient id="paint7_linear" x1="23.7325" y1="10.7107" x2="23.7325" y2="11.3868" gradientUnits="userSpaceOnUse">
<stop/>
<stop offset="1" stop-color="#A5A5A5"/>
</linearGradient>
<clipPath id="clip0">
<rect width="32" height="32" fill="white" transform="translate(0 0.17749)"/>
</clipPath>
</defs>
</svg>
