<svg width="32" height="33" viewBox="0 0 32 33" fill="none" xmlns="http://www.w3.org/2000/svg">
<g clip-path="url(#clip0)">
<path d="M6.29447 24.636V7.665C6.29447 7.48065 6.32618 7.29922 6.35121 7.12146L1.48612 8.70515C0.357627 9.07168 -0.261093 10.2951 0.105544 11.4235L5.35204 27.5638C5.64738 28.4729 6.49963 29.0541 7.40959 29.0541C7.6291 29.0541 7.85281 29.0201 8.07221 28.9489L9.45247 28.4947C7.66556 28.1379 6.29447 26.523 6.29447 24.636Z" fill="url(#paint0_linear)"/>
<path d="M13.2338 3.30103V3.32799H13.2351" fill="url(#paint1_linear)"/>
<path d="M9.82633 22.104L15.0705 5.96701C15.1234 5.80392 15.1867 5.60652 15.2588 5.49866H10.2136C9.02704 5.49866 8.02032 6.4783 8.02032 7.66482V24.6358C8.02032 25.8224 9.02704 26.8562 10.2136 26.8562H11.9361C10.1459 25.9933 9.2075 24.0086 9.82633 22.104Z" fill="url(#paint2_linear)"/>
<path d="M30.5096 8.70511L19.4302 5.10529C19.2108 5.03388 18.9877 5.00012 18.7681 5.00012C17.8582 5.00012 17.0071 5.5812 16.7118 6.49019L11.4676 22.6305C11.101 23.7591 11.7243 24.9823 12.8528 25.3491L23.932 28.9489C24.1514 29.0201 24.3745 29.0541 24.5941 29.0541C25.504 29.0541 26.3551 28.4728 26.6504 27.5638L31.8947 11.4234C32.2613 10.2951 31.6381 9.07164 30.5096 8.70511ZM20.1535 21.3246C14.9286 14.9801 17.9724 11.8271 19.8988 11.8357C21.5221 11.8435 22.183 13.0075 22.4648 14.2052C23.333 13.2517 24.6154 12.8476 25.9334 13.7952C27.4973 14.9196 28.1087 19.2588 20.1535 21.3246Z" fill="url(#paint3_linear)"/>
</g>
<defs>
<linearGradient id="paint0_linear" x1="4.7262" y1="7.12146" x2="4.7262" y2="29.0541" gradientUnits="userSpaceOnUse">
<stop/>
<stop offset="1" stop-color="#A5A5A5"/>
</linearGradient>
<linearGradient id="paint1_linear" x1="13.2345" y1="3.30103" x2="13.2345" y2="3.32799" gradientUnits="userSpaceOnUse">
<stop/>
<stop offset="1" stop-color="#A5A5A5"/>
</linearGradient>
<linearGradient id="paint2_linear" x1="11.6396" y1="5.49866" x2="11.6396" y2="26.8562" gradientUnits="userSpaceOnUse">
<stop/>
<stop offset="1" stop-color="#A5A5A5"/>
</linearGradient>
<linearGradient id="paint3_linear" x1="21.6812" y1="5.00012" x2="21.6812" y2="29.0541" gradientUnits="userSpaceOnUse">
<stop/>
<stop offset="1" stop-color="#A5A5A5"/>
</linearGradient>
<clipPath id="clip0">
<rect width="32" height="32" fill="white" transform="translate(0 0.17749)"/>
</clipPath>
</defs>
</svg>
