<svg width="16" height="17" viewBox="0 0 16 17" fill="none" xmlns="http://www.w3.org/2000/svg">
<g clip-path="url(#clip0)">
<path d="M10.9108 8.95882C11.0003 9.31253 10.0211 9.20031 9.78196 9.53146C9.54265 9.86245 8.95796 9.64005 8.82238 9.57642C8.68681 9.51279 8.16756 9.72485 8.21294 9.36437C8.25806 9.00378 8.57396 8.98261 8.91273 8.83418C9.25135 8.68591 9.73977 8.1929 9.49977 8.12848C8.3698 7.82538 7.9843 6.76389 7.9843 6.76389C7.91652 6.75114 7.93353 6.01349 7.64014 5.99232C7.34649 5.97104 7.18836 6.07712 6.75956 5.99232C6.33049 5.90752 6.42094 5.63184 6.35316 5.03802C6.28553 4.44421 6.53396 4.63509 6.66815 4.44432C6.67988 4.42757 6.69513 4.41264 6.71006 4.39771C5.13897 4.93562 4.0058 6.42624 4.0058 8.17728C4.0058 8.18005 4.00596 8.18282 4.00596 8.1856C4.29796 8.20442 4.82969 8.26608 4.8547 8.4664C4.88926 8.74304 4.85471 9.08885 5.09679 9.19258C5.33887 9.29631 5.40804 8.7776 5.61551 8.91594C5.82297 9.05429 6.37631 9.18746 6.37631 9.43205C6.37631 9.67658 6.27257 10.0571 6.37631 10.1263C6.48004 10.1955 6.89476 10.6796 6.89486 10.7487C6.89502 10.8179 7.04105 11.1696 6.99748 11.3041C6.96137 11.4156 6.77919 11.7617 6.60255 11.9191C7.03785 12.0822 7.50873 12.1719 8.0003 12.1719C10.203 12.1719 11.995 10.3799 11.995 8.17728C11.995 7.52496 11.8367 6.90912 11.5583 6.36469C11.585 6.77093 11.567 7.14112 11.6559 7.2624C12.0452 7.79248 10.7076 8.15712 10.9108 8.95882Z" fill="#51BF7D"/>
<path d="M8.0023 0.17749C3.58422 0.17749 0.00262451 3.75941 0.00262451 8.17733C0.00262451 12.5953 3.58422 16.1775 8.0023 16.1775C12.4204 16.1775 16.0023 12.5955 16.0023 8.17733C16.0023 3.7592 12.4204 0.17749 8.0023 0.17749ZM8.00246 13.0021C5.3422 13.0021 3.17782 10.8379 3.17782 8.17749C3.17782 5.51706 5.3422 3.35285 8.00246 3.35285C10.6627 3.35285 12.8271 5.51706 12.8271 8.17749C12.8271 10.8379 10.6627 13.0021 8.00246 13.0021Z" fill="#51BF7D"/>
</g>
<defs>
<clipPath id="clip0">
<rect width="16" height="16" fill="white" transform="translate(0 0.17749)"/>
</clipPath>
</defs>
</svg>
