<svg width="16" height="17" viewBox="0 0 16 17" fill="none" xmlns="http://www.w3.org/2000/svg">
<g clip-path="url(#clip0)">
<path d="M8.00098 0.17749C3.58269 0.17749 0.00100708 3.75917 0.00100708 8.17746C0.00100708 12.5958 3.58269 16.1774 8.00098 16.1774C12.4192 16.1774 16.0008 12.5958 16.0008 8.17746C16.0008 3.75917 12.4192 0.17749 8.00098 0.17749ZM10.605 11.0855C9.75364 11.3576 8.98282 11.095 8.49371 10.586C8.53208 11.2966 8.63688 12.1692 8.90937 12.6568H7.09249C7.36497 12.1692 7.46978 11.2967 7.50815 10.5861C7.01904 11.095 6.24816 11.3576 5.39687 11.0855C3.89085 10.604 2.31369 7.37113 8.00098 3.74201C13.6882 7.37113 12.1111 10.604 10.605 11.0855Z" fill="#51BF7D"/>
</g>
<defs>
<clipPath id="clip0">
<rect width="16" height="16" fill="white" transform="translate(0 0.17749)"/>
</clipPath>
</defs>
</svg>
