<svg width="16" height="17" viewBox="0 0 16 17" fill="none" xmlns="http://www.w3.org/2000/svg">
<g clip-path="url(#clip0)">
<path d="M8 0.17749C3.6 0.17749 0 3.77749 0 8.17749C0 12.5775 3.6 16.1775 8 16.1775C12.4 16.1775 16 12.5775 16 8.17749C16 3.77749 12.4 0.17749 8 0.17749ZM8.8 13.7775H7.2V12.1775H8.8V13.7775ZM10.48 7.61749L9.76 8.33749C9.12003 8.89752 8.8 9.37749 8.8 10.5775H7.2V10.1775C7.2 9.29749 7.52 8.49749 8.16 7.93749L9.12 6.89749C9.44 6.65749 9.6 6.25749 9.6 5.77749C9.6 4.89749 8.88 4.17749 8 4.17749C7.12 4.17749 6.4 4.89749 6.4 5.77749H4.8C4.8 4.01749 6.24 2.57749 8 2.57749C9.76 2.57749 11.2 4.01749 11.2 5.77749C11.2 6.49749 10.88 7.13749 10.48 7.61749Z" fill="#51BF7D"/>
</g>
<defs>
<clipPath id="clip0">
<rect width="16" height="16" fill="white" transform="matrix(1 0 0 -1 0 16.1775)"/>
</clipPath>
</defs>
</svg>
