<svg width="16" height="17" viewBox="0 0 16 17" fill="none" xmlns="http://www.w3.org/2000/svg">
<g clip-path="url(#clip0)">
<path d="M8 0.17749C3.56364 0.17749 0 3.74113 0 8.17749C0 12.6139 3.56364 16.1775 8 16.1775C12.4364 16.1775 16 12.6139 16 8.17749C16 3.74113 12.4364 0.17749 8 0.17749ZM12.3636 7.45022H11.8182C11.7091 7.45022 11.6364 7.52294 11.6364 7.63204V12.1775C11.6364 12.3957 11.4909 12.5411 11.2727 12.5411H4.72727C4.50909 12.5411 4.36364 12.3957 4.36364 12.1775V7.63204C4.36364 7.52294 4.29091 7.45022 4.18182 7.45022H3.63636C3.41818 7.45022 3.27273 7.30476 3.27273 7.08658C3.27273 6.97749 3.34545 6.83204 3.41818 6.79567L7.78182 3.88658C7.85455 3.85022 7.89091 3.81385 8 3.81385C8.10909 3.81385 8.14546 3.85022 8.21818 3.88658L12.5818 6.79567C12.6909 6.8684 12.7273 6.97749 12.7273 7.08658C12.7273 7.30476 12.5818 7.45022 12.3636 7.45022Z" fill="#51BF7D"/>
<path d="M8.10908 5.55926C8.03636 5.52289 7.96363 5.52289 7.8909 5.55926L5.8909 6.90471C5.85454 6.94107 5.81818 6.97744 5.81818 7.05016V10.9047C5.81818 11.0138 5.8909 11.0865 5.99999 11.0865H7.0909C7.19999 11.0865 7.27272 11.0138 7.27272 10.9047V9.26835C7.27272 9.05016 7.41818 8.90471 7.63636 8.90471H8.36363C8.58181 8.90471 8.72727 9.05016 8.72727 9.26835V10.9047C8.72727 11.0138 8.79999 11.0865 8.90909 11.0865H9.99999C10.1091 11.0865 10.1818 11.0138 10.1818 10.9047V7.05016C10.1818 6.97744 10.1454 6.94107 10.1091 6.90471L8.10908 5.55926Z" fill="#51BF7D"/>
</g>
<defs>
<clipPath id="clip0">
<rect width="16" height="16" fill="white" transform="translate(0 0.17749)"/>
</clipPath>
</defs>
</svg>
