<svg width="24" height="25" viewBox="0 0 24 25" fill="none" xmlns="http://www.w3.org/2000/svg">
<g clip-path="url(#clip0)">
<path d="M17.3766 0.17749H6.62295C2.97106 0.17749 0 3.14869 0 6.80058V17.5543C0 21.2063 2.97106 24.1773 6.62295 24.1773H17.3766C21.0288 24.1773 23.9999 21.2061 23.9999 17.5543V6.80058C24 3.14869 21.0288 0.17749 17.3766 0.17749ZM21.8706 17.5543C21.8706 20.0321 19.8547 22.048 17.3768 22.048H6.62295C4.1452 22.0481 2.12938 20.0321 2.12938 17.5543V6.80058C2.12938 4.32283 4.1452 2.30687 6.62295 2.30687H17.3766C19.8545 2.30687 21.8705 4.32283 21.8705 6.80058V17.5543H21.8706Z" fill="#BDBDBD"/>
<path d="M11.9999 5.99341C8.5899 5.99341 5.81574 8.76757 5.81574 12.1776C5.81574 15.5874 8.5899 18.3614 11.9999 18.3614C15.4099 18.3614 18.1841 15.5874 18.1841 12.1776C18.1841 8.76757 15.4099 5.99341 11.9999 5.99341ZM11.9999 16.2319C9.76419 16.2319 7.94513 14.4131 7.94513 12.1774C7.94513 9.94157 9.76405 8.12265 11.9999 8.12265C14.2358 8.12265 16.0547 9.94157 16.0547 12.1774C16.0547 14.4131 14.2356 16.2319 11.9999 16.2319Z" fill="#BDBDBD"/>
<path d="M18.4435 4.18799C18.0332 4.18799 17.6302 4.35408 17.3405 4.6451C17.0493 4.93469 16.8819 5.33786 16.8819 5.74954C16.8819 6.15994 17.0494 6.56296 17.3405 6.85398C17.6301 7.14357 18.0332 7.31108 18.4435 7.31108C18.8552 7.31108 19.2569 7.14357 19.5479 6.85398C19.8389 6.56296 20.005 6.1598 20.005 5.74954C20.005 5.33786 19.8389 4.93469 19.5479 4.6451C19.2583 4.35408 18.8552 4.18799 18.4435 4.18799Z" fill="#BDBDBD"/>
</g>
<defs>
<clipPath id="clip0">
<rect width="24" height="24" fill="white" transform="translate(0 0.17749)"/>
</clipPath>
</defs>
</svg>
