<svg width="16" height="17" viewBox="0 0 16 17" fill="none" xmlns="http://www.w3.org/2000/svg">
<g clip-path="url(#clip0)">
<path d="M8 0.17749C3.56364 0.17749 0 3.74113 0 8.17749C0 12.6139 3.56364 16.1775 8 16.1775C12.4364 16.1775 16 12.6139 16 8.17749C16 3.74113 12.4364 0.17749 8 0.17749ZM6.10909 9.05022L5.6 9.55931C5.45455 9.70476 5.23636 9.70476 5.09091 9.55931L4.18182 8.65022C3.6 8.0684 3.27273 7.30476 3.27273 6.4684C3.27273 4.79567 4.65455 3.41385 6.32727 3.41385C7.12727 3.41385 7.92727 3.74113 8.50909 4.32294L9.41818 5.23204C9.56364 5.37749 9.56364 5.59567 9.41818 5.74113L8.90909 6.25022C8.76364 6.39567 8.54545 6.39567 8.4 6.25022L7.49091 5.34113C7.2 5.05022 6.8 4.8684 6.36364 4.8684C5.49091 4.8684 4.76364 5.59567 4.76364 6.4684C4.76364 6.90476 4.94545 7.30476 5.23636 7.59567L6.14545 8.50476C6.21818 8.68658 6.21818 8.90476 6.10909 9.05022ZM6.29091 6.97749L6.8 6.4684C6.94546 6.32294 7.16364 6.32294 7.30909 6.4684L9.70909 8.8684C9.85455 9.01385 9.85455 9.23204 9.70909 9.37749L9.2 9.88658C9.05455 10.032 8.83636 10.032 8.69091 9.88658L6.29091 7.48658C6.14545 7.34113 6.14545 7.12295 6.29091 6.97749ZM9.67273 12.9048C8.87273 12.9048 8.07273 12.5775 7.49091 11.9957L6.58182 11.0866C6.43636 10.9411 6.43636 10.7229 6.58182 10.5775L7.09091 10.0684C7.23636 9.92295 7.45455 9.92295 7.6 10.0684L8.50909 10.9775C8.8 11.2684 9.2 11.4502 9.63636 11.4502C10.5091 11.4502 11.2364 10.7229 11.2364 9.85022C11.2364 9.41385 11.0545 9.01385 10.7636 8.72295L9.85455 7.81385C9.70909 7.6684 9.70909 7.45022 9.85455 7.30476L10.3636 6.79567C10.5091 6.65022 10.7273 6.65022 10.8727 6.79567L11.7818 7.70476C12.3636 8.28658 12.6909 9.05022 12.6909 9.88658C12.7273 11.5229 11.3455 12.9048 9.67273 12.9048Z" fill="#51BF7D"/>
</g>
<defs>
<clipPath id="clip0">
<rect width="16" height="16" fill="white" transform="translate(0 0.17749)"/>
</clipPath>
</defs>
</svg>
