<svg width="138" height="37" viewBox="0 0 138 37" fill="none" xmlns="http://www.w3.org/2000/svg">
<path d="M4.72476 22.2754C4.72476 22.2754 32.6366 22.2754 46.4932 22.2754C51.7738 22.2754 57.0545 22.2754 62.3351 22.2754C62.7718 22.2754 62.9306 22.3545 62.8909 22.8288C62.8512 23.9357 62.8512 25.0426 62.8909 26.1494C62.8909 26.5448 62.7718 26.6238 62.4145 26.6238C57.3721 26.6238 52.3297 26.6238 47.2476 26.6238C31.6837 26.6238 0 26.6238 0 26.6238L4.72476 22.2754Z" fill="#BDBDBD"/>
<path d="M123.797 5.15849H66.941L71.6657 0.612398C71.6657 0.612398 109.702 0.612398 128.442 0.612398C128.601 0.612398 128.919 0.612398 128.919 0.612398L123.797 5.15849Z" fill="#BDBDBD"/>
<path d="M19.7724 11.7601C17.1519 14.1715 14.6506 16.5039 12.0698 18.8758C12.0698 16.5039 12.0698 14.2111 12.0698 11.7601C9.44935 14.1715 6.94801 16.5039 4.36726 18.9548C4.36726 18.2828 4.36726 17.7293 4.36726 17.1759C4.36726 15.7923 4.36726 14.4087 4.36726 13.0251C4.36726 12.8275 4.48637 12.5508 4.60548 12.4322C8.8538 8.47904 13.0624 4.52592 17.3107 0.612334C17.4298 0.49374 17.5489 0.375146 17.7872 0.17749C17.7872 2.15405 17.7872 4.01202 17.7872 6.02811C20.1297 4.09108 22.3134 2.19358 24.5765 0.217021C24.5765 6.38389 24.5765 12.4322 24.5765 18.52C22.9884 18.52 21.4002 18.52 19.7724 18.52C19.7724 16.3458 19.7724 14.132 19.7724 11.7601Z" fill="#BDBDBD"/>
<path d="M88.3016 8.75585C90.8823 11.1672 93.4234 13.5391 96.0836 15.9901C96.0836 15.7133 96.1233 15.5552 96.1233 15.4366C96.1233 13.381 96.1233 11.3254 96.1233 9.26975C96.1233 8.83491 96.2424 8.71632 96.6791 8.71632C97.8702 8.75585 99.0216 8.75585 100.213 8.71632C100.649 8.71632 100.729 8.83491 100.729 9.26975C100.729 13.8554 100.729 18.4015 100.729 22.9871C100.729 24.094 100.729 25.2404 100.729 26.3472C100.729 26.5054 100.729 26.6635 100.729 26.9797C96.7188 23.2638 92.8278 19.6665 88.8575 15.9505C88.8575 16.3063 88.8177 16.4644 88.8177 16.6621C88.8177 19.7851 88.8177 22.908 88.8177 26.0705C88.8177 26.6635 88.8177 26.6635 88.2222 26.6635C87.0311 26.6635 85.84 26.6635 84.6488 26.6635C84.3709 26.6635 84.2518 26.5844 84.2518 26.2682C84.2518 21.8011 84.2518 17.3736 84.2518 12.9066C84.2518 12.7485 84.2915 12.5508 84.4106 12.4718C85.6811 11.2068 86.9914 9.98131 88.3016 8.75585Z" fill="#BDBDBD"/>
<path d="M43.714 18.5596C42.2052 18.5596 40.6965 18.5596 39.148 18.5596C39.148 17.7689 39.148 17.0178 39.148 16.1877C36.4084 16.1877 33.7086 16.1877 31.0087 16.1877C31.0087 16.1482 30.969 16.1086 30.969 16.0691C31.0881 15.99 31.2072 15.911 31.2866 15.7924C32.6366 14.5274 34.0262 13.2229 35.3761 11.9974C35.535 11.8393 35.8129 11.7602 36.0114 11.7207C37.004 11.6811 38.0363 11.7207 39.0686 11.7207C39.0686 10.179 39.0686 8.7163 39.0686 7.13505C34.8203 11.0486 30.6117 14.9622 26.3237 18.9153C26.3237 18.7572 26.284 18.6386 26.284 18.52C26.284 16.7016 26.284 14.8832 26.284 13.0647C26.284 12.8671 26.4031 12.6299 26.5222 12.5113C30.6514 8.5977 34.7409 4.72364 38.8701 0.810054C38.9892 0.69146 39.148 0.612398 39.2671 0.612398C40.6965 0.612398 42.1655 0.612398 43.6345 0.612398C43.714 6.58161 43.714 12.5508 43.714 18.5596Z" fill="#BDBDBD"/>
<path d="M54.5927 11.3649C51.8134 13.9344 49.0738 16.5039 46.2549 19.113C46.2549 18.8758 46.2151 18.7572 46.2151 18.6386C46.2151 16.7806 46.2151 14.9622 46.2151 13.1042C46.2151 12.9066 46.3343 12.6299 46.4931 12.4717C47.8827 11.1672 49.2723 9.90221 50.662 8.63721C50.8208 8.47908 50.9796 8.32096 51.1781 8.16283C49.5503 6.54205 47.9621 4.96081 46.3343 3.34003C47.4063 2.31221 48.4783 1.2844 49.59 0.256591C51.2575 1.83784 52.8854 3.41909 54.5927 5.03987C55.1485 4.52596 55.6647 4.05159 56.1808 3.57721C57.1337 2.668 58.1263 1.75878 59.0792 0.889091C59.1983 0.770497 59.4365 0.651904 59.5954 0.651904C61.6997 0.651904 63.804 0.651904 65.948 0.651904C65.9877 0.651904 66.0671 0.651904 66.2259 0.691435C63.4863 3.22143 60.8262 5.67237 58.1263 8.20237C58.6822 8.7558 59.238 9.26971 59.7939 9.82314C60.7468 10.7324 61.6997 11.6416 62.6525 12.5903C62.7717 12.7089 62.8908 12.9066 62.8908 13.0647C62.8908 15.0017 62.8908 16.9783 62.8908 18.9153C62.8908 18.9549 62.8908 19.0339 62.8511 19.192C60.0718 16.5039 57.3322 13.9344 54.5927 11.3649Z" fill="#BDBDBD"/>
<path d="M119.151 8.75574C118.198 9.66496 117.325 10.4951 116.412 11.3253C116.015 11.7206 115.578 12.0764 115.181 12.4717C114.903 12.7879 114.585 12.9065 114.149 12.9065C112.084 12.867 110.059 12.9065 107.994 12.9065C107.597 12.9065 107.399 13.0251 107.439 13.46C107.478 14.0134 107.478 14.5273 107.439 15.0807C107.399 15.5156 107.597 15.6342 107.955 15.6342C109.98 15.6342 112.005 15.6342 114.029 15.6342C114.665 15.6342 114.665 15.6342 114.665 16.3062C114.665 17.2945 114.665 18.3223 114.665 19.3106C114.665 19.7454 114.506 19.864 114.109 19.864C112.084 19.864 110.059 19.864 108.034 19.864C107.439 19.864 107.439 19.864 107.439 20.4965C107.439 20.9709 107.439 21.4453 107.439 21.8801C107.439 22.2359 107.558 22.3545 107.875 22.3545C109.94 22.3545 112.044 22.3545 114.109 22.3545C114.546 22.3545 114.665 22.4731 114.625 22.9079C114.585 24.0148 114.625 25.1612 114.625 26.2681C114.625 26.5843 114.506 26.7029 114.188 26.7029C110.535 26.7029 106.883 26.7029 103.23 26.7029C102.912 26.7029 102.793 26.6238 102.793 26.2681C102.793 21.9592 102.793 17.6503 102.793 13.3809C102.793 13.1832 102.873 12.9856 103.031 12.867C104.421 11.5625 105.771 10.2975 107.161 9.03246C107.28 8.91386 107.518 8.79527 107.677 8.79527C111.409 8.79527 115.101 8.79527 118.834 8.79527C118.992 8.71621 119.032 8.71621 119.151 8.75574Z" fill="#BDBDBD"/>
<path d="M70.4345 8.83486C70.4345 13.3414 70.4345 17.8084 70.4345 22.2755C70.6331 22.2755 70.7919 22.315 70.9904 22.315C72.4197 22.315 73.8094 22.315 75.2387 22.315C75.5564 22.315 75.6755 22.3941 75.6755 22.7498C75.6755 23.8962 75.6755 25.0427 75.6755 26.1495C75.6755 26.5053 75.596 26.6634 75.199 26.6634C72.2609 26.6634 69.2831 26.6634 66.345 26.6634C65.9877 26.6634 65.8686 26.5844 65.8686 26.1891C65.8686 21.9197 65.8686 17.6108 65.8686 13.3414C65.8686 13.1438 65.948 12.9066 66.0671 12.788C67.4567 11.4834 68.8464 10.2185 70.1963 8.95345C70.2757 8.91392 70.3154 8.91392 70.4345 8.83486Z" fill="#BDBDBD"/>
<path d="M82.0677 8.83486C82.0677 9.03251 82.0677 9.19064 82.0677 9.34876C82.0677 14.9227 82.0677 20.5361 82.0677 26.11C82.0677 26.5448 81.9486 26.6634 81.5516 26.6634C80.3604 26.6239 79.1693 26.6239 77.9385 26.6634C77.6209 26.6634 77.4621 26.5844 77.4621 26.2286C77.4621 21.9197 77.4621 17.6108 77.4621 13.3414C77.4621 13.1438 77.5812 12.9066 77.7003 12.788C79.0502 11.523 80.4398 10.258 81.8295 8.99298C81.9089 8.91392 81.9486 8.87439 82.0677 8.83486Z" fill="#BDBDBD"/>
<path d="M1.15134 31.0909H5.32024L5.12172 32.0792H2.14393L1.94541 33.1861H3.37475C3.8909 33.1861 4.32765 33.3047 4.60557 33.5419C4.8835 33.7791 5.04232 34.1348 5.04232 34.6092C5.04232 35.0045 4.96291 35.3208 4.76439 35.5975C4.56587 35.8742 4.28794 36.0719 3.93061 36.23C3.57327 36.3881 3.13653 36.4672 2.62038 36.4672H0.119036L1.15134 31.0909ZM2.69979 35.558C3.05712 35.558 3.33505 35.4789 3.49387 35.3208C3.69238 35.1627 3.77179 34.965 3.77179 34.6883C3.77179 34.4906 3.69238 34.3325 3.57327 34.2534C3.45416 34.1744 3.21594 34.0953 2.93801 34.0953H1.7866L1.50867 35.5184H2.69979V35.558Z" fill="#BDBDBD"/>
<path d="M11.1173 31.0909L8.09984 35.3998C7.82191 35.7952 7.50428 36.1114 7.18665 36.3091C6.86902 36.5067 6.55138 36.5858 6.19405 36.5858C5.91612 36.5858 5.6382 36.5067 5.36027 36.3881L5.75731 35.4789C5.91612 35.5184 6.03523 35.558 6.19405 35.558C6.35287 35.558 6.51168 35.5184 6.6705 35.4394C6.82931 35.3603 6.94842 35.2417 7.10724 35.0836L7.18665 34.965L5.91612 31.0909H7.14694L7.98072 33.9372L9.96592 31.0909H11.1173Z" fill="#BDBDBD"/>
<path d="M14.1743 33.7395L15.4051 36.4672H14.0949L13.1817 34.293H12.3082L11.8715 36.4672H10.6803L11.7126 31.0909H12.9038L12.467 33.2652H13.2611L15.0478 31.0909H16.3977L14.1743 33.7395Z" fill="#BDBDBD"/>
<path d="M22.8295 31.0909L21.7972 36.4672H20.6855L21.2811 33.2652L19.2959 35.8742H18.74L17.668 33.2256L17.0328 36.4672H15.921L16.9533 31.0909H17.9459L19.2562 34.4116L21.7575 31.0909H22.8295Z" fill="#BDBDBD"/>
<path d="M25.1325 32.1187L24.8943 33.2651H27.3162L27.1177 34.2138H24.6958L24.4575 35.4393H27.2765L27.078 36.4276H23.0679L24.1002 31.0513H27.9912L27.7927 32.0396H25.1325V32.1187Z" fill="#BDBDBD"/>
<path d="M31.5645 33.7395L32.7953 36.4672H31.5247L30.6116 34.293H29.7381L29.3013 36.4672H28.1102L29.1425 31.0909H30.3336L29.8969 33.2652H30.691L32.4776 31.0909H33.8276L31.5645 33.7395Z" fill="#BDBDBD"/>
<path d="M35.3763 32.1187L35.1381 33.2652H37.5601L37.4012 34.2139H34.9793L34.7411 35.4789H37.5601L37.3615 36.4672H33.3514L34.3837 31.0909H38.3144L38.1159 32.0792H35.3763V32.1187Z" fill="#BDBDBD"/>
<path d="M42.9201 31.5257C43.2774 31.8024 43.4362 32.2373 43.4362 32.7512C43.4362 33.186 43.3171 33.5813 43.1186 33.9371C42.9201 34.2533 42.6422 34.5301 42.2451 34.6882C41.8878 34.8858 41.4113 34.9649 40.8952 34.9649H39.7438L39.4658 36.4276H38.2747L39.307 31.0513H41.4113C42.0863 31.0909 42.5627 31.249 42.9201 31.5257ZM41.9275 33.6999C42.126 33.5023 42.2451 33.2255 42.2451 32.8698C42.2451 32.6326 42.1657 32.4349 42.0069 32.2768C41.8481 32.1582 41.6099 32.0791 41.2922 32.0791H40.3393L39.982 33.9371H41.0143C41.3716 33.9766 41.6893 33.8976 41.9275 33.6999Z" fill="#BDBDBD"/>
<path d="M45.1033 36.2694C44.7063 36.0718 44.4284 35.7951 44.2299 35.4393C44.0313 35.0835 43.9122 34.6882 43.9122 34.2138C43.9122 33.6208 44.0313 33.0674 44.3093 32.5535C44.5872 32.0791 44.9445 31.6838 45.4607 31.4071C45.9371 31.1304 46.493 30.9722 47.1282 30.9722C47.6047 30.9722 48.0017 31.0513 48.3591 31.2094C48.7164 31.3676 48.9943 31.6047 49.1531 31.921L48.2796 32.6721C48.0017 32.2372 47.6047 32.0396 47.0488 32.0396C46.6518 32.0396 46.3342 32.1186 46.0562 32.3163C45.7783 32.514 45.5401 32.7511 45.3813 33.0674C45.2225 33.3836 45.143 33.7394 45.143 34.1347C45.143 34.5301 45.2622 34.8858 45.5401 35.123C45.7783 35.3602 46.1356 35.4788 46.6121 35.4788C47.1679 35.4788 47.6047 35.2811 48.0017 34.8463L48.7164 35.5974C48.2002 36.2299 47.4856 36.5066 46.5327 36.5066C45.9371 36.5461 45.4607 36.4671 45.1033 36.2694Z" fill="#BDBDBD"/>
<path d="M52.7267 33.7395L53.9575 36.4672H52.687L51.7738 34.293H50.9003L50.4636 36.4672H49.2725L50.3048 31.0909H51.4959L51.0592 33.2652H51.8532L53.6399 31.0909H54.9898L52.7267 33.7395Z" fill="#BDBDBD"/>
<path d="M58.2061 35.3208H55.7842L55.1092 36.4672H53.8387L57.1738 31.0909H58.3649L59.6354 36.4672H58.4443L58.2061 35.3208ZM58.0076 34.372L57.5708 32.3164L56.34 34.372H58.0076Z" fill="#BDBDBD"/>
<path d="M65.2336 31.0909L64.2013 36.4672H63.0101L63.2881 35.0441H62.2558L61.0647 36.4672H59.7544L61.1838 34.8464C60.9058 34.7278 60.7073 34.5301 60.5882 34.293C60.4691 34.0558 60.3897 33.7791 60.3897 33.4233C60.3897 32.9489 60.5088 32.5536 60.7073 32.1978C60.9455 31.842 61.2235 31.5653 61.6205 31.3677C62.0175 31.17 62.494 31.0909 63.0101 31.0909H65.2336ZM61.8984 32.435C61.6602 32.6327 61.5808 32.9094 61.5808 33.3047C61.5808 33.5419 61.6602 33.7395 61.7793 33.8977C61.9381 34.0162 62.1367 34.0953 62.4146 34.0953H63.4469L63.8439 32.1583H62.8116C62.4543 32.1187 62.1367 32.2373 61.8984 32.435Z" fill="#BDBDBD"/>
<path d="M71.1094 33.7395L72.3402 36.4672H71.0697L70.1565 34.293H69.283L68.8463 36.4672H67.6552L68.6875 31.0909H69.8786L69.4418 33.2652H70.2359L72.0226 31.0909H73.3725L71.1094 33.7395Z" fill="#BDBDBD"/>
<path d="M74.2066 36.2694C73.8095 36.0718 73.5316 35.7951 73.3331 35.4393C73.1346 35.0835 73.0154 34.6882 73.0154 34.2138C73.0154 33.6208 73.1346 33.0674 73.4125 32.5535C73.6904 32.0791 74.0478 31.6838 74.5242 31.4071C75.0006 31.1304 75.5565 30.9722 76.1918 30.9722C76.7079 30.9722 77.1447 31.0513 77.5417 31.249C77.9387 31.4466 78.2167 31.7233 78.4152 32.0791C78.6137 32.4349 78.7328 32.8302 78.7328 33.3046C78.7328 33.8976 78.6137 34.451 78.3358 34.9649C78.0578 35.4393 77.7005 35.8346 77.2241 36.1113C76.7476 36.388 76.1918 36.5461 75.5565 36.5461C75.0404 36.5461 74.5639 36.4671 74.2066 36.2694ZM76.6285 35.2021C76.9064 35.0044 77.1447 34.7672 77.3035 34.451C77.4623 34.1347 77.5417 33.779 77.5417 33.3836C77.5417 32.9883 77.4226 32.6326 77.1844 32.3954C76.9461 32.1582 76.5888 32.0396 76.1521 32.0396C75.755 32.0396 75.4374 32.1186 75.1595 32.3163C74.8815 32.514 74.6433 32.7511 74.4845 33.0674C74.3257 33.3836 74.2463 33.7394 74.2463 34.1347C74.2463 34.5301 74.3654 34.8858 74.6036 35.123C74.8418 35.3602 75.1992 35.4788 75.6359 35.4788C76.033 35.5183 76.3506 35.3997 76.6285 35.2021Z" fill="#BDBDBD"/>
<path d="M85.9984 31.0909L84.9661 36.4672H83.8544L84.45 33.2652L82.4648 35.8742H81.9089L80.8369 33.2256L80.2016 36.4672H79.0899L80.1222 31.0909H81.1148L82.4251 34.4116L84.9264 31.0909H85.9984Z" fill="#BDBDBD"/>
<path d="M91.9938 31.0909L90.9615 36.4672H89.7704L90.6042 32.1187H88.2617L87.4279 36.4672H86.2368L87.2691 31.0909H91.9938Z" fill="#BDBDBD"/>
<path d="M96.0438 35.3208H93.6219L92.9469 36.4672H91.6764L95.0115 31.0909H96.2026L97.4732 36.4672H96.2821L96.0438 35.3208ZM95.8453 34.372L95.4086 32.3164L94.1777 34.372H95.8453Z" fill="#BDBDBD"/>
<path d="M103.945 31.0909L102.913 36.4672H101.722L102.158 34.293H99.8157L99.379 36.4672H98.1879L99.2202 31.0909H100.411L100.014 33.1861H102.357L102.754 31.0909H103.945Z" fill="#BDBDBD"/>
<path d="M105.255 31.0909H106.446L105.771 34.5697L108.908 31.0909H110.059L108.987 36.4672H107.796L108.511 32.9884L105.374 36.4672H104.223L105.255 31.0909Z" fill="#BDBDBD"/>
<path d="M115.459 31.0909L114.427 36.4672H113.235L113.513 35.0441H112.481L111.29 36.4672H109.98L111.409 34.8464C111.131 34.7278 110.933 34.5301 110.814 34.293C110.694 34.0558 110.615 33.7791 110.615 33.4233C110.615 32.9489 110.734 32.5536 110.933 32.1978C111.171 31.842 111.449 31.5653 111.846 31.3677C112.243 31.17 112.719 31.0909 113.235 31.0909H115.459ZM112.124 32.435C111.886 32.6327 111.806 32.9094 111.806 33.3047C111.806 33.5419 111.886 33.7395 112.005 33.8977C112.163 34.0162 112.362 34.0953 112.64 34.0953H113.672L114.069 32.1583H113.037C112.68 32.1187 112.362 32.2373 112.124 32.435Z" fill="#BDBDBD"/>
<path d="M136.303 1.04719C136.82 1.32391 137.177 1.75876 137.495 2.27266C137.772 2.78657 137.931 3.37954 137.931 4.01203C137.931 4.64453 137.772 5.2375 137.495 5.75141C137.217 6.26531 136.82 6.70016 136.303 6.97688C135.787 7.29313 135.231 7.41172 134.636 7.41172C134.04 7.41172 133.484 7.25359 132.968 6.97688C132.452 6.66063 132.095 6.26531 131.777 5.75141C131.499 5.2375 131.34 4.64453 131.34 4.05157C131.34 3.41907 131.499 2.86563 131.777 2.35172C132.055 1.83782 132.452 1.40297 132.968 1.12626C133.484 0.810007 134.04 0.691413 134.636 0.691413C135.271 0.612351 135.827 0.730944 136.303 1.04719ZM136.105 6.58156C136.542 6.30484 136.899 5.94906 137.137 5.51422C137.375 5.03985 137.495 4.56547 137.495 4.01203C137.495 3.4586 137.375 2.94469 137.137 2.50985C136.899 2.07501 136.542 1.71922 136.105 1.44251C135.668 1.20532 135.192 1.04719 134.636 1.04719C134.12 1.04719 133.604 1.16579 133.167 1.44251C132.73 1.71922 132.373 2.07501 132.134 2.50985C131.896 2.94469 131.777 3.4586 131.777 4.01203C131.777 4.56547 131.896 5.03985 132.134 5.51422C132.373 5.94906 132.73 6.34438 133.167 6.58156C133.604 6.85828 134.08 6.97688 134.596 6.97688C135.152 6.97688 135.668 6.81875 136.105 6.58156ZM136.105 4.13063C135.986 4.32828 135.787 4.48641 135.509 4.56547L136.343 5.90953H135.708L134.953 4.68407H133.921V5.90953H133.286V2.07501H134.755C135.231 2.07501 135.589 2.1936 135.867 2.43079C136.145 2.66797 136.264 2.98422 136.264 3.37954C136.303 3.65625 136.264 3.93297 136.105 4.13063ZM135.47 3.93297C135.628 3.81438 135.708 3.61672 135.708 3.37954C135.708 3.14235 135.628 2.94469 135.47 2.8261C135.311 2.7075 135.073 2.62844 134.795 2.62844H133.961V4.17016H134.795C135.073 4.17016 135.311 4.0911 135.47 3.93297Z" fill="#BDBDBD"/>
</svg>
