<svg width="48" height="49" viewBox="0 0 48 49" fill="none" xmlns="http://www.w3.org/2000/svg">
<g clip-path="url(#clip0)">
<path d="M24.0022 34.759C26.9012 32.1422 28.7307 28.3426 28.7307 24.1224C28.7307 19.9013 26.9007 16.1038 24.0022 13.458C21.469 11.1511 18.0941 9.74365 14.3793 9.74365C6.44543 9.74365 0 16.188 0 24.1219C0 32.0579 6.44543 38.4728 14.3793 38.4728C18.0942 38.4734 21.469 37.067 24.0022 34.759Z" fill="#009DDD"/>
<path d="M24.0023 34.7591C26.9013 32.1422 28.7308 28.3426 28.7308 24.1225C28.7308 19.9013 26.9007 16.1039 24.0023 13.458V34.7591Z" fill="#009DDD"/>
<path d="M33.6214 9.69775C29.8973 9.69775 26.5123 11.1068 23.9458 13.4163C23.4388 13.8948 22.9598 14.4022 22.5071 14.9386H25.4119C25.8075 15.416 26.1742 15.9524 26.5123 16.4588H21.4065C21.0973 16.9662 20.8151 17.4741 20.5603 17.9801H27.3301C27.557 18.4865 27.7811 18.9954 27.9505 19.5018H19.9705C19.8006 20.0088 19.6592 20.5171 19.5468 21.051H28.3741C28.571 22.009 28.6855 23.0518 28.6855 24.0929C28.6855 25.6705 28.4301 27.2207 27.9506 28.6571H19.9706C20.1384 29.1635 20.3362 29.6714 20.561 30.1784H27.3308C27.0776 30.6858 26.8228 31.2206 26.5125 31.6997H21.4067C21.7469 32.2351 22.1126 32.7419 22.5071 33.221H25.4119C24.9614 33.7564 24.4812 34.2638 23.9458 34.7423C26.5125 37.0529 29.8973 38.4609 33.6214 38.4609C41.575 38.4609 48.0061 32.0387 48.0061 24.0936C48.0054 16.1495 41.575 9.69775 33.6214 9.69775Z" fill="#ED1C2E"/>
<path d="M43.0517 27.218C43.0517 26.9643 43.278 26.7681 43.5307 26.7681C43.7844 26.7681 43.9806 26.9644 43.9806 27.218C43.9806 27.4722 43.7843 27.697 43.5307 27.697C43.278 27.697 43.0517 27.4722 43.0517 27.218ZM43.5307 27.5843C43.727 27.5843 43.868 27.4154 43.868 27.218C43.868 27.0213 43.7269 26.8802 43.5307 26.8802C43.3333 26.8802 43.1659 27.0213 43.1659 27.218C43.1659 27.4154 43.3333 27.5843 43.5307 27.5843ZM43.4742 27.4154H43.3621V27.0211H43.5305C43.5858 27.0211 43.6148 27.0211 43.6436 27.0495C43.6715 27.0774 43.6989 27.1048 43.6989 27.1338C43.6989 27.1906 43.671 27.2469 43.6146 27.2469L43.6989 27.4153H43.5858L43.5305 27.2742H43.4742V27.4154ZM43.4742 27.1906H43.5305C43.5305 27.1906 43.5584 27.1906 43.5858 27.1906C43.5858 27.1906 43.5858 27.1616 43.5858 27.1338V27.1048C43.5579 27.1048 43.5305 27.1048 43.5027 27.1048H43.4737V27.1906H43.4742Z" fill="white"/>
<path d="M12.5783 27.697H10.7783L11.8471 22.0974L9.39977 27.697H7.76611L7.48549 22.1252L6.4166 27.697H4.78394L6.16341 20.4094H8.97609L9.11661 24.9106L11.0888 20.4094H13.9841L12.5783 27.697Z" fill="white"/>
<path d="M32.5572 27.6132C32.0504 27.7528 31.6845 27.809 31.2618 27.809C30.3623 27.809 29.8544 27.359 29.8544 26.5158C29.8544 26.3463 29.8833 26.1768 29.9106 25.98L30.0227 25.3889L30.1091 24.9395L30.9244 20.4099H32.6966L32.4445 21.7594H33.3719L33.1193 23.1957H32.1909L31.7409 25.6711C31.712 25.7838 31.6847 25.8685 31.6847 25.9243C31.6847 26.2343 31.882 26.3737 32.3047 26.3737C32.5011 26.3737 32.6685 26.3459 32.7827 26.3179L32.5572 27.6132Z" fill="white"/>
<path d="M37.7626 21.8168C37.6215 21.7595 37.5942 21.7595 37.5662 21.7595C37.481 21.7305 37.4252 21.7305 37.4252 21.7036C37.3678 21.7036 37.3121 21.7036 37.2288 21.7036C36.6366 21.7036 36.215 21.9568 35.6798 22.6594L35.8482 21.7595H34.2155L33.1187 27.697H34.9197C35.5666 24.0658 35.8202 23.4194 36.6919 23.4194C36.7482 23.4194 36.834 23.4478 36.9172 23.4478L37.1146 23.5037L37.7626 21.8168Z" fill="white"/>
<path d="M25.465 23.6443C25.465 24.3764 25.8877 24.9107 26.8444 25.2775C27.5766 25.586 27.6893 25.6712 27.6893 25.9528C27.6893 26.3181 27.3508 26.4876 26.6477 26.4876C26.1129 26.4876 25.6055 26.403 25.015 26.235L24.7898 27.6139H24.875L25.1835 27.6976C25.2956 27.6976 25.464 27.726 25.6615 27.726C26.0842 27.7813 26.422 27.7813 26.6752 27.7813C28.5605 27.7813 29.461 27.1624 29.461 25.8123C29.461 24.9959 29.0952 24.5181 28.1668 24.1522C27.4063 23.8706 27.3226 23.7864 27.3226 23.5049C27.3226 23.1964 27.632 23.0269 28.2231 23.0269C28.5604 23.0269 29.0662 23.0559 29.5163 23.1106L29.7701 21.7605C29.2921 21.6774 28.5889 21.6484 28.1942 21.6484C26.1691 21.6475 25.465 22.5474 25.465 23.6443Z" fill="white"/>
<path d="M18.3747 27.6971H16.911L16.94 27.077C16.49 27.556 15.8709 27.7808 15.0547 27.7808C14.0989 27.7808 13.423 27.1339 13.423 26.1771C13.423 24.7412 14.5751 23.8975 16.5747 23.8975C16.7699 23.8975 17.0241 23.8975 17.3057 23.9265C17.3619 23.7297 17.3619 23.6443 17.3619 23.5606C17.3619 23.1669 17.0514 23.0258 16.2077 23.0258C15.7009 23.0258 15.1398 23.0821 14.7451 23.1669L14.4924 23.2516L14.3229 23.279L14.5756 21.9569C15.4772 21.7306 16.0393 21.6475 16.7156 21.6475C18.2619 21.6475 19.0504 22.2375 19.0504 23.3627C19.0504 23.6727 19.0226 23.8979 18.9105 24.5454L18.5446 26.656L18.4884 27.0213L18.431 27.3319L18.4031 27.5277L18.3747 27.6971ZM17.0805 25.0512C16.882 25.0234 16.7989 25.0234 16.6868 25.0234C15.673 25.0234 15.1672 25.3328 15.1672 25.9244C15.1672 26.2897 15.3914 26.5434 15.7851 26.5434C16.5184 26.5434 17.0521 25.9244 17.0805 25.0512Z" fill="white"/>
<path d="M24.2547 27.556C23.6368 27.7249 23.0458 27.8086 22.4257 27.8086C20.4304 27.8086 19.3873 26.8797 19.3873 25.1353C19.3873 23.1089 20.7105 21.6179 22.5115 21.6179C23.9741 21.6179 24.9047 22.4622 24.9047 23.7564C24.9047 24.2058 24.8474 24.6301 24.7074 25.2201H21.132C21.132 25.3322 21.132 25.3601 21.132 25.4175C21.132 26.0928 21.6388 26.4581 22.68 26.4581C23.3274 26.4581 23.918 26.346 24.5364 26.0934L24.2547 27.556ZM23.2989 24.0396C23.2989 23.9265 23.2989 23.8132 23.2989 23.7295C23.2989 23.2516 22.9884 22.969 22.4547 22.969C21.8915 22.969 21.4978 23.3627 21.3278 24.0396H23.2989Z" fill="white"/>
<path d="M43.3332 24.9953C43.0516 26.9637 41.6731 27.8364 39.8431 27.8364C37.8467 27.8364 37.0314 26.6274 37.0314 25.108C37.0314 23.0253 38.4088 21.5889 40.5473 21.5889C42.4047 21.5889 43.3895 22.771 43.3895 24.2626C43.3901 24.6305 43.3901 24.658 43.3332 24.9953ZM41.4768 24.2347C41.4768 23.6158 41.223 23.0547 40.4931 23.0547C39.5905 23.0547 39.0284 24.1226 39.0284 25.08C39.0284 25.8684 39.4231 26.4026 40.0422 26.4026C40.4359 26.4026 41.2801 25.8684 41.4207 24.9679C41.4768 24.7417 41.4768 24.4895 41.4768 24.2347Z" fill="white"/>
</g>
<defs>
<clipPath id="clip0">
<rect width="48" height="48" fill="white" transform="translate(0 0.17749)"/>
</clipPath>
</defs>
</svg>
