<svg width="48" height="49" viewBox="0 0 48 49" fill="none" xmlns="http://www.w3.org/2000/svg">
<path d="M47.9999 24.1776C47.9999 32.1014 41.5999 38.5776 33.5999 38.5776C25.6761 38.5776 19.2 32.1014 19.2 24.1776C19.2 16.2538 25.5999 9.77759 33.5238 9.77759C41.5999 9.77759 47.9999 16.2538 47.9999 24.1776Z" fill="#FFB600"/>
<path d="M33.5999 9.77759C41.5238 9.77759 47.9999 16.2538 47.9999 24.1776C47.9999 32.1014 41.5999 38.5776 33.5999 38.5776C25.6761 38.5776 19.2 32.1014 19.2 24.1776" fill="#F7981D"/>
<path d="M33.6 9.77759C41.5238 9.77759 48 16.2538 48 24.1776C48 32.1014 41.6 38.5776 33.6 38.5776" fill="#FF8500"/>
<path d="M14.2476 9.77759C6.4 9.85378 0 16.2538 0 24.1776C0 32.1014 6.4 38.5776 14.4 38.5776C18.1333 38.5776 21.4857 37.13 24.0762 34.8443C24.6095 34.3871 25.0667 33.8538 25.5238 33.3204H22.5524C22.1714 32.8633 21.7905 32.33 21.4857 31.8728H26.5905C26.8952 31.4157 27.2 30.8823 27.4286 30.349H20.6476C20.419 29.8919 20.1905 29.3585 20.0381 28.8252H27.9619C28.419 27.3776 28.7238 25.8538 28.7238 24.2538C28.7238 23.1871 28.5714 22.1966 28.419 21.2062H19.581C19.6571 20.6728 19.8095 20.2157 19.9619 19.6823H27.8857C27.7333 19.149 27.5048 18.6157 27.2762 18.1585H20.5714C20.8 17.6252 21.1048 17.1681 21.4095 16.6347H26.5143C26.2095 16.1014 25.8286 15.5681 25.3714 15.1109H22.5524C23.0095 14.5776 23.4667 14.1204 24 13.6633C21.4857 11.3014 18.0571 9.92997 14.3238 9.92997C14.3238 9.77759 14.3238 9.77759 14.2476 9.77759Z" fill="#FF5050"/>
<path d="M0 24.1775C0 32.1014 6.4 38.5775 14.4 38.5775C18.1333 38.5775 21.4857 37.1299 24.0762 34.8442C24.6095 34.3871 25.0667 33.8537 25.5238 33.3204H22.5524C22.1714 32.8633 21.7905 32.3299 21.4857 31.8728H26.5905C26.8952 31.4156 27.2 30.8823 27.4286 30.349H20.6476C20.419 29.8918 20.1905 29.3585 20.0381 28.8252H27.9619C28.419 27.3775 28.7238 25.8537 28.7238 24.2537C28.7238 23.1871 28.5714 22.1966 28.419 21.2061H19.581C19.6571 20.6728 19.8095 20.2156 19.9619 19.6823H27.8857C27.7333 19.149 27.5048 18.6156 27.2762 18.1585H20.5714C20.8 17.6252 21.1048 17.168 21.4095 16.6347H26.5143C26.2095 16.1014 25.8286 15.568 25.3714 15.1109H22.5524C23.0095 14.5775 23.4667 14.1204 24 13.6633C21.4857 11.3014 18.0571 9.92993 14.3238 9.92993H14.2476" fill="#E52836"/>
<path d="M14.3999 38.5775C18.1333 38.5775 21.4857 37.1299 24.0761 34.8442C24.6095 34.3871 25.0666 33.8537 25.5237 33.3204H22.5523C22.1714 32.8633 21.7904 32.3299 21.4857 31.8728H26.5904C26.8952 31.4156 27.1999 30.8823 27.4285 30.349H20.6476C20.419 29.8918 20.1904 29.3585 20.038 28.8252H27.9618C28.419 27.3775 28.7237 25.8537 28.7237 24.2537C28.7237 23.1871 28.5714 22.1966 28.419 21.2061H19.5809C19.6571 20.6728 19.8095 20.2156 19.9618 19.6823H27.8856C27.7333 19.149 27.5047 18.6156 27.2761 18.1585H20.5714C20.7999 17.6252 21.1047 17.168 21.4095 16.6347H26.5142C26.2095 16.1014 25.8285 15.568 25.3714 15.1109H22.5523C23.0095 14.5775 23.4666 14.1204 23.9999 13.6633C21.4857 11.3014 18.0571 9.92993 14.3237 9.92993H14.2476" fill="#CB2026"/>
<path d="M19.5049 27.8346L19.7334 26.5394C19.6572 26.5394 19.5049 26.6156 19.3525 26.6156C18.8192 26.6156 18.743 26.3108 18.8192 26.1585L19.2763 23.4918H20.1144L20.343 22.0442H19.5811L19.7334 21.1299H18.2096C18.2096 21.1299 17.2953 26.1585 17.2953 26.768C17.2953 27.6823 17.8287 28.0632 18.5144 28.0632C18.9715 28.0632 19.3525 27.9108 19.5049 27.8346Z" fill="white"/>
<path d="M20.0381 25.3965C20.0381 27.5298 21.4858 28.0631 22.7048 28.0631C23.8477 28.0631 24.3048 27.8346 24.3048 27.8346L24.6096 26.3869C24.6096 26.3869 23.7715 26.7679 23.0096 26.7679C21.3334 26.7679 21.6381 25.5488 21.6381 25.5488H24.762C24.762 25.5488 24.9905 24.5584 24.9905 24.1774C24.9905 23.1869 24.4572 21.9679 22.781 21.9679C21.181 21.8155 20.0381 23.4917 20.0381 25.3965ZM22.7048 23.1869C23.5429 23.1869 23.3905 24.1774 23.3905 24.2536H21.7143C21.7143 24.1774 21.8667 23.1869 22.7048 23.1869Z" fill="white"/>
<path d="M32.381 27.8346L32.6858 26.1584C32.6858 26.1584 31.9239 26.5393 31.3906 26.5393C30.3239 26.5393 29.8667 25.7012 29.8667 24.7869C29.8667 22.9584 30.781 21.9679 31.8477 21.9679C32.6096 21.9679 33.2191 22.425 33.2191 22.425L33.4477 20.825C33.4477 20.825 32.5334 20.4441 31.6953 20.4441C29.9429 20.4441 28.1906 21.9679 28.1906 24.8631C28.1906 26.7679 29.1048 28.0631 30.9334 28.0631C31.5429 28.0631 32.381 27.8346 32.381 27.8346Z" fill="white"/>
<path d="M11.1239 21.8157C10.0572 21.8157 9.2953 22.1204 9.2953 22.1204L9.06673 23.4157C9.06673 23.4157 9.75245 23.1109 10.7429 23.1109C11.2763 23.1109 11.7334 23.1871 11.7334 23.6442C11.7334 23.949 11.6572 24.0252 11.6572 24.0252C11.6572 24.0252 11.2001 24.0252 10.9715 24.0252C9.67626 24.0252 8.22864 24.5585 8.22864 26.3109C8.22864 27.6823 9.14292 27.9871 9.67626 27.9871C10.7429 27.9871 11.2001 27.3014 11.2763 27.3014L11.2001 27.9109H12.5715L13.181 23.7204C13.181 21.8919 11.6572 21.8157 11.1239 21.8157ZM11.4286 25.2442C11.4286 25.4728 11.2763 26.6919 10.362 26.6919C9.90483 26.6919 9.75245 26.3109 9.75245 26.0823C9.75245 25.7014 9.98102 25.1681 11.1239 25.1681C11.3524 25.2442 11.4286 25.2442 11.4286 25.2442Z" fill="white"/>
<path d="M14.6286 27.9869C15.0096 27.9869 16.9143 28.0631 16.9143 26.0059C16.9143 24.1012 15.0857 24.4821 15.0857 23.7202C15.0857 23.3393 15.3905 23.1869 15.9238 23.1869C16.1524 23.1869 16.9905 23.2631 16.9905 23.2631L17.2191 21.8916C17.2191 21.8916 16.6857 21.7393 15.7715 21.7393C14.6286 21.7393 13.4857 22.1964 13.4857 23.7202C13.4857 25.4726 15.3905 25.3202 15.3905 26.0059C15.3905 26.4631 14.8572 26.5393 14.4762 26.5393C13.7905 26.5393 13.1048 26.3107 13.1048 26.3107L12.8762 27.6821C12.9524 27.8345 13.3334 27.9869 14.6286 27.9869Z" fill="white"/>
<path d="M45.0287 20.5964L44.7239 22.6536C44.7239 22.6536 44.1144 21.8917 43.2763 21.8917C41.9049 21.8917 40.6859 23.5679 40.6859 25.5488C40.6859 26.7679 41.2954 28.0631 42.5906 28.0631C43.5049 28.0631 44.0382 27.4536 44.0382 27.4536L43.962 27.9869H45.4858L46.6287 20.6726L45.0287 20.5964ZM44.343 24.6345C44.343 25.4726 43.962 26.5393 43.1239 26.5393C42.5906 26.5393 42.2858 26.0821 42.2858 25.3202C42.2858 24.1012 42.8192 23.3393 43.5049 23.3393C44.0382 23.3393 44.343 23.7202 44.343 24.6345Z" fill="white"/>
<path d="M2.81914 27.9107L3.73343 22.425L3.88581 27.9107H4.95247L6.93342 22.425L6.09533 27.9107H7.69533L8.91438 20.5964H6.40009L4.87628 25.0917L4.80009 20.5964H2.59057L1.37152 27.9107H2.81914Z" fill="white"/>
<path d="M26.4382 27.9106C26.8954 25.3963 26.9715 23.3392 28.0382 23.7202C28.1906 22.7297 28.4192 22.3487 28.5715 21.9678C28.5715 21.9678 28.4954 21.9678 28.2668 21.9678C27.5811 21.9678 27.0477 22.8821 27.0477 22.8821L27.2001 22.044H25.7525L24.762 27.9868H26.4382V27.9106Z" fill="white"/>
<path d="M35.8858 21.8157C34.8191 21.8157 34.0572 22.1204 34.0572 22.1204L33.8286 23.4157C33.8286 23.4157 34.5143 23.1109 35.5048 23.1109C36.0382 23.1109 36.4953 23.1871 36.4953 23.6442C36.4953 23.949 36.4191 24.0252 36.4191 24.0252C36.4191 24.0252 35.962 24.0252 35.7334 24.0252C34.4382 24.0252 32.9905 24.5585 32.9905 26.3109C32.9905 27.6823 33.9048 27.9871 34.4382 27.9871C35.5048 27.9871 35.962 27.3014 36.0382 27.3014L35.962 27.9109H37.3334L37.9429 23.7204C38.0191 21.8919 36.4191 21.8157 35.8858 21.8157ZM36.2667 25.2442C36.2667 25.4728 36.1144 26.6919 35.2001 26.6919C34.7429 26.6919 34.5905 26.3109 34.5905 26.0823C34.5905 25.7014 34.8191 25.1681 35.962 25.1681C36.1905 25.2442 36.1905 25.2442 36.2667 25.2442Z" fill="white"/>
<path d="M39.2382 27.9106C39.6953 25.3963 39.7715 23.3392 40.8382 23.7202C40.9906 22.7297 41.2192 22.3487 41.3715 21.9678C41.3715 21.9678 41.2954 21.9678 41.0668 21.9678C40.3811 21.9678 39.8477 22.8821 39.8477 22.8821L40.0001 22.044H38.5525L37.562 27.9868H39.2382V27.9106Z" fill="white"/>
<path d="M17.1429 26.768C17.1429 27.6823 17.6763 28.0632 18.362 28.0632C18.8953 28.0632 19.3525 27.9108 19.5049 27.8346L19.7334 26.5394C19.6572 26.5394 19.5049 26.6156 19.3525 26.6156C18.8191 26.6156 18.7429 26.3108 18.8191 26.1585L19.2763 23.4918H20.1144L20.3429 22.0442H19.581L19.7334 21.1299" fill="#DCE5E5"/>
<path d="M20.8 25.3965C20.8 27.5298 21.4858 28.0631 22.7048 28.0631C23.8477 28.0631 24.3048 27.8346 24.3048 27.8346L24.6096 26.3869C24.6096 26.3869 23.7715 26.7679 23.0096 26.7679C21.3334 26.7679 21.6381 25.5488 21.6381 25.5488H24.762C24.762 25.5488 24.9905 24.5584 24.9905 24.1774C24.9905 23.1869 24.4572 21.9679 22.781 21.9679C21.181 21.8155 20.8 23.4917 20.8 25.3965ZM22.7048 23.1869C23.5429 23.1869 23.6953 24.1774 23.6953 24.2536H21.7143C21.7143 24.1774 21.8667 23.1869 22.7048 23.1869Z" fill="#DCE5E5"/>
<path d="M32.381 27.8346L32.6858 26.1584C32.6858 26.1584 31.9239 26.5393 31.3906 26.5393C30.3239 26.5393 29.8667 25.7012 29.8667 24.7869C29.8667 22.9584 30.781 21.9679 31.8477 21.9679C32.6096 21.9679 33.2191 22.425 33.2191 22.425L33.4477 20.825C33.4477 20.825 32.5334 20.4441 31.6953 20.4441C29.9429 20.4441 28.9525 21.9679 28.9525 24.8631C28.9525 26.7679 29.1048 28.0631 30.9334 28.0631C31.5429 28.0631 32.381 27.8346 32.381 27.8346Z" fill="#DCE5E5"/>
<path d="M9.06673 23.4916C9.06673 23.4916 9.75245 23.1868 10.7429 23.1868C11.2763 23.1868 11.7334 23.263 11.7334 23.7202C11.7334 24.0249 11.6572 24.1011 11.6572 24.1011C11.6572 24.1011 11.2001 24.1011 10.9715 24.1011C9.67626 24.1011 8.22864 24.6344 8.22864 26.3868C8.22864 27.7582 9.14292 28.063 9.67626 28.063C10.7429 28.063 11.2001 27.3773 11.2763 27.3773L11.2001 27.9868H12.5715L13.181 23.7963C13.181 22.044 11.6572 21.9678 11.0477 21.9678L9.06673 23.4916ZM12.1905 25.244C12.1905 25.4725 11.2763 26.6916 10.362 26.6916C9.90483 26.6916 9.75245 26.3106 9.75245 26.0821C9.75245 25.7011 9.98102 25.1678 11.1239 25.1678C11.3524 25.244 12.1905 25.244 12.1905 25.244Z" fill="#DCE5E5"/>
<path d="M12.9525 27.8345C12.9525 27.8345 13.4096 27.9869 14.7048 27.9869C15.0858 27.9869 16.9905 28.0631 16.9905 26.0059C16.9905 24.1012 15.162 24.4821 15.162 23.7202C15.162 23.3393 15.4667 23.1869 16.0001 23.1869C16.2286 23.1869 17.0667 23.2631 17.0667 23.2631L17.2953 21.8916C17.2953 21.8916 16.762 21.7393 15.8477 21.7393C14.7048 21.7393 14.3239 22.1964 14.3239 23.7202C14.3239 25.4726 15.4667 25.3202 15.4667 26.0059C15.4667 26.4631 14.9334 26.5393 14.5525 26.5393" fill="#DCE5E5"/>
<path d="M44.7239 22.6536C44.7239 22.6536 44.1144 21.8917 43.2763 21.8917C41.9049 21.8917 41.4477 23.5678 41.4477 25.5488C41.4477 26.7678 41.2953 28.0631 42.5906 28.0631C43.5049 28.0631 44.0382 27.4536 44.0382 27.4536L43.962 27.9869H45.4858L46.6287 20.6726L44.7239 22.6536ZM44.6477 24.6345C44.6477 25.4726 43.962 26.5393 43.1239 26.5393C42.5906 26.5393 42.2858 26.0821 42.2858 25.3202C42.2858 24.1012 42.8192 23.3393 43.5049 23.3393C44.0382 23.3393 44.6477 23.7202 44.6477 24.6345Z" fill="#DCE5E5"/>
<path d="M2.81914 27.9107L3.73343 22.425L3.88581 27.9107H4.95247L6.93342 22.425L6.09533 27.9107H7.69533L8.91438 20.5964H7.00961L4.87628 25.0917L4.80009 20.5964H3.962L1.37152 27.9107H2.81914Z" fill="#DCE5E5"/>
<path d="M24.8382 27.9106H26.4382C26.8953 25.3963 26.9715 23.3392 28.0382 23.7202C28.1906 22.7297 28.4192 22.3487 28.5715 21.9678C28.5715 21.9678 28.4953 21.9678 28.2668 21.9678C27.5811 21.9678 27.0477 22.8821 27.0477 22.8821L27.2001 22.044" fill="#DCE5E5"/>
<path d="M33.8286 23.4916C33.8286 23.4916 34.5143 23.1868 35.5048 23.1868C36.0382 23.1868 36.4953 23.263 36.4953 23.7202C36.4953 24.0249 36.4191 24.1011 36.4191 24.1011C36.4191 24.1011 35.962 24.1011 35.7334 24.1011C34.4382 24.1011 32.9905 24.6344 32.9905 26.3868C32.9905 27.7582 33.9048 28.063 34.4382 28.063C35.5048 28.063 35.962 27.3773 36.0382 27.3773L35.962 27.9868H37.3334L37.9429 23.7963C37.9429 22.044 36.4191 21.9678 35.8096 21.9678L33.8286 23.4916ZM36.9524 25.244C36.9524 25.4725 36.0382 26.6916 35.1239 26.6916C34.6667 26.6916 34.5144 26.3106 34.5144 26.0821C34.5144 25.7011 34.7429 25.1678 35.8858 25.1678C36.1905 25.244 36.9524 25.244 36.9524 25.244Z" fill="#DCE5E5"/>
<path d="M37.6382 27.9106H39.2382C39.6953 25.3963 39.7715 23.3392 40.8382 23.7202C40.9906 22.7297 41.2191 22.3487 41.3715 21.9678C41.3715 21.9678 41.2953 21.9678 41.0668 21.9678C40.381 21.9678 39.8477 22.8821 39.8477 22.8821L40.0001 22.044" fill="#DCE5E5"/>
</svg>
