<svg width="16" height="17" viewBox="0 0 16 17" fill="none" xmlns="http://www.w3.org/2000/svg">
<g clip-path="url(#clip0)">
<path fill-rule="evenodd" clip-rule="evenodd" d="M7.99892 16.1753C12.4166 16.1753 15.9978 12.5941 15.9978 8.17641C15.9978 3.75873 12.4166 0.17749 7.99892 0.17749C3.58124 0.17749 0 3.75873 0 8.17641C0 12.5941 3.58124 16.1753 7.99892 16.1753ZM8 8.17749C9.10457 8.17749 10 7.28206 10 6.17749C10 5.07292 9.10457 4.17749 8 4.17749C6.89543 4.17749 6 5.07292 6 6.17749C6 7.28206 6.89543 8.17749 8 8.17749ZM8 9.38792C9.35981 9.38792 10.4819 8.42365 10.646 7.17749C11.4763 7.87187 12 8.88775 12 10.0195C12 10.5212 11.8971 11.0001 11.7102 11.4384C10.8575 12.4955 9.5128 13.1775 8 13.1775C6.4872 13.1775 5.14253 12.4955 4.28982 11.4384C4.10291 11.0001 4 10.5212 4 10.0195C4 8.88775 4.52367 7.87187 5.35399 7.17749C5.51809 8.42365 6.64019 9.38792 8 9.38792Z" fill="#51BF7D"/>
</g>
<defs>
<clipPath id="clip0">
<rect width="16" height="16" fill="white" transform="translate(0 0.17749)"/>
</clipPath>
</defs>
</svg>
