<svg width="48" height="31" viewBox="0 0 48 31" fill="none" xmlns="http://www.w3.org/2000/svg">
<g clip-path="url(#clip0)">
<path fill-rule="evenodd" clip-rule="evenodd" d="M1.95692 0.17749H46.0431C47.1138 0.17749 48 1.07661 48 2.16305V28.9119C48 29.9984 47.1138 30.8975 46.0431 30.8975H1.95692C0.886154 30.8975 0 29.9984 0 28.9119V2.16305C0 1.07661 0.886154 0.17749 1.95692 0.17749Z" fill="#F3EFE9"/>
<path fill-rule="evenodd" clip-rule="evenodd" d="M29.1692 14.0017V14.676L28.4677 15.0132L28.4308 14.3389L29.1692 14.0017ZM25.2923 14.0017C25.5138 13.5521 25.4031 13.6645 25.6985 13.5521C26.1046 14.0392 25.8462 14.0766 25.4769 14.3389L25.2923 14.0017ZM28.1723 13.3274C28.4308 13.14 28.6892 12.8778 28.9846 12.7654L29.0954 13.4398C28.8739 13.6271 28.6523 13.7769 28.3569 13.9268L28.1723 13.3274ZM24.8123 13.3274C24.9231 13.0277 24.7754 13.2899 25.0338 13.0277L25.4769 12.9527C25.5508 13.3648 25.3662 13.5521 25.1815 13.7769C24.9969 13.6645 24.8862 13.5896 24.8123 13.3274ZM24.1108 13.0651C24.1846 12.6156 24.3323 12.6156 24.3323 12.1285L24.96 12.4282C24.9969 12.8029 24.8492 12.9902 24.5908 13.3274L24.1108 13.0651ZM23.4092 11.8288C23.7415 11.7914 23.7415 11.8288 24.1108 11.8663L23.8154 12.9153L23.2246 12.7654L23.4092 11.8288ZM27.6185 12.166C27.9877 11.8288 27.9877 11.6415 28.5046 11.4167L28.7262 12.166C28.3939 12.5406 28.3569 12.6156 27.9138 12.8778L27.6185 12.166ZM26.6215 11.1919C26.7692 10.7799 27.2492 10.2554 27.6554 10.0306L28.0615 10.8173C27.7662 11.2669 27.6554 11.4542 27.1754 11.7539C27.0277 11.4917 27.1385 11.6415 26.9169 11.4167C26.7692 11.2669 26.7692 11.3418 26.6215 11.1919ZM25.9569 8.83175C26.4738 8.98161 26.5846 9.24385 27.0646 9.46863L26.3631 10.9297L25.3292 10.2928L25.9569 8.83175ZM24.0738 8.11995L25.2923 8.45712L24.8492 10.143L23.7046 9.95565L24.0738 8.11995ZM23.5569 8.19487L22.8554 12.9527L22.1908 17.1861H30.2769C30.1662 16.9988 30.3139 16.5492 30.3877 16.3994C31.4585 12.2035 28.8 7.78278 24.4062 6.84619C24.1108 7.29575 23.9262 7.29575 23.7415 7.558C23.5569 7.8577 23.7785 8.11995 23.7415 8.6819L23.5569 8.2698C23.5569 8.23234 23.5569 8.23234 23.5569 8.19487Z" fill="#FF9000"/>
<path fill-rule="evenodd" clip-rule="evenodd" d="M16.5785 12.7279C16.1354 14.4886 16.3569 15.65 17.0216 17.186H22.1908L22.8554 12.9526L22.6708 12.4281L19.6062 12.3158C19.6062 12.0535 19.7908 12.3907 19.6062 12.2034C19.4585 12.6155 19.2 12.6155 18.72 12.6155C18.7939 13.14 18.8677 12.8777 18.72 13.3273C18.24 13.5146 17.8708 13.3647 17.6862 12.8028C17.5754 13.0276 17.5754 13.0276 17.1692 12.8777C16.7631 12.7279 16.8369 12.5031 16.7631 12.9901C16.5046 12.8402 16.5416 13.2523 16.5785 12.7279Z" fill="#FF5C1A"/>
<path fill-rule="evenodd" clip-rule="evenodd" d="M17.9077 12.6905C18.1292 12.4282 17.9815 12.3908 18.3877 12.653C18.72 12.8778 18.6461 12.7279 18.5723 13.1775L17.9446 12.7654L17.9077 12.6905ZM19.5692 11.9038C19.3477 12.0161 19.2738 12.0911 19.1261 12.2409C18.8677 11.9412 18.7938 11.9038 18.6092 11.5291L19.0154 11.2669C19.2738 11.5291 19.3846 11.7914 19.5692 11.9038ZM20.5661 11.2669C20.5292 11.2669 20.4923 11.2669 20.4923 11.3043L20.3446 11.3418C20.1969 11.4167 20.1969 11.3793 20.1231 11.4917L19.7538 10.63L20.2338 10.2928C20.4554 10.5176 20.4923 10.7799 20.6769 11.1919L20.5661 11.2669ZM21.1938 9.88073C22.1169 9.84326 22.0431 9.43117 22.1538 10.8548L21.3784 10.9297L21.1938 9.88073ZM16.5784 12.7279C16.5415 13.2524 16.5046 12.8403 16.7631 12.9902C16.8369 12.5032 16.7631 12.7279 17.1692 12.8778C17.5754 13.0277 17.5754 13.0277 17.6861 12.8029C17.8708 13.3648 18.24 13.5147 18.72 13.3274C18.8677 12.8778 18.7938 13.14 18.72 12.6156C19.2 12.6156 19.4584 12.6156 19.6061 12.2035C19.7908 12.3908 19.6061 12.0536 19.6061 12.3159L22.6708 12.4282L22.8554 12.9527L23.5569 8.19487C23.3723 7.8577 22.6338 7.89517 22.3015 7.93263C21.0092 7.97009 19.9384 8.38219 18.9415 9.05653L18.8677 9.16892C18.24 9.65595 17.9077 9.91819 17.5384 10.63C17.0215 11.4167 16.9477 11.7539 16.5784 12.7279Z" fill="#F53B21"/>
<path fill-rule="evenodd" clip-rule="evenodd" d="M12.3323 22.1685C11.7785 22.1685 11.7416 22.131 12.0369 20.9322C12.2954 19.7334 13.2554 19.7334 13.2554 20.3328C13.2554 20.9697 13.2185 22.1685 12.3323 22.1685ZM9.63693 25.1656H11.2616C11.2616 24.5287 11.5569 24.0417 11.5569 23.3298C12.2954 23.3673 12.7754 23.7419 13.92 22.9178C14.4369 22.5057 14.88 21.7564 14.9539 21.0071C15.2123 19.2838 14.3262 18.3847 13.0708 18.6844C12.48 18.8342 12.48 18.9841 12.1477 19.2463C12.1846 19.059 12.2216 18.9841 12.2216 18.6844H10.7815L10.2277 21.9062C10.1169 22.5057 10.0062 22.9927 9.89539 23.5546C9.82155 24.1166 9.67386 24.6785 9.63693 25.1656Z" fill="#004013"/>
<path fill-rule="evenodd" clip-rule="evenodd" d="M31.1262 17.1859H37.0339C38.1416 17.2234 37.8831 17.4482 38.1785 15.8372C38.2154 15.5001 38.3262 15.1254 38.3631 14.7883C37.0708 14.7883 32.5293 14.6009 31.5693 14.8257L31.1262 17.1859Z" fill="#004013"/>
<path fill-rule="evenodd" clip-rule="evenodd" d="M17.0216 22.0563C16.7631 20.9699 17.0954 19.846 18.24 19.846C18.24 20.3705 18.1293 20.895 17.9816 21.3445C17.797 21.9439 17.6862 22.0563 17.0216 22.0563ZM15.1754 21.869C15.1754 22.7307 15.7293 23.4425 16.6154 23.4425C17.5016 23.4425 17.5385 22.9929 18.0554 22.6557C18.0554 23.0678 17.9816 22.9555 17.9446 23.3301H19.4954C19.4954 22.2062 19.5323 21.9439 19.7539 20.8575C19.8646 20.333 20.0862 19.359 20.0862 18.8719C18.72 18.5722 17.797 18.4598 16.6523 19.0967C15.8031 19.5463 15.1754 20.5578 15.1754 21.869Z" fill="#004013"/>
<path fill-rule="evenodd" clip-rule="evenodd" d="M30.4985 20.5202C30.5723 19.8084 31.0154 19.8459 31.3846 19.8459C31.7538 19.8459 31.4215 19.8084 31.68 19.9208C31.6431 20.3703 31.5323 20.5202 30.4985 20.5202ZM28.8 21.4193C28.8 24.4164 32.1969 23.1801 32.64 23.1426C32.64 21.232 32.8615 22.1686 31.0892 22.1686C30.5354 22.1686 30.4615 21.9063 30.3508 21.719C31.7169 21.719 33.1939 21.4942 33.1939 20.1081C33.1939 18.7594 31.7908 18.4222 30.6092 18.7969C29.6492 19.0966 28.8 20.0706 28.8 21.4193Z" fill="#004013"/>
<path fill-rule="evenodd" clip-rule="evenodd" d="M17.6862 8.86919C17.6493 9.28129 17.76 8.83172 17.6123 9.09397C17.3169 9.80577 14.8431 11.7913 15.6185 16.0622C15.7293 16.5117 15.8769 16.7365 15.9508 17.1861H17.0216C16.3569 15.6501 16.1354 14.4887 16.5785 12.7279C16.9477 11.7539 17.0216 11.4167 17.5385 10.63C17.9077 9.91816 18.24 9.65592 18.8677 9.1689L18.9416 9.0565C19.9385 8.38216 21.0093 7.97006 22.3016 7.9326C22.6339 7.89514 23.3723 7.85767 23.5569 8.19485C23.5569 8.23231 23.5569 8.23231 23.5569 8.26977L23.7416 8.68187C23.7785 8.11992 23.5569 7.85767 23.7416 7.55797C23.9262 7.29572 24.1108 7.29572 24.4062 6.84616C22.7816 6.73377 21.8954 6.62138 20.4185 7.18333C19.3477 7.55797 18.3508 8.26977 17.6862 8.86919Z" fill="#FFB200"/>
<path fill-rule="evenodd" clip-rule="evenodd" d="M25.4031 21.8688C25.957 21.8688 26.1047 21.9063 26.5847 21.719C26.5108 22.0561 26.3262 23.0676 26.2154 23.3299H27.84C27.9877 22.6181 28.1723 21.7564 28.2831 21.0821C28.3939 20.3703 28.6893 19.3213 28.6893 18.6844C26.8062 18.6844 27.1754 18.5346 26.9539 19.5086C26.917 19.8083 26.8062 20.2953 26.7693 20.6325C26.5847 20.6325 25.8093 20.9322 25.8093 20.3328C25.8093 19.5835 25.9939 19.3588 25.9939 18.6844C24.2585 18.6844 24.517 18.5346 24.2954 19.4337C24.2585 19.7334 24.1108 20.3328 24.1108 20.6325C24.1108 21.4193 24.6647 21.8688 25.4031 21.8688Z" fill="#004013"/>
<path fill-rule="evenodd" clip-rule="evenodd" d="M20.16 21.3069C20.16 23.6671 21.8215 23.6297 23.4092 23.255V21.9438C22.8923 22.0937 22.3754 22.281 22.0062 21.8314C21.6738 21.4568 21.8215 20.8199 22.1169 20.4453C22.4862 19.9583 22.7077 19.9208 23.4831 19.9583C23.8154 19.9583 23.7785 20.1081 24.1108 18.7969C23.04 18.5347 22.3385 18.5721 21.4523 19.0966C20.7508 19.5087 20.16 20.2205 20.16 21.3069Z" fill="#004013"/>
<path fill-rule="evenodd" clip-rule="evenodd" d="M14.5107 14.7882C14.5846 15.7998 14.7323 16.3242 14.9169 17.1859H15.9507C15.8769 16.7363 15.7292 16.5116 15.6184 16.062C14.843 11.7912 17.3169 9.80561 17.6123 9.0938C17.7599 8.83156 17.6492 9.28112 17.6861 8.86902C17.6861 8.53185 17.5384 8.75663 17.9446 8.45692C18.0923 8.34453 18.1661 8.34453 18.3507 8.19468C18.6092 7.9699 18.7938 7.78258 19.1261 7.63273C19.0153 7.40795 18.9415 7.22063 18.8307 6.99585C18.3876 7.10824 17.4646 7.89497 17.0953 8.26961C16.7999 8.49439 16.6523 8.71917 16.3938 9.01887C14.9169 10.892 14.6215 12.3906 14.5107 14.7882Z" fill="#FF9000"/>
<path fill-rule="evenodd" clip-rule="evenodd" d="M33.2677 19.9209H34.4492L33.7846 23.33H35.4092C35.4461 22.9929 35.9631 20.1082 36.0738 19.9209H37.3292C37.44 19.6961 37.6246 19.0217 37.6246 18.6846H33.4892C33.4523 19.1341 33.3046 19.4338 33.2677 19.9209Z" fill="#004013"/>
<path fill-rule="evenodd" clip-rule="evenodd" d="M19.9016 6.50888C20.0123 6.73366 19.8646 6.24664 19.9754 6.6962C19.9754 6.80859 19.9754 6.88352 19.9754 6.99591C19.8646 7.33308 19.4216 7.48293 19.1262 7.63279C18.7939 7.78264 18.6093 7.96996 18.3508 8.19474C18.1662 8.34459 18.0923 8.34459 17.9446 8.45698C17.5385 8.75669 17.6862 8.53191 17.6862 8.86908C18.3508 8.26966 19.3477 7.55786 20.4185 7.18323C21.8954 6.62127 22.7816 6.73366 24.4062 6.84606C28.8 7.78264 31.4585 12.2033 30.3877 16.3992C30.3139 16.5491 30.1662 16.9986 30.2769 17.186H30.4615C31.4215 15.3128 30.8308 11.529 29.7969 10.4051C29.4277 9.61835 28.0246 8.2322 27.2862 7.74518C26.9169 7.48293 26.4739 7.22069 25.9939 7.1083C25.9939 6.80859 25.9569 7.03337 26.0308 6.77113C26.0677 6.58381 26.0677 6.58381 26.1046 6.50888C25.8092 5.94693 22.7077 5.72215 21.3046 6.02186C20.8616 6.05932 20.0123 6.2841 19.9016 6.50888Z" fill="#D12F1A"/>
<path fill-rule="evenodd" clip-rule="evenodd" d="M14.9169 17.186C14.7323 16.3243 14.5846 15.7998 14.5108 14.7883H11.3723C11.3354 15.1255 11.2246 15.65 11.1877 15.9872C11.1138 16.3993 11.04 16.8114 10.9662 17.186H14.9169Z" fill="#004013"/>
<path fill-rule="evenodd" clip-rule="evenodd" d="M29.7969 10.405C30.8308 11.5289 31.4215 15.3127 30.4615 17.1859H31.1262L31.5692 14.8257C31.5692 12.9525 31.0892 11.2667 30.2031 9.76814C29.9446 9.39351 29.9815 9.39351 29.6862 9.24365C29.76 9.69321 29.8338 9.5059 29.8338 9.8056C29.8338 9.95546 29.8338 10.2552 29.7969 10.405Z" fill="#FF5C1A"/>
<path fill-rule="evenodd" clip-rule="evenodd" d="M23.7047 9.95558L24.8493 10.1429L25.2923 8.45704L24.0739 8.11987L23.7047 9.95558Z" fill="#E91524"/>
<path fill-rule="evenodd" clip-rule="evenodd" d="M27.2862 7.74506C28.0247 8.23208 29.4278 9.61823 29.797 10.405C29.8339 10.2551 29.8339 9.9554 29.8339 9.80555C29.8339 9.50584 29.7601 9.69316 29.6862 9.24359C29.5754 8.64418 27.9878 7.44535 27.5447 7.18311L27.2862 7.74506Z" fill="#FF9000"/>
<path fill-rule="evenodd" clip-rule="evenodd" d="M25.3293 10.2926L26.3631 10.9295L27.0646 9.46842C26.5846 9.24364 26.4739 8.9814 25.9569 8.83154L25.3293 10.2926Z" fill="#E91524"/>
<path fill-rule="evenodd" clip-rule="evenodd" d="M26.6215 11.1919C26.7692 11.3417 26.7692 11.2668 26.9169 11.4167C27.1384 11.6414 27.0277 11.4916 27.1754 11.7538C27.6554 11.4541 27.7661 11.2668 28.0615 10.8172L27.6554 10.0305C27.2492 10.2553 26.7692 10.7798 26.6215 11.1919Z" fill="#E91524"/>
<path fill-rule="evenodd" clip-rule="evenodd" d="M27.2862 7.74508L27.5447 7.18313C27.1755 6.84596 26.6585 6.58372 26.1047 6.50879C26.0678 6.58372 26.0678 6.58372 26.0308 6.77103C25.957 7.03328 25.9939 6.8085 25.9939 7.1082C26.4739 7.22059 26.917 7.48284 27.2862 7.74508Z" fill="#FF5C1A"/>
<path fill-rule="evenodd" clip-rule="evenodd" d="M27.6185 12.1658L27.9139 12.8776C28.357 12.6153 28.3939 12.5404 28.7262 12.1658L28.5047 11.4165C27.9877 11.6413 27.9877 11.8286 27.6185 12.1658Z" fill="#E91524"/>
<path fill-rule="evenodd" clip-rule="evenodd" d="M21.1938 9.8806L21.3785 10.9296L22.1539 10.8547C22.0431 9.43104 22.1169 9.84314 21.1938 9.8806Z" fill="#FFB200"/>
<path fill-rule="evenodd" clip-rule="evenodd" d="M18.8308 6.99582C18.9415 7.2206 19.0154 7.40792 19.1262 7.6327C19.4215 7.48285 19.8646 7.33299 19.9754 6.99582C19.9754 6.88343 19.9754 6.8085 19.9754 6.69611C19.8646 6.24655 20.0123 6.73358 19.9015 6.5088C19.5323 6.58372 19.5692 6.54626 19.3108 6.69611L18.8308 6.99582Z" fill="#FF5C1A"/>
<path fill-rule="evenodd" clip-rule="evenodd" d="M23.2246 12.7653L23.8154 12.9152L24.1108 11.8662C23.7416 11.8288 23.7416 11.7913 23.4093 11.8288L23.2246 12.7653Z" fill="#F53B21"/>
<path fill-rule="evenodd" clip-rule="evenodd" d="M19.7539 10.6299L20.1231 11.4916C20.197 11.3792 20.197 11.4166 20.3447 11.3417L20.4924 11.3042C20.4924 11.2668 20.5293 11.2668 20.5662 11.2668L20.677 11.1918C20.4924 10.7797 20.4554 10.5175 20.2339 10.2927L19.7539 10.6299Z" fill="#FFB200"/>
<path fill-rule="evenodd" clip-rule="evenodd" d="M24.1108 13.065L24.5908 13.3272C24.8493 12.9901 24.9969 12.8028 24.96 12.4281L24.3323 12.1284C24.3323 12.6154 24.1847 12.6154 24.1108 13.065Z" fill="#F53B21"/>
<path fill-rule="evenodd" clip-rule="evenodd" d="M28.1724 13.3271L28.357 13.9265C28.6524 13.7766 28.8739 13.6268 29.0954 13.4395L28.9847 12.7651C28.6893 12.8775 28.4308 13.1398 28.1724 13.3271Z" fill="#E91524"/>
<path fill-rule="evenodd" clip-rule="evenodd" d="M28.4307 14.3389L28.4676 15.0132L29.1692 14.6761V14.0017L28.4307 14.3389Z" fill="#E91524"/>
<path fill-rule="evenodd" clip-rule="evenodd" d="M18.6093 11.5288C18.7939 11.9035 18.8677 11.9409 19.1262 12.2407C19.2739 12.0908 19.3477 12.0159 19.5693 11.9035C19.3846 11.7911 19.2739 11.5288 19.0154 11.2666L18.6093 11.5288Z" fill="#FFB200"/>
<path fill-rule="evenodd" clip-rule="evenodd" d="M24.8123 13.3273C24.8862 13.5895 24.997 13.6644 25.1816 13.7768C25.3662 13.5521 25.5508 13.3647 25.477 12.9526L25.0339 13.0276C24.7754 13.2898 24.9231 13.0276 24.8123 13.3273Z" fill="#F53B21"/>
<path fill-rule="evenodd" clip-rule="evenodd" d="M25.2924 14.0016L25.477 14.3387C25.8462 14.0765 26.1047 14.039 25.6985 13.552C25.4031 13.6644 25.5139 13.552 25.2924 14.0016Z" fill="#F53B21"/>
<path fill-rule="evenodd" clip-rule="evenodd" d="M18.3876 12.6531C17.9815 12.3908 18.1292 12.4283 17.9077 12.6905L17.9446 12.7655L18.5723 13.1776C18.6461 12.728 18.72 12.8779 18.3876 12.6531Z" fill="#FFB200"/>
</g>
<defs>
<clipPath id="clip0">
<rect width="48" height="30.72" fill="white" transform="translate(0 0.17749)"/>
</clipPath>
</defs>
</svg>
