<svg width="48" height="49" viewBox="0 0 48 49" fill="none" xmlns="http://www.w3.org/2000/svg">
<g clip-path="url(#clip0)">
<path d="M17.6 31.0727L20.0381 17.3584H23.8476L21.4857 31.0727H17.6Z" fill="#3C58BF"/>
<path d="M17.6 31.0727L20.7238 17.3584H23.8476L21.4857 31.0727H17.6Z" fill="#293688"/>
<path d="M35.2762 17.5106C34.5143 17.2059 33.2953 16.9011 31.7715 16.9011C27.9619 16.9011 25.2191 18.8059 25.2191 21.5487C25.2191 23.6059 27.1238 24.6726 28.6476 25.3583C30.1715 26.044 30.6286 26.5011 30.6286 27.1106C30.6286 28.0249 29.4096 28.4821 28.3429 28.4821C26.8191 28.4821 25.981 28.2535 24.6857 27.7202L24.1524 27.4916L23.6191 30.6154C24.5334 30.9964 26.2096 31.3773 27.9619 31.3773C32 31.3773 34.6667 29.4726 34.6667 26.5773C34.6667 24.9773 33.6762 23.7583 31.3905 22.7678C30.0191 22.0821 29.181 21.7011 29.181 21.0154C29.181 20.4059 29.8667 19.7964 31.3905 19.7964C32.6857 19.7964 33.6 20.0249 34.2857 20.3297L34.6667 20.4821L35.2762 17.5106Z" fill="#3C58BF"/>
<path d="M35.2762 17.5106C34.5143 17.2059 33.2953 16.9011 31.7715 16.9011C27.9619 16.9011 25.9048 18.8059 25.9048 21.5487C25.9048 23.6059 27.1238 24.6726 28.6476 25.3583C30.1715 26.044 30.6286 26.5011 30.6286 27.1106C30.6286 28.0249 29.4096 28.4821 28.3429 28.4821C26.8191 28.4821 25.981 28.2535 24.6857 27.7202L24.1524 27.4916L23.6191 30.6154C24.5334 30.9964 26.2096 31.3773 27.9619 31.3773C32 31.3773 34.6667 29.4726 34.6667 26.5773C34.6667 24.9773 33.6762 23.7583 31.3905 22.7678C30.0191 22.0821 29.181 21.7011 29.181 21.0154C29.181 20.4059 29.8667 19.7964 31.3905 19.7964C32.6857 19.7964 33.6 20.0249 34.2857 20.3297L34.6667 20.4821L35.2762 17.5106Z" fill="#293688"/>
<path d="M41.8285 17.3584C40.9143 17.3584 40.2285 17.4346 39.8476 18.3489L34.1333 31.0727H38.2476L39.0095 28.787H43.8857L44.3428 31.0727H48L44.8 17.3584H41.8285ZM40.0762 26.5013C40.3047 25.8155 41.6 22.4632 41.6 22.4632C41.6 22.4632 41.9047 21.6251 42.1333 21.0917L42.3619 22.387C42.3619 22.387 43.1238 25.8155 43.2762 26.5774H40.0762V26.5013Z" fill="#3C58BF"/>
<path d="M42.7428 17.3584C41.8285 17.3584 41.1428 17.4346 40.7619 18.3489L34.1333 31.0727H38.2476L39.0095 28.787H43.8857L44.3428 31.0727H48L44.8 17.3584H42.7428ZM40.0762 26.5013C40.3809 25.7393 41.6 22.4632 41.6 22.4632C41.6 22.4632 41.9047 21.6251 42.1333 21.0917L42.3619 22.387C42.3619 22.387 43.1238 25.8155 43.2762 26.5774H40.0762V26.5013Z" fill="#293688"/>
<path d="M10.5905 26.9584L10.2096 24.9774C9.52384 22.6917 7.31432 20.1774 4.87622 18.9584L8.30479 31.1489H12.4191L18.5905 17.4346H14.4762L10.5905 26.9584Z" fill="#3C58BF"/>
<path d="M10.5905 26.9584L10.2096 24.9774C9.52384 22.6917 7.31432 20.1774 4.87622 18.9584L8.30479 31.1489H12.4191L18.5905 17.4346H15.2381L10.5905 26.9584Z" fill="#293688"/>
<path d="M0 17.3584L0.685714 17.5108C5.5619 18.6536 8.91428 21.5489 10.2095 24.9774L8.83809 18.5013C8.60952 17.587 7.92381 17.3584 7.08571 17.3584H0Z" fill="#FFBC00"/>
<path d="M0 17.3584C4.87619 18.5013 8.91428 21.4727 10.2095 24.9013L8.91428 19.4917C8.68571 18.5774 7.92381 18.0441 7.08571 18.0441L0 17.3584Z" fill="#F7981D"/>
<path d="M0 17.3584C4.87619 18.5013 8.91428 21.4727 10.2095 24.9013L9.29524 21.9298C9.06667 21.0155 8.7619 20.1013 7.69524 19.7203L0 17.3584Z" fill="#ED7C00"/>
<path d="M14.3999 26.5014L11.8095 23.9109L10.5904 26.8061L10.2857 24.9014C9.59995 22.6157 7.39043 20.1014 4.95233 18.8823L8.3809 31.0728H12.4952L14.3999 26.5014Z" fill="#051244"/>
<path d="M21.4857 31.0726L18.2095 27.7202L17.6 31.0726H21.4857Z" fill="#051244"/>
<path d="M30.2477 26.3489C30.5524 26.6536 30.7048 26.8822 30.6286 27.187C30.6286 28.1013 29.4096 28.5584 28.3429 28.5584C26.8191 28.5584 25.981 28.3298 24.6857 27.7965L24.1524 27.5679L23.6191 30.6917C24.5334 31.0727 26.2096 31.4536 27.9619 31.4536C30.4 31.4536 32.381 30.7679 33.5238 29.5489L30.2477 26.3489Z" fill="#051244"/>
<path d="M34.6667 31.0727H38.2476L39.0095 28.787H43.8857L44.3429 31.0727H48L46.7048 25.5108L42.1334 21.0918L42.3619 22.3108C42.3619 22.3108 43.1238 25.7394 43.2762 26.5013H40.0762C40.381 25.7394 41.6 22.4632 41.6 22.4632C41.6 22.4632 41.9048 21.6251 42.1334 21.0918" fill="#051244"/>
</g>
<defs>
<clipPath id="clip0">
<rect width="48" height="48" fill="white" transform="translate(0 0.17749)"/>
</clipPath>
</defs>
</svg>
