<svg width="24" height="25" viewBox="0 0 24 25" fill="none" xmlns="http://www.w3.org/2000/svg">
<g clip-path="url(#clip0)">
<path d="M23.8728 17.6974C23.8437 17.6348 23.8166 17.5828 23.7915 17.5412C23.3751 16.7913 22.5793 15.8708 21.4047 14.7794L21.3799 14.7544L21.3675 14.7422L21.3549 14.7296H21.3423C20.8093 14.2214 20.4717 13.8797 20.3303 13.7048C20.0716 13.3716 20.0137 13.0343 20.1551 12.6925C20.2549 12.4343 20.6301 11.8889 21.2797 11.0557C21.6214 10.6142 21.892 10.2603 22.0918 9.99363C23.5331 8.07751 24.158 6.85308 23.9663 6.31987L23.8919 6.19526C23.8418 6.12025 23.7127 6.05162 23.5047 5.98903C23.2962 5.92658 23.0297 5.91625 22.7047 5.95787L19.106 5.98273C19.0477 5.96207 18.9645 5.964 18.856 5.98903C18.7477 6.01407 18.6935 6.02663 18.6935 6.02663L18.6309 6.05792L18.5812 6.09552C18.5395 6.12038 18.4937 6.1641 18.4436 6.2266C18.3939 6.28888 18.3523 6.36197 18.319 6.44526C17.9272 7.45326 17.4817 8.39044 16.9818 9.25677C16.6735 9.77335 16.3904 10.221 16.1319 10.6001C15.8737 10.979 15.6571 11.2582 15.4823 11.4372C15.3073 11.6163 15.1493 11.7598 15.0074 11.8683C14.8657 11.9767 14.7575 12.0225 14.6827 12.0058C14.6076 11.989 14.5369 11.9724 14.47 11.9557C14.3534 11.8807 14.2597 11.7787 14.189 11.6496C14.118 11.5205 14.0702 11.358 14.0452 11.1622C14.0204 10.9663 14.0057 10.7978 14.0015 10.6561C13.9976 10.5146 13.9994 10.3145 14.0078 10.0563C14.0165 9.7979 14.0204 9.6231 14.0204 9.53145C14.0204 9.21484 14.0265 8.87122 14.0389 8.50052C14.0515 8.12981 14.0617 7.83609 14.0703 7.6197C14.0788 7.4031 14.0827 7.17394 14.0827 6.93234C14.0827 6.69075 14.068 6.50128 14.0389 6.36376C14.0102 6.22642 13.9661 6.09311 13.9081 5.96387C13.8496 5.83475 13.7641 5.73488 13.6519 5.66397C13.5395 5.59316 13.3997 5.53696 13.2333 5.49521C12.7917 5.39529 12.2295 5.34124 11.5462 5.33283C9.99683 5.3162 9.00126 5.41625 8.55974 5.63286C8.3848 5.72437 8.22649 5.84941 8.08495 6.00759C7.93496 6.19093 7.91404 6.29098 8.02232 6.30744C8.52223 6.38232 8.87613 6.56146 9.08442 6.84468L9.15948 6.99475C9.21786 7.10303 9.27616 7.29473 9.3345 7.56959C9.39275 7.84445 9.43035 8.1485 9.44689 8.48156C9.48847 9.08979 9.48847 9.61045 9.44689 10.0436C9.40518 10.4769 9.36579 10.8142 9.3282 11.0558C9.2906 11.2974 9.23441 11.4931 9.15948 11.643C9.08442 11.793 9.03448 11.8846 9.00944 11.9179C8.98445 11.9512 8.96362 11.9721 8.94708 11.9803C8.8388 12.0218 8.72618 12.043 8.60963 12.043C8.4929 12.043 8.35136 11.9846 8.18478 11.8679C8.01825 11.7512 7.84542 11.5909 7.66628 11.3868C7.48714 11.1826 7.28511 10.8973 7.0601 10.5308C6.83527 10.1643 6.60199 9.73116 6.3604 9.23134L6.16052 8.86886C6.03556 8.63567 5.86487 8.29612 5.64827 7.85053C5.43153 7.40476 5.23996 6.97357 5.07343 6.55704C5.00686 6.3821 4.90685 6.24892 4.77358 6.15727L4.71104 6.11968C4.66946 6.08641 4.60272 6.05109 4.51116 6.01345C4.41946 5.97586 4.32379 5.9489 4.22374 5.93231L0.799886 5.95717C0.450013 5.95717 0.21262 6.03643 0.0876216 6.19474L0.0375959 6.26962C0.0126049 6.31133 0 6.37795 0 6.46964C0 6.56129 0.024991 6.67377 0.0750167 6.80695C0.574836 7.98166 1.11838 9.11457 1.70564 10.2059C2.29291 11.2971 2.80323 12.1762 3.23631 12.8422C3.66947 13.5088 4.11099 14.1378 4.56087 14.7291C5.01076 15.3206 5.30855 15.6997 5.45425 15.8662C5.60012 16.0331 5.7147 16.1578 5.79799 16.2411L6.11045 16.541C6.31037 16.7409 6.60396 16.9804 6.99135 17.2594C7.37882 17.5386 7.80778 17.8135 8.27845 18.0844C8.7492 18.355 9.29686 18.5757 9.92172 18.7465C10.5465 18.9174 11.1546 18.986 11.7461 18.9529H13.1832C13.4746 18.9277 13.6954 18.8361 13.8455 18.6779L13.8952 18.6153C13.9286 18.5655 13.9599 18.4883 13.9888 18.3843C14.0181 18.2802 14.0326 18.1655 14.0326 18.0407C14.0241 17.6826 14.0513 17.3598 14.1136 17.0724C14.1759 16.7851 14.2469 16.5685 14.3263 16.4227C14.4057 16.2769 14.4952 16.1539 14.5949 16.0542C14.6947 15.9543 14.7659 15.8938 14.8077 15.8729C14.8491 15.852 14.8823 15.8378 14.9073 15.8292C15.1072 15.7626 15.3425 15.8271 15.6135 16.0231C15.8843 16.2188 16.1383 16.4606 16.3758 16.7478C16.6133 17.0354 16.8985 17.358 17.2317 17.7161C17.5651 18.0744 17.8566 18.3407 18.1064 18.5159L18.3562 18.6659C18.523 18.7659 18.7396 18.8576 19.0063 18.9409C19.2724 19.0241 19.5056 19.045 19.7058 19.0033L22.9046 18.9534C23.221 18.9534 23.4672 18.9011 23.6419 18.7971C23.8168 18.693 23.9208 18.5783 23.9543 18.4535C23.9877 18.3286 23.9895 18.1869 23.9607 18.0284C23.931 17.8704 23.9018 17.7599 23.8728 17.6974Z" fill="#BDBDBD"/>
</g>
<defs>
<clipPath id="clip0">
<rect width="24" height="24" fill="white" transform="translate(0 0.17749)"/>
</clipPath>
</defs>
</svg>
