<svg width="18" height="15" viewBox="0 0 18 15" fill="none" xmlns="http://www.w3.org/2000/svg">
<path d="M1.72764 4.35935C1.95534 4.52003 2.6417 4.99723 3.78677 5.79073C4.93187 6.58422 5.80909 7.19519 6.41848 7.62367C6.48543 7.67063 6.62767 7.77273 6.84527 7.9301C7.0629 8.08757 7.24374 8.21483 7.38763 8.31189C7.53163 8.40893 7.70571 8.51778 7.91005 8.63828C8.11431 8.75867 8.30686 8.84923 8.48766 8.90918C8.6685 8.96962 8.83589 8.99956 8.98988 8.99956H8.99998H9.01011C9.16411 8.99956 9.33157 8.96958 9.51241 8.90918C9.69313 8.84923 9.88586 8.75856 10.09 8.63828C10.2941 8.51764 10.4682 8.40889 10.6122 8.31189C10.7562 8.21483 10.9369 8.08757 11.1546 7.9301C11.3722 7.77259 11.5146 7.67063 11.5816 7.62367C12.1975 7.19519 13.7646 6.10698 16.2824 4.35914C16.7712 4.01777 17.1796 3.60586 17.5077 3.12369C17.836 2.64174 18 2.13614 18 1.60718C18 1.16515 17.8408 0.786772 17.5227 0.47207C17.2046 0.157298 16.8279 0 16.3928 0H1.60707C1.09148 0 0.694701 0.17408 0.4168 0.52224C0.138933 0.87047 0 1.30574 0 1.82802C0 2.24988 0.184212 2.70703 0.552461 3.19919C0.920675 3.69139 1.31253 4.07814 1.72764 4.35935Z" fill="#0FA049"/>
<path d="M16.9954 5.43403C14.7992 6.9205 13.1316 8.07573 11.9933 8.89948C11.6116 9.18062 11.302 9.40008 11.0642 9.55734C10.8264 9.71471 10.5102 9.87542 10.115 10.0394C9.71998 10.2036 9.35184 10.2855 9.01026 10.2855H9.00002H8.98992C8.64841 10.2855 8.28006 10.2036 7.88503 10.0394C7.49001 9.87542 7.17355 9.71471 6.93583 9.55734C6.69817 9.40008 6.38843 9.18062 6.00678 8.89948C5.10271 8.23658 3.43868 7.08128 1.01461 5.43403C0.632816 5.17973 0.294648 4.88825 0 4.56018V12.5354C0 12.9776 0.157298 13.3558 0.47207 13.6705C0.786772 13.9854 1.16519 14.1427 1.60718 14.1427H16.3929C16.8348 14.1427 17.2132 13.9854 17.5279 13.6705C17.8428 13.3557 18 12.9777 18 12.5354V4.56018C17.712 4.88146 17.3773 5.17294 16.9954 5.43403Z" fill="#0FA049"/>
</svg>
