<svg width="18" height="18" viewBox="0 0 18 18" fill="none" xmlns="http://www.w3.org/2000/svg">
<g clip-path="url(#clip0)">
<path d="M17.8394 13.0253C17.791 12.9443 17.4918 12.294 16.0517 10.9574C14.5441 9.55782 14.7466 9.78509 16.5625 7.36504C17.6684 5.89118 18.1106 4.99111 17.9722 4.60633C17.8405 4.23956 17.0271 4.33631 17.0271 4.33631L14.3224 4.35206C14.3224 4.35206 14.1222 4.32506 13.9725 4.41394C13.8274 4.5017 13.734 4.70421 13.734 4.70421C13.734 4.70421 13.3053 5.84505 12.7338 6.81487C11.5288 8.8614 11.0462 8.96941 10.8493 8.84227C10.3914 8.54637 10.5061 7.65193 10.5061 7.01739C10.5061 5.03386 10.8065 4.20693 9.91997 3.99316C9.6252 3.92228 9.40919 3.87503 8.65651 3.86715C7.69119 3.85703 6.87325 3.87053 6.41084 4.09667C6.10257 4.24743 5.86518 4.58383 6.01032 4.60296C6.1892 4.62658 6.59423 4.71209 6.80912 5.00461C7.08702 5.38152 7.07689 6.22983 7.07689 6.22983C7.07689 6.22983 7.23665 8.56438 6.70449 8.85465C6.33884 9.05379 5.83818 8.64763 4.76372 6.79012C4.21356 5.83942 3.79728 4.78747 3.79728 4.78747C3.79728 4.78747 3.7174 4.59171 3.57451 4.48707C3.40125 4.35994 3.15823 4.31944 3.15823 4.31944L0.586297 4.33519C0.586297 4.33519 0.200394 4.34644 0.0586333 4.51408C-0.0673758 4.66371 0.0485076 4.97198 0.0485076 4.97198C0.0485076 4.97198 2.0624 9.68271 4.34182 12.0578C6.43335 14.2348 8.80727 14.0919 8.80727 14.0919H9.88285C9.88285 14.0919 10.208 14.0559 10.3734 13.877C10.5264 13.7128 10.5208 13.4045 10.5208 13.4045C10.5208 13.4045 10.4994 11.961 11.1699 11.7484C11.8304 11.5391 12.6787 13.1435 13.5776 13.7611C14.2572 14.228 14.7736 14.1257 14.7736 14.1257L17.1779 14.0919C17.1779 14.0919 18.4357 14.0143 17.8394 13.0253Z" fill="black"/>
</g>
<defs>
<clipPath id="clip0">
<rect width="18" height="18" fill="white"/>
</clipPath>
</defs>
</svg>
