<svg width="225" height="225" viewBox="0 0 225 225" fill="none" xmlns="http://www.w3.org/2000/svg">
<circle cx="112.433" cy="112.433" r="112.433" fill="white"/>
<path d="M84.5747 159.769L83.6645 163.216H88.0481V156.382H87.7133C87.3084 156.37 86.9045 156.428 86.5207 156.551C86.2039 156.651 85.917 156.822 85.6837 157.049C85.441 157.299 85.2494 157.589 85.1187 157.906C84.9723 158.255 84.5538 159.789 84.5538 159.789L84.5747 159.769ZM81.342 163.216L82.4614 158.872C82.6146 158.155 82.8424 157.454 83.1414 156.78C83.3948 156.26 83.7498 155.79 84.1876 155.396C84.6408 155.023 85.1776 154.753 85.7569 154.609C86.3766 154.446 87.0184 154.372 87.661 154.389H89.2199C89.4995 154.373 89.7798 154.407 90.0463 154.489C90.1869 154.55 90.3044 154.65 90.383 154.777C90.4616 154.903 90.4974 155.05 90.4858 155.196V163.216H92.2957V166.971H89.9417V165.218H82.0848V166.971H79.7099V163.216H81.342Z" fill="#2E2E2E"/>
<path d="M113.399 158.068C113.398 157.719 113.311 157.376 113.145 157.067C112.966 156.76 112.675 156.531 112.331 156.427C112.166 156.371 111.996 156.33 111.823 156.307C111.623 156.292 111.422 156.292 111.223 156.307H109.687V159.859C109.851 159.898 110.018 159.928 110.185 159.949C110.458 159.992 110.733 160.012 111.009 160.009C111.414 160.023 111.817 159.962 112.199 159.829C112.467 159.75 112.714 159.614 112.921 159.429C113.126 159.246 113.274 159.011 113.348 158.749C113.416 158.528 113.45 158.299 113.45 158.068H113.399ZM111.792 154.426C112.036 154.411 112.281 154.411 112.524 154.426C112.75 154.453 112.974 154.493 113.196 154.546C113.617 154.64 114.015 154.817 114.365 155.066C114.685 155.289 114.958 155.571 115.169 155.897C115.38 156.224 115.538 156.582 115.637 156.957C115.738 157.336 115.789 157.726 115.789 158.118C115.789 158.58 115.717 159.039 115.576 159.479C115.432 159.928 115.181 160.337 114.843 160.67C114.455 161.047 113.986 161.334 113.47 161.511C112.777 161.744 112.047 161.852 111.314 161.831C110.975 161.831 110.635 161.814 110.297 161.781L109.728 161.691V165.293H107.399V155.626C107.399 154.796 107.836 154.385 108.711 154.385L111.792 154.426Z" fill="#2E2E2E"/>
<path d="M161.907 157.884C161.903 158.103 161.945 158.321 162.032 158.526C162.117 158.741 162.266 158.931 162.463 159.077C162.714 159.241 162.999 159.357 163.303 159.418C163.732 159.519 164.175 159.567 164.62 159.559C164.941 159.579 165.263 159.579 165.585 159.559C165.726 159.544 165.867 159.52 166.005 159.488V156.2H164.234C164.03 156.19 163.825 156.19 163.621 156.2C163.44 156.215 163.261 156.245 163.087 156.29C162.896 156.333 162.716 156.409 162.558 156.514C162.4 156.619 162.267 156.751 162.168 156.902C161.984 157.21 161.898 157.556 161.918 157.904L161.907 157.884ZM168.559 165.293H166.005V161.423H165.426H164.96C164.424 161.423 163.906 161.59 163.496 161.895C162.291 162.738 161.456 163.925 161.135 165.253H158.581C158.969 163.517 160.028 161.954 161.578 160.832C161.222 160.736 160.894 160.575 160.613 160.361C160.327 160.161 160.082 159.92 159.886 159.649C159.685 159.381 159.524 159.091 159.409 158.787C159.308 158.491 159.254 158.184 159.251 157.874C159.25 157.477 159.315 157.082 159.443 156.701C159.565 156.341 159.757 156.001 160.011 155.699C160.294 155.387 160.641 155.126 161.033 154.927C161.452 154.702 161.913 154.546 162.395 154.466L163.076 154.385H163.791H167.196C168.161 154.385 168.649 154.797 168.649 155.619L168.559 165.293Z" fill="#2E2E2E"/>
<path d="M77.5031 156.387C77.7488 156.113 77.916 155.786 77.9895 155.436C78.0631 155.086 78.0404 154.725 77.9237 154.385H71.0325C70.105 154.385 69.6413 154.796 69.6413 155.626V165.293H77.8914C77.9868 164.601 77.8393 163.9 77.4708 163.292H72.1109V160.77H77.2119C77.2119 160.77 77.557 160.7 77.557 159.769C77.557 158.839 77.1904 158.769 77.1904 158.769H72.1109V156.387H77.5031Z" fill="#2E2E2E"/>
<path d="M102.726 156.387C102.948 156.113 103.099 155.786 103.165 155.436C103.232 155.086 103.211 154.725 103.106 154.385H96.8991C96.0611 154.385 95.6519 154.796 95.6519 155.626V165.293H103.115C103.196 164.602 103.063 163.901 102.735 163.292H97.8637V160.77H102.541C102.541 160.77 102.852 160.7 102.852 159.769C102.852 158.839 102.521 158.769 102.521 158.769H97.8929V156.387H102.726Z" fill="#2E2E2E"/>
<path d="M64.171 161.414C63.7058 161.906 63.055 162.217 62.3499 162.285V157.337C63.0523 157.406 63.7014 157.713 64.171 158.198C64.5468 158.66 64.7405 159.225 64.7206 159.801C64.7373 160.371 64.5436 160.929 64.171 161.384V161.414ZM60.0546 162.265C59.3757 162.184 58.7557 161.869 58.3196 161.384C57.963 160.934 57.7775 160.388 57.7916 159.831C57.7727 159.27 57.9585 158.72 58.3196 158.267C58.7568 157.786 59.3769 157.474 60.0546 157.396V162.265ZM66.7896 158.307C66.5559 157.827 66.2228 157.393 65.809 157.03C65.3701 156.621 64.8557 156.286 64.2896 156.041C63.6753 155.781 63.0209 155.611 62.3499 155.536V154.457C61.959 154.37 61.5522 154.362 61.1577 154.434C60.7632 154.506 60.3904 154.656 60.0653 154.873V155.536C59.4053 155.625 58.7629 155.802 58.158 156.061C57.6126 156.297 57.1138 156.614 56.6816 157.001C56.2678 157.373 55.9382 157.817 55.7118 158.307C55.4867 158.788 55.3729 159.307 55.3777 159.831C55.3707 160.355 55.4845 160.874 55.7118 161.355C55.9379 161.831 56.2638 162.261 56.6709 162.621C57.1002 163.011 57.5997 163.329 58.1472 163.561C58.7478 163.832 59.3918 164.012 60.0546 164.096V165.293H62.3391V164.442V164.116C63.0108 164.037 63.6651 163.864 64.2788 163.601C64.8449 163.356 65.3593 163.021 65.7982 162.611C66.2121 162.248 66.5451 161.815 66.7788 161.335C67.0137 160.846 67.1313 160.316 67.1237 159.781C67.1325 159.25 67.0148 158.723 66.7788 158.238" fill="#2E2E2E"/>
<path d="M153.649 154.458C153.396 154.616 151.878 156.714 151.636 157.02C151.393 157.327 151.161 157.634 150.929 157.951C150.697 158.267 150.476 158.584 150.265 158.94C150.054 159.296 149.875 159.514 149.717 159.762C149.559 160.009 149.327 160.395 149.19 160.632C149.062 160.828 148.946 161.029 148.842 161.236L148.599 161.711L148.43 162.067V154.467C148.014 154.371 147.58 154.361 147.159 154.44C146.738 154.519 146.34 154.683 145.995 154.923V165.293H148.388L151.625 160.672C152.078 160.053 152.497 159.412 152.88 158.752C153.206 158.158 153.491 157.674 153.713 157.268C153.66 157.792 153.639 158.257 153.628 158.792V165.293H156.064V154.923C155.727 154.686 155.339 154.522 154.927 154.442C154.516 154.362 154.09 154.367 153.681 154.458" fill="#2E2E2E"/>
<path d="M141.352 163.239V154.918C140.988 154.682 140.57 154.518 140.127 154.44C139.685 154.362 139.228 154.37 138.79 154.465V163.239H133.454V154.465C133.016 154.369 132.559 154.36 132.116 154.438C131.673 154.516 131.255 154.68 130.892 154.918V165.248H140.11V166.971H142.639V163.239H141.352Z" fill="#2E2E2E"/>
<path d="M120.637 161.009C120.828 160.535 121.018 160.022 121.219 159.568C121.419 159.114 121.599 158.64 121.76 158.235L122.191 157.189C122.311 156.903 122.401 156.705 122.451 156.597C122.451 156.715 122.582 156.913 122.702 157.209L123.133 158.196L123.684 159.519L124.256 160.96L120.637 161.009ZM127.864 163.901L127.142 162.075C126.992 161.69 126.31 159.992 126.14 159.519C125.969 159.045 125.649 158.354 125.418 157.851C125.188 157.347 125.007 156.863 124.827 156.518C124.646 156.172 124.516 155.837 124.406 155.63C124.244 155.238 123.977 154.897 123.634 154.642C123.366 154.487 123.063 154.399 122.752 154.386H122.562C122.209 154.379 121.861 154.472 121.559 154.652C121.213 154.906 120.943 155.247 120.778 155.639L120.357 156.528L119.765 157.86L119.044 159.529C118.723 160.121 118.422 160.743 118.182 161.414L117.38 163.388C117.109 164.04 116.859 164.681 116.628 165.293H118.953C119.054 165.056 119.174 164.75 119.324 164.375C119.475 164 119.645 163.546 119.856 163.013H125.037L125.579 164.385C125.739 164.76 125.849 165.066 125.939 165.293H128.375C128.255 164.958 128.074 164.513 127.864 163.97" fill="#2E2E2E"/>
<path d="M142.345 176.309C142.347 176.529 142.386 176.747 142.46 176.954C142.547 177.166 142.683 177.355 142.857 177.508C143.083 177.689 143.347 177.819 143.631 177.891C144.022 177.997 144.427 178.045 144.833 178.032C145.132 178.052 145.433 178.052 145.732 178.032C145.86 178.028 145.987 178.004 146.108 177.961V174.617H144.488H143.913C143.746 174.631 143.581 174.665 143.422 174.718C143.246 174.759 143.08 174.833 142.935 174.937C142.789 175.041 142.667 175.172 142.575 175.322C142.418 175.618 142.339 175.947 142.345 176.279V176.309ZM148.47 183.712H146.108V179.845L145.585 179.895H145.146C144.658 179.903 144.186 180.069 143.809 180.368C142.693 181.215 141.923 182.413 141.634 183.752H139.283C139.633 182.008 140.606 180.437 142.032 179.311C141.707 179.208 141.406 179.047 141.143 178.837C140.888 178.625 140.663 178.381 140.474 178.112C140.284 177.847 140.14 177.555 140.046 177.246C139.944 176.954 139.891 176.648 139.889 176.34C139.891 175.947 139.951 175.557 140.067 175.181C140.176 174.818 140.353 174.477 140.589 174.174C140.831 173.857 141.137 173.59 141.488 173.389C141.873 173.168 142.293 173.012 142.732 172.925C142.92 172.925 143.129 172.865 143.37 172.845H144.028H147.164C148.063 172.845 148.512 173.258 148.512 174.094L148.47 183.712Z" fill="#2E2E2E"/>
<path d="M96.3154 179.424C96.1682 179.877 95.9421 180.299 95.6474 180.673C95.357 181.02 94.9955 181.302 94.5872 181.498C94.1355 181.687 93.6508 181.784 93.1612 181.784C92.6717 181.784 92.187 181.687 91.7353 181.498C91.327 181.302 90.9655 181.02 90.6751 180.673C90.3692 180.305 90.1386 179.881 89.9965 179.424C89.8309 178.926 89.7485 178.404 89.7527 177.879C89.7502 177.354 89.8325 176.833 89.9965 176.334C90.1365 175.88 90.3673 175.459 90.6751 175.096C90.969 174.758 91.33 174.484 91.7353 174.292C92.1852 174.096 92.6706 173.995 93.1612 173.995C93.6519 173.995 94.1373 174.096 94.5872 174.292C94.9935 174.482 95.3548 174.756 95.6474 175.096C95.9441 175.464 96.1705 175.884 96.3154 176.334C96.4722 176.834 96.5474 177.356 96.538 177.879C96.5422 178.404 96.4598 178.926 96.2942 179.424H96.3154ZM97.3544 173.689C96.8276 173.158 96.2006 172.737 95.5096 172.45C93.9711 171.857 92.2666 171.857 90.7281 172.45C90.0371 172.737 89.41 173.158 88.8833 173.689C88.3598 174.22 87.952 174.855 87.6853 175.551C87.1201 177.056 87.1201 178.713 87.6853 180.218C87.9676 180.908 88.3858 181.534 88.9151 182.059C89.4355 182.598 90.0642 183.02 90.7599 183.297C92.2958 183.904 94.0055 183.904 95.5414 183.297C96.2371 183.02 96.8658 182.598 97.3862 182.059C97.9076 181.522 98.3151 180.885 98.5842 180.186C99.1494 178.682 99.1494 177.024 98.5842 175.519C98.3175 174.823 97.9097 174.189 97.3862 173.657" fill="#2E2E2E"/>
<path d="M135.402 174.848C135.648 174.573 135.814 174.246 135.886 173.895C135.958 173.545 135.933 173.184 135.814 172.845H128.921C128.001 172.845 127.536 173.255 127.536 174.077V183.752H135.824C135.922 183.06 135.774 182.357 135.402 181.749H129.992V179.225H135.11C135.11 179.225 135.457 179.145 135.457 178.223C135.457 177.302 135.089 177.222 135.089 177.222H130.025V174.848H135.402Z" fill="#2E2E2E"/>
<path d="M110.024 180.672C109.166 179.67 108.226 178.626 107.192 177.549L107.75 176.952C107.984 176.696 108.253 176.419 108.556 176.121L109.497 175.194L110.448 174.266L111.296 173.456C111.554 173.211 111.771 173.019 111.937 172.881C111.64 172.532 111.249 172.285 110.813 172.171C110.378 172.056 109.919 172.081 109.497 172.241L107.884 173.776L106.727 174.917L105.631 175.982L104.752 176.91V172.092C104.344 171.988 103.918 171.978 103.505 172.062C103.092 172.147 102.703 172.325 102.364 172.582V183.752H104.752V178.487C105.042 178.754 105.383 179.084 105.786 179.489C106.189 179.894 106.613 180.342 107.047 180.821C107.481 181.301 107.905 181.781 108.339 182.292C108.774 182.804 109.156 183.294 109.507 183.752H112.433C111.688 182.682 110.887 181.654 110.035 180.672" fill="#2E2E2E"/>
<path d="M122.611 180.672C121.749 179.671 120.794 178.626 119.756 177.55L120.317 176.953L121.126 176.122L122.081 175.194L123.036 174.267L123.887 173.457C124.147 173.212 124.354 173.02 124.52 172.882C124.225 172.534 123.833 172.287 123.398 172.173C122.962 172.059 122.503 172.083 122.081 172.242L120.462 173.777L119.299 174.917C118.905 175.29 118.542 175.663 118.199 175.983L117.306 176.91V172.093C116.905 171.99 116.486 171.978 116.079 172.057C115.672 172.136 115.287 172.305 114.95 172.551V183.752H117.337V178.488C117.628 178.754 117.971 179.084 118.375 179.489C118.78 179.894 119.196 180.342 119.631 180.822C120.067 181.301 120.503 181.781 120.929 182.292C121.355 182.804 121.749 183.294 122.112 183.752H125.019C124.27 182.682 123.466 181.654 122.611 180.672Z" fill="#2E2E2E"/>
<path d="M122.611 180.672C121.749 179.671 120.794 178.626 119.756 177.55L120.317 176.953L121.126 176.122L122.081 175.194L123.036 174.267L123.887 173.457C124.147 173.212 124.354 173.02 124.52 172.882C124.225 172.534 123.833 172.287 123.398 172.173C122.962 172.059 122.503 172.083 122.081 172.242L120.462 173.777L119.299 174.917C118.905 175.29 118.542 175.663 118.199 175.983L117.306 176.91V172.093C116.905 171.99 116.486 171.978 116.079 172.057C115.672 172.136 115.287 172.305 114.95 172.551V183.752H117.337V178.488C117.628 178.754 117.971 179.084 118.375 179.489C118.78 179.894 119.196 180.342 119.631 180.822C120.067 181.301 120.503 181.781 120.929 182.292C121.355 182.804 121.749 183.294 122.112 183.752H125.019C124.27 182.682 123.466 181.654 122.611 180.672Z" fill="#2E2E2E"/>
<path d="M85.7396 182.85L84.656 181.459L83.2906 179.729C82.7921 179.103 82.3045 178.466 81.8168 177.829C82.2286 177.256 82.6404 176.767 83.0522 176.173C83.464 175.578 83.8432 175.111 84.2008 174.687L85.1653 173.466L85.8372 172.648C85.6689 172.514 85.4874 172.397 85.2953 172.298C84.9901 172.131 84.6496 172.034 84.3001 172.015C83.9507 171.997 83.6016 172.057 83.2797 172.192C83.1497 172.319 80.6573 175.642 80.3973 175.992C80.0613 175.568 79.7362 175.154 79.4328 174.75L79.0535 174.273C78.3058 173.285 77.5473 172.266 77.4714 172.203C77.1259 172.055 76.7499 171.989 76.3736 172.009C75.9973 172.029 75.631 172.136 75.3041 172.319C75.1012 172.415 74.9118 172.537 74.7406 172.68C74.9032 172.882 75.1416 173.169 75.4342 173.551L76.4528 174.825L78.9235 178.009L77.5473 179.856L76.2794 181.566L75.2716 182.935L74.6756 183.742H77.5039L77.9916 183.073L78.6417 182.149L79.487 181.045L80.3756 179.825L81.3509 181.088C81.6651 181.502 81.9577 181.884 82.2394 182.234L82.9438 183.158C83.1389 183.423 83.3014 183.614 83.3989 183.752H86.4223L85.7505 182.892" fill="#2E2E2E"/>
<path d="M111.946 31.884H67.342V93.0661C67.342 128.055 111.946 148.041 111.946 148.041C111.946 148.041 156.549 128.037 156.549 93.0661V31.884H111.946Z" fill="white"/>
<path d="M72.9073 61.1095H151.002V36.282H72.9073V61.1095ZM83.2661 52.9962C82.4846 53.5468 81.529 53.8017 80.5732 53.7144H76.8031V45.6278C76.7925 45.4872 76.81 45.3459 76.8547 45.212C76.8993 45.0781 76.9703 44.9543 77.0634 44.8475C77.2951 44.661 77.5917 44.5718 77.8892 44.5992H83.6431C83.7057 44.8881 83.7078 45.1867 83.6491 45.4764C83.5904 45.7662 83.4723 46.041 83.302 46.2839H78.6971V47.9509L79.4063 47.8977C79.6456 47.8977 79.9239 47.8977 80.2411 47.8977C80.7745 47.8943 81.3069 47.9449 81.8299 48.0484C82.2662 48.1272 82.6816 48.2932 83.0507 48.5361C83.3861 48.7579 83.6557 49.064 83.8316 49.4228C84.0225 49.8402 84.1146 50.2951 84.1009 50.7529C84.1382 51.1699 84.0829 51.5899 83.9387 51.9835C83.7945 52.3771 83.5649 52.7349 83.2661 53.0317V52.9962ZM91.5962 48.3233C91.5962 48.3233 91.8834 48.4386 91.8834 49.21C91.8834 49.9814 91.6141 50.0258 91.6141 50.0258H87.6466V52.0563H91.8116C92.1077 52.5662 92.2245 53.1586 92.1437 53.741H85.7077V45.6278C85.6905 45.4847 85.7072 45.3397 85.7565 45.204C85.8057 45.0684 85.8861 44.946 85.9914 44.8463C86.0967 44.7466 86.224 44.6724 86.3632 44.6295C86.5024 44.5866 86.6498 44.5762 86.7938 44.5992H92.1797C92.2732 44.8848 92.2918 45.1892 92.2337 45.4839C92.1756 45.7786 92.0427 46.0538 91.8475 46.2839H87.6466V48.2879L91.5962 48.3233ZM101.533 53.7499H99.6031V46.2839H99.0645C98.7274 46.2771 98.3913 46.3219 98.0682 46.4169C97.8 46.5049 97.5548 46.6502 97.35 46.8425C97.15 47.0525 96.989 47.2956 96.8743 47.5608C96.6389 48.2232 96.4411 48.8982 96.2819 49.5824C96.21 49.946 95.2945 53.7144 95.2945 53.7144H93.3645C93.562 52.9341 94.4507 49.4583 94.5135 49.1568C94.6825 48.2897 94.935 47.4405 95.2675 46.6209C95.4836 46.1774 95.7891 45.7821 96.1652 45.4593C96.5312 45.1536 96.9599 44.9297 97.4219 44.8031C97.9516 44.6626 98.4981 44.594 99.0466 44.5992H100.501C100.725 44.5866 100.95 44.6137 101.165 44.679C101.306 44.7354 101.428 44.8309 101.515 44.9539L101.533 53.7499ZM110.725 53.7499C110.644 53.5548 110.554 53.2977 110.42 52.9696L109.962 51.808H105.608C105.429 52.2603 105.285 52.6947 105.16 52.9696C105.034 53.2445 104.935 53.546 104.845 53.7499H102.888C103.086 53.2268 103.301 52.6859 103.526 52.1273C103.75 51.5686 103.975 51.0189 104.208 50.478L104.872 48.8908C105.088 48.3765 105.294 47.9066 105.483 47.481C105.671 47.0553 105.833 46.6741 105.976 46.346C106.12 46.0179 106.237 45.7696 106.326 45.5923C106.454 45.2409 106.682 44.9331 106.982 44.7056C107.251 44.5423 107.564 44.462 107.879 44.4751C108.309 44.4517 108.731 44.5948 109.055 44.8741C109.217 45.149 109.405 45.5214 109.63 45.9824C109.854 46.4435 110.079 46.9578 110.321 47.5253C110.563 48.0928 110.815 48.6691 111.066 49.2987C111.317 49.9282 111.551 50.4957 111.766 51.0721C111.982 51.6484 112.197 52.1627 112.377 52.6327L112.807 53.7588L110.725 53.7499ZM120.769 48.8908C120.651 49.2477 120.455 49.5747 120.195 49.8484C119.878 50.1674 119.491 50.4101 119.064 50.5578C118.487 50.7543 117.879 50.8445 117.269 50.8238C116.97 50.8405 116.67 50.8405 116.371 50.8238L115.895 50.744V53.7588H114.01V45.6278C113.983 45.4836 113.992 45.335 114.037 45.1953C114.082 45.0556 114.162 44.9292 114.269 44.8272C114.375 44.7253 114.506 44.6511 114.649 44.6113C114.792 44.5715 114.942 44.5674 115.087 44.5992H117.628C117.834 44.5992 118.041 44.5992 118.238 44.5992C118.423 44.6227 118.606 44.6583 118.786 44.7056C119.128 44.7834 119.452 44.9281 119.737 45.1312C120.006 45.3222 120.235 45.5632 120.41 45.8406C120.584 46.114 120.711 46.4135 120.787 46.7273C120.877 47.0449 120.922 47.373 120.922 47.7026C120.92 48.0877 120.86 48.4703 120.743 48.8376L120.769 48.8908ZM127.825 49.4849C126.981 50.9923 126.137 52.4376 125.267 53.812H123.112C123.391 53.3952 123.687 52.9253 124.01 52.4287C124.333 51.9322 124.629 51.3824 124.908 50.8327C124.602 50.3539 124.315 49.8928 124.01 49.4406L123.238 48.1903L122.61 47.1352L122.143 46.346C122.062 46.213 121.398 44.9805 121.398 44.9805C121.71 44.7812 122.063 44.6545 122.432 44.61C122.8 44.5654 123.174 44.6042 123.525 44.7233C123.642 44.9539 123.794 45.2376 123.983 45.5568L124.683 46.6297C124.899 47.0021 125.123 47.3834 125.365 47.7736L126.039 48.9085C126.389 48.2701 126.703 47.6672 127.008 47.0819C127.313 46.4967 127.951 45.2199 128.184 44.7411C128.511 44.644 128.855 44.6136 129.194 44.6517C129.534 44.6898 129.862 44.7956 130.159 44.9627C129.459 46.479 128.687 47.9952 127.852 49.4938L127.825 49.4849ZM138.435 53.1913C138.213 53.3143 137.982 53.421 137.744 53.5105C137.403 53.6302 137.056 53.728 136.703 53.8031C136.247 53.8889 135.784 53.9305 135.32 53.9272C134.687 53.931 134.059 53.826 133.462 53.6169C132.901 53.437 132.388 53.1338 131.963 52.7302C131.527 52.3032 131.187 51.7893 130.967 51.2228C130.71 50.5609 130.585 49.8565 130.599 49.148C130.589 48.4657 130.714 47.7881 130.967 47.1529C131.192 46.5945 131.533 46.0886 131.967 45.6673C132.402 45.246 132.92 44.9185 133.489 44.7056C134.099 44.4855 134.743 44.3744 135.392 44.3775C136.591 44.3174 137.772 44.6822 138.722 45.4061C138.738 45.71 138.682 46.0133 138.561 46.2928C138.505 46.4095 138.435 46.5196 138.354 46.6209C138.283 46.7119 138.201 46.7952 138.112 46.8691C138.048 46.9231 137.979 46.9707 137.905 47.011L137.609 46.7361C137.455 46.6077 137.286 46.4976 137.106 46.4081C136.874 46.29 136.631 46.195 136.379 46.1243C136.078 46.0448 135.767 46.0061 135.455 46.009C135.057 46.0048 134.662 46.0833 134.297 46.2396C133.954 46.3808 133.647 46.5959 133.399 46.8691C133.122 47.1548 132.905 47.4925 132.762 47.8622C132.623 48.2768 132.556 48.7115 132.564 49.148C132.501 49.9926 132.779 50.8276 133.336 51.4711C133.608 51.7403 133.933 51.9504 134.292 52.0879C134.651 52.2253 135.035 52.2871 135.419 52.2691C135.748 52.2733 136.077 52.2375 136.397 52.1627C136.648 52.1109 136.894 52.0398 137.133 51.9499C137.305 51.8863 137.471 51.8061 137.627 51.7105L137.869 51.5509L138.767 52.9785C138.666 53.061 138.558 53.1351 138.444 53.2002L138.435 53.1913ZM147.42 52.012C147.236 52.3925 146.966 52.7262 146.63 52.9873C146.295 53.2502 145.906 53.4379 145.49 53.5371C145.042 53.6549 144.581 53.7146 144.117 53.7144H140.302V44.9627C140.575 44.7625 140.89 44.6245 141.224 44.5586C141.557 44.4927 141.902 44.5005 142.232 44.5815V47.6228H142.905C143.157 47.6228 143.444 47.6228 143.803 47.6228C144.343 47.62 144.882 47.6765 145.41 47.7913C145.85 47.876 146.268 48.0479 146.639 48.2967C146.98 48.5156 147.253 48.8222 147.429 49.1834C147.621 49.6225 147.713 50.0977 147.699 50.5755C147.709 51.0862 147.601 51.5925 147.384 52.0563" fill="#21B14C"/>
<path d="M145.149 49.4582C144.641 49.2395 144.087 49.1423 143.534 49.1745H142.788C142.555 49.1745 142.367 49.1745 142.214 49.2277V52.0563H143.731C144.223 52.0821 144.712 51.9583 145.131 51.7016C145.314 51.5681 145.459 51.3902 145.552 51.1851C145.645 50.98 145.682 50.7548 145.661 50.5311C145.685 50.3173 145.649 50.101 145.555 49.9067C145.461 49.7123 145.315 49.5478 145.131 49.4316" fill="#21B14C"/>
<path d="M108.364 47.7736L107.996 46.8869L107.79 46.3638C107.748 46.4524 107.676 46.6209 107.574 46.8692C107.466 47.1175 107.35 47.4101 107.215 47.7559C107.08 48.1017 106.919 48.4741 106.757 48.882C106.596 49.2899 106.425 49.7066 106.264 50.1145H109.307C109.154 49.7066 108.983 49.2987 108.822 48.882C108.66 48.4652 108.508 48.1017 108.364 47.7559" fill="#21B14C"/>
<path d="M81.5426 49.7419C81.367 49.6469 81.1754 49.5838 80.9771 49.5557C80.7276 49.5184 80.4755 49.5007 80.2231 49.5025C79.923 49.4995 79.6231 49.5173 79.3255 49.5557L78.7151 49.6267V52.0562H80.5552C80.7407 52.0564 80.9253 52.0295 81.1028 51.9764C81.2791 51.9342 81.4443 51.8557 81.5875 51.7459C81.727 51.6283 81.8401 51.4834 81.9197 51.3203C82.0061 51.1246 82.0489 50.913 82.0453 50.6996C82.0531 50.4915 82.01 50.2847 81.9197 50.0966C81.8413 49.9369 81.7162 49.8041 81.5606 49.7153" fill="#21B14C"/>
<path d="M118.103 46.2662C117.966 46.2214 117.825 46.1888 117.682 46.1687C117.514 46.1599 117.346 46.1599 117.179 46.1687H115.922V49.2101L116.335 49.281C116.56 49.3185 116.789 49.3363 117.017 49.3342C117.35 49.3441 117.682 49.293 117.996 49.1835C118.222 49.1023 118.428 48.972 118.597 48.8022C118.741 48.6551 118.845 48.4754 118.902 48.279C118.962 48.0957 118.992 47.9042 118.992 47.7116C118.989 47.4235 118.915 47.1404 118.777 46.8869C118.709 46.7501 118.615 46.6278 118.5 46.5273C118.384 46.4268 118.249 46.3501 118.103 46.3017" fill="#21B14C"/>
<path d="M111.892 66.4917H106.362C108.086 67.804 110.213 69.1518 111.937 70.4286C113.669 69.1163 115.779 67.7685 117.52 66.4917H111.892Z" fill="#F02729"/>
<path d="M81.2015 98.8297C78.1738 93.4363 75.4411 87.8865 73.0151 82.2041C72.4136 91.3903 74.3346 98.6435 76.4081 105.001C76.4889 105.258 76.7223 105.888 76.8031 106.136C78.2848 103.871 79.9477 101.728 81.776 99.7252C81.6683 99.5568 81.3003 99.0336 81.2015 98.8385" fill="#F02729"/>
<path d="M72.9433 66.4829V76.8839C78.2118 72.8727 83.8708 69.3886 89.8368 66.4829H72.9433Z" fill="#F02729"/>
<path d="M94.4866 68.9036H90.7524C90.4742 69.6662 90.2857 70.1982 89.9894 71.0317H86.9195C86.5425 72.0248 86.2822 72.6721 85.8962 73.6918L82.6827 73.745C82.1979 74.9066 81.8927 75.6691 81.4349 76.7686H78.1765L76.3004 81.2021H79.6127C79.119 82.408 78.7151 83.3479 78.1047 84.9263H81.6953C81.2105 86.2297 80.8515 87.2228 80.259 88.8809H84.1009C83.6701 90.2553 83.3379 91.2927 82.8173 92.9952H88.2031C88.6161 91.3105 88.8674 90.273 89.2175 88.8987H93.0324C93.3646 87.2405 93.562 86.2386 93.8403 84.8997H97.2962C97.5476 83.2947 97.7091 82.3194 97.9156 81.0691H101.003C101.264 79.1273 101.38 78.1874 101.623 76.4672L98.6517 76.5381C98.8402 75.4031 98.9748 74.6317 99.1813 73.4701L96.228 73.5233L96.8115 70.9342H93.9121C93.9121 70.8278 93.975 70.7302 94.0019 70.6416C94.1904 69.9765 94.325 69.4977 94.5225 68.8682L94.4866 68.9036ZM94.7649 74.6938C94.5405 75.6248 94.3699 76.3874 94.0647 77.6819H97.0539C96.9102 78.4622 96.7935 79.1361 96.6409 79.9874H93.5441C93.2389 81.3706 93.0414 82.2484 92.7721 83.5341H89.3521C88.9572 85.0149 88.9841 84.8553 88.643 86.141H85.9501C86.345 84.8465 86.345 85.0149 86.7938 83.5341H83.3918L84.6395 80.076H81.5696L82.4672 77.8415H85.4564C85.9231 76.5647 86.2014 75.811 86.5515 74.88L89.5855 74.8268C89.9535 73.6918 89.9805 73.6475 90.2408 72.8583H92.3682C92.1348 73.6475 92.1348 73.6918 91.8027 74.8268L94.729 74.7824" fill="#F02729"/>
<path d="M91.1205 76.467H89.4419L88.9392 78.0188H87.3504C87.126 78.6572 87.0182 78.9853 86.7849 79.6591H88.4275L87.88 81.4059H89.6752C89.8638 80.6966 89.9625 80.3508 90.151 79.6769H91.7757C91.9463 78.9941 92.0271 78.666 92.1976 78.0276H90.6178C90.8063 77.3803 90.896 77.07 91.0666 76.467" fill="#F02729"/>
<path d="M108.804 119.96C108.759 121.733 108.732 122.957 108.678 124.978H115.213C115.168 122.957 115.132 121.697 115.087 119.96H119.935C119.827 117.885 119.755 116.599 119.647 114.843H124.333C124.127 112.733 124.001 111.438 123.812 109.692H128.301C127.906 107.031 127.699 105.657 127.277 103.015H123.058C122.861 101.241 122.699 100.044 122.457 98.0492H118.471C118.346 96.3822 118.256 95.2029 118.103 93.3054H114.369C114.369 91.8512 114.306 90.796 114.262 89.2709C114.262 89.1379 114.262 89.0049 114.262 88.863H109.648C109.648 89.0049 109.648 89.1379 109.648 89.2709C109.594 90.796 109.567 91.8512 109.531 93.3054H105.833C105.671 95.2029 105.581 96.3822 105.456 98.0492H101.479C101.228 100.044 101.075 101.286 100.869 103.015H96.6589C96.228 105.675 96.0126 107.005 95.6266 109.692H100.115C99.9263 111.465 99.8006 112.733 99.6031 114.843H104.289C104.172 116.617 104.109 117.885 103.993 119.96H108.84H108.804ZM102.664 108.007C102.772 106.863 102.862 105.941 102.978 104.815H106.82C106.928 102.944 106.991 101.818 107.089 100.319H110.474C110.474 98.5458 110.474 98.1113 110.536 96.6837H113.355C113.355 98.1113 113.355 98.5103 113.418 100.319H116.802C116.901 101.818 116.963 102.979 117.071 104.815H120.913C121.03 105.941 121.12 106.863 121.227 108.007H117.251C117.358 109.895 117.421 111.048 117.502 112.635H113.678C113.678 114.533 113.732 114.737 113.759 116.297H110.168C110.168 114.737 110.222 114.524 110.258 112.635H106.425C106.515 111.048 106.569 109.895 106.677 108.007H102.7" fill="#F02729"/>
<path d="M110.752 109.975H113.14C113.14 109 113.14 108.512 113.14 107.546H115.572C115.527 106.579 115.509 106.092 115.473 105.125H113.077C113.077 104.168 113.077 103.689 113.077 102.74H110.851C110.851 103.689 110.851 104.168 110.851 105.125H108.454C108.454 106.092 108.4 106.579 108.355 107.546H110.788C110.788 108.512 110.788 109 110.788 109.975" fill="#F02729"/>
<path d="M142.69 98.8296C142.591 98.998 142.223 99.5212 142.124 99.7163C143.96 101.725 145.632 103.875 147.124 106.145C147.205 105.888 147.438 105.258 147.519 105.01C149.593 98.6522 151.514 91.3991 150.912 82.2129C148.487 87.9073 145.755 93.469 142.726 98.8739" fill="#F02729"/>
<path d="M150.948 66.4829H134.055C140.022 69.3866 145.681 72.8708 150.948 76.8839V66.4829Z" fill="#F02729"/>
<path d="M145.724 76.8838L142.465 76.8306L141.209 73.8069L137.995 73.7537C137.609 72.7695 137.358 72.1045 136.972 71.0937H133.902C133.615 70.2602 133.417 69.7281 133.148 68.9656H129.414C129.602 69.604 129.746 70.0828 129.934 70.739C129.934 70.8276 129.961 70.9252 130.015 71.0316H127.116L127.699 73.6207L124.746 73.5675C124.952 74.7291 125.087 75.5005 125.276 76.6355H122.331C122.574 78.3468 122.699 79.2956 122.951 81.2375H126.048C126.245 82.4877 126.407 83.4631 126.658 85.068H130.123C130.392 86.3981 130.599 87.4089 130.922 89.067H134.746C135.087 90.4414 135.347 91.47 135.751 93.1636H141.137C140.616 91.4611 140.293 90.4237 139.853 89.0493H143.695C143.103 87.3912 142.744 86.3892 142.259 85.0946H145.849C145.221 83.5163 144.835 82.5764 144.341 81.3705H147.654L145.787 76.937L145.724 76.8838ZM139.252 80.0759C139.746 81.4325 140.06 82.3015 140.5 83.534H137.071C137.519 85.0059 137.519 84.8375 137.905 86.132H135.212C134.862 84.8375 134.898 85.0059 134.494 83.5251H131.164C130.886 82.2926 130.688 81.4059 130.383 79.9784H127.286C127.134 79.0917 127.017 78.4532 126.873 77.6729H129.863C129.566 76.3784 129.387 75.6158 129.162 74.6848L132.089 74.7291C131.757 73.5941 131.757 73.5498 131.523 72.7606H133.651C133.911 73.5498 133.938 73.5941 134.306 74.7291L137.34 74.7823C137.69 75.669 137.968 76.467 138.435 77.7439H141.433C141.738 78.5064 141.999 79.1626 142.331 79.9784H139.252" fill="#F02729"/>
<path d="M134.952 78.0454C134.746 77.407 134.647 77.0966 134.458 76.4937H132.771C132.95 77.0966 133.031 77.3804 133.22 78.0542H131.64C131.81 78.6927 131.891 79.0208 132.062 79.7035H133.686L134.171 81.4237H135.966L135.455 79.6858H137.098C136.873 79.0119 136.756 78.6838 136.541 78.0454H134.943" fill="#F02729"/>
<path d="M135.338 98.5813C134.584 97.6946 133.803 96.7104 132.995 95.7616C132.098 94.6621 131.101 93.5626 130.132 92.472C129.459 91.7183 128.776 90.9646 128.094 90.2375C127.098 89.1557 125.994 88.0208 124.818 86.8681C123.83 85.8838 122.789 84.8819 121.721 83.871C120.653 82.8602 119.297 81.6099 118.05 80.4838C117.08 79.5971 116.093 78.7105 115.123 77.8238C116.111 76.9371 117.08 76.0504 117.996 75.1637C118.561 74.6494 119.109 74.144 119.647 73.674L121.093 72.4504L124.028 69.8878L126.954 67.3962L128.094 66.4563H122.035L120.895 67.343L117.915 69.8258L116.461 71.0405L114.755 72.4858C113.858 73.2573 112.906 74.0642 111.946 74.8977C110.985 74.0642 110.043 73.2573 109.136 72.4858L107.431 71.0405L105.985 69.8258L102.996 67.343C102.592 67.0061 102.215 66.6957 101.856 66.4563H95.842L96.973 67.3962C97.7001 68.008 98.6965 68.8504 99.8993 69.8878L102.835 72.4504L104.253 73.7095C104.783 74.1794 105.33 74.6848 105.896 75.1991C106.793 76.0326 107.781 76.9105 108.768 77.8592C107.799 78.7459 106.811 79.6326 105.842 80.5193C104.603 81.6454 103.364 82.7804 102.17 83.9065C100.977 85.0326 100.07 85.9193 99.0735 86.9035C97.9066 88.0562 96.8025 89.1912 95.7882 90.273C95.1149 91.0001 94.4327 91.7538 93.7595 92.5075C92.7901 93.6011 91.8356 94.6976 90.896 95.7971C90.0971 96.7459 89.3072 97.6946 88.5532 98.6168C84.1817 103.937 81.2733 107.812 80.654 108.867C80.1872 109.674 79.11 111.678 80.2141 113.7C82.4218 117.753 85.0836 121.548 88.1493 125.014C88.4878 125.471 88.9352 125.839 89.4519 126.085C89.9685 126.331 90.5385 126.447 91.1115 126.424C92.4938 126.211 99.5223 125.608 100.519 125.147C101.515 124.686 101.838 123.95 100.941 123.178C96.5222 119.27 92.549 114.896 89.0918 110.135C88.257 108.663 90.1151 106.916 92.2784 103.822C92.9606 102.855 93.7236 101.8 94.5404 100.701C95.3573 99.601 96.2819 98.404 97.2334 97.2069C98.9479 95.0257 100.824 92.7735 102.619 90.6454C103.58 89.5282 104.558 88.4464 105.501 87.4267C106.255 86.6287 106.973 85.875 107.691 85.1656C108.122 84.7311 108.588 84.2789 108.983 83.8799C109.977 82.8986 110.961 81.941 111.937 81.007C112.906 81.941 113.891 82.8986 114.89 83.8799C115.321 84.2966 115.788 84.7666 116.191 85.1656C116.901 85.8661 117.628 86.6287 118.373 87.4267C119.324 88.4464 120.294 89.5282 121.263 90.6454C123.112 92.7735 124.952 95.0257 126.649 97.2069C127.547 98.404 128.444 99.5744 129.342 100.701C130.24 101.827 130.913 102.855 131.595 103.822C133.758 106.916 135.616 108.663 134.782 110.135C133.947 111.607 127.6 119.303 122.942 123.178C122.044 123.95 122.367 124.686 123.355 125.147C124.342 125.608 130.805 126.246 132.196 126.459C132.86 126.555 133.538 126.472 134.158 126.217C134.778 125.963 135.316 125.547 135.715 125.014C138.786 121.55 141.451 117.754 143.659 113.7C144.763 111.678 143.659 109.674 143.219 108.867C142.609 107.812 139.692 103.937 135.32 98.6168" fill="#F02729"/>
<path d="M93.1042 129.687C98.3195 134.705 104.774 138.554 112.215 141.648C119.115 138.816 125.434 134.762 130.859 129.687C118.363 127.594 105.6 127.594 93.1042 129.687Z" fill="#F02729"/>
</svg>
