<svg width="42" height="56" viewBox="0 0 42 56" fill="none" xmlns="http://www.w3.org/2000/svg">
<path fill-rule="evenodd" clip-rule="evenodd" d="M7.60637 0.899902H11.2302V0H19.2252V0.899902H22.8117V0H30.8066V0.899902H34.3932V0H41.9024V0.91865C41.9024 12.4486 41.9211 23.9599 41.9211 35.4899C41.9211 40.3081 39.6608 45.3326 36.5413 48.9134C32.5439 53.4879 27.108 55.9814 21.0371 55.9814C15.0036 55.9814 9.64246 53.4692 5.66367 48.9322C2.61887 45.5201 0.13446 40.3831 0.13446 35.6961C0.13446 24.1099 0.13446 12.5236 0.13446 0.937398V0H7.60637V0.899902Z" fill="black"/>
<path fill-rule="evenodd" clip-rule="evenodd" d="M1.06842 0.9375H6.69103V1.8374H12.1642V0.9375H18.3098V1.8374H23.7457V0.9375H29.8913V1.8374H35.3271V0.9375H40.9871C40.9871 12.4487 41.0058 23.96 41.0058 35.5087C41.0058 43.5891 33.9075 55.0816 21.0371 55.0816C8.31617 55.0816 1.25522 43.5329 1.04974 35.9024C1.06842 24.2225 1.06842 12.58 1.06842 0.9375Z" fill="#FEEE03"/>
<path d="M1.06842 0.9375H6.69103V1.8374H12.1642V0.9375H18.3098V1.8374H23.7457V0.9375H29.8913V1.8374H35.3271V0.9375H40.9871C40.9871 12.4487 41.0058 23.96 41.0058 35.5087C41.0058 43.5891 33.9075 55.0816 21.0371 55.0816C8.31617 55.0816 1.25522 43.5329 1.04974 35.9024C1.06842 24.2225 1.06842 12.58 1.06842 0.9375Z" stroke="black" stroke-width="0.4252"/>
<path fill-rule="evenodd" clip-rule="evenodd" d="M2.22662 2.13721H5.49558V3.03711H13.3598V2.13721H17.1144V3.03711H24.9412V2.13721H28.6958V3.03711H36.5413V2.13721H39.7916C39.7916 5.11813 39.7916 8.1553 39.7916 11.0987H36.5227V10.3113H28.6772V11.0987H24.9225V10.3113H17.1144V11.0987H13.3598V10.3113H5.49558V11.0987H2.22662V2.13721Z" fill="black"/>
<path d="M2.22662 2.13721H5.49558V3.03711H13.3598V2.13721H17.1144V3.03711H24.9412V2.13721H28.6958V3.03711H36.5413V2.13721H39.7916C39.7916 5.11813 39.7916 8.1553 39.7916 11.0987H36.5227V10.3113H28.6772V11.0987H24.9225V10.3113H17.1144V11.0987H13.3598V10.3113H5.49558V11.0987H2.22662V2.13721Z" stroke="black" stroke-width="0.4252"/>
<path fill-rule="evenodd" clip-rule="evenodd" d="M2.11451 12.13H6.46689V11.3613H12.351V12.13H18.1417V11.3613H23.9512V12.13H29.6298V11.3613H35.5886V12.13H39.9223C39.9223 22.9288 39.941 24.0912 39.941 34.9463C39.941 42.6892 33.4778 53.9754 21.0184 53.9754C8.82054 53.9754 2.54414 42.9704 2.11451 35.7712C2.09583 35.4525 2.09583 35.1525 2.09583 34.8338C2.1145 24.2974 2.11451 22.9101 2.11451 12.13Z" fill="#C41515"/>
<path fill-rule="evenodd" clip-rule="evenodd" d="M32.5812 11.3613H35.6073V12.13H36.4852V45.5951C35.4205 47.1887 34.1129 48.6698 32.5625 49.9446V11.3613H32.5812Z" fill="white"/>
<path fill-rule="evenodd" clip-rule="evenodd" d="M28.7518 12.13H29.6485V11.3613H32.6559V49.8696C31.4791 50.8445 30.1902 51.6694 28.7332 52.3444V12.13H28.7518Z" fill="black"/>
<path fill-rule="evenodd" clip-rule="evenodd" d="M36.6347 8.24909H38.4653V7.74289H38.3719C38.2411 7.74289 38.1664 7.7054 38.1291 7.64916C38.0917 7.59291 38.073 7.53667 38.073 7.44293V5.58688C38.073 5.51189 38.073 5.4369 38.1291 5.38065C38.1664 5.32441 38.2411 5.28691 38.3719 5.28691H38.4653V4.74322H36.8962C36.0743 4.74322 34.9535 4.63073 34.8601 5.64312C34.8601 5.8681 34.8601 6.05558 34.9162 6.20556C35.0656 6.56177 35.4205 6.7305 35.8128 6.74925L35.159 7.49917C34.9722 7.72415 34.6546 7.72415 34.5612 7.72415H34.4305V8.23034H35.7567L36.8402 6.82424H36.8775V7.42418C36.8775 7.51792 36.8588 7.59291 36.8215 7.64916C36.7841 7.68665 36.7094 7.72415 36.616 7.72415V8.24909H36.6347ZM36.9149 5.45564V6.28055H36.6907C36.093 6.2993 35.8688 6.11182 35.8875 5.77436C35.9435 5.34316 36.4479 5.3619 36.7094 5.3619H36.8962V5.45564H36.9149Z" fill="#FEEE03"/>
<path fill-rule="evenodd" clip-rule="evenodd" d="M32.3197 8.24908H34.0943V7.74289H34.0009C33.9075 7.74289 33.8328 7.72414 33.7954 7.6679C33.758 7.61165 33.7394 7.55541 33.7394 7.46167V5.54938C33.7394 5.45564 33.758 5.38065 33.7954 5.34315C33.8328 5.28691 33.9075 5.26816 34.0009 5.26816H34.0756V4.76196H32.3197V5.26816H32.3944C32.5065 5.26816 32.5625 5.30565 32.5999 5.3619C32.6373 5.41814 32.6373 5.47439 32.6373 5.56813V7.44292C32.6373 7.51791 32.6373 7.59291 32.5999 7.64915C32.5625 7.70539 32.4878 7.74289 32.3944 7.74289H32.3197V8.24908Z" fill="#FEEE03"/>
<path fill-rule="evenodd" clip-rule="evenodd" d="M28.3969 4.76196V5.26816H28.4903C28.7705 5.26816 28.7705 5.39939 28.7705 5.53063V5.54938V7.44292V7.46167C28.7705 7.59291 28.7705 7.72414 28.4903 7.72414H28.3969V8.23034H29.7232C29.7419 8.23034 29.7979 8.23034 29.91 8.23034C30.9374 8.23034 31.9648 8.21159 31.9648 7.29294C31.9648 7.03047 31.8714 6.86173 31.7406 6.7305C31.5538 6.54302 31.1802 6.44928 30.9934 6.44928C31.1428 6.39304 31.3857 6.39304 31.6285 6.13056C31.7593 5.99933 31.8527 5.8306 31.8527 5.62437C31.8527 5.21191 31.6659 4.98694 31.3483 4.87445C31.0121 4.76196 30.5264 4.76196 29.9847 4.76196H28.3969ZM29.8726 7.53666V6.768H30.2089C30.3209 6.768 30.4517 6.768 30.5638 6.82424C30.6945 6.88048 30.7879 6.99297 30.7879 7.1992C30.7879 7.40543 30.6945 7.49917 30.5638 7.55541C30.4517 7.61165 30.3396 7.61165 30.2836 7.61165H29.8726V7.53666ZM29.8726 6.11182V5.38065H30.1902C30.3396 5.38065 30.4704 5.39939 30.5824 5.43689C30.6945 5.49313 30.7692 5.58687 30.7692 5.77435C30.7692 5.8306 30.7692 5.94308 30.6945 6.01808C30.6385 6.11182 30.5077 6.18681 30.3022 6.18681H29.8726V6.11182Z" fill="#FEEE03"/>
<path fill-rule="evenodd" clip-rule="evenodd" d="M25.0906 5.62442L24.4555 7.36798C24.3995 7.49921 24.3808 7.59295 24.3248 7.6492C24.2687 7.72419 24.1753 7.74294 24.0446 7.74294H24.0259V8.24913H25.3521V7.74294C25.1653 7.74294 25.128 7.6492 25.128 7.55546C25.128 7.51796 25.128 7.49921 25.1467 7.46172L25.1653 7.40547L25.184 7.34923H26.529L26.5476 7.38673C26.6037 7.49921 26.6037 7.55546 26.6037 7.5742C26.6037 7.63045 26.585 7.66794 26.5103 7.70544C26.4729 7.72419 26.4356 7.74294 26.3608 7.74294H26.2861V8.24913H28.042V7.74294H28.0233C27.7618 7.74294 27.7058 7.59295 27.6684 7.42422L27.6497 7.38673L26.8278 4.78076H25.4082L25.0906 5.62442ZM25.8565 5.54943H25.9312L25.9499 5.60567L26.2674 6.61806L26.3048 6.73055H25.3708L25.4082 6.61806L25.7818 5.60567L25.8005 5.54943H25.8565Z" fill="#FEEE03"/>
<path fill-rule="evenodd" clip-rule="evenodd" d="M18.9823 6.99288C18.6274 7.53657 18.2725 7.72405 17.6934 7.72405C16.4979 7.59282 16.6474 5.30557 17.6934 5.28682H17.7121C18.0857 5.28682 18.534 5.51179 18.7955 6.16797L19.3559 6.03674L18.9823 4.68688H18.59C18.5714 4.72438 18.5527 4.87436 18.5153 4.91186C17.9363 4.5744 17.3759 4.5744 16.8342 4.79937C16.5913 4.91186 16.3672 5.08059 16.199 5.28682C15.9375 5.62428 15.7881 6.05549 15.7881 6.50544C15.7881 6.95539 15.9002 7.40534 16.1617 7.7428C16.5166 8.2115 17.133 8.36149 17.6747 8.36149C18.2912 8.36149 19.0197 8.06152 19.4306 7.3116L18.9823 6.99288Z" fill="#FEEE03"/>
<path fill-rule="evenodd" clip-rule="evenodd" d="M9.53039 6.03682V5.56813C9.53039 5.49313 9.53039 5.41814 9.58643 5.3619C9.62378 5.30565 9.6985 5.26816 9.82926 5.26816H9.86662V4.76196H8.07336V5.26816H8.1294C8.26016 5.26816 8.33488 5.30565 8.37224 5.3619C8.42828 5.41814 8.42828 5.49313 8.42828 5.56813V7.44292C8.42828 7.51791 8.42828 7.59291 8.37224 7.64915C8.33488 7.70539 8.26016 7.74289 8.1294 7.74289H8.07336V8.24908H9.86662V7.74289H9.84794C9.71718 7.74289 9.64246 7.70539 9.60511 7.64915C9.53039 7.59291 9.53039 7.51791 9.53039 7.44292V7.1992L9.96002 6.78674L10.5017 7.53666C10.6138 7.68665 10.5017 7.74289 10.2963 7.74289V8.24908H12.1269V7.74289C11.9961 7.74289 11.7906 7.74289 11.6786 7.64915L10.6512 6.2243L11.5852 5.38065C11.7159 5.26816 11.7906 5.26816 11.9774 5.26816V4.76196H10.3149V5.28691C10.6699 5.24941 10.6512 5.34315 10.5951 5.39939L9.53039 6.37429V6.03682Z" fill="#FEEE03"/>
<path fill-rule="evenodd" clip-rule="evenodd" d="M4.63628 4.78076V5.26821H4.74835H4.76703C4.78571 5.26821 4.80439 5.26821 4.84175 5.26821C4.95383 5.28696 5.06591 5.32445 5.04723 5.51193V5.58692H4.63628C4.3374 5.58692 3.88909 5.62442 3.57153 5.84939C3.36605 5.98063 3.21661 6.2056 3.21661 6.52432C3.21661 6.78679 3.32869 7.03051 3.59021 7.1805C3.87041 7.34923 4.31872 7.44297 4.99119 7.44297H5.06591V7.5742C5.06591 7.66794 5.02855 7.70544 4.97251 7.74294C4.93515 7.76168 4.87911 7.76168 4.82307 7.76168H4.67364V8.24913H6.41085V7.76168H6.26142C6.20538 7.76168 6.16802 7.76168 6.11198 7.74294C6.05594 7.72419 5.9999 7.66794 5.9999 7.5742V7.44297H6.07462C6.74709 7.44297 7.1954 7.34923 7.4756 7.1805C7.73712 7.01177 7.8492 6.78679 7.8492 6.52432C7.8492 6.2056 7.69976 5.98063 7.49428 5.84939C7.17672 5.64317 6.72841 5.58692 6.42953 5.58692H6.01858V5.51193C5.9999 5.32445 6.11198 5.28696 6.22406 5.26821C6.24274 5.26821 6.2801 5.26821 6.29877 5.26821H6.31745H6.42953V4.78076H4.63628ZM6.05594 6.03687H6.28009C6.54161 6.03687 6.67237 6.14936 6.72841 6.26185C6.80313 6.37434 6.80313 6.50557 6.80313 6.54307C6.80313 6.59931 6.78445 6.7118 6.72841 6.80554C6.65369 6.89928 6.52293 6.97427 6.29877 6.97427H5.98122V6.01813H6.05594V6.03687ZM5.02855 6.11187V6.97427H4.71099C4.48684 6.97427 4.35608 6.89928 4.28136 6.80554C4.20664 6.7118 4.20664 6.59931 4.20664 6.54307C4.20664 6.48682 4.20664 6.37434 4.28136 6.26185C4.35608 6.14936 4.48684 6.03687 4.72967 6.03687H5.02855V6.11187Z" fill="#FEEE03"/>
<path fill-rule="evenodd" clip-rule="evenodd" d="M21.4107 5.60567L21.4294 5.54943H21.5601L21.5788 5.60567C21.6162 5.75566 22.1952 7.49922 22.1952 7.57421C22.1952 7.63045 22.1766 7.66795 22.1018 7.70545C22.0645 7.72419 22.0271 7.74294 21.9524 7.74294H21.8777V8.24914H23.6336V7.74294H23.6149C23.3534 7.74294 23.2973 7.59296 23.26 7.42423L23.2413 7.38673L22.4194 4.78076H21.0558L20.0844 7.38673C20.0284 7.51797 20.0097 7.61171 19.9537 7.66795C19.8976 7.74294 19.8042 7.76169 19.6735 7.76169H19.6548V8.26789H20.9811V7.76169C20.7943 7.76169 20.7569 7.66795 20.7569 7.57421C20.7569 7.53671 20.7569 7.51797 20.7756 7.48047L20.7943 7.42423L21.4107 5.60567Z" fill="#FEEE03"/>
<path fill-rule="evenodd" clip-rule="evenodd" d="M20.9998 47.5636H22.1766V47.2449H22.1019C21.8964 47.2449 21.8964 47.1324 21.8964 47.0387V46.6824H21.9711H22.2513H22.27C22.4381 46.6824 22.6623 46.6262 22.849 46.5325C23.0172 46.4387 23.1666 46.2512 23.1666 45.9513V45.9325C23.1666 45.5951 23.0172 45.4263 22.8117 45.3139C22.5875 45.2014 22.2513 45.1826 21.9151 45.1826H20.9998V45.5013H21.0371C21.2426 45.5013 21.2426 45.6138 21.2426 45.7076V47.0199C21.2426 47.1324 21.2426 47.2261 21.0371 47.2261H20.9998V47.5636ZM22.0271 45.5951C22.1392 45.5951 22.2513 45.5951 22.326 45.6513C22.4194 45.7076 22.4755 45.7825 22.4755 45.9325C22.4755 45.9888 22.4568 46.0825 22.4007 46.1575C22.3447 46.2325 22.2513 46.2887 22.0832 46.2887H21.8964V45.6138L22.0271 45.5951Z" fill="#FEEE03"/>
<path fill-rule="evenodd" clip-rule="evenodd" d="M19.4493 47.5636H20.5888V47.2448H20.5514C20.4767 47.2448 20.4394 47.2261 20.402 47.1886C20.3646 47.1511 20.346 47.0949 20.346 47.0199V45.7075C20.346 45.6325 20.3646 45.5763 20.402 45.5388C20.4394 45.5013 20.4954 45.4825 20.5514 45.4825H20.5888V45.1638H19.4493V45.4825H19.4867C19.6922 45.4825 19.6922 45.595 19.6922 45.7075V47.0199C19.6922 47.1324 19.6922 47.2448 19.4867 47.2448H19.4493V47.5636Z" fill="#FEEE03"/>
<path fill-rule="evenodd" clip-rule="evenodd" d="M16.9836 47.5635H18.0296C18.2538 47.5635 18.5527 47.5635 18.8142 47.4697C19.057 47.376 19.2438 47.2072 19.2438 46.8885C19.2438 46.776 19.2438 46.5886 19.1131 46.4198C19.001 46.2511 18.7582 46.1199 18.2912 46.1199H17.8802V45.7449C17.8802 45.6324 17.8802 45.5387 18.0857 45.5387H18.1604V45.22H16.9836V45.5387H17.0209C17.1143 45.5387 17.1704 45.5762 17.1891 45.6137C17.2264 45.6512 17.2264 45.7074 17.2264 45.7449V47.076C17.2264 47.1885 17.2264 47.2822 17.0209 47.2822H16.9836V47.5635ZM18.011 46.4948H18.123C18.2538 46.4948 18.3659 46.5136 18.4219 46.5698C18.4966 46.6261 18.534 46.7198 18.534 46.8323C18.534 47.001 18.4593 47.076 18.3659 47.1323C18.2912 47.1698 18.1978 47.1698 18.1417 47.1698H17.8989V46.4761H18.011V46.4948Z" fill="#FEEE03"/>
<path fill-rule="evenodd" clip-rule="evenodd" d="M15.1904 46.5699C15.3772 46.5699 15.6947 46.5886 15.8068 46.7198C15.8629 46.7948 15.8815 46.8698 15.8815 46.9073C15.8815 47.0386 15.8068 47.1323 15.7134 47.1885C15.6387 47.226 15.5079 47.226 15.4893 47.226C15.0783 47.226 14.7607 46.8323 14.686 46.7198L14.3498 46.9448C14.4245 47.0761 14.4619 47.1136 14.6113 47.2823C14.7794 47.4885 15.0596 47.6385 15.5827 47.6385C15.9376 47.6385 16.1991 47.5635 16.3672 47.4323C16.554 47.301 16.6474 47.1323 16.6474 46.9261C16.6474 46.7573 16.5914 46.6449 16.5166 46.5699C16.3485 46.3824 16.2178 46.3824 16.087 46.3449C16.2364 46.3074 16.3672 46.1949 16.4793 46.0824C16.554 46.0074 16.5914 45.8762 16.5914 45.745C16.5914 45.595 16.5353 45.4075 16.3485 45.295C16.1991 45.2013 15.9562 45.145 15.5827 45.145C15.3025 45.145 15.097 45.2763 15.0409 45.3325C15.0223 45.3325 15.0036 45.3512 15.0036 45.295L14.7047 45.2575L14.4619 46.1574L14.8168 46.2324C14.8915 45.9699 15.1157 45.595 15.5079 45.595C15.6947 45.595 15.8629 45.6887 15.8629 45.9137C15.8629 46.0449 15.7881 46.1199 15.7134 46.1762C15.6387 46.2137 15.2838 46.2137 15.2277 46.2137H15.1904V46.6074V46.5699Z" fill="#FEEE03"/>
<path fill-rule="evenodd" clip-rule="evenodd" d="M11.9027 46.9825C11.8653 47.0762 11.8467 47.1325 11.8093 47.1887C11.7719 47.2449 11.7159 47.2637 11.6225 47.2637V47.5824H12.4257V47.2637C12.3136 47.2449 12.2763 47.1887 12.2763 47.1137C12.2763 47.095 12.2763 47.0762 12.2763 47.0575V47.02L12.295 46.9637H13.1916L13.2103 47.0012C13.2476 47.0762 13.2476 47.1137 13.2476 47.1325C13.2476 47.1699 13.229 47.2074 13.1916 47.2449C13.1729 47.2637 13.1356 47.2637 13.0795 47.2637H13.0608V47.5824H14.1256V47.2637C13.9575 47.2637 13.9201 47.1512 13.8827 47.02V47.0012L13.3597 45.2014H12.5191L11.9027 46.9825ZM12.762 45.6889H12.8367L12.8554 45.7451L13.0608 46.4388L13.0795 46.5325H12.4257L12.4631 46.4388L12.7059 45.7451V45.6889H12.762Z" fill="#FEEE03"/>
<path fill-rule="evenodd" clip-rule="evenodd" d="M8.26019 45.1826V45.5013H8.29755C8.39095 45.5013 8.44699 45.5388 8.48435 45.5763C8.52171 45.6138 8.52171 45.6701 8.52171 45.7076V47.0199C8.52171 47.1324 8.52171 47.2449 8.31623 47.2449H8.27887V47.5636H9.0821V47.2449C8.9887 47.2449 8.93266 47.2074 8.8953 47.1699C8.87662 47.1324 8.87662 47.0762 8.87662 47.0387V45.82L9.66117 47.4511L10.3897 45.8013V47.0199C10.3897 47.1324 10.3897 47.2449 10.1842 47.2449V47.5636H11.2863V47.2449H11.249C11.0435 47.2449 11.0435 47.1324 11.0435 47.0387V45.7263C11.0435 45.6138 11.0435 45.5201 11.249 45.5201H11.2863V45.2014H10.2589L9.75457 46.3262L9.25022 45.2014H8.26019V45.1826Z" fill="#FEEE03"/>
<path fill-rule="evenodd" clip-rule="evenodd" d="M17.8616 24.4848C17.8429 23.8849 17.4319 23.1912 17.3572 22.6288C17.2638 22.1038 17.3199 21.9351 17.3946 21.7101C17.488 21.3914 17.6187 21.1102 17.7682 20.754C17.9176 20.3415 17.9176 20.229 17.8429 19.9103C17.5067 19.7228 17.1517 20.3228 16.9649 20.3228C16.5353 20.3228 15.7508 19.4791 14.2003 20.604C13.2663 20.8477 12.5565 21.8039 13.1543 22.8725C13.285 22.685 13.3037 22.61 13.4718 22.535C13.6399 22.91 13.8267 22.985 14.2564 23.2287C14.3311 23.4537 13.8081 24.2036 13.8641 24.5223C14.0135 24.3911 14.1069 24.5036 14.1256 24.5598C14.0883 24.7098 13.7333 24.8973 13.3597 25.591C13.2103 25.591 12.762 25.6284 12.8554 25.366C13.2477 23.9411 13.1729 23.9224 12.1269 23.1912C11.884 22.985 10.5951 22.1413 10.4644 21.7664C10.4083 21.9164 10.371 22.0476 10.3523 22.2538C9.54907 21.5976 8.01733 18.8042 7.84921 18.1855C7.64374 18.5792 7.51298 18.8979 7.51298 19.2354C6.65371 18.6917 4.48686 14.8109 4.22534 13.7985C3.79571 16.0107 4.56158 17.8668 4.86045 18.373C4.67365 18.3167 3.8891 17.2294 3.70231 17.1169C3.51551 18.7667 4.56158 20.6227 4.82309 20.9977C4.59894 20.979 3.66495 20.3603 3.47815 20.2478C3.60891 21.0164 4.52422 23.0037 5.23405 23.8099C4.86045 23.8286 4.56158 23.8099 3.8891 23.7724C4.03854 24.1286 4.91649 25.216 5.86916 26.0597C5.49556 26.1909 5.08461 26.1159 4.74837 26.0971C5.53292 27.822 7.81185 28.8343 8.01733 28.8718C7.84921 29.1156 7.27014 29.1906 6.91523 29.2281C7.2141 29.9967 8.5964 30.2592 8.72716 30.3154C8.63376 30.6154 8.33489 30.6716 8.05469 30.8966C8.31621 31.0091 9.75455 31.3278 10.2215 31.2528C10.2402 31.4028 10.1655 31.5341 9.97871 31.759C10.1655 31.9653 10.7446 32.0777 11.0435 32.059C11.0061 32.209 10.9127 32.2277 10.7259 32.3215C11.1929 33.0339 12.9301 32.6964 13.0982 33.6526C13.1169 33.8588 13.0982 33.8963 13.1169 34.0088C13.0422 33.99 12.7994 33.6338 12.706 33.5588C11.7906 32.7714 10.2963 33.2964 10.2963 34.9462L10.3897 36.6897C10.3897 37.2522 10.3149 38.1896 10.4083 38.602C10.5578 38.3958 10.5765 38.3583 10.8006 38.3208C10.838 39.0145 10.838 39.7457 10.6138 39.7644C10.371 39.8207 10.2776 39.8207 9.71719 39.9706C9.30624 40.0831 8.93264 40.3643 8.65244 40.7018C8.20413 41.2642 8.07337 42.0329 8.6898 42.5766C8.95132 42.8016 9.0634 42.8578 9.39963 42.9891C9.71719 43.1203 10.9127 43.3265 11.305 43.2703C11.1182 42.9141 10.4644 41.8829 10.8193 41.6017C10.9314 41.5267 11.1369 41.508 11.2676 41.5642C11.6412 41.7517 11.4544 42.7266 11.6599 42.8578C12.1269 42.5391 12.6126 42.0517 12.6499 41.5267C12.6873 40.6268 12.6686 39.7644 12.9861 39.202C13.0609 39.0707 13.285 39.3145 13.4158 39.2582C13.4345 39.5207 12.9675 40.5331 12.8741 41.9017L12.8367 42.3329L13.5652 41.9579L13.4905 42.2016C13.7147 42.2016 13.8267 42.1829 14.1443 42.0329C14.2564 42.2579 14.4805 43.064 14.6486 43.2328C14.7047 43.0078 14.686 42.8391 14.7981 42.6891C14.9288 42.7641 15.2651 43.6077 15.4519 43.964C15.62 43.6452 15.8628 42.8953 16.143 42.6703C16.3485 42.7828 16.4419 42.8578 16.4979 43.1015C16.8342 42.6891 16.9276 42.3329 16.9836 42.0142C17.0957 42.1454 17.1517 42.2016 17.2265 42.4454C17.4319 42.2391 17.5253 41.9954 17.4319 41.7704C17.6561 41.8079 18.0857 42.4079 18.2912 42.4641C18.1791 40.8143 17.9923 40.2706 17.7682 39.1832C17.9363 39.4269 18.1044 38.8083 18.1604 38.9207C18.6835 39.9519 18.1418 41.3767 18.945 42.2954C19.0197 42.4079 19.3373 42.7641 19.4307 42.8203C19.7295 42.4454 19.6922 42.4266 19.7482 41.9392C19.7856 41.5455 20.0471 41.4142 20.3273 41.6392C20.5515 42.0704 20.2339 42.7078 19.7856 43.2515C20.1405 43.2515 21.4668 43.064 21.7843 42.9516C22.27 42.7641 22.6996 42.3516 22.793 41.8642C22.9051 41.1893 22.5689 40.6831 22.27 40.4018C21.6349 39.8394 20.7383 39.8956 20.6262 39.8581C20.2713 39.9144 20.4394 38.527 20.4581 38.1896C20.6449 38.2646 20.813 38.4521 20.869 38.6208C21.0184 38.1521 20.9437 37.3834 20.9064 36.6335C20.869 35.9773 20.8877 35.3211 20.8877 34.8524C20.8877 33.2776 19.4493 32.6214 18.4033 33.5588C18.3099 33.6526 18.1978 33.8776 18.1044 33.9338C18.1231 33.7838 18.0857 33.7838 18.1231 33.5401C18.2725 33.3151 18.3659 33.2026 18.4033 33.0339H18.6088C19.2065 32.7527 20.1779 32.7902 20.4954 32.284C20.3086 32.1902 20.2339 32.1715 20.1779 32.0215C20.4767 32.0403 21.0558 31.9278 21.2426 31.7215C21.0558 31.4966 20.9811 31.3841 20.9998 31.2153C21.4668 31.3091 22.9051 30.9904 23.1666 30.8591C22.8864 30.6342 22.5875 30.5779 22.4941 30.2779C22.6249 30.2217 24.0072 29.9405 24.3061 29.1906C23.9512 29.1531 23.3534 29.0781 23.204 28.8343C23.4281 28.7969 25.6884 27.7845 26.4729 26.0597C26.118 26.0784 25.7257 26.1534 25.3522 26.0222C26.3048 25.1785 27.1828 24.0911 27.3322 23.7349C26.6597 23.7724 26.3422 23.7911 25.9873 23.7724C26.6971 22.9662 27.6311 20.979 27.7432 20.2103C27.5377 20.3228 26.6224 20.9415 26.3982 20.9602C26.6597 20.5852 27.7245 18.7292 27.519 17.0794C27.3322 17.1919 26.5663 18.2792 26.3609 18.3355C26.6597 17.848 27.4256 15.9732 26.996 13.761C26.7345 14.7734 24.5676 18.6542 23.7083 19.1979C23.7083 18.8604 23.5776 18.523 23.3721 18.148C23.204 18.7667 21.6722 21.5601 20.869 22.2163C20.8503 21.9913 20.813 21.8789 20.7569 21.7289C20.6262 22.1226 19.3373 22.9662 19.0944 23.1537C18.0484 23.8849 17.9736 23.8849 18.3659 25.3285C18.4406 25.516 18.1978 25.5535 18.011 25.5535V25.3472C17.8616 24.9348 17.7495 24.766 17.5253 24.4286C17.6187 24.3536 17.7121 24.4098 17.8616 24.4848Z" fill="#FDEE05"/>
<path fill-rule="evenodd" clip-rule="evenodd" d="M16.9089 34.8524C16.8902 34.5899 16.8342 34.0838 16.5166 33.9338C16.3298 34.2525 16.1244 34.7399 15.676 35.1149C15.2838 34.9087 15.097 34.1025 14.8541 33.9713C14.4619 34.2525 14.4805 34.4212 14.4058 34.7024C14.1443 34.3087 13.7707 34.0275 13.5092 33.8963C13.6026 34.1212 13.5652 34.3462 13.5092 34.6087C13.5839 34.9649 14.0322 35.7523 14.1069 36.1085C14.2564 36.8959 14.63 37.1209 14.6673 37.4959C14.4805 37.2522 14.3871 37.5334 14.3124 37.6646C14.0135 38.1708 13.1169 41.2455 13.229 41.8079C13.4532 41.5454 13.752 41.3205 13.9762 41.3392V41.8829C14.163 41.7329 14.163 41.7329 14.4245 41.6392C14.3685 41.7704 14.4058 42.3141 14.5739 42.6516C14.63 42.3141 14.7234 42.2579 14.8728 42.0516C14.9849 42.2204 15.1904 42.7453 15.5266 43.2515C15.7134 42.8391 16.1804 42.2954 16.1991 42.0329C16.3112 42.1266 16.4232 42.3704 16.554 42.6516C16.7408 42.3704 16.7968 41.9766 16.8155 41.6767C16.9089 41.6017 17.077 41.9017 17.2451 41.9017C17.1891 41.6954 17.2265 41.4892 17.2078 41.2642C17.5067 41.3392 17.7495 41.6392 18.0671 41.8267C17.9176 40.9268 17.5814 39.4457 17.3199 38.677C17.2265 38.3958 17.0957 37.8896 16.965 37.6834C16.8716 37.4959 16.965 37.1584 16.7034 37.5521C16.7034 37.4396 16.8529 37.0647 17.077 36.7835C17.1144 36.2585 17.6561 35.0586 17.8616 34.4775C17.7121 34.3275 17.8429 33.99 17.8616 33.7275C17.6935 33.8963 17.2451 34.365 16.9089 34.8524Z" fill="black"/>
<path fill-rule="evenodd" clip-rule="evenodd" d="M11.0808 24.0348C10.7632 24.2598 10.1094 24.0911 9.88529 24.0161C9.82925 24.2223 10.2589 25.2722 10.838 25.6097C10.6138 25.8159 10.3336 25.8534 10.1655 25.9096C10.2962 26.0596 10.371 26.3033 10.95 26.3971C10.9314 26.6033 10.894 27.0158 10.5764 27.297C11.0248 27.4845 11.3797 27.4657 11.4917 27.447C11.4731 27.6719 11.361 27.9532 11.1929 28.1031C11.5104 28.3281 12.0708 28.4781 12.5565 28.2719C13.0235 28.0656 12.9674 28.5156 12.7246 28.8718C12.9674 29.0405 13.752 28.8531 14.2937 28.5718C14.3124 28.6281 14.2937 29.1343 14.1443 29.3593C14.4618 29.3593 14.5365 29.0405 14.6113 29.1155C14.8541 29.378 15.209 29.8842 15.9562 30.1092C16.1057 29.9404 16.2177 29.6217 16.61 29.1155C16.8155 29.1718 16.8902 29.3218 17.6 29.4905C17.6934 29.1905 17.7681 28.9843 17.6934 28.6281C18.1231 28.7218 18.3285 29.0218 18.7021 28.9843C18.6087 28.7968 18.3659 28.4219 18.5527 28.2156C19.0384 28.4406 19.8229 28.3469 20.1592 28.1219C19.991 27.9719 19.879 27.6907 19.8603 27.4657C19.9724 27.4845 20.3273 27.5032 20.7756 27.3157C20.458 27.0345 20.4207 26.6221 20.402 26.4158C20.9624 26.3221 21.0558 26.0784 21.1865 25.9284C20.9998 25.8721 20.7382 25.8346 20.5141 25.6284C21.0931 25.2909 21.5228 24.2411 21.4667 24.0348C21.2239 24.1098 20.5888 24.2598 20.2712 24.0536C20.5888 23.7911 20.9064 23.1537 20.7382 22.385C20.3646 22.9474 18.7208 23.5661 18.5901 24.466C18.5527 24.6723 18.8703 25.2534 18.7208 25.6284C18.7021 25.8534 18.3285 25.8534 18.2165 25.9471C18.4406 26.2096 18.6274 26.3971 18.6274 26.997C18.4967 26.9033 18.1604 26.7345 17.8429 26.847C17.488 27.2032 17.8429 27.9907 17.8429 27.9907C17.2264 28.1969 16.5913 27.6907 16.4232 27.372C16.2177 27.6719 15.9375 28.3469 15.9189 28.8718C15.4892 28.8718 14.7794 27.8219 14.6113 27.5032C14.4805 27.7282 14.0696 28.0844 13.5465 28.0094C14.0135 27.222 13.6026 26.7533 13.229 26.8283C12.9861 26.9408 12.8367 26.997 12.7433 26.997C12.7433 26.3971 12.9861 26.3221 13.1542 25.9471C13.0422 25.8346 12.6873 25.8534 12.6499 25.6284C12.5005 25.2534 12.818 24.6723 12.7807 24.466C12.6499 23.5661 11.0061 22.9474 10.6325 22.385C10.4644 23.1349 10.7819 23.7911 11.0808 24.0348Z" fill="black"/>
<path fill-rule="evenodd" clip-rule="evenodd" d="M10.9687 40.1207C10.5018 40.177 9.86664 40.2332 9.51172 40.4207C9.17549 40.6082 8.80189 40.9644 8.70849 41.3956C8.48434 42.5017 9.69852 42.9704 10.5951 43.0454C10.427 42.7455 9.15681 42.1455 9.69852 41.4331C9.92268 41.6018 9.86664 42.408 10.8193 42.783C9.92268 41.1894 11.2303 41.0769 11.6412 41.6206C11.8467 41.8831 11.7159 42.2768 11.828 42.5205C12.1082 42.4455 12.5005 41.7331 12.4631 41.3206C12.3324 40.2145 12.5565 39.1271 13.0048 38.6397C13.173 38.4709 13.2664 38.5084 13.3598 38.9209C13.6213 38.6772 13.9762 37.571 14.0696 37.4023C14.0322 37.3086 13.9575 37.1398 13.8828 37.0836C13.8267 37.1023 13.5839 37.0086 13.4345 36.9336C13.285 37.0273 13.2664 37.8522 13.2103 37.8897C13.0048 37.721 12.9862 37.4585 12.8741 37.2898C12.8554 37.4773 12.7807 38.5272 12.706 38.6772C12.7433 38.3209 12.4631 37.9272 12.351 37.8335C12.3137 37.8897 12.1829 38.4897 12.2203 38.6209C12.0895 38.3584 11.8841 38.2834 11.7907 38.171C11.6973 38.3022 11.6786 38.4709 11.5291 38.7521C11.2489 38.4709 11.3797 38.5272 11.0808 38.3772C11.0621 38.5647 11.1742 40.0645 10.9687 40.1207Z" fill="black"/>
<path fill-rule="evenodd" clip-rule="evenodd" d="M13.229 22.4413C13.9575 21.3164 14.7794 21.9351 14.7607 22.4038C14.2937 22.6287 13.9575 22.4038 13.7147 22.3663C13.7147 22.8725 14.5553 22.985 14.5739 23.0974C14.5553 23.2849 14.2564 24.0348 14.2377 24.2036C14.4805 23.9036 14.4432 24.1098 14.5179 24.2598C14.5739 24.3723 14.5926 24.6348 14.686 24.6723C14.7981 24.5035 14.8168 24.3161 15.097 24.0723C15.3024 24.1848 15.5453 24.5035 15.62 24.691C15.8068 24.6348 16.0496 24.3348 16.1244 24.1098C16.4606 24.1473 16.554 24.3348 16.7221 24.5785C16.8715 24.4098 16.8902 24.3536 16.9649 24.0911C17.2451 24.1473 17.3946 24.0911 17.488 24.1848C17.4319 23.7349 17.3199 23.3412 17.1891 23.0037C17.1144 22.8162 16.9649 22.7412 16.9649 22.4975C16.9649 21.3914 17.7121 20.9602 17.6187 20.229C17.3012 20.2852 17.2638 20.5477 16.9463 20.604C16.5353 20.6602 15.8442 20.0228 14.8168 20.5665C14.5926 20.679 14.4805 20.7539 14.2564 20.8852C13.9201 20.9414 12.9488 21.4664 13.229 22.4413Z" fill="black"/>
<path fill-rule="evenodd" clip-rule="evenodd" d="M10.6511 36.0149C10.7632 36.2399 10.95 36.3337 11.1555 36.3712C11.1181 36.0899 11.1742 35.415 11.3236 35.2275C11.3797 35.3775 11.5851 35.8275 11.7159 36.2024C11.7906 35.9775 12.0895 35.4525 12.4257 35.34C12.5938 35.4713 12.5004 35.9587 12.3884 36.1274C12.2763 35.9962 12.4818 35.6587 12.2576 35.6025C12.0334 35.79 11.7906 36.3149 11.8093 36.6149C11.5478 36.4462 11.417 35.8275 11.3049 35.6775C11.2676 35.8462 11.3236 36.6336 11.3797 36.7649C11.0808 36.5774 10.8753 36.4462 10.6698 36.2212C10.6698 36.4649 10.5577 37.8148 10.6325 38.0585C10.6885 37.946 10.7072 37.9085 10.8379 37.7773C10.9874 37.8897 11.1368 38.2085 11.4731 38.3772C11.6412 38.2085 11.6412 37.8335 11.7159 37.7585C11.8093 37.8335 12.0521 37.9085 12.1268 38.0772C12.1642 37.946 12.1082 37.5148 12.295 37.2898C12.3697 37.4023 12.4444 37.5898 12.6312 37.8335C12.7433 37.571 12.762 37.2148 12.818 36.9523C12.9301 37.0648 13.0235 37.2148 13.1729 37.2898C13.229 36.9336 13.3037 36.7836 13.3597 36.6899C13.4157 36.8024 13.808 36.8399 13.8827 36.8961C13.8267 36.5399 13.341 35.0588 13.1729 34.7213C12.9674 34.2526 12.7993 33.8964 12.407 33.6715C11.94 33.409 11.3236 33.484 11.0061 33.7839C10.6511 34.1402 10.5764 34.5526 10.5951 35.19C10.5951 35.8087 10.6325 35.415 10.6511 36.0149Z" fill="black"/>
<path fill-rule="evenodd" clip-rule="evenodd" d="M16.4793 26.0221C16.3485 26.3221 15.7881 26.8845 15.3958 26.8845C15.3024 26.5096 15.097 26.1721 14.9288 26.0221C14.8728 26.0596 14.5366 26.3971 14.2377 26.5846C14.163 26.1346 14.0509 25.6847 13.696 25.6284C13.6399 25.8159 13.0609 26.2284 13.0795 26.6783C13.8267 26.4346 13.9575 27.1095 13.9015 27.7094C14.0883 27.6157 14.3498 27.5032 14.6673 27.0908C14.8354 27.4657 15.1717 28.1406 15.7508 28.4219C15.7321 28.1594 16.2364 27.2032 16.4232 27.0158C16.6474 27.4282 16.9649 27.8032 17.4693 27.7657C17.3946 27.4095 17.4693 26.9783 17.6187 26.772C17.8802 26.5658 18.1604 26.6783 18.3286 26.6783C18.0484 26.0034 17.9736 26.0221 17.7682 25.6847C17.488 25.8159 17.0957 25.9659 16.8529 26.8095C16.9089 26.6408 16.6287 26.0971 16.4793 26.0221Z" fill="black"/>
<path fill-rule="evenodd" clip-rule="evenodd" d="M13.752 25.4784C13.9201 25.4409 14.275 25.8534 14.3498 26.2846C14.4805 26.1721 14.6673 25.8721 15.0036 25.6284C15.1717 25.7784 15.3772 26.1721 15.5266 26.6033C15.9375 26.4158 16.2551 25.6659 16.2551 25.5346C16.6474 25.7034 16.7968 25.9658 16.8902 26.2846C17.133 25.8159 17.3759 25.6096 17.6748 25.4221C17.7495 25.0847 17.2451 24.3723 17.0583 24.3535C17.021 24.6347 16.8342 24.9909 16.7408 25.0284C16.6474 24.8035 16.4606 24.5785 16.2364 24.4473C16.1617 24.6347 15.8441 25.0097 15.564 25.1409C15.4892 24.8785 15.3211 24.5222 15.0783 24.3535C14.9475 24.5035 14.7234 24.8597 14.63 25.1972C14.5739 24.9535 14.4618 24.6722 14.2564 24.5972C14.1069 25.1597 13.7894 25.2347 13.752 25.4784Z" fill="black"/>
<path fill-rule="evenodd" clip-rule="evenodd" d="M14.9289 36.3336C14.8915 36.0149 14.7794 35.7149 14.9102 35.3399C14.9662 35.5462 15.3772 36.3336 15.6387 36.4648C15.8442 36.3336 16.1617 35.9774 16.2925 35.7336C16.3859 35.9024 16.3298 36.0711 16.2551 36.2961C16.7034 36.1836 17.3572 35.3024 17.3946 34.8337C17.1704 35.2087 16.6661 35.6774 16.4793 35.7524C16.5727 35.5087 16.61 34.965 16.4606 34.7962C16.3112 35.2087 16.031 35.7524 15.6387 35.9399C15.4519 35.7711 14.8915 35.1712 14.7981 34.74C14.5739 35.2087 14.686 35.3399 14.6487 35.5649C14.3871 35.4337 14.3871 35.3587 14.0509 35.0212C14.2377 35.6024 14.7421 36.2211 14.9289 36.3336Z" fill="#FDEE05"/>
<path fill-rule="evenodd" clip-rule="evenodd" d="M15.0596 40.1768L14.7981 39.6519C14.6673 39.7269 14.0883 40.4955 14.0696 40.5705C14.3685 40.3268 14.2751 40.3081 14.7047 40.1018L15.0409 40.7393C15.209 40.6268 15.3772 40.0456 15.5453 39.8769C15.6947 39.9706 16.031 40.608 16.1804 40.7393C16.3112 40.5893 16.2925 40.1581 16.4419 40.0456C16.6661 40.4206 16.9276 40.5143 17.1704 40.7393C16.8155 40.1768 16.7221 40.1581 16.4979 39.6144C16.3485 39.7081 16.3112 39.9519 16.143 40.1581L15.8815 39.8394C15.8068 39.7269 15.6013 39.5581 15.4892 39.4832C15.3211 39.7269 15.097 39.9519 15.0596 40.1768Z" fill="#FDEE05"/>
<path fill-rule="evenodd" clip-rule="evenodd" d="M15.0596 20.904C14.163 21.1664 14.8355 21.6539 15.3772 21.6914C15.4706 21.5976 16.0496 21.2602 16.0496 21.0727C16.087 20.9414 15.3211 20.829 15.0596 20.904Z" fill="#E7D908"/>
<path fill-rule="evenodd" clip-rule="evenodd" d="M15.8068 21.1852C15.8068 21.2602 15.5266 21.3352 15.3771 21.4852C15.2277 21.4664 15.097 21.3539 15.0409 21.2789C15.0222 21.2602 15.0036 21.2414 15.0036 21.2227C14.9102 21.0914 15.6947 20.9977 15.8068 21.1852Z" fill="black"/>
<path fill-rule="evenodd" clip-rule="evenodd" d="M20.2339 40.1207C20.7009 40.1769 21.336 40.2332 21.6909 40.4206C22.0271 40.6081 22.4007 40.9643 22.4941 41.3955C22.7183 42.5017 21.5041 42.9704 20.6075 43.0454C20.7756 42.7454 22.0458 42.1455 21.5041 41.433C21.28 41.6018 21.336 42.4079 20.3833 42.7829C21.28 41.1893 19.9724 41.0768 19.5614 41.6205C19.3559 41.883 19.4867 42.2767 19.3746 42.5204C19.0944 42.4454 18.7022 41.733 18.7395 41.3206C18.8703 40.2144 18.6088 39.3895 18.4033 38.8083C18.3472 38.6583 18.2165 38.5459 18.0857 38.5833C17.9923 38.6208 17.8989 38.7146 17.8429 38.9208C17.5814 38.6771 17.2451 37.5522 17.1517 37.3835C17.1891 37.2897 17.3012 37.0835 17.3759 37.0273C17.5253 37.0085 17.7121 36.8398 17.7495 36.7273C17.8989 36.821 17.955 37.3272 18.1231 37.5522C18.2165 37.3085 18.2538 37.1585 18.4406 37.0648C18.4593 37.2522 18.7022 38.0022 18.7769 38.1521C19.0757 37.5522 19.0944 37.1772 19.2252 37.046C19.468 37.4022 19.6548 38.0584 19.8977 38.5084C20.0097 38.3021 19.9911 37.8709 20.1965 37.7397C20.4394 38.1709 20.0284 40.0644 20.2339 40.1207Z" fill="black"/>
<path fill-rule="evenodd" clip-rule="evenodd" d="M20.6075 35.8085C20.5702 36.071 20.3086 36.1085 20.1592 36.3709C20.1032 35.9772 19.9911 35.6398 19.8416 35.471C19.5988 35.6585 19.5054 35.7523 19.3933 35.996C19.3186 35.771 18.9263 35.4898 18.7209 35.1336C18.5154 35.4148 18.478 35.7335 18.6461 35.9585C18.6835 35.6585 18.7209 35.471 18.7956 35.4523C19.0571 35.7523 19.1879 36.071 19.3373 36.4647C19.5801 36.071 19.6362 35.8085 19.7856 35.6773C19.9911 35.771 19.9537 36.6709 20.1592 36.7646C20.3086 36.4084 20.3834 36.2959 20.5888 36.071C20.5888 36.3147 20.7756 37.8895 20.7009 38.1332C20.6449 37.8708 20.3273 37.5521 20.1966 37.4396C20.0471 37.5521 19.9164 37.7395 19.823 38.0395C19.6922 37.9083 19.5801 37.0646 19.2065 36.8209C19.1318 36.9334 18.889 37.3646 18.7956 37.6458C18.6275 37.4208 18.478 36.9146 18.4407 36.6522C18.3099 36.7646 18.2165 36.7459 18.1231 37.0834C17.955 36.8209 17.8055 36.4459 17.7495 36.3522C17.6001 36.4647 17.544 36.7272 17.3759 36.8209C17.432 36.4647 17.8616 35.0773 18.011 34.7399C18.2165 34.2712 18.3846 33.915 18.7769 33.69C19.2439 33.4275 19.9537 33.5213 20.2526 33.84C20.7196 34.4587 20.7383 35.0586 20.6075 35.8085Z" fill="black"/>
<path fill-rule="evenodd" clip-rule="evenodd" d="M27.1641 18.0542C27.0147 19.1041 26.3235 20.9414 25.9686 21.4101C26.3982 21.4475 26.8279 21.1663 27.1267 20.9788C26.9213 22.0662 26.0059 23.5473 25.5763 23.9973C25.9499 24.1285 26.4543 24.0723 26.7345 24.091C26.6784 24.2972 25.3895 25.8908 24.9038 26.2095C25.184 26.3595 25.6697 26.4345 25.9499 26.4158C25.539 27.3906 23.7457 28.5155 22.9051 28.8717C23.1479 29.2654 23.3908 29.3029 23.8578 29.4529C23.5215 29.9029 22.5315 30.2403 22.0645 30.2216C22.1206 30.4091 22.326 30.6903 22.6249 30.8403C22.0832 31.0278 21.1866 31.1402 20.7756 31.159C20.7383 31.3465 20.8503 31.5339 20.9437 31.7589C20.5515 31.9089 20.1218 31.7964 19.935 31.7964C19.9537 32.0589 20.0097 32.1526 20.0658 32.2839C19.3933 32.7338 18.5901 32.6963 18.3286 32.9025C18.2725 32.9588 18.1978 33.015 18.1231 33.09H18.1044C18.0297 33.2025 17.8989 33.3525 17.6935 33.5212C17.5067 33.7087 17.3385 34.0462 17.021 34.2149C16.9463 33.9712 16.8155 33.7275 16.554 33.5775C16.3112 33.9149 16.0683 34.3649 15.6574 34.6649C15.5079 34.2711 15.097 33.765 14.8168 33.5587C14.6487 33.6525 14.3871 33.7462 14.3498 34.0274C13.9201 33.7275 13.5466 33.69 13.4345 33.5025C13.3411 33.1275 13.1356 32.9775 13.0048 32.8651C12.7433 32.6588 11.9401 32.6963 11.2676 32.2464C11.3237 32.1151 11.361 32.0026 11.3984 31.7589C11.1929 31.7589 10.7633 31.8714 10.3897 31.7214C10.4831 31.4964 10.5765 31.309 10.5578 31.1215C10.1655 31.1027 9.26889 30.9903 8.70849 30.8028C9.02605 30.6528 9.23153 30.3528 9.26889 30.1841C8.80189 30.1841 7.81186 29.8466 7.47563 29.4154C7.94262 29.2654 8.18546 29.2279 8.4283 28.8342C7.58771 28.4968 5.79445 27.3532 5.3835 26.3783C5.64501 26.397 6.13069 26.322 6.42956 26.172C5.92521 25.8533 4.63631 24.2597 4.59895 24.0535C4.86046 24.0348 5.36482 24.1098 5.75709 23.9598C5.34614 23.5098 4.43083 22.0287 4.20667 20.9414C4.50555 21.1288 4.93518 21.3913 5.36482 21.3726C5.0099 20.9039 4.31875 19.0666 4.16931 18.0167C4.48687 18.3916 5.06594 19.1415 5.98125 19.7602C5.86917 19.2915 4.63631 17.8667 4.50555 15.0732C5.27142 16.9855 7.02731 19.179 7.53167 19.5915C7.55035 19.6477 7.73715 21.3163 8.35358 22.0475C8.03602 22.085 7.60639 21.8975 7.28883 21.7663C7.23279 22.2162 7.79318 23.4536 8.1481 23.8473C7.88658 23.866 7.60639 23.8285 7.30751 23.7348C7.27015 24.3347 8.03602 25.2721 8.31622 25.5159C8.16678 25.6283 7.83054 25.6096 7.49431 25.6471C7.64375 26.1345 8.50302 26.9407 9.04473 27.0532C8.91397 27.2407 8.50302 27.4281 8.20414 27.4469C8.39094 28.1406 9.21285 28.6468 9.77324 28.8155C9.6238 28.928 9.66116 28.8905 9.41832 28.9467C9.5304 29.3217 10.315 29.6966 11.1555 29.8841C11.0061 29.9591 10.8567 30.2028 10.6138 30.2966C11.1929 30.6528 11.9214 30.709 12.4818 30.6903C12.4631 30.8778 12.351 31.009 12.2016 31.1215C12.5752 31.3465 13.4345 31.3277 13.6773 31.234C13.6586 31.384 13.6213 31.4402 13.3784 31.6277C13.6026 31.7214 14.4805 31.7589 14.7421 31.6652C14.9849 31.8714 15.3958 32.1714 15.4519 32.6588C16.1057 32.6588 16.2364 31.7589 16.5727 31.7214C16.8902 31.8714 16.8902 31.8902 17.1331 32.1526C17.3385 31.9277 17.6001 31.6652 17.6001 31.309C18.0857 31.4027 18.6835 31.4215 19.1692 31.1215C19.0197 31.009 18.9076 30.8778 18.889 30.6903C19.468 30.709 20.1965 30.6715 20.7569 30.2966C20.5141 30.2028 20.3647 29.9779 20.2152 29.8841C21.0558 29.6966 21.8404 29.3217 21.9524 28.9467C21.7096 28.8905 21.747 28.928 21.5975 28.8155C22.1392 28.628 22.9798 28.1406 23.1666 27.4469C22.8491 27.4094 22.4381 27.2219 22.326 27.0532C22.8678 26.9407 23.727 26.1345 23.8765 25.6471C23.5402 25.6096 23.204 25.6283 23.0545 25.5159C23.3347 25.2534 24.1006 24.316 24.0633 23.7348C23.7644 23.8285 23.4842 23.8473 23.2227 23.8473C23.5776 23.4723 24.138 22.2162 24.0819 21.7663C23.7457 21.8975 23.3161 22.1037 23.0172 22.0475C23.6336 21.3163 23.8204 19.629 23.8391 19.5915C24.3435 19.179 26.0993 16.9855 26.8652 15.0732C26.7345 17.8667 25.5016 19.2915 25.3895 19.7602C26.2675 19.179 26.8465 18.4291 27.1641 18.0542Z" fill="black"/>
<path fill-rule="evenodd" clip-rule="evenodd" d="M22.5502 22.3663C22.9611 22.4601 23.204 22.3663 23.5402 22.3288C23.5589 22.9475 22.8304 24.0349 22.5689 24.2786C22.9424 24.3349 23.316 24.3349 23.6149 24.2411C23.5402 24.7661 22.8304 25.5347 22.4007 25.666C22.5128 25.7972 23.0358 25.9847 23.316 25.9847C23.1292 26.4909 22.3821 26.9221 21.859 27.1471C22.0085 27.3158 22.0645 27.447 22.6996 27.6345C22.3821 28.3844 21.4854 28.6656 21.0558 28.7594C21.0745 28.9469 21.3733 29.0031 21.5788 29.1156C21.4107 29.3218 20.3273 29.828 19.7295 29.8843C19.8416 30.0717 20.0471 30.203 20.2712 30.3342C19.9724 30.4842 18.8142 30.6154 18.5153 30.5592C18.5153 30.7467 18.6648 31.0091 18.7021 31.0654C18.0297 31.2904 17.9736 31.1404 17.3759 31.0654C17.2825 31.2529 17.3012 31.5341 17.1891 31.7028C17.0396 31.6091 16.666 31.3653 16.4792 31.4216C16.2177 31.6091 15.9936 32.2653 15.6013 32.3215C15.4705 32.0403 15.2277 31.5903 14.8541 31.4966C14.4805 31.5716 14.0696 31.5153 13.9575 31.4778C14.0135 31.3841 14.0509 31.2529 13.9948 31.0841C13.7146 31.1779 13.0422 31.1966 12.6686 31.0654C12.7059 30.9904 12.8741 30.7279 12.8554 30.5592C12.5565 30.6342 11.3984 30.5029 11.0995 30.3342C11.3236 30.1842 11.5291 30.0717 11.6412 29.8843C11.0248 29.828 9.96001 29.3218 9.79189 29.1156C9.97869 29.0219 10.2776 28.9656 10.3149 28.7594C9.90397 28.6469 8.98866 28.3844 8.67111 27.6345C9.30622 27.447 9.36226 27.3345 9.5117 27.1471C9.00734 26.9221 8.24147 26.5096 8.05467 25.9847C8.33487 25.9847 8.8579 25.7972 8.96998 25.666C8.54035 25.5535 7.8492 24.7661 7.7558 24.2411C8.03599 24.3349 8.40959 24.3349 8.80186 24.2786C8.54035 24.0349 7.81184 22.9475 7.83052 22.3288C8.16675 22.3663 8.40959 22.4601 8.82054 22.3663C8.68979 22.2163 8.63375 22.0851 8.46563 21.8039C8.11071 21.1665 8.03599 20.1916 8.05467 19.4417C8.12939 19.4791 8.59639 20.3416 8.68979 20.454C9.1381 21.1665 9.53038 21.7664 10.1094 22.3476C10.2962 22.5351 10.2589 22.6476 10.3336 22.9475C10.371 23.1537 10.4644 23.6974 10.7819 23.8662C10.2402 23.9974 9.94133 23.7537 9.75453 23.6787C9.53038 24.1286 10.1094 25.2723 10.2962 25.5347C10.1842 25.6847 9.96001 25.741 9.73585 25.741C9.75453 26.1722 10.5578 26.5846 10.7259 26.5659C10.6885 26.8658 10.5017 27.2033 10.2962 27.3533C10.3896 27.4845 10.838 27.6533 11.1555 27.7282C11.0995 28.047 10.9687 28.1594 10.7446 28.3282C11.0434 28.5907 11.9214 28.8156 12.3697 28.5907C12.5191 28.5157 12.5378 28.8156 12.3137 29.1156C12.5378 29.4343 13.808 29.1343 14.0322 28.9094C14.0882 29.3406 13.8454 29.5468 13.696 29.6968C14.1443 29.8655 14.4618 29.4718 14.63 29.3406C14.8541 29.5468 15.7134 30.428 16.1617 30.4467C16.3672 30.0155 16.5166 29.7905 16.6847 29.5468C17.1891 29.5468 17.4132 29.7343 17.8242 29.8655C17.9923 29.6218 18.011 29.3218 17.9736 28.9469C18.0857 28.9094 18.6087 29.4906 19.2812 29.1531C19.0571 28.8531 18.945 28.7969 18.9823 28.5344C19.412 28.7594 20.458 28.5907 20.7569 28.3282C20.5328 28.1594 20.402 28.047 20.346 27.7282C20.6635 27.6533 21.1118 27.4845 21.2052 27.3533C21.0184 27.2033 20.8316 26.8658 20.7756 26.5659C20.9437 26.5846 21.7656 26.1534 21.7656 25.741C21.5228 25.741 21.3173 25.6847 21.2052 25.5347C21.392 25.2723 21.9711 24.1474 21.7469 23.6787C21.5415 23.7537 21.2613 23.9974 20.7196 23.8662C21.0184 23.6974 21.1118 23.1537 21.1679 22.9475C21.2426 22.6476 21.2052 22.5351 21.392 22.3476C21.9711 21.7664 22.3634 21.1665 22.8117 20.454C22.8864 20.3228 23.3721 19.4791 23.4468 19.4417C23.4655 20.1728 23.3908 21.1665 23.0358 21.8039C22.7556 22.0851 22.6996 22.2163 22.5502 22.3663Z" fill="black"/>
</svg>
