<svg width="158" height="194" viewBox="0 0 158 194" fill="none" xmlns="http://www.w3.org/2000/svg">
<path fill-rule="evenodd" clip-rule="evenodd" d="M0.400757 52.617C0.728633 53.895 1.05651 54.2236 2.00371 54.8809L7.43188 60.9788C15.1188 71.2393 11.2571 79.601 4.22598 87.9262C3.57023 88.8756 0.400757 90.8109 0.400757 91.7602V117.758C0.400757 128.347 4.88173 140.215 9.69059 147.262C14.4994 154.309 21.2027 160.407 31.1483 164.277C35.9571 166.213 41.0574 167.162 46.1942 168.44C58.6899 172.603 75.0108 179.686 78.8361 193.452C83.9728 183.192 87.1423 179.65 97.7072 173.881C110.203 167.783 117.234 168.111 126.852 164.57C136.761 160.736 143.173 154.309 148.309 147.554C152.79 140.799 157.599 128.64 157.599 118.343V91.7237C157.599 90.7744 156.324 90.1171 155.668 89.4598C154.393 88.5105 151.187 84.64 150.24 83.362C144.156 73.4301 145.431 67.6244 151.843 59.6277C157.599 51.9232 157.599 57.3639 157.599 48.3814C157.599 37.135 157.599 25.9251 157.599 14.6787C152.171 11.1369 129.11 6.02487 121.751 4.74688C91.9876 -0.693742 64.4459 -0.693742 34.6821 4.74688C28.5981 6.02487 22.5142 7.6315 16.7581 9.23812C14.7909 9.63978 0.400757 13.8024 0.400757 15.409V52.617Z" fill="#FEFEFE" stroke="#FEFEFE" stroke-width="0.216" stroke-miterlimit="22.9256"/>
<path fill-rule="evenodd" clip-rule="evenodd" d="M64.1908 67.2226C66.5588 67.2226 68.4897 69.1579 68.4897 71.5313C68.4897 73.9047 66.5588 75.84 64.1908 75.84C61.8228 75.84 59.892 73.9047 59.892 71.5313C59.8556 69.1579 61.7864 67.2226 64.1908 67.2226Z" fill="#034EA2"/>
<path fill-rule="evenodd" clip-rule="evenodd" d="M140.076 93.8415C138.036 92.3809 135.158 88.6199 133.446 85.7353C127.653 74.7445 130.859 64.3015 138.364 55.6111C139.238 54.7347 139.821 54.7347 140.113 53.5663V27.5316L126.233 23.4786C123.537 22.8213 120.768 22.2006 117.999 21.6529C113.664 20.7765 109.256 20.0462 104.811 19.462C100.403 18.8778 95.9952 18.4031 91.5507 18.111C87.2154 17.8189 82.8802 17.6363 78.5449 17.5998C74.3554 17.5633 70.1294 17.6728 65.9763 17.8919C61.5682 18.1475 57.1601 18.5492 52.8248 19.0969C50.2018 19.4255 47.6152 19.8272 45.0287 20.3018C43.1707 20.5939 41.1306 20.9591 38.9812 21.3973C31.1486 22.8943 22.0045 25.0487 16.1027 27.5682C16.1027 32.2055 16.1027 36.8428 16.1027 41.4801C16.1027 44.0726 15.5198 53.0551 16.6856 54.8078C18.4343 56.5604 17.8514 55.6841 20.1465 58.2766C21.3123 59.7372 21.8952 60.8691 22.7331 62.6218C28.2341 73.0649 25.6111 84.932 17.5235 92.746C16.6492 93.6224 16.3577 93.6224 16.0663 94.7908L16.3577 118.854C17.7421 134.08 27.0319 144.779 38.9447 149.526C39.4912 149.745 40.0741 149.964 40.657 150.146C44.8465 151.534 48.8175 152.483 52.7884 153.579C57.0872 154.747 61.3861 156.135 65.9399 158.472C67.5793 159.311 69.2551 160.297 71.0038 161.429C76.5048 165.19 76.2133 166.359 78.217 168.075C78.3263 167.929 78.3992 167.783 78.5085 167.637C81.0586 163.949 86.0132 160.553 91.5142 157.96C93.9551 156.828 96.5052 155.843 99.019 155.039C101.023 154.345 102.917 153.798 104.775 153.25C109.365 151.972 113.591 150.986 117.963 149.16C119.967 148.321 122.043 147.335 124.156 146.057C130.24 142.004 135.705 135.614 138.328 126.339C140.076 120.825 140.076 117.064 140.076 111.003C140.076 105.453 140.368 99.3551 140.076 93.8415ZM44.1179 138.17C42.9885 138.462 41.0213 138.535 38.9447 138.535C36.7589 138.535 34.4638 138.462 33.1158 138.462V126.595H38.9447H41.7863C44.6644 126.595 44.6644 127.471 44.6644 130.064C44.6644 132.108 44.0815 131.816 44.0815 132.108C44.9558 133.825 44.9558 136.454 44.1179 138.17ZM58.5445 138.462H55.0835V132.072C54.6464 132.51 53.6992 133.825 52.7884 135.139C51.8048 136.563 50.9304 137.987 50.7483 138.425H46.9959V126.558H50.4568V132.948C50.9669 132.4 51.8776 131.086 52.752 129.808C53.8085 128.274 54.865 126.741 55.3386 126.595H58.508V138.462H58.5445ZM71.5502 129.771H67.7979V138.462H65.9399H64.0455V129.771H60.2931V126.595H65.9399H71.5866V129.771H71.5502ZM83.7181 129.771H78.5085H77.0513V131.232H78.5085H83.1352V133.825H78.5085H77.0513C77.0513 135.468 77.2334 135.614 78.5085 135.504C79.4921 135.395 81.0586 135.139 83.7181 135.285V138.462H78.5085H73.5903L73.2989 126.595H78.5085H83.7181V129.771ZM94.3923 138.462H91.5142H85.7218V126.595H91.5142H96.7238V129.771H91.5142H89.4741V131.232C90.2027 131.232 90.8949 131.232 91.5142 131.232C97.0517 131.195 97.3067 131.159 97.3067 135.577C97.3067 137.585 96.4324 138.462 94.3923 138.462ZM110.312 129.771H104.775H103.063V135.285H104.775H110.312V138.462C108.564 138.681 106.633 138.717 104.775 138.608C104.192 138.571 103.609 138.535 103.063 138.462C98.4361 138.462 99.3104 137.001 99.3104 129.771C99.3104 126.777 101.205 126.303 104.775 126.376C106.014 126.412 107.471 126.485 109.147 126.558H110.312V129.771ZM123.865 138.462H120.112V133.825H117.963H115.777V138.462H112.316L112.025 126.595H115.777V131.232C116.943 131.232 117.307 130.173 117.963 129.078C118.764 127.727 120.039 126.266 123.865 126.595C123.282 127.179 120.695 130.356 120.404 131.232C124.448 131.524 123.865 134.701 123.865 138.462ZM117.963 95.1194C114.611 100.633 110.057 105.343 104.775 108.958C100.731 111.733 96.2502 113.888 91.5142 115.275C88.5998 116.152 85.6125 116.736 82.5523 117.028C81.2044 117.174 79.8564 117.247 78.5085 117.247C74.1368 117.32 69.9108 116.772 65.9399 115.713C61.1675 114.435 56.7593 112.391 52.7884 109.798C47.1781 106.074 42.4785 101.181 38.9447 95.5211C35.3745 89.7153 33.0065 83.1428 32.2779 76.2051C31.2579 65.4699 33.8809 55.6841 38.9447 47.6875C42.5149 42.0643 47.2509 37.354 52.7884 33.7391C56.8322 31.11 61.2768 29.1383 65.9399 27.8603C68.6358 27.13 71.3681 26.6188 74.1732 26.3997C75.6305 26.2537 77.0877 26.1806 78.5085 26.1806C83.0623 26.1441 87.3976 26.7648 91.5142 27.9333C96.3231 29.3208 100.804 31.4387 104.775 34.2137C110.167 37.9382 114.648 42.7581 117.963 48.3447C121.387 54.114 123.573 60.65 124.156 67.5512C125.176 77.8482 122.735 87.3054 117.963 95.1194Z" fill="#034EA2"/>
<path d="M42.551 62.9141L42.7696 62.1108C42.9153 61.5996 42.806 61.3074 42.4417 61.1979C42.1138 61.1249 41.8953 61.3074 41.7495 61.8186L41.5309 62.622L42.551 62.9141Z" fill="#034EA2"/>
<path d="M121.861 66.9306C120.768 56.8527 116.25 48.0528 109.693 41.4072C106.195 37.8653 102.152 34.9807 97.7071 32.7898C95.922 31.9135 94.1005 31.1832 92.2425 30.5625C87.1422 28.8828 81.6776 28.116 76.1766 28.4447C75.3022 28.4812 74.4643 28.5907 73.59 28.7003C73.4443 28.7003 73.2985 28.7368 73.1528 28.7368C71.4041 28.9193 69.6555 29.2115 67.9068 29.6131C66.1217 30.0148 64.3001 30.5625 62.5879 31.1832C60.1835 32.0596 57.8519 33.1185 55.6661 34.36C53.626 35.5284 51.6951 36.8429 49.9465 38.3035C49.6186 38.5591 49.3271 38.8512 48.9993 39.1068C48.6714 39.4354 48.3435 39.7641 48.0156 40.1292C47.8335 40.3118 47.6877 40.4943 47.5056 40.6769C47.3234 40.8595 47.1777 41.0421 46.9956 41.2246C46.3034 41.9914 45.6112 42.7582 44.9554 43.5615C43.7168 45.0951 42.551 46.6652 41.531 48.2719C40.9116 49.2212 40.3287 50.1706 39.7823 51.1565C35.6292 58.6784 33.6984 67.1132 34.8277 76.4974C35.4835 82.011 37.1957 87.2691 39.7823 92.0524C40.3287 93.0383 40.9116 94.0242 41.531 94.9735C42.5874 96.5802 43.7168 98.1138 44.9554 99.5743C45.6112 100.341 46.2669 101.071 46.9956 101.802C47.1777 101.984 47.3234 102.167 47.5056 102.313C47.6877 102.495 47.8335 102.642 48.0156 102.824C48.6349 103.408 49.2907 103.993 49.9465 104.54C51.7316 106.074 53.626 107.425 55.6661 108.666C57.8519 109.981 60.147 111.113 62.5879 112.062C64.3001 112.719 66.0852 113.267 67.9068 113.742C69.619 114.144 71.3677 114.472 73.1528 114.691C74.1364 114.801 75.1565 114.91 76.1766 114.947C78.4353 115.056 80.7668 114.983 83.1348 114.764C86.2314 114.436 89.2916 113.778 92.2425 112.792C94.1369 112.172 95.9584 111.405 97.7071 110.529C102.152 108.374 106.195 105.453 109.693 101.948C118.327 93.2574 123.427 80.9156 121.861 66.9306ZM97.7071 35.1998C101.314 36.7334 107.689 41.7723 109.693 45.1682C110.021 45.7159 110.203 46.1906 110.276 46.6287C110.094 46.5922 109.875 46.5557 109.693 46.4827C106.888 45.6794 103.536 43.0503 101.897 41.6993C101.168 41.1516 99.2008 39.1433 97.7071 37.3541C96.7963 36.2952 96.0313 35.2728 95.8491 34.7251C96.2863 34.7251 96.9421 34.8712 97.7071 35.1998ZM109.693 63.5348C109.766 63.973 109.875 64.4842 109.984 65.178C111.441 70.6916 113.737 75.9131 111.15 81.9745C110.749 82.9239 110.239 84.0193 109.693 85.0052C109.401 85.4799 109.11 85.918 108.855 86.3197C107.981 87.7802 107.398 89.4964 105.394 89.4964C103.39 89.4964 100.221 88.5105 97.7435 87.5246C96.6506 87.0865 95.7034 86.6848 95.0112 86.3197C93.5904 85.6624 92.8254 84.567 92.2789 83.216C91.6232 81.5363 91.3317 79.4185 90.676 77.3372C89.2188 72.1157 88.6359 72.6999 91.8418 67.1862C91.9511 66.9306 92.0968 66.602 92.2789 66.2004C93.4447 63.7174 95.7398 59.2627 96.7599 58.788C96.9785 58.6419 97.3428 58.6054 97.78 58.5689C100.294 58.4958 105.795 60.066 107.762 60.7962C109.256 61.7091 109.438 62.1108 109.693 63.5348ZM80.5118 30.4164C83.3898 30.672 89.073 30.7085 92.2061 32.3517C92.8618 32.6803 93.4083 33.1185 93.7726 33.5932C94.3555 34.7616 95.5213 35.8936 95.8127 37.062C95.2298 38.0479 93.554 40.3483 92.2061 41.9184C91.5503 42.6487 90.9674 43.2329 90.6031 43.4155C89.1459 43.9997 82.8069 42.8313 80.4754 42.8313V30.4164H80.5118ZM76.1766 31.2197L77.9617 31.0737L78.0345 32.1691L76.1766 32.3152L75.1929 32.3882L75.2658 33.3741L76.1401 33.301H76.1766C76.978 33.228 77.5609 33.3376 77.9617 33.5932C78.3624 33.8488 78.6174 34.2869 78.6538 34.8712C78.6903 35.3824 78.5446 35.7475 78.2167 36.0396C77.8888 36.3317 77.3788 36.5143 76.6866 36.5508L76.1766 36.5873L73.8814 36.7699L73.4807 31.4388L76.1766 31.2197ZM76.1766 43.4155L76.468 43.452L76.1766 43.4885L73.2985 43.7441C73.2621 43.7441 73.1892 43.7441 73.1528 43.7441C71.222 43.8902 69.5462 43.1964 67.9068 43.0503C66.8867 42.9773 65.9031 43.0869 64.9195 43.7441C64.9195 39.3624 65.6117 39.7641 67.9068 40.823C68.9633 41.2977 70.3476 41.9184 72.1327 42.2835V42.5757C72.0963 42.6852 72.0235 42.7217 71.9506 42.7582C71.987 42.7947 72.0599 42.8313 72.1327 42.8678L73.1528 43.0138L76.1766 43.4155ZM56.5404 63.6444L62.5515 63.6809H67.8704H72.0963V73.2841C72.0963 75.8766 72.2785 75.3654 72.6792 75.8766C72.8614 76.0957 73.0071 76.3148 73.1164 76.5339C73.4078 77.1181 73.3714 77.6658 73.1164 78.0675C72.7521 78.6882 71.8413 79.0533 70.6755 79.0533H67.8704H64.3001C63.7173 79.0533 63.1344 79.0534 62.515 79.0899C59.6006 79.1994 56.5768 79.4185 55.5932 78.3961C55.1925 77.9944 55.156 77.3372 55.5932 76.4243C55.6661 76.2418 55.7754 76.0592 55.8847 75.8766C57.014 74.8542 56.5404 65.6892 56.5404 63.6444ZM73.59 76.1687C73.4078 75.9131 73.2621 75.694 73.1528 75.5115C72.8249 74.9272 72.9707 74.6716 73.0071 73.6127C73.0071 73.0285 73.0071 72.9555 73.0071 72.4078C73.0071 69.5231 73.0071 66.602 73.0071 63.7174H73.1528C74.4279 63.7174 74.1729 63.7904 74.1729 65.4701V73.5762C74.6465 74.9638 75.6301 74.8907 76.1766 75.8036C76.3223 76.0592 76.4316 76.3513 76.468 76.753C76.468 77.3007 76.3587 77.7388 76.1766 78.0675C75.6665 78.9073 74.5736 79.0533 73.2985 79.0533C74.1729 78.2135 74.4643 77.3372 73.59 76.1687ZM70.712 49.5499H67.9068H62.5879H57.9976C60.1106 48.1258 60.5114 47.1034 62.5879 46.154C63.0615 45.935 63.6444 45.7159 64.373 45.4968H64.6645C66.2674 45.8254 67.2146 46.3731 67.9432 46.9574C68.9997 47.7972 69.4733 48.8196 70.712 49.5499ZM67.9068 32.4977L69.2547 32.2056L70.4569 34.1774L70.6755 31.877L72.3149 31.5119L71.5499 35.9301C71.477 36.2952 71.4041 36.5508 71.3677 36.7334C71.2948 36.916 71.1855 37.0985 71.0034 37.2446C70.8212 37.3906 70.5662 37.5002 70.2019 37.6097C70.0198 37.6462 69.6919 37.7193 69.2183 37.7558L68.9633 36.6604C69.2547 36.6238 69.4369 36.5873 69.5826 36.5508C69.9469 36.4778 70.1655 36.2587 70.1655 35.9666L67.9796 33.1185L67.5789 32.5708L67.9068 32.4977ZM62.5515 34.3234L66.3403 32.8264L67.8704 36.7699L68.2711 37.8288L67.8704 38.0114L66.741 38.4496L65.2473 34.6886L64.0451 35.1633L64.6645 36.6969C64.9195 37.3176 65.0652 37.7923 65.1016 38.1209C65.1381 38.4495 65.0652 38.7051 64.883 38.9607C64.7009 39.1798 64.3366 39.4354 63.7901 39.6545C63.608 39.7275 63.4258 39.7641 63.2072 39.8371L62.8065 38.8147L63.0251 38.7417C63.2437 38.6686 63.353 38.5591 63.4258 38.413C63.4622 38.3035 63.4622 38.0844 63.3529 37.8653L62.5515 35.784L62.0779 34.5425L62.5515 34.3234ZM57.5969 36.8064L58.617 38.5956C58.7262 38.5226 58.7991 38.413 58.8355 38.3035C58.872 38.194 58.8355 37.8653 58.7627 37.3906C58.6898 37.0255 58.6898 36.7699 58.7262 36.5873C58.7627 36.4048 58.872 36.2222 59.0906 36.0031C59.3091 35.8205 59.6734 35.5649 60.2199 35.2363L60.7664 36.2222L60.6935 36.2587C60.4385 36.4048 60.2928 36.5508 60.2199 36.6969C60.147 36.8429 60.147 37.062 60.1835 37.3176C60.2199 37.5732 60.2199 37.7558 60.2199 37.9384C60.1835 38.0844 60.1106 38.2305 60.0013 38.3765C60.2563 38.34 60.5114 38.34 60.7299 38.413C60.985 38.4861 61.2764 38.6686 61.6771 38.9242L62.5515 39.5085L63.0251 39.8371L62.5515 40.1292L61.4221 40.7865L60.1835 39.9101C59.892 39.691 59.6734 39.5815 59.5642 39.545C59.4549 39.5085 59.3456 39.545 59.1998 39.618L60.2563 41.4437L58.8355 42.2835L56.1761 37.6462L57.5969 36.8064ZM57.4147 62.5854C57.4147 59.1166 57.4147 59.7008 59.1634 59.7008C59.1634 57.9481 59.1634 55.9399 59.1634 54.1872C59.1634 48.6735 58.5805 51.9233 58.5805 50.2071L62.5879 50.1706L67.9068 50.1341H70.4205C70.4205 51.5947 70.1291 49.5499 69.8376 51.5947L69.9833 59.7008C70.8212 59.7373 70.6391 59.7008 71.2948 59.7008C71.5499 61.2344 71.0398 61.6726 71.5499 62.2933C71.6227 62.3664 72.4242 62.2568 72.6428 62.2933C72.7885 61.0153 72.7521 61.8186 72.7521 59.7008L73.1892 59.7738L74.2093 59.9929L75.0836 62.8776C74.8651 62.9871 74.1729 63.0601 73.1892 63.0966C71.8777 63.1697 70.0198 63.2062 67.9432 63.2427C66.231 63.2427 64.4094 63.2427 62.6243 63.2427C60.0013 63.2062 57.4876 63.1697 55.7025 63.1332C54.6096 63.0966 53.7717 63.0601 53.4074 62.9871C53.9903 61.2344 53.6988 64.046 53.9903 59.7008H55.7025H55.9939V62.5854H57.4147ZM48.9264 41.6993C49.2178 41.8454 49.4728 41.8089 49.7279 41.5533C49.8372 41.4437 49.91 41.3342 49.9465 41.2246C50.0193 41.0786 50.0193 40.9325 49.9465 40.7865C49.9465 40.7499 49.9464 40.7499 49.91 40.7134L49.9465 40.6769L50.3836 40.2753C50.5658 40.5309 50.6386 40.823 50.5658 41.1151C50.5293 41.4072 50.3836 41.6993 50.1286 41.9184C50.0557 41.9914 50.0193 42.0279 49.9465 42.0645C49.7643 42.2105 49.5457 42.2835 49.2907 42.3201C48.9993 42.3566 48.7078 42.2835 48.4528 42.101L48.9264 41.6993ZM49.5821 42.9043L49.9465 43.2694L51.6223 45.0221L51.0394 41.4802L52.1687 40.4213L55.6661 44.1093L55.8482 44.3283L55.6661 44.5109L54.7553 45.3873L52.7152 43.2694L53.2981 46.7748L52.1687 47.8702L49.9829 45.5698L48.4892 43.9997L49.5821 42.9043ZM43.9718 49.6594L44.9554 50.3532L45.6476 50.8279L46.1577 50.0976C46.4491 49.6959 46.7041 49.4038 46.9956 49.1847C47.1777 49.0387 47.3234 48.9656 47.5056 48.8926H47.542C47.6877 48.8561 47.8335 48.8196 48.0156 48.8196C48.3435 48.8196 48.6714 48.9656 48.9993 49.1847C49.4 49.4768 49.6186 49.842 49.6186 50.2802C49.6186 50.7183 49.4364 51.2295 49.0357 51.7772L48.0156 53.2013L47.5056 53.9316L47.3599 54.1141L46.9956 53.8585L44.9554 52.398L42.9882 51.0104L43.9718 49.6594ZM40.6202 55.7938L41.531 56.1955L42.3324 56.5606L43.061 54.9175L41.531 54.2237L41.3488 54.1507L41.531 53.749L42.041 52.6171L44.9554 53.9316L46.9227 54.8079L46.2305 56.305L44.9554 55.7208L44.2633 55.3921L43.5346 57.0353L44.9919 57.6925L45.5019 57.9481L44.9919 59.1166L44.8462 59.4452L41.5674 57.9481L39.9644 57.2179L40.6202 55.7938ZM38.5436 61.7821L39.8551 62.1473L40.5473 62.3298L40.8023 61.49C41.0209 60.7962 41.2759 60.285 41.6038 59.9564C41.6402 59.9199 41.6767 59.8834 41.7131 59.8834C42.1138 59.5913 42.5874 59.5182 43.1703 59.6643C43.6439 59.8104 43.9718 60.066 44.1175 60.5041C44.2633 60.9058 44.2633 61.4535 44.0811 62.1108L43.3161 64.8493L41.6403 64.3746L39.8916 63.8634L38.1429 63.3522L38.5436 61.7821ZM37.7422 64.9954L39.8187 65.251L41.5674 65.4701L43.061 65.6526L42.8425 67.2958L41.5674 67.1497L39.8187 66.9306L38.8351 66.8211L38.6894 68.0991L39.8551 68.2451L40.3287 68.3182C40.8752 68.3912 41.2759 68.4642 41.5674 68.5373C41.6402 68.5738 41.7131 68.5738 41.786 68.6103C42.0774 68.7198 42.296 68.9024 42.4053 69.1945C42.5146 69.4866 42.551 69.9248 42.4782 70.509C42.4417 70.6916 42.4053 70.8742 42.3324 71.1298L41.5674 71.0202L41.2759 70.9837L41.3124 70.7281C41.3488 70.509 41.3124 70.3265 41.2395 70.2534C41.1666 70.1439 40.9845 70.0709 40.7295 70.0343L39.8916 69.9248L37.2321 69.5962L37.7422 64.9954ZM37.7057 72.0426C38.1793 71.5314 38.8351 71.2758 39.7094 71.2758C39.7459 71.2758 39.7823 71.2758 39.8187 71.2758C40.4016 71.2758 40.8752 71.3489 41.2395 71.5679C41.3488 71.6045 41.4581 71.6775 41.531 71.7505C41.786 71.9331 42.0046 72.1887 42.1867 72.4808C42.4053 72.8825 42.551 73.3571 42.551 73.9779C42.551 74.5986 42.4782 75.0733 42.296 75.475C42.1138 75.8401 41.8588 76.1322 41.531 76.3878C41.4945 76.4243 41.4581 76.4243 41.4217 76.4608C41.0209 76.7164 40.5109 76.8625 39.8551 76.8625H39.7823C38.9444 76.8625 38.2886 76.6434 37.7786 76.1687C37.2686 75.694 37.0135 75.0368 37.0135 74.1604C37.0135 73.2476 37.2686 72.5538 37.7057 72.0426ZM37.5236 78.5422L38.5801 78.3596L39.0901 81.1712L39.8187 81.0251L40.0373 80.9886L39.8916 80.1123C39.8551 79.8567 39.8187 79.6376 39.8187 79.4185C39.8187 79.2724 39.8187 79.1629 39.8187 79.0533C39.8187 78.7247 39.8916 78.4691 40.0009 78.25C40.2195 77.8119 40.6202 77.5563 41.2031 77.4467C41.3124 77.4102 41.4217 77.4102 41.531 77.4102C41.8588 77.4102 42.1503 77.5198 42.4053 77.7754C42.7332 78.0675 42.9518 78.5787 43.061 79.2359L43.5711 82.0475L41.531 82.4127L39.7823 82.7048L38.2886 82.9604L37.5236 78.5422ZM39.8187 87.4151L38.7622 84.2384L39.8187 83.8732L40.0009 83.8002L40.5473 85.4068L41.5674 85.0782L44.3726 84.1288L44.919 85.6989L41.5674 86.8309L41.0938 86.9769L41.5674 88.401L41.6403 88.5836L41.5674 88.6201L40.3652 89.0217L39.8187 87.4151ZM42.1867 92.4541L43.8261 90.7744L41.5674 91.1396H41.531L40.7659 89.6425L41.5674 89.5694L44.9919 89.3138H45.2469C45.6112 89.2773 45.9026 89.2773 46.0848 89.3138C46.2669 89.3504 46.4855 89.4234 46.6677 89.5694C46.8134 89.679 46.9227 89.7885 47.032 89.9711C47.1049 90.0441 47.1413 90.1537 47.1777 90.2632C47.2506 90.4093 47.3963 90.7014 47.542 91.103L47.5785 91.1761H47.542L47.032 91.4317L46.5948 91.6508C46.4855 91.3952 46.4127 91.2126 46.3398 91.0665C46.1577 90.7379 45.9391 90.5918 45.6476 90.6284L44.9919 91.4682L43.0246 93.9877L42.1867 92.4541ZM49.9465 98.0407C49.8372 98.1868 49.6914 98.3329 49.5093 98.4789C49.0357 98.8441 48.5257 99.0266 48.0156 98.9536C47.8335 98.9171 47.6877 98.8806 47.5056 98.8075C47.3234 98.7345 47.1777 98.6615 46.9956 98.5154C46.7405 98.3694 46.522 98.1503 46.2669 97.8947L45.9391 98.1503L45.0283 96.9818L45.3562 96.7262C45.2105 96.4706 45.0647 96.2515 44.9919 96.0325C44.7004 95.3022 44.7004 94.6449 44.9919 94.1337C45.1376 93.8781 45.3197 93.659 45.5748 93.4765C46.0484 93.1113 46.522 92.9287 46.9956 93.0018C47.1777 93.0018 47.3234 93.0748 47.5056 93.1113C47.6877 93.1843 47.8335 93.2574 48.0156 93.3669C48.2706 93.5495 48.5256 93.7686 48.7807 94.0242L49.2178 93.6955L49.9465 94.6084L50.165 94.9005L49.9465 95.0831L49.7279 95.2657C49.8007 95.4117 49.8736 95.5213 49.9465 95.6673C50.4929 96.5437 50.4929 97.347 49.9465 98.0407ZM50.4929 49.7324L49.9829 49.3673L48.0521 48.0163L47.542 47.6511L47.032 47.286L46.1577 46.6652L47.032 45.4238L47.1049 45.3142L47.542 45.6428L48.0521 46.008L49.9829 47.359L51.4765 48.4179L50.4929 49.7324ZM53.9174 74.1604C54.4639 72.8094 53.6259 63.8634 54.2453 63.7539C54.8282 63.6444 55.2653 63.6444 55.6296 63.7539C55.7389 63.7904 55.8118 63.8269 55.9211 63.8634C55.9211 63.8634 55.9575 65.2145 55.9575 66.0543C55.8847 67.5879 56.1397 72.8094 55.6661 74.8907C55.5932 75.2194 55.4839 75.4384 55.3746 75.621C54.2088 77.3737 54.5003 77.3737 55.3746 79.0899C49.2907 79.0899 53.3709 75.0368 53.9174 74.1604ZM79.9289 110.383C79.6375 112.427 78.1802 111.843 76.1766 111.843C77.5245 110.492 77.0509 108.922 76.1401 107.68C75.7758 107.206 75.3751 106.731 75.0108 106.366V80.5869C74.4279 81.1712 74.1364 80.5869 74.1364 83.7637V107.242C75.2658 107.461 76.3951 110.127 75.0108 111.88C74.3914 111.916 73.7721 111.916 73.1164 111.916C71.4406 111.843 69.6555 111.514 67.8704 111.076C66.0488 110.602 64.2273 109.981 62.5515 109.287C59.7099 108.119 57.2326 106.768 55.6296 105.672C55.4111 105.526 55.2289 105.38 55.0468 105.271V86.4292C55.0468 85.2608 55.3382 81.2077 54.4639 80.9156C53.881 81.7919 54.1724 101.473 54.1724 104.394C51.8773 103.518 52.7152 102.094 52.7152 99.1727V82.6683C52.7152 80.0757 52.1323 81.4998 52.1323 79.7836H55.5932H62.515H67.8339H73.0799H76.1037H76.978C76.978 80.0757 76.6866 80.3679 76.6866 80.66C76.3951 82.1205 76.3951 81.5363 76.3951 84.1288L76.3587 104.686C77.1966 105.563 80.5118 106.622 79.9289 110.383ZM80.5118 44.0362C84.5556 44.3283 89.1823 44.0362 90.931 46.9208C91.2589 47.359 91.7325 48.0893 92.2425 49.0022C93.4447 51.193 94.7927 54.2602 94.9748 55.8668C95.1934 57.583 93.4811 60.9423 92.2425 63.2427C91.8053 64.046 91.441 64.7033 91.2224 65.1414C87.4701 71.5314 88.053 70.9472 80.5118 70.9472V44.0362ZM105.394 99.6474C104.811 102.532 101.933 104.869 99.6015 106.037C99.0186 106.439 98.3629 106.804 97.7071 107.133C96.0313 108.046 94.1733 108.812 92.2425 109.506C88.6723 110.748 84.7378 111.624 80.8033 112.099C80.8033 107.754 80.8033 103.7 80.8033 99.6474C80.8033 96.4706 80.5118 97.0548 82.8434 95.5943C88.563 91.4682 90.6395 89.3504 92.2425 88.547C93.6997 87.8168 94.7562 88.1454 97.7071 89.0582C99.0915 89.4964 100.877 90.0441 103.354 90.6649C105.394 90.957 105.649 91.8333 105.94 94.1337C105.977 95.5943 105.685 98.1868 105.394 99.6474ZM117.234 84.3114C116.797 87.196 112.899 94.3893 109.693 97.9677C108.746 99.0266 107.835 99.7569 107.106 99.976C107.106 92.7462 106.523 93.0383 109.401 88.6931C109.511 88.5105 109.584 88.3645 109.693 88.1819C111.259 85.2608 112.389 82.9969 113.737 79.4185C116.651 79.0899 117.525 81.3903 117.234 84.3114ZM117.525 79.382C116.943 79.0899 114.356 77.9214 113.773 77.6293C113.19 77.0451 113.19 77.0451 113.19 75.5845C113.19 71.5314 112.316 68.6468 111.15 64.5937C110.458 62.2568 109.984 61.1979 109.693 60.3946C109.292 59.2626 109.292 58.7514 109.693 55.7573C109.839 54.6984 110.021 53.3473 110.276 51.5581C110.276 49.5134 110.276 48.6735 111.441 47.5051C114.028 47.7972 116.943 54.7349 117.525 57.3639C118.983 62.0012 119.566 66.0543 119.566 71.2758C119.529 75.3289 119.821 76.753 117.525 79.382Z" fill="#034EA2"/>
<path d="M39.8184 75.1828C40.4013 75.1828 40.7656 75.0733 41.0207 74.8542C41.2392 74.6351 41.3485 74.3795 41.3485 74.0144C41.3485 73.6492 41.2028 73.3936 40.9842 73.2111C40.7656 73.0285 40.3649 72.9555 39.8184 72.9555H39.7092C39.1991 72.9555 38.8348 73.065 38.6162 73.2841C38.3977 73.5032 38.2884 73.7588 38.2884 74.1239C38.2884 74.4526 38.4341 74.7082 38.6527 74.9272C38.9077 75.1098 39.3084 75.1828 39.8184 75.1828Z" fill="#034EA2"/>
<path d="M76.1764 35.4555H76.2857C76.7957 35.419 77.0507 35.1999 77.0143 34.8348C76.9779 34.5061 76.7228 34.3601 76.2128 34.3966L75.3749 34.4696L75.4478 35.5285L76.1764 35.4555Z" fill="#034EA2"/>
<path d="M71.9871 42.7583C71.4771 42.4662 71.7321 42.9043 71.9871 42.7583V42.7583Z" fill="#034EA2"/>
<path d="M41.1305 80.8061L41.5676 80.7331L42.187 80.6235L42.0412 79.7837C41.9684 79.382 41.8227 79.1629 41.5676 79.1264C41.4948 79.1264 41.4219 79.1264 41.3491 79.1264C41.0212 79.1995 40.9119 79.4551 40.9847 79.9663L41.1305 80.8061Z" fill="#034EA2"/>
<path d="M47.9429 94.6815C47.7972 94.5719 47.6879 94.5354 47.5422 94.4989C47.4329 94.4624 47.3601 94.4624 47.2508 94.4624C47.1779 94.4624 47.105 94.4624 47.0322 94.4989C46.8865 94.5354 46.7043 94.6085 46.5586 94.718C46.34 94.8641 46.2307 95.0831 46.1578 95.3387C46.085 95.5943 46.085 95.8134 46.1943 96.069L47.0322 95.4118L47.5422 95.0101L47.9429 94.6815Z" fill="#034EA2"/>
<path d="M47.3965 52.0693L47.5058 51.9232L47.8701 51.3755C47.9065 51.3025 47.9794 51.2295 48.0158 51.1564C48.1251 50.9008 48.1251 50.7183 48.0158 50.5357C47.9794 50.4992 47.9429 50.4261 47.8701 50.3896C47.7608 50.3166 47.6151 50.2801 47.5058 50.3166C47.36 50.3531 47.1779 50.4992 47.0322 50.7183L46.9957 50.7548L46.5221 51.412L46.9957 51.7407L47.3965 52.0693Z" fill="#034EA2"/>
<path d="M48.0519 96.5071L47.5419 96.9088L47.1411 97.2374C47.2504 97.3105 47.3961 97.3835 47.5419 97.42C47.6511 97.4565 47.724 97.4565 47.8333 97.4565C47.9062 97.4565 47.979 97.4565 48.0519 97.42C48.234 97.3835 48.3798 97.3105 48.5255 97.2009C48.7076 97.0549 48.8534 96.8358 48.9262 96.6167C48.9991 96.3611 48.9627 96.142 48.8898 95.8864L48.0519 96.5071Z" fill="#034EA2"/>
<path fill-rule="evenodd" clip-rule="evenodd" d="M149.038 52.4344C149.038 42.2835 149.038 32.1691 149.038 22.0181C144.12 18.8414 123.318 14.2041 116.651 13.0356C103.463 10.6257 90.7492 9.38418 78.0713 9.34767C64.8834 9.31115 51.7319 10.5161 38.0339 13.0356C32.5329 14.2041 27.0683 15.6281 21.8587 17.0887C20.11 17.3808 7.10425 21.1418 7.10425 22.6023V56.1954C7.39569 57.3639 7.68714 57.656 8.56148 58.2402L13.4796 63.7173C20.4015 72.992 16.9405 80.5139 10.6016 88.0358C10.0187 88.9122 7.14068 90.6283 7.14068 91.5047V115.02C7.14068 124.587 11.1845 135.285 15.5197 141.675C19.855 148.065 25.9389 153.542 34.9009 157.011C39.2361 158.764 43.8628 159.604 48.4895 160.772C59.7466 164.533 74.5011 170.923 77.962 183.374L78.1077 183.046C82.6251 174.027 85.576 170.85 95.0115 165.702C106.269 160.188 112.644 160.48 121.315 157.303C130.276 153.834 136.069 148.029 140.696 141.967C144.739 135.869 149.075 124.879 149.075 115.604V91.5412C149.075 90.6648 147.909 90.0806 147.326 89.4964C146.16 88.62 143.282 85.1512 142.408 83.9827C136.907 75.0002 138.073 69.7787 143.865 62.5489C149.038 55.6112 149.038 60.5406 149.038 52.4344ZM137.453 62.5854C131.369 72.1521 133.701 80.8425 140.331 89.2408C140.914 90.1171 141.206 90.4092 142.08 91.2856C142.371 91.5777 143.537 93.0383 143.829 93.0383C144.703 94.7909 143.829 118.233 143.537 121.446C140.659 137.951 131.114 148.978 116.943 153.323C107.398 156.5 106.524 155.368 94.9751 160.553C89.1826 163.146 80.2207 169.243 78.217 173.004L78.0713 172.858C74.5739 169.389 68.8543 163.949 61.4224 160.517C50.1653 155.587 48.7081 156.463 39.1633 153.579C25.2832 148.942 15.4469 137.951 12.8603 121.41C12.2774 118.233 11.4031 95.0465 12.2774 93.2939C12.5689 93.0017 15.1554 90.4092 15.7383 89.2408C24.4088 77.9579 24.4088 69.2675 15.7383 58.2402C14.864 57.3639 12.2774 55.3556 12.2774 54.7714C11.6945 53.0187 11.986 29.5765 11.986 25.8156C12.5689 24.6471 14.2811 24.6471 15.1554 24.0629C25.2832 20.8862 31.6221 19.1335 42.3327 17.4173C53.517 15.2995 65.6848 14.2406 78.0348 14.2406C101.132 14.2406 124.848 17.892 144.084 25.2679C144.084 30.1973 144.084 35.1267 144.084 40.0561C144.12 63.1331 145.541 50.0975 137.453 62.5854Z" fill="#034EA2"/>
<path fill-rule="evenodd" clip-rule="evenodd" d="M64.9195 99.9395H69.2547V93.8416H64.9195V99.9395Z" fill="#034EA2"/>
<path fill-rule="evenodd" clip-rule="evenodd" d="M60.293 99.9395H64.0454V93.8416H60.293V99.9395Z" fill="#034EA2"/>
<path fill-rule="evenodd" clip-rule="evenodd" d="M64.9195 93.0018H69.2547V87.4882H64.9195V93.0018Z" fill="#034EA2"/>
<path fill-rule="evenodd" clip-rule="evenodd" d="M60.293 93.0018H64.0454V87.4882H60.293V93.0018Z" fill="#034EA2"/>
<path fill-rule="evenodd" clip-rule="evenodd" d="M64.9195 106.037H69.2547V100.524H64.9195V106.037Z" fill="#034EA2"/>
<path fill-rule="evenodd" clip-rule="evenodd" d="M64.3368 50.9738C63.1711 51.2659 63.4625 53.8584 63.4625 55.9032C63.4625 61.4168 64.0454 57.948 64.0454 62.2932H65.2112C65.2112 58.8243 65.5026 60.2484 65.7941 58.2401C65.7941 54.7347 66.377 50.3895 64.3368 50.9738Z" fill="#034EA2"/>
<path fill-rule="evenodd" clip-rule="evenodd" d="M60.293 106.037H64.0454V100.524H60.293V106.037Z" fill="#034EA2"/>
<path fill-rule="evenodd" clip-rule="evenodd" d="M67.7973 62.2932H68.9631V60.8326C68.9631 58.7878 69.8374 52.1423 68.3802 50.9738C67.2144 52.1423 67.7973 58.7878 67.7973 60.8326V62.2932Z" fill="#034EA2"/>
<path fill-rule="evenodd" clip-rule="evenodd" d="M60.2932 62.2933H61.4589C61.4589 60.2485 61.7504 51.8502 60.5846 51.0104C59.7103 52.4709 60.0017 57.1082 60.0017 58.8244L60.2932 62.2933Z" fill="#034EA2"/>
<path fill-rule="evenodd" clip-rule="evenodd" d="M60.293 86.9039H64.0454V82.8508C61.4588 83.1429 60.8759 84.8591 60.293 86.9039Z" fill="#034EA2"/>
<path fill-rule="evenodd" clip-rule="evenodd" d="M64.9195 86.9039H69.2547C68.9633 84.8591 67.2146 83.1429 64.9195 82.8508V86.9039Z" fill="#034EA2"/>
<path fill-rule="evenodd" clip-rule="evenodd" d="M40.9116 135.285V133.825H38.0336H36.8678V135.285H40.9116Z" fill="#034EA2"/>
<path fill-rule="evenodd" clip-rule="evenodd" d="M36.8678 131.232H40.9116V130.356V129.772H36.8678V131.232Z" fill="#034EA2"/>
<path fill-rule="evenodd" clip-rule="evenodd" d="M89.4737 135.285H90.348H91.8053H93.2625V133.825H89.5101V135.285H89.4737Z" fill="#034EA2"/>
</svg>
