<svg width="64" height="86" viewBox="0 0 64 86" fill="none" xmlns="http://www.w3.org/2000/svg">
<g clip-path="url(#clip0)">
<path fill-rule="evenodd" clip-rule="evenodd" d="M11.7672 1.89884H17.2416V0.544342H29.3192V1.89884H34.7372V0.544342H46.8148V1.89884H52.2328V0.544342H63.5767V1.92706C63.5767 19.2816 63.605 36.6078 63.605 53.9623C63.605 61.2145 60.1905 68.7772 55.478 74.1669C49.4392 81.0523 41.2275 84.8054 32.0565 84.8054C22.9418 84.8054 14.8431 81.0241 8.83247 74.1951C4.23282 69.0593 0.479736 61.3274 0.479736 54.2727C0.479736 36.8336 0.479736 19.3944 0.479736 1.95528V0.544342H11.7672V1.89884Z" fill="black"/>
<path fill-rule="evenodd" clip-rule="evenodd" d="M1.89077 1.95528H10.3846V3.30977H18.6527V1.95528H27.9366V3.30977H36.1483V1.95528H45.4322V3.30977H53.6439V1.95528H62.1941C62.1941 19.2816 62.2223 36.6078 62.2223 53.9906C62.2223 66.1528 51.4992 83.4509 32.0566 83.4509C12.8396 83.4509 2.17295 66.0682 1.86255 54.5831C1.89077 37.0029 1.89077 19.4791 1.89077 1.95528Z" fill="#FEEE03"/>
<path d="M1.89077 1.95528H10.3846V3.30977H18.6527V1.95528H27.9366V3.30977H36.1483V1.95528H45.4322V3.30977H53.6439V1.95528H62.1941C62.1941 19.2816 62.2223 36.6078 62.2223 53.9906C62.2223 66.1528 51.4992 83.4509 32.0566 83.4509C12.8396 83.4509 2.17295 66.0682 1.86255 54.5831C1.89077 37.0029 1.89077 19.4791 1.89077 1.95528Z" stroke="black" stroke-width="0.4252"/>
<path fill-rule="evenodd" clip-rule="evenodd" d="M3.64026 3.76126H8.57853V5.11576H20.4586V3.76126H26.1306V5.11576H37.9542V3.76126H43.6262V5.11576H55.478V3.76126H60.3881C60.3881 8.24803 60.3881 12.8195 60.3881 17.2498H55.4498V16.0646H43.5979V17.2498H37.926V16.0646H26.1306V17.2498H20.4586V16.0646H8.57853V17.2498H3.64026V3.76126Z" fill="black"/>
<path d="M3.64026 3.76126H8.57853V5.11576H20.4586V3.76126H26.1306V5.11576H37.9542V3.76126H43.6262V5.11576H55.478V3.76126H60.3881C60.3881 8.24803 60.3881 12.8195 60.3881 17.2498H55.4498V16.0646H43.5979V17.2498H37.926V16.0646H26.1306V17.2498H20.4586V16.0646H8.57853V17.2498H3.64026V3.76126Z" stroke="black" stroke-width="0.4252"/>
<path fill-rule="evenodd" clip-rule="evenodd" d="M3.47091 18.8019H10.0459V17.6449H18.9348V18.8019H27.6825V17.6449H36.4586V18.8019H45.037V17.6449H54.0388V18.8019H60.5855C60.5855 35.0558 60.6138 36.8054 60.6138 53.144C60.6138 64.7983 50.8501 81.786 32.0282 81.786C13.6014 81.786 4.11994 65.2216 3.47091 54.3856C3.44269 53.9059 3.44269 53.4544 3.44269 52.9747C3.47091 37.1158 3.47091 35.0276 3.47091 18.8019Z" fill="#C41515"/>
<path fill-rule="evenodd" clip-rule="evenodd" d="M49.4956 17.6449H54.067V18.8019H55.3933V69.1722C53.7848 71.5708 51.8095 73.8001 49.4673 75.719V17.6449H49.4956Z" fill="white"/>
<path fill-rule="evenodd" clip-rule="evenodd" d="M43.7107 18.8019H45.0652V17.6449H49.6084V75.6061C47.8306 77.0735 45.8836 78.3151 43.6825 79.331V18.8019H43.7107Z" fill="black"/>
<path fill-rule="evenodd" clip-rule="evenodd" d="M55.619 12.9606H58.3844V12.1987H58.2433C58.0458 12.1987 57.9329 12.1422 57.8765 12.0576C57.8201 11.9729 57.7918 11.8883 57.7918 11.7472V8.95352C57.7918 8.84065 57.7918 8.72777 57.8765 8.64312C57.9329 8.55846 58.0458 8.50202 58.2433 8.50202H58.3844V7.68368H56.0141C54.7724 7.68368 53.0793 7.51437 52.9382 9.03818C52.9382 9.3768 52.9382 9.65899 53.0229 9.88474C53.2486 10.4209 53.7848 10.6749 54.3774 10.7031L53.3897 11.8318C53.1075 12.1705 52.6278 12.1705 52.4867 12.1705H52.2892V12.9324H54.2927L55.9294 10.816H55.9858V11.719C55.9858 11.8601 55.9576 11.9729 55.9012 12.0576C55.8447 12.114 55.7319 12.1705 55.5908 12.1705V12.9606H55.619ZM56.0423 8.75599V9.99762H55.7036C54.8006 10.0258 54.462 9.74365 54.4902 9.23571C54.5749 8.58668 55.3368 8.6149 55.7319 8.6149H56.0141V8.75599H56.0423Z" fill="#FEEE03"/>
<path fill-rule="evenodd" clip-rule="evenodd" d="M49.1005 12.9605H51.7813V12.1986H51.6402C51.4991 12.1986 51.3862 12.1704 51.3298 12.0858C51.2734 12.0011 51.2451 11.9165 51.2451 11.7754V8.89705C51.2451 8.75596 51.2734 8.64308 51.3298 8.58665C51.3862 8.50199 51.4991 8.47377 51.6402 8.47377H51.7531V7.71187H49.1005V8.47377H49.2134C49.3827 8.47377 49.4674 8.53021 49.5238 8.61487C49.5802 8.69952 49.5802 8.78418 49.5802 8.92527V11.7471C49.5802 11.86 49.5802 11.9729 49.5238 12.0575C49.4674 12.1422 49.3545 12.1986 49.2134 12.1986H49.1005V12.9605Z" fill="#FEEE03"/>
<path fill-rule="evenodd" clip-rule="evenodd" d="M43.1746 7.71187V8.47377H43.3157C43.7389 8.47377 43.7389 8.6713 43.7389 8.86883V8.89705V11.7471V11.7754C43.7389 11.9729 43.7389 12.1704 43.3157 12.1704H43.1746V12.9323H45.1781C45.2063 12.9323 45.291 12.9323 45.4603 12.9323C47.0123 12.9323 48.5643 12.9041 48.5643 11.5214C48.5643 11.1263 48.4232 10.8724 48.2257 10.6748C47.9435 10.3926 47.3791 10.2516 47.097 10.2516C47.3227 10.1669 47.6896 10.1669 48.0564 9.77183C48.2539 9.5743 48.395 9.32033 48.395 9.00993C48.395 8.38912 48.1128 8.05049 47.6331 7.88118C47.1252 7.71187 46.3915 7.71187 45.5732 7.71187H43.1746ZM45.4038 11.8882V10.7313H45.9118C46.0811 10.7313 46.2786 10.7313 46.4479 10.8159C46.6455 10.9006 46.7866 11.0699 46.7866 11.3803C46.7866 11.6907 46.6455 11.8318 46.4479 11.9165C46.2786 12.0011 46.1093 12.0011 46.0247 12.0011H45.4038V11.8882ZM45.4038 9.74361V8.64308H45.8836C46.1093 8.64308 46.3068 8.6713 46.4761 8.72774C46.6455 8.8124 46.7583 8.95349 46.7583 9.23568C46.7583 9.32033 46.7583 9.48965 46.6455 9.60252C46.5608 9.74361 46.3633 9.85649 46.0529 9.85649H45.4038V9.74361Z" fill="#FEEE03"/>
<path fill-rule="evenodd" clip-rule="evenodd" d="M38.18 9.00995L37.2206 11.6343C37.1359 11.8318 37.1077 11.9729 37.023 12.0576C36.9384 12.1704 36.7973 12.1987 36.5997 12.1987H36.5715V12.9606H38.5751V12.1987C38.2929 12.1987 38.2364 12.0576 38.2364 11.9165C38.2364 11.86 38.2364 11.8318 38.2647 11.7754L38.2929 11.6907L38.3211 11.6061H40.3528L40.3811 11.6625C40.4657 11.8318 40.4657 11.9165 40.4657 11.9447C40.4657 12.0294 40.4375 12.0858 40.3246 12.1422C40.2682 12.1704 40.2117 12.1987 40.0989 12.1987H39.986V12.9606H42.6385V12.1987H42.6103C42.2153 12.1987 42.1306 11.9729 42.0742 11.7189L42.046 11.6625L40.8043 7.74011H38.6597L38.18 9.00995ZM39.337 8.89708H39.4498L39.4781 8.98174L39.9578 10.5055L40.0142 10.6749H38.6033L38.6597 10.5055L39.2241 8.98174L39.2523 8.89708H39.337Z" fill="#FEEE03"/>
<path fill-rule="evenodd" clip-rule="evenodd" d="M28.9523 11.0699C28.4162 11.8883 27.88 12.1704 27.0053 12.1704C25.1993 11.9729 25.425 8.53024 27.0053 8.50202H27.0335C27.5979 8.50202 28.2751 8.84064 28.6702 9.8283L29.5167 9.63077L28.9523 7.59902H28.3598C28.3315 7.65546 28.3033 7.88121 28.2469 7.93765C27.3721 7.42971 26.5255 7.42971 25.7072 7.76833C25.3404 7.93765 25.0017 8.19161 24.7478 8.50202C24.3527 9.00996 24.127 9.65899 24.127 10.3362C24.127 11.0135 24.2963 11.6907 24.6913 12.1987C25.2275 12.9041 26.1587 13.1299 26.977 13.1299C27.9083 13.1299 29.0088 12.6784 29.6296 11.5496L28.9523 11.0699Z" fill="#FEEE03"/>
<path fill-rule="evenodd" clip-rule="evenodd" d="M14.6737 9.63074V8.92527C14.6737 8.8124 14.6737 8.69952 14.7584 8.61487C14.8148 8.53021 14.9277 8.47377 15.1252 8.47377H15.1817V7.71187H12.4727V8.47377H12.5573C12.7548 8.47377 12.8677 8.53021 12.9242 8.61487C13.0088 8.69952 13.0088 8.8124 13.0088 8.92527V11.7471C13.0088 11.86 13.0088 11.9729 12.9242 12.0575C12.8677 12.1422 12.7548 12.1986 12.5573 12.1986H12.4727V12.9605H15.1817V12.1986H15.1534C14.9559 12.1986 14.843 12.1422 14.7866 12.0575C14.6737 11.9729 14.6737 11.86 14.6737 11.7471V11.3803L15.3227 10.7595L16.1411 11.8882C16.3104 12.114 16.1411 12.1986 15.8307 12.1986V12.9605H18.5961V12.1986C18.3986 12.1986 18.0882 12.1986 17.9189 12.0575L16.3668 9.91293L17.7778 8.64308C17.9753 8.47377 18.0882 8.47377 18.3704 8.47377V7.71187H15.8589V8.50199C16.3951 8.44555 16.3668 8.58665 16.2822 8.6713L14.6737 10.1387V9.63074Z" fill="#FEEE03"/>
<path fill-rule="evenodd" clip-rule="evenodd" d="M7.28042 7.74011V8.4738H7.44974H7.47795C7.50617 8.4738 7.53439 8.4738 7.59083 8.4738C7.76014 8.50202 7.92945 8.55845 7.90123 8.84064V8.95352H7.28042C6.82892 8.95352 6.15168 9.00995 5.67196 9.34858C5.36155 9.54611 5.1358 9.88473 5.1358 10.3645C5.1358 10.7595 5.30512 11.1264 5.70018 11.3521C6.12346 11.6061 6.80071 11.7472 7.81658 11.7472H7.92945V11.9447C7.92945 12.0858 7.87302 12.1422 7.78836 12.1987C7.73192 12.2269 7.64727 12.2269 7.56261 12.2269H7.33686V12.9606H9.9612V12.2269H9.73545C9.65079 12.2269 9.59436 12.2269 9.5097 12.1987C9.42504 12.1704 9.34039 12.0858 9.34039 11.9447V11.7472H9.45326C10.4691 11.7472 11.1464 11.6061 11.5697 11.3521C11.9647 11.0981 12.134 10.7595 12.134 10.3645C12.134 9.88473 11.9083 9.54611 11.5979 9.34858C11.1182 9.03817 10.4409 8.95352 9.98942 8.95352H9.36861V8.84064C9.34039 8.55845 9.5097 8.50202 9.67901 8.4738C9.70723 8.4738 9.76367 8.4738 9.79189 8.4738H9.82011H9.98942V7.74011H7.28042ZM9.42504 9.63077H9.76367C10.1587 9.63077 10.3563 9.80008 10.4409 9.96939C10.5538 10.1387 10.5538 10.3362 10.5538 10.3927C10.5538 10.4773 10.5256 10.6466 10.4409 10.7877C10.328 10.9288 10.1305 11.0417 9.79189 11.0417H9.31217V9.60255H9.42504V9.63077ZM7.87302 9.74364V11.0417H7.3933C7.05467 11.0417 6.85714 10.9288 6.74427 10.7877C6.63139 10.6466 6.63139 10.4773 6.63139 10.3927C6.63139 10.308 6.63139 10.1387 6.74427 9.96939C6.85714 9.80008 7.05467 9.63077 7.42152 9.63077H7.87302V9.74364Z" fill="#FEEE03"/>
<path fill-rule="evenodd" clip-rule="evenodd" d="M32.6208 8.98174L32.649 8.89708H32.8466L32.8748 8.98174C32.9312 9.20748 33.806 11.8318 33.806 11.9447C33.806 12.0294 33.7778 12.0858 33.6649 12.1422C33.6085 12.1704 33.552 12.1987 33.4392 12.1987H33.3263V12.9606H35.9788V12.1987H35.9506C35.5556 12.1987 35.4709 11.9729 35.4145 11.7189L35.3863 11.6625L34.1446 7.74011H32.0847L30.6173 11.6625C30.5326 11.86 30.5044 12.0011 30.4198 12.0858C30.3351 12.1987 30.194 12.2269 29.9965 12.2269H29.9683V12.9888H31.9718V12.2269C31.6896 12.2269 31.6332 12.0858 31.6332 11.9447C31.6332 11.8883 31.6332 11.86 31.6614 11.8036L31.6896 11.7189L32.6208 8.98174Z" fill="#FEEE03"/>
<path fill-rule="evenodd" clip-rule="evenodd" d="M32.0001 72.1351H33.7778V71.6554H33.665C33.3546 71.6554 33.3546 71.4861 33.3546 71.345V70.8089H33.4674H33.8907H33.9189C34.1729 70.8089 34.5115 70.7242 34.7937 70.5831C35.0477 70.442 35.2734 70.1598 35.2734 69.7083V69.6801C35.2734 69.1722 35.0477 68.9182 34.7373 68.7489C34.3987 68.5796 33.8907 68.5514 33.3828 68.5514H32.0001V69.0311H32.0565C32.3669 69.0311 32.3669 69.2004 32.3669 69.3415V71.3168C32.3669 71.4861 32.3669 71.6272 32.0565 71.6272H32.0001V72.1351ZM33.5521 69.1722C33.7214 69.1722 33.8907 69.1722 34.0036 69.2568C34.1447 69.3415 34.2293 69.4544 34.2293 69.6801C34.2293 69.7648 34.2011 69.9059 34.1165 70.0187C34.0318 70.1316 33.8907 70.2163 33.6367 70.2163H33.3546V69.2004L33.5521 69.1722Z" fill="#FEEE03"/>
<path fill-rule="evenodd" clip-rule="evenodd" d="M29.658 72.1352H31.3793V71.6555H31.3229C31.21 71.6555 31.1535 71.6273 31.0971 71.5708C31.0407 71.5144 31.0125 71.4297 31.0125 71.3169V69.3415C31.0125 69.2287 31.0407 69.144 31.0971 69.0876C31.1535 69.0311 31.2382 69.0029 31.3229 69.0029H31.3793V68.5232H29.658V69.0029H29.7144C30.0248 69.0029 30.0248 69.1722 30.0248 69.3415V71.3169C30.0248 71.4862 30.0248 71.6555 29.7144 71.6555H29.658V72.1352Z" fill="#FEEE03"/>
<path fill-rule="evenodd" clip-rule="evenodd" d="M25.933 72.1352H27.5133C27.8519 72.1352 28.3034 72.1352 28.6985 71.9941C29.0653 71.853 29.3475 71.599 29.3475 71.1193C29.3475 70.95 29.3475 70.6678 29.15 70.4138C28.9807 70.1599 28.6138 69.9623 27.9084 69.9623H27.2875V69.398C27.2875 69.2286 27.2875 69.0875 27.5979 69.0875H27.7108V68.6078H25.933V69.0875H25.9895C26.1306 69.0875 26.2152 69.144 26.2434 69.2004C26.2999 69.2569 26.2999 69.3415 26.2999 69.398V71.4015C26.2999 71.5708 26.2999 71.7119 25.9895 71.7119H25.933V72.1352ZM27.4851 70.5267H27.6544C27.8519 70.5267 28.0212 70.5549 28.1059 70.6396C28.2188 70.7242 28.2752 70.8653 28.2752 71.0346C28.2752 71.2886 28.1623 71.4015 28.0212 71.4861C27.9084 71.5426 27.7673 71.5426 27.6826 71.5426H27.3158V70.4985H27.4851V70.5267Z" fill="#FEEE03"/>
<path fill-rule="evenodd" clip-rule="evenodd" d="M23.2239 70.6396C23.5061 70.6396 23.9858 70.6678 24.1552 70.8653C24.2398 70.9782 24.268 71.0911 24.268 71.1475C24.268 71.3451 24.1552 71.4862 24.0141 71.5708C23.9012 71.6273 23.7037 71.6273 23.6754 71.6273C23.0546 71.6273 22.5749 71.0347 22.462 70.8653L21.9541 71.204C22.067 71.4015 22.1234 71.4579 22.3492 71.7119C22.6031 72.0223 23.0264 72.2481 23.8165 72.2481C24.3527 72.2481 24.7478 72.1352 25.0017 71.9377C25.2839 71.7401 25.425 71.4862 25.425 71.1758C25.425 70.9218 25.3403 70.7525 25.2275 70.6396C24.9735 70.3574 24.776 70.3574 24.5784 70.301C24.8042 70.2445 25.0017 70.0752 25.171 69.9059C25.2839 69.793 25.3403 69.5955 25.3403 69.398C25.3403 69.1722 25.2557 68.89 24.9735 68.7207C24.7478 68.5796 24.3809 68.495 23.8165 68.495C23.3933 68.495 23.0828 68.6925 22.9982 68.7772C22.97 68.7772 22.9418 68.8054 22.9418 68.7207L22.4903 68.6643L22.1234 70.0188L22.6596 70.1317C22.7724 69.7366 23.1111 69.1722 23.7037 69.1722C23.9858 69.1722 24.2398 69.3133 24.2398 69.6519C24.2398 69.8495 24.1269 69.9624 24.0141 70.047C23.9012 70.1034 23.365 70.1034 23.2804 70.1034H23.2239V70.696V70.6396Z" fill="#FEEE03"/>
<path fill-rule="evenodd" clip-rule="evenodd" d="M18.2575 71.2604C18.2011 71.4015 18.1729 71.4861 18.1164 71.5708C18.06 71.6554 17.9753 71.6836 17.8342 71.6836V72.1634H19.0476V71.6836C18.8783 71.6554 18.8219 71.5708 18.8219 71.4579C18.8219 71.4297 18.8219 71.4015 18.8219 71.3732V71.3168L18.8501 71.2321H20.2046L20.2328 71.2886C20.2893 71.4015 20.2893 71.4579 20.2893 71.4861C20.2893 71.5425 20.261 71.599 20.2046 71.6554C20.1764 71.6836 20.1199 71.6836 20.0353 71.6836H20.0071V72.1634H21.6155V71.6836C21.3616 71.6836 21.3051 71.5143 21.2487 71.3168V71.2886L20.4586 68.5796H19.1887L18.2575 71.2604ZM19.5556 69.3133H19.6684L19.6967 69.3979L20.0071 70.442L20.0353 70.5831H19.0476L19.1041 70.442L19.4709 69.3979V69.3133H19.5556Z" fill="#FEEE03"/>
<path fill-rule="evenodd" clip-rule="evenodd" d="M12.7549 68.5514V69.0311H12.8113C12.9524 69.0311 13.0371 69.0875 13.0935 69.1439C13.1499 69.2004 13.1499 69.285 13.1499 69.3415V71.3168C13.1499 71.4861 13.1499 71.6554 12.8395 71.6554H12.7831V72.1351H13.9965V71.6554C13.8554 71.6554 13.7708 71.599 13.7143 71.5425C13.6861 71.4861 13.6861 71.4014 13.6861 71.345V69.5108L14.8713 71.9658L15.9718 69.4826V71.3168C15.9718 71.4861 15.9718 71.6554 15.6614 71.6554V72.1351H17.3263V71.6554H17.2699C16.9595 71.6554 16.9595 71.4861 16.9595 71.345V69.3697C16.9595 69.2004 16.9595 69.0593 17.2699 69.0593H17.3263V68.5796H15.7743L15.0124 70.2727L14.2505 68.5796H12.7549V68.5514Z" fill="#FEEE03"/>
<path fill-rule="evenodd" clip-rule="evenodd" d="M27.2593 37.398C27.2311 36.495 26.6103 35.4509 26.4974 34.6043C26.3563 33.8142 26.441 33.5602 26.5539 33.2216C26.695 32.7419 26.8925 32.3186 27.1182 31.7825C27.344 31.1616 27.344 30.9923 27.2311 30.5126C26.7232 30.2304 26.187 31.1334 25.9048 31.1334C25.2558 31.1334 24.0706 29.8636 21.7285 31.5567C20.3175 31.9235 19.2452 33.3627 20.1482 34.9712C20.3458 34.689 20.374 34.5761 20.6279 34.4632C20.8819 35.0276 21.1641 35.1405 21.8131 35.5073C21.926 35.8459 21.1359 36.9747 21.2205 37.4544C21.4463 37.2569 21.5874 37.4262 21.6156 37.5109C21.5592 37.7366 21.023 38.0188 20.4586 39.0629C20.2329 39.0629 19.5556 39.1193 19.6967 38.7243C20.2893 36.5796 20.1764 36.5514 18.5962 35.4509C18.2294 35.1405 16.2823 33.8706 16.0847 33.3063C16.0001 33.532 15.9436 33.7295 15.9154 34.04C14.702 33.0523 12.3881 28.8477 12.1341 27.9165C11.8237 28.5091 11.6262 28.9888 11.6262 29.4967C10.3281 28.6784 7.05475 22.8371 6.65969 21.3133C6.01066 24.6431 7.16763 27.4368 7.61913 28.1987C7.33694 28.114 6.15176 26.4773 5.86957 26.308C5.58738 28.7913 7.16763 31.5849 7.56269 32.1493C7.22407 32.1211 5.81313 31.1899 5.53094 31.0206C5.72848 32.1775 7.11119 35.1687 8.1835 36.3821C7.61913 36.4103 7.16763 36.3821 6.15176 36.3257C6.37751 36.8618 7.70378 38.4985 9.14294 39.7684C8.57856 39.9659 7.95775 39.853 7.44982 39.8248C8.635 42.4209 12.0777 43.9447 12.3881 44.0012C12.1341 44.368 11.2593 44.4809 10.7232 44.5373C11.1747 45.6943 13.2629 46.0893 13.4604 46.174C13.3193 46.6255 12.8678 46.7101 12.4445 47.0488C12.8396 47.2181 15.0124 47.6978 15.7179 47.5849C15.7461 47.8107 15.6332 48.0082 15.3511 48.3468C15.6332 48.6572 16.508 48.8266 16.9595 48.7983C16.9031 49.0241 16.762 49.0523 16.4798 49.1934C17.1853 50.2657 19.8096 49.7578 20.0636 51.1969C20.0918 51.5073 20.0636 51.5638 20.0918 51.7331C19.9789 51.7049 19.6121 51.1687 19.471 51.0558C18.0883 49.8706 15.8308 50.6608 15.8308 53.144L15.9719 55.7684C15.9719 56.6149 15.859 58.0258 16.0001 58.6467C16.2258 58.3363 16.254 58.2798 16.5927 58.2234C16.6491 59.2675 16.6491 60.368 16.3105 60.3962C15.9436 60.4809 15.8026 60.4809 14.956 60.7066C14.3352 60.8759 13.7708 61.2992 13.3475 61.8072C12.6703 62.6537 12.4727 63.8107 13.404 64.629C13.799 64.9676 13.9683 65.0523 14.4763 65.2498C14.956 65.4474 16.762 65.7578 17.3546 65.6731C17.0724 65.137 16.0847 63.5849 16.6209 63.1616C16.7902 63.0488 17.1006 63.0206 17.2981 63.1052C17.8625 63.3874 17.5803 64.8548 17.8907 65.0523C18.5962 64.5726 19.3299 63.8389 19.3863 63.0488C19.4428 61.6943 19.4145 60.3962 19.8943 59.5497C20.0071 59.3521 20.3458 59.719 20.5433 59.6343C20.5715 60.0294 19.866 61.5532 19.7249 63.6132L19.6685 64.2622L20.769 63.6978L20.6562 64.0646C20.9948 64.0646 21.1641 64.0364 21.6438 63.8107C21.8131 64.1493 22.1518 65.3627 22.4057 65.6167C22.4904 65.278 22.4622 65.0241 22.6315 64.7983C22.829 64.9112 23.3369 66.1811 23.6191 66.7172C23.8731 66.2375 24.2399 65.1087 24.6632 64.7701C24.9736 64.9394 25.1147 65.0523 25.1994 65.4191C25.7073 64.7983 25.8484 64.2622 25.9331 63.7825C26.1024 63.98 26.187 64.0646 26.2999 64.4315C26.6103 64.1211 26.7514 63.7542 26.6103 63.4156C26.9489 63.4721 27.598 64.3751 27.9084 64.4597C27.7391 61.9765 27.4569 61.1581 27.1182 59.5214C27.3722 59.8883 27.6262 58.9571 27.7108 59.1264C28.501 60.6784 27.6826 62.823 28.896 64.2057C29.0089 64.3751 29.4886 64.9112 29.6297 64.9959C30.0812 64.4315 30.0248 64.4033 30.1094 63.6696C30.1659 63.077 30.5609 62.8795 30.9842 63.2181C31.3228 63.8671 30.8431 64.8266 30.1659 65.6449C30.702 65.6449 32.7055 65.3627 33.1853 65.1934C33.919 64.9112 34.568 64.2904 34.7091 63.5567C34.8784 62.5408 34.3705 61.7789 33.919 61.3557C32.9595 60.5091 31.605 60.5937 31.4357 60.5373C30.8996 60.622 31.1535 58.5338 31.1817 58.0258C31.4639 58.1387 31.7179 58.4209 31.8025 58.6749C32.0283 57.9694 31.9154 56.8124 31.859 55.6837C31.8026 54.696 31.8308 53.7084 31.8308 53.0029C31.8308 50.6325 29.6579 49.6449 28.0777 51.0558C27.9366 51.1969 27.7673 51.5355 27.6262 51.6202C27.6544 51.3945 27.598 51.3945 27.6544 51.0276C27.8802 50.689 28.0212 50.5197 28.0777 50.2657H28.3881C29.2911 49.8424 30.7585 49.8989 31.2382 49.137C30.956 48.9959 30.8431 48.9676 30.7585 48.7419C31.21 48.7701 32.0847 48.6008 32.3669 48.2904C32.0847 47.9518 31.9719 47.7825 32.0001 47.5285C32.7055 47.6696 34.8784 47.1899 35.2735 46.9923C34.8502 46.6537 34.3987 46.5691 34.2576 46.1176C34.4551 46.0329 36.5433 45.6096 36.9948 44.4809C36.4586 44.4244 35.5556 44.3116 35.3299 43.9447C35.6685 43.8883 39.083 42.3645 40.2682 39.7684C39.732 39.7966 39.1394 39.9094 38.575 39.7119C40.0142 38.4421 41.3405 36.8054 41.5662 36.2692C40.5503 36.3257 40.0706 36.3539 39.5345 36.3257C40.6068 35.1123 42.0177 32.1211 42.187 30.9641C41.8766 31.1334 40.4939 32.0646 40.1553 32.0929C40.5503 31.5285 42.1588 28.7348 41.8484 26.2516C41.5662 26.4209 40.4093 28.0576 40.0989 28.1422C40.5503 27.4086 41.7073 24.5867 41.0583 21.2569C40.6632 22.7807 37.3899 28.622 36.0918 29.4403C36.0918 28.9324 35.8943 28.4244 35.5839 27.8601C35.3299 28.7913 33.016 32.9959 31.8025 33.9835C31.7743 33.6449 31.7179 33.4756 31.6332 33.2498C31.4357 33.8424 29.4886 35.1123 29.1218 35.3945C27.5415 36.495 27.4287 36.495 28.0212 38.6678C28.1341 38.95 27.7673 39.0064 27.4851 39.0064V38.696C27.2593 38.0752 27.09 37.8213 26.7514 37.3133C26.8925 37.2004 27.0336 37.2851 27.2593 37.398Z" fill="#FDEE05"/>
<path fill-rule="evenodd" clip-rule="evenodd" d="M25.8202 53.0029C25.7919 52.6079 25.7073 51.846 25.2276 51.6202C24.9454 52.0999 24.635 52.8336 23.9577 53.398C23.3651 53.0876 23.0829 51.8742 22.7161 51.6766C22.1235 52.0999 22.1517 52.3539 22.0389 52.7772C21.6438 52.1846 21.0794 51.7613 20.6844 51.5638C20.8255 51.9024 20.769 52.241 20.6844 52.6361C20.7972 53.1722 21.4745 54.3574 21.5874 54.8936C21.8131 56.0788 22.3775 56.4174 22.4339 56.9818C22.1517 56.6149 22.0106 57.0382 21.8978 57.2357C21.4463 57.9976 20.0918 62.6255 20.2611 63.4721C20.5997 63.077 21.0512 62.7384 21.3898 62.7666V63.5849C21.672 63.3592 21.672 63.3592 22.0671 63.2181C21.9824 63.4156 22.0389 64.234 22.2928 64.7419C22.3775 64.234 22.5186 64.1493 22.7443 63.8389C22.9136 64.0929 23.224 64.883 23.732 65.6449C24.0142 65.0241 24.7196 64.2057 24.7478 63.8107C24.9172 63.9518 25.0865 64.3186 25.284 64.7419C25.5662 64.3186 25.6508 63.726 25.6791 63.2745C25.8202 63.1617 26.0741 63.6132 26.3281 63.6132C26.2434 63.3028 26.2999 62.9923 26.2717 62.6537C26.7232 62.7666 27.09 63.2181 27.5697 63.5003C27.344 62.1458 26.836 59.9165 26.441 58.7595C26.2999 58.3363 26.1023 57.5744 25.9048 57.2639C25.7637 56.9818 25.9048 56.4738 25.5098 57.0664C25.5098 56.8971 25.7355 56.3327 26.0741 55.9094C26.1306 55.1193 26.9489 53.3133 27.2593 52.4385C27.0336 52.2128 27.2311 51.7049 27.2593 51.3098C27.0053 51.5638 26.3281 52.2692 25.8202 53.0029Z" fill="black"/>
<path fill-rule="evenodd" clip-rule="evenodd" d="M17.0159 36.7207C16.5362 37.0594 15.5486 36.8054 15.2099 36.6925C15.1253 37.0029 15.7743 38.5832 16.6491 39.0911C16.3105 39.4015 15.8872 39.4579 15.6332 39.5426C15.8308 39.7683 15.9436 40.1352 16.8184 40.2763C16.7902 40.5867 16.7337 41.2075 16.254 41.6308C16.9313 41.913 17.4674 41.8847 17.6367 41.8565C17.6085 42.1951 17.4392 42.6184 17.1852 42.8442C17.665 43.1828 18.5115 43.4086 19.2452 43.0981C19.9507 42.7877 19.866 43.465 19.4992 44.0011C19.866 44.2551 21.0512 43.9729 21.8696 43.5496C21.8978 43.6343 21.8696 44.3962 21.6438 44.7348C22.1235 44.7348 22.2364 44.2551 22.3493 44.368C22.7161 44.7631 23.2523 45.525 24.381 45.8636C24.6068 45.6096 24.7761 45.1299 25.3687 44.368C25.6791 44.4526 25.792 44.6784 26.8643 44.9324C27.0054 44.4809 27.1182 44.1705 27.0054 43.6343C27.6544 43.7754 27.9648 44.2269 28.5292 44.1705C28.3881 43.8883 28.0212 43.3239 28.3034 43.0135C29.0371 43.3521 30.2223 43.211 30.7302 42.8724C30.4763 42.6467 30.3069 42.2234 30.2787 41.8847C30.448 41.913 30.9842 41.9412 31.6614 41.659C31.1817 41.2357 31.1253 40.6149 31.0971 40.3045C31.9436 40.1634 32.0847 39.7966 32.2823 39.5708C32.0001 39.4862 31.605 39.4297 31.2664 39.1193C32.1412 38.6114 32.7902 37.0311 32.7055 36.7207C32.3387 36.8336 31.3793 37.0594 30.8995 36.749C31.3793 36.3539 31.859 35.3945 31.605 34.2375C31.0406 35.084 28.5574 36.0153 28.3599 37.3698C28.3034 37.6802 28.7831 38.5549 28.5574 39.1193C28.5292 39.4579 27.9648 39.4579 27.7955 39.599C28.1341 39.9941 28.4163 40.2763 28.4163 41.1793C28.2188 41.0382 27.7108 40.7842 27.2311 40.9535C26.695 41.4897 27.2311 42.6749 27.2311 42.6749C26.2999 42.9853 25.3405 42.2234 25.0865 41.7437C24.7761 42.1952 24.3528 43.211 24.3246 44.0011C23.6755 44.0011 22.6032 42.4209 22.3493 41.9412C22.1517 42.2798 21.5309 42.816 20.7408 42.7031C21.4463 41.5179 20.8255 40.8124 20.2611 40.9253C19.8942 41.0946 19.6685 41.1793 19.5274 41.1793C19.5274 40.2763 19.8942 40.1634 20.1482 39.599C19.9789 39.4297 19.4427 39.4579 19.3863 39.1193C19.1606 38.5549 19.6403 37.6802 19.5838 37.3698C19.3863 36.0153 16.9031 35.084 16.3387 34.2375C16.0847 35.3662 16.5644 36.3539 17.0159 36.7207Z" fill="black"/>
<path fill-rule="evenodd" clip-rule="evenodd" d="M16.8466 60.9323C16.1412 61.017 15.1817 61.1016 14.6456 61.3838C14.1376 61.666 13.5733 62.2022 13.4322 62.8512C13.0935 64.5161 14.9278 65.2215 16.2823 65.3344C16.0283 64.8829 14.1094 63.9799 14.9278 62.9076C15.2664 63.1616 15.1817 64.375 16.6209 64.9394C15.2664 62.5408 17.2417 62.3715 17.8625 63.1898C18.1729 63.5849 17.9754 64.1775 18.1447 64.5443C18.568 64.4314 19.1606 63.3591 19.1041 62.7383C18.9066 61.0734 19.2452 59.4367 19.9225 58.703C20.1764 58.4491 20.3175 58.5055 20.4586 59.1263C20.8537 58.7595 21.3898 57.0946 21.5309 56.8406C21.4745 56.6995 21.3616 56.4455 21.2487 56.3609C21.1641 56.3891 20.7972 56.248 20.5715 56.1351C20.3458 56.2762 20.3175 57.5178 20.2329 57.5743C19.9225 57.3203 19.8943 56.9253 19.7249 56.6713C19.6967 56.9535 19.5838 58.5337 19.471 58.7595C19.5274 58.2233 19.1041 57.6307 18.9348 57.4896C18.8784 57.5743 18.6808 58.4773 18.7373 58.6748C18.5398 58.2798 18.2293 58.1669 18.0883 57.9976C17.9472 58.1951 17.9189 58.4491 17.6932 58.8723C17.2699 58.4491 17.4674 58.5337 17.0159 58.308C16.9877 58.5902 17.157 60.8477 16.8466 60.9323Z" fill="black"/>
<path fill-rule="evenodd" clip-rule="evenodd" d="M20.261 34.3221C21.3616 32.629 22.6032 33.5602 22.575 34.2657C21.8695 34.6043 21.3616 34.2657 20.9947 34.2093C20.9947 34.9712 22.2646 35.1405 22.2928 35.3098C22.2646 35.592 21.8131 36.7207 21.7849 36.9747C22.1517 36.5232 22.0953 36.8336 22.2081 37.0594C22.2928 37.2287 22.321 37.6237 22.4621 37.6802C22.6314 37.4262 22.6596 37.144 23.0829 36.7772C23.3933 36.9465 23.7602 37.4262 23.873 37.7084C24.1552 37.6237 24.5221 37.1722 24.6349 36.8336C25.1429 36.89 25.284 37.1722 25.5379 37.5391C25.7637 37.2851 25.7919 37.2005 25.9048 36.8054C26.3281 36.89 26.5538 36.8054 26.6949 36.9465C26.6102 36.2692 26.4409 35.6766 26.2434 35.1687C26.1305 34.8865 25.9048 34.7736 25.9048 34.4068C25.9048 32.7419 27.0335 32.0929 26.8924 30.9923C26.4127 31.077 26.3563 31.4721 25.8766 31.5567C25.2558 31.6414 24.2117 30.6819 22.6596 31.5003C22.321 31.6696 22.1517 31.7825 21.8131 31.98C21.3051 32.0647 19.8378 32.8548 20.261 34.3221Z" fill="black"/>
<path fill-rule="evenodd" clip-rule="evenodd" d="M16.3669 54.7525C16.5362 55.0911 16.8184 55.2322 17.1288 55.2886C17.0724 54.8653 17.157 53.8495 17.3828 53.5673C17.4674 53.793 17.7778 54.4703 17.9754 55.0346C18.0882 54.696 18.5397 53.9059 19.0477 53.7366C19.3016 53.9341 19.1606 54.6678 18.9912 54.9218C18.8219 54.7242 19.1323 54.2163 18.7937 54.1316C18.4551 54.4138 18.0882 55.204 18.1165 55.6555C17.7214 55.4015 17.5239 54.4703 17.3546 54.2445C17.2981 54.4985 17.3828 55.6837 17.4674 55.8812C17.0159 55.599 16.7055 55.4015 16.3951 55.0629C16.3951 55.4297 16.2258 57.4615 16.3387 57.8283C16.4233 57.659 16.4516 57.6026 16.6491 57.405C16.8748 57.5743 17.1006 58.0541 17.6085 58.308C17.8625 58.0541 17.8625 57.4897 17.9754 57.3768C18.1165 57.4897 18.4833 57.6026 18.5962 57.8565C18.6526 57.659 18.568 57.01 18.8501 56.6713C18.963 56.8406 19.0759 57.1228 19.3581 57.4897C19.5274 57.0946 19.5556 56.5585 19.6403 56.1634C19.8096 56.3327 19.9507 56.5585 20.1764 56.6713C20.2611 56.1352 20.374 55.9094 20.4586 55.7683C20.5433 55.9376 21.1359 55.9941 21.2487 56.0787C21.1641 55.5426 20.4304 53.3133 20.1764 52.8054C19.866 52.0999 19.6121 51.5637 19.0195 51.2251C18.314 50.8301 17.3828 50.9429 16.9031 51.3944C16.3669 51.9306 16.254 52.5514 16.2822 53.5108C16.2822 54.4421 16.3387 53.8495 16.3669 54.7525Z" fill="black"/>
<path fill-rule="evenodd" clip-rule="evenodd" d="M25.1711 39.7119C24.9736 40.1634 24.127 41.0099 23.5345 41.0099C23.3934 40.4456 23.083 39.9376 22.829 39.7119C22.7443 39.7683 22.2364 40.2763 21.7849 40.5584C21.672 39.8812 21.5027 39.2039 20.9666 39.1193C20.8819 39.4015 20.0071 40.0223 20.0353 40.6995C21.1641 40.3327 21.3616 41.3486 21.277 42.2516C21.5591 42.1105 21.9542 41.9412 22.4339 41.3203C22.6879 41.8847 23.1958 42.9006 24.0706 43.3239C24.0424 42.9288 24.8043 41.4897 25.0865 41.2075C25.4251 41.8283 25.9048 42.3927 26.6667 42.3362C26.5539 41.8001 26.6667 41.151 26.8925 40.8406C27.2875 40.5302 27.7108 40.6995 27.9648 40.6995C27.5415 39.6837 27.4286 39.7119 27.1182 39.2039C26.6949 39.4015 26.1024 39.6272 25.7355 40.8971C25.8202 40.6431 25.3969 39.8248 25.1711 39.7119Z" fill="black"/>
<path fill-rule="evenodd" clip-rule="evenodd" d="M21.0512 38.8936C21.3052 38.8371 21.8413 39.4579 21.9542 40.107C22.1517 39.9377 22.4339 39.4862 22.9419 39.1193C23.1958 39.3451 23.5062 39.9377 23.732 40.5867C24.3528 40.3045 24.8325 39.1757 24.8325 38.9782C25.4251 39.2322 25.6509 39.6272 25.7919 40.107C26.1588 39.4015 26.5256 39.0911 26.9771 38.8089C27.09 38.301 26.3281 37.2287 26.0459 37.2004C25.9895 37.6237 25.7073 38.1599 25.5662 38.2163C25.4251 37.8777 25.1429 37.5391 24.8043 37.3415C24.6914 37.6237 24.2117 38.1881 23.7884 38.3856C23.6755 37.9906 23.4216 37.4544 23.0547 37.2004C22.8572 37.4262 22.5186 37.9623 22.3775 38.4703C22.2928 38.1034 22.1235 37.6802 21.8131 37.5673C21.5874 38.4138 21.1076 38.5267 21.0512 38.8936Z" fill="black"/>
<path fill-rule="evenodd" clip-rule="evenodd" d="M22.829 55.2322C22.7725 54.7525 22.6032 54.301 22.8007 53.7366C22.8854 54.047 23.5062 55.2322 23.9013 55.4297C24.2117 55.2322 24.6914 54.696 24.8889 54.3292C25.03 54.5832 24.9454 54.8371 24.8325 55.1757C25.5097 55.0064 26.4974 53.6802 26.5538 52.9747C26.2152 53.5391 25.4533 54.2445 25.1711 54.3574C25.3122 53.9906 25.3686 53.1722 25.1429 52.9182C24.9171 53.5391 24.4939 54.3574 23.9013 54.6396C23.6191 54.3856 22.7725 53.4826 22.6314 52.8336C22.2928 53.5391 22.4621 53.7366 22.4057 54.0752C22.0106 53.8777 22.0106 53.7648 21.5027 53.2569C21.7849 54.1317 22.5468 55.0629 22.829 55.2322Z" fill="#FDEE05"/>
<path fill-rule="evenodd" clip-rule="evenodd" d="M23.0264 61.017L22.6314 60.2268C22.4338 60.3397 21.559 61.4967 21.5308 61.6096C21.9823 61.2427 21.8412 61.2145 22.4903 60.9041L22.9982 61.8635C23.2522 61.6942 23.5061 60.8194 23.7601 60.5655C23.9858 60.7066 24.4938 61.666 24.7195 61.8635C24.9171 61.6378 24.8888 60.9888 25.1146 60.8194C25.4532 61.3838 25.8483 61.5249 26.2151 61.8635C25.679 61.017 25.5379 60.9888 25.1993 60.1704C24.9735 60.3115 24.9171 60.6783 24.6631 60.9888L24.268 60.509C24.1552 60.3397 23.8448 60.0858 23.6754 59.9729C23.4215 60.3397 23.0828 60.6783 23.0264 61.017Z" fill="#FDEE05"/>
<path fill-rule="evenodd" clip-rule="evenodd" d="M23.0265 32.0082C21.672 32.4033 22.6879 33.1369 23.5062 33.1934C23.6473 33.0523 24.5221 32.5444 24.5221 32.2622C24.5785 32.0646 23.4216 31.8953 23.0265 32.0082Z" fill="#E7D908"/>
<path fill-rule="evenodd" clip-rule="evenodd" d="M24.1552 32.4315C24.1552 32.5443 23.7319 32.6572 23.5061 32.883C23.2804 32.8547 23.0828 32.6854 22.9982 32.5726C22.97 32.5443 22.9418 32.5161 22.9418 32.4879C22.8007 32.2904 23.9858 32.1493 24.1552 32.4315Z" fill="black"/>
<path fill-rule="evenodd" clip-rule="evenodd" d="M30.843 60.9324C31.5484 61.017 32.5079 61.1017 33.044 61.3839C33.552 61.6661 34.1163 62.2022 34.2574 62.8512C34.5961 64.5161 32.7618 65.2216 31.4073 65.3345C31.6613 64.883 33.5802 63.98 32.7618 62.9077C32.4232 63.1616 32.5079 64.3751 31.0687 64.9394C32.4232 62.5408 30.4479 62.3715 29.8271 63.1899C29.5167 63.5849 29.7142 64.1775 29.5449 64.5444C29.1216 64.4315 28.529 63.3592 28.5855 62.7384C28.783 61.0735 28.3879 59.8318 28.0775 58.9571C27.9929 58.7313 27.7954 58.562 27.5978 58.6184C27.4567 58.6749 27.3156 58.816 27.231 59.1264C26.8359 58.7595 26.328 57.0664 26.1869 56.8124C26.2433 56.6713 26.4126 56.3609 26.5255 56.2763C26.7513 56.2481 27.0334 55.9941 27.0899 55.8248C27.3156 55.9659 27.4003 56.7278 27.6543 57.0664C27.7954 56.6996 27.8518 56.4738 28.134 56.3327C28.1622 56.6149 28.529 57.7437 28.6419 57.9694C29.0934 57.0664 29.1216 56.502 29.3192 56.3045C29.686 56.8407 29.9682 57.8283 30.335 58.5056C30.5043 58.1952 30.4761 57.5461 30.7865 57.3486C31.1534 57.9976 30.5326 60.8477 30.843 60.9324Z" fill="black"/>
<path fill-rule="evenodd" clip-rule="evenodd" d="M31.4074 54.4421C31.351 54.8371 30.9559 54.8936 30.7302 55.2886C30.6455 54.696 30.4762 54.1881 30.2504 53.9341C29.8836 54.2163 29.7425 54.3574 29.5732 54.7243C29.4603 54.3856 28.8677 53.9623 28.5573 53.4262C28.2469 53.8495 28.1905 54.3292 28.4444 54.6678C28.5009 54.2163 28.5573 53.9341 28.6702 53.9059C29.0653 54.3574 29.2628 54.8371 29.4885 55.4297C29.8554 54.8371 29.94 54.4421 30.1658 54.2445C30.4762 54.3856 30.4198 55.7401 30.7302 55.8812C30.9559 55.3451 31.0688 55.1757 31.3792 54.8371C31.3792 55.204 31.6614 57.5743 31.5485 57.9412C31.4638 57.5461 30.9841 57.0664 30.7866 56.8971C30.5608 57.0664 30.3633 57.3486 30.2222 57.8001C30.0247 57.6026 29.8554 56.3327 29.291 55.9659C29.1781 56.1352 28.8113 56.7842 28.6702 57.2075C28.4162 56.8689 28.1905 56.107 28.134 55.7119C27.9365 55.8812 27.7954 55.853 27.6543 56.3609C27.4004 55.9659 27.1746 55.4015 27.0899 55.2604C26.8642 55.4297 26.7795 55.8248 26.5256 55.9659C26.6102 55.4297 27.2593 53.3415 27.485 52.8336C27.7954 52.1281 28.0494 51.592 28.642 51.2533C29.3474 50.8583 30.4198 50.9994 30.8713 51.4791C31.5767 52.4103 31.6049 53.3133 31.4074 54.4421Z" fill="black"/>
<path fill-rule="evenodd" clip-rule="evenodd" d="M41.3121 27.719C41.0863 29.2992 40.0423 32.0646 39.5061 32.7701C40.1551 32.8266 40.8042 32.4033 41.2557 32.1211C40.9453 33.7578 39.5625 35.987 38.9135 36.6643C39.4779 36.8618 40.2398 36.7772 40.6631 36.8054C40.5784 37.1158 38.6313 39.5144 37.8976 39.9941C38.3209 40.2199 39.0546 40.3327 39.4779 40.3045C38.8571 41.7719 36.1481 43.465 34.8782 44.0012C35.2451 44.5937 35.6119 44.6502 36.3174 44.8759C35.8095 45.5532 34.3139 46.0611 33.6084 46.0329C33.6931 46.3151 34.0035 46.7384 34.455 46.9641C33.6366 47.2463 32.2821 47.4156 31.6613 47.4438C31.6049 47.726 31.7742 48.0082 31.9153 48.3468C31.3227 48.5726 30.6737 48.4033 30.3915 48.4033C30.4197 48.7983 30.5043 48.9394 30.589 49.137C29.5731 49.8142 28.3597 49.7578 27.9647 50.0682C27.88 50.1528 27.7671 50.2375 27.6543 50.3504H27.626C27.5132 50.5197 27.3156 50.7454 27.0052 50.9994C26.723 51.2816 26.4691 51.7895 25.9894 52.0435C25.8765 51.6766 25.6789 51.3098 25.2839 51.084C24.917 51.592 24.5502 52.2692 23.9294 52.7207C23.7036 52.1281 23.0828 51.3662 22.6595 51.0558C22.4056 51.1969 22.0105 51.338 21.9541 51.7613C21.305 51.3098 20.7407 51.2534 20.5714 50.9712C20.4303 50.4068 20.1199 50.181 19.9223 50.0117C19.5273 49.7013 18.3139 49.7578 17.298 49.0805C17.3826 48.883 17.4391 48.7137 17.4955 48.3468C17.1851 48.3468 16.5361 48.5161 15.9717 48.2904C16.1128 47.9518 16.2539 47.6696 16.2257 47.3874C15.6331 47.3592 14.2786 47.1899 13.432 46.9077C13.9117 46.6819 14.2222 46.2304 14.2786 45.9765C13.5731 45.9765 12.0775 45.4685 11.5696 44.8195C12.2751 44.5937 12.6419 44.5373 13.0088 43.9447C11.7389 43.4368 9.02992 41.7154 8.40911 40.2481C8.80417 40.2763 9.53785 40.1634 9.98935 39.9377C9.22745 39.4579 7.28036 37.0594 7.22392 36.749C7.61898 36.7207 8.38089 36.8336 8.97348 36.6079C8.35267 35.9306 6.96995 33.7013 6.63133 32.0646C7.08283 32.3468 7.73186 32.7419 8.38089 32.7137C7.84473 32.0082 6.80064 29.2428 6.57489 27.6625C7.05461 28.2269 7.92939 29.3556 9.3121 30.2869C9.14279 29.5814 7.28036 27.4368 7.08283 23.2322C8.23979 26.1105 10.8924 29.4121 11.6543 30.0329C11.6825 30.1176 11.9647 32.629 12.8959 33.7295C12.4162 33.786 11.7671 33.5038 11.2874 33.3063C11.2028 33.9835 12.0493 35.846 12.5855 36.4385C12.1904 36.4668 11.7671 36.4103 11.3156 36.2692C11.2592 37.1722 12.4162 38.5832 12.8394 38.95C12.6137 39.1193 12.1058 39.0911 11.5978 39.1475C11.8236 39.8812 13.1216 41.0946 13.94 41.2639C13.7424 41.5461 13.1216 41.8283 12.6701 41.8565C12.9523 42.9006 14.1939 43.6625 15.0405 43.9165C14.8147 44.0858 14.8712 44.0294 14.5043 44.114C14.6737 44.6784 15.8588 45.2428 17.1287 45.525C16.9029 45.6378 16.6772 46.0047 16.3103 46.1458C17.1851 46.6819 18.2856 46.7666 19.1322 46.7384C19.104 47.0206 18.9347 47.2181 18.7089 47.3874C19.2733 47.726 20.5714 47.6978 20.9382 47.5567C20.91 47.7825 20.8535 47.8671 20.4867 48.1493C20.8253 48.2904 22.1516 48.3468 22.5467 48.2057C22.9135 48.5161 23.5343 48.9676 23.619 49.7013C24.6066 49.7013 24.8042 48.3468 25.3121 48.2904C25.7918 48.5161 25.7918 48.5444 26.1587 48.9394C26.4691 48.6008 26.8641 48.2057 26.8641 47.6696C27.5978 47.8107 28.5008 47.8389 29.2345 47.3874C29.0088 47.2181 28.8394 47.0206 28.8112 46.7384C29.686 46.7666 30.7865 46.7101 31.6331 46.1458C31.2662 46.0047 31.0405 45.6661 30.8147 45.525C32.0846 45.2428 33.2698 44.6784 33.4391 44.114C33.0722 44.0294 33.1287 44.0858 32.9029 43.9165C33.7213 43.6343 34.9911 42.9006 35.2733 41.8565C34.7936 41.8001 34.1728 41.5179 34.0035 41.2639C34.8218 41.0946 36.1199 39.8812 36.3456 39.1475C35.8377 39.0911 35.3297 39.1193 35.104 38.95C35.5273 38.5549 36.6842 37.144 36.6278 36.2692C36.1763 36.4103 35.753 36.4385 35.358 36.4385C35.8941 35.8742 36.7407 33.9835 36.656 33.3063C36.1481 33.5038 35.499 33.8142 35.0475 33.7295C35.9788 32.629 36.261 30.0893 36.2892 30.0329C37.0511 29.4121 39.7036 26.1105 40.8606 23.2322C40.6631 27.4368 38.8006 29.5814 38.6313 30.2869C39.9576 29.4121 40.8324 28.2833 41.3121 27.719Z" fill="black"/>
<path fill-rule="evenodd" clip-rule="evenodd" d="M34.3421 34.2092C34.9629 34.3503 35.3298 34.2092 35.8377 34.1528C35.8659 35.084 34.7654 36.7207 34.3703 37.0875C34.9347 37.1722 35.4991 37.1722 35.9506 37.0311C35.8377 37.8212 34.7654 38.9782 34.1164 39.1757C34.2857 39.3733 35.0758 39.6554 35.4991 39.6554C35.2169 40.4173 34.0882 41.0664 33.298 41.405C33.5238 41.659 33.6084 41.8565 34.5679 42.1387C34.0882 43.2674 32.7337 43.6907 32.0846 43.8318C32.1128 44.114 32.5643 44.1987 32.8748 44.368C32.6208 44.6784 30.9841 45.4403 30.0811 45.5249C30.2504 45.8071 30.5608 46.0046 30.8994 46.2022C30.4479 46.4279 28.6984 46.6255 28.2469 46.5408C28.2469 46.823 28.4726 47.218 28.5291 47.3027C27.5132 47.6413 27.4285 47.4156 26.5255 47.3027C26.3845 47.5849 26.4127 48.0082 26.2434 48.2621C26.0176 48.121 25.4532 47.7542 25.171 47.8389C24.776 48.121 24.4374 49.1087 23.8448 49.1934C23.6472 48.7701 23.2804 48.0928 22.716 47.9517C22.1516 48.0646 21.5308 47.98 21.3615 47.9235C21.4462 47.7824 21.5026 47.5849 21.418 47.3309C20.9947 47.472 19.9788 47.5002 19.4144 47.3027C19.4709 47.1898 19.7248 46.7948 19.6966 46.5408C19.2451 46.6537 17.4956 46.4561 17.0441 46.2022C17.3827 45.9764 17.6931 45.8071 17.8624 45.5249C16.9312 45.4403 15.3227 44.6784 15.0688 44.368C15.3509 44.2269 15.8024 44.1422 15.8589 43.8318C15.2381 43.6625 13.8554 43.2674 13.3756 42.1387C14.3351 41.8565 14.4197 41.6872 14.6455 41.405C13.8836 41.0664 12.7266 40.4456 12.4444 39.6554C12.8677 39.6554 13.6578 39.3733 13.8271 39.1757C13.1781 39.0064 12.134 37.8212 11.9929 37.0311C12.4162 37.1722 12.9806 37.1722 13.5732 37.0875C13.1781 36.7207 12.0776 35.084 12.1058 34.1528C12.6137 34.2092 12.9806 34.3503 13.6014 34.2092C13.4039 33.9835 13.3192 33.7859 13.0652 33.3627C12.5291 32.4032 12.4162 30.9359 12.4444 29.8071C12.5573 29.8636 13.2628 31.1616 13.4039 31.3309C14.0811 32.4032 14.6737 33.3062 15.5485 34.181C15.8307 34.4632 15.7742 34.6325 15.8871 35.084C15.9435 35.3944 16.0846 36.2128 16.5643 36.4667C15.746 36.6643 15.2945 36.2974 15.0123 36.1845C14.6737 36.8618 15.5485 38.5831 15.8307 38.9782C15.6613 39.2039 15.3227 39.2886 14.9841 39.2886C15.0123 39.9376 16.2257 40.5584 16.4797 40.5302C16.4233 40.9817 16.1411 41.4897 15.8307 41.7154C15.9718 41.9129 16.649 42.1669 17.1287 42.2798C17.0441 42.7595 16.8465 42.9288 16.5079 43.1828C16.9594 43.5778 18.2857 43.9165 18.9629 43.5778C19.1887 43.465 19.2169 43.9165 18.8783 44.368C19.2169 44.8477 21.1358 44.3962 21.4744 44.0576C21.5591 44.7066 21.1922 45.017 20.9665 45.2427C21.6437 45.4967 22.1234 44.9041 22.3774 44.7066C22.716 45.017 24.0141 46.3433 24.6913 46.3715C25.0017 45.7225 25.2275 45.3838 25.4815 45.017C26.2434 45.017 26.582 45.2992 27.2028 45.4967C27.4568 45.1299 27.485 44.6784 27.4285 44.114C27.5979 44.0576 28.388 44.9323 29.4039 44.4244C29.0652 43.9729 28.8959 43.8882 28.9524 43.4932C29.6014 43.8318 31.1816 43.5778 31.6331 43.1828C31.2945 42.9288 31.097 42.7595 31.0123 42.2798C31.492 42.1669 32.1693 41.9129 32.3104 41.7154C32.0282 41.4897 31.746 40.9817 31.6613 40.5302C31.9153 40.5584 33.1569 39.9094 33.1569 39.2886C32.7901 39.2886 32.4797 39.2039 32.3104 38.9782C32.5926 38.5831 33.4673 36.89 33.1287 36.1845C32.8183 36.2974 32.395 36.6643 31.5767 36.4667C32.0282 36.2128 32.1693 35.3944 32.2539 35.084C32.3668 34.6325 32.3104 34.4632 32.5926 34.181C33.4673 33.3062 34.0599 32.4032 34.7372 31.3309C34.8501 31.1334 35.5837 29.8636 35.6966 29.8071C35.7248 30.9076 35.612 32.4032 35.0758 33.3627C34.6525 33.7859 34.5679 33.9835 34.3421 34.2092Z" fill="black"/>
</g>
<defs>
<clipPath id="clip0">
<rect width="64" height="85.0229" fill="white" transform="translate(0 0.17749)"/>
</clipPath>
</defs>
</svg>
