<svg width="78" height="97" viewBox="0 0 78 97" fill="none" xmlns="http://www.w3.org/2000/svg">
<g clip-path="url(#clip0)">
<path fill-rule="evenodd" clip-rule="evenodd" d="M0.197815 26.2148C0.359678 26.8472 0.521541 27.0098 0.989145 27.335L3.66888 30.3525C7.46367 35.4299 5.55728 39.5677 2.08622 43.6874C1.76249 44.1572 0.197815 45.1148 0.197815 45.5846V58.4497C0.197815 63.6896 2.40994 69.562 4.78393 73.0493C7.15793 76.5366 10.4671 79.5541 15.377 81.4694C17.751 82.4271 20.2688 82.8969 22.8047 83.5293C28.9735 85.5891 37.0306 89.0945 38.919 95.9065C41.4549 90.8291 43.0196 89.0764 48.2352 86.2215C54.4039 83.204 57.875 83.3667 62.623 81.614C67.5149 79.7167 70.6802 76.5366 73.216 73.1939C75.4282 69.8511 77.8021 63.8342 77.8021 58.7388V45.5665C77.8021 45.0967 77.1727 44.7715 76.849 44.4463C76.2195 43.9765 74.6368 42.0612 74.1692 41.4288C71.1658 36.514 71.7952 33.6411 74.9605 29.684C77.8021 25.8715 77.8021 28.5637 77.8021 24.1188C77.8021 18.5536 77.8021 13.0064 77.8021 7.44118C75.1224 5.6885 63.7381 3.15886 60.1051 2.52645C45.4116 -0.165818 31.8151 -0.165818 17.1215 2.52645C14.118 3.15886 11.1146 3.95389 8.27298 4.74892C7.3018 4.94768 0.197815 7.00753 0.197815 7.80256V26.2148Z" fill="#FEFEFE" stroke="#FEFEFE" stroke-width="0.216" stroke-miterlimit="22.9256"/>
<path fill-rule="evenodd" clip-rule="evenodd" d="M31.6892 33.4423C32.8582 33.4423 33.8114 34.4 33.8114 35.5744C33.8114 36.7489 32.8582 37.7066 31.6892 37.7066C30.5202 37.7066 29.567 36.7489 29.567 35.5744C29.549 34.4 30.5022 33.4423 31.6892 33.4423Z" fill="#034EA2"/>
<path fill-rule="evenodd" clip-rule="evenodd" d="M69.1515 46.6146C68.1443 45.8918 66.7235 44.0307 65.8782 42.6033C63.0187 37.1645 64.6013 31.9968 68.3062 27.6964C68.7378 27.2628 69.0256 27.2628 69.1695 26.6846V13.8015L62.3173 11.7958C60.9864 11.4706 59.6195 11.1634 58.2527 10.8924C56.1125 10.4587 53.9363 10.0973 51.7422 9.80824C49.566 9.51914 47.3899 9.28424 45.1957 9.13969C43.0556 8.99514 40.9154 8.90479 38.7752 8.88672C36.7069 8.86866 34.6207 8.92286 32.5704 9.03128C30.3943 9.15776 28.2181 9.35652 26.0779 9.62755C24.783 9.79017 23.5061 9.98893 22.2292 10.2238C21.312 10.3684 20.3048 10.5491 19.2437 10.7659C15.377 11.5067 10.8628 12.5728 7.94926 13.8195C7.94926 16.1143 7.94926 18.409 7.94926 20.7038C7.94926 21.9867 7.6615 26.4316 8.23701 27.2989C9.10028 28.1662 8.81253 27.7326 9.94557 29.0155C10.5211 29.7382 10.8088 30.2984 11.2225 31.1657C13.9382 36.3334 12.6433 42.2058 8.65066 46.0725C8.21903 46.5061 8.07515 46.5061 7.93127 47.0844L8.07515 58.9917C8.75857 66.5265 13.3447 71.8207 19.2257 74.1696C19.4955 74.278 19.7832 74.3864 20.071 74.4768C22.1393 75.1634 24.0996 75.6332 26.0599 76.1753C28.1821 76.7535 30.3043 77.4401 32.5524 78.5965C33.3618 79.0121 34.1891 79.4999 35.0523 80.0601C37.768 81.9212 37.6241 82.4994 38.6133 83.3486C38.6673 83.2763 38.7032 83.2041 38.7572 83.1318C40.0161 81.3068 42.4621 79.6264 45.1778 78.3435C46.3827 77.7834 47.6417 77.2955 48.8826 76.898C49.8718 76.5547 50.807 76.2837 51.7242 76.0126C53.9903 75.3802 56.0765 74.8924 58.2347 73.9889C59.2239 73.5733 60.249 73.0855 61.2921 72.4531C64.2956 70.4474 66.9933 67.2854 68.2882 62.6959C69.1515 59.9675 69.1515 58.1064 69.1515 55.1069C69.1515 52.3605 69.2954 49.343 69.1515 46.6146ZM21.7796 68.5502C21.222 68.6947 20.2508 68.7309 19.2257 68.7309C18.1466 68.7309 17.0136 68.6947 16.3482 68.6947V62.8224H19.2257H20.6285C22.0493 62.8224 22.0493 63.256 22.0493 64.5389C22.0493 65.5508 21.7616 65.4062 21.7616 65.5508C22.1932 66.4 22.1932 67.701 21.7796 68.5502ZM28.9015 68.6947H27.193V65.5327C26.9772 65.7495 26.5096 66.4 26.0599 67.0505C25.5743 67.7552 25.1427 68.4598 25.0528 68.6767H23.2004V62.8043H24.9089V65.9663C25.1607 65.6953 25.6103 65.0448 26.042 64.4124C26.5635 63.6535 27.0851 62.8946 27.3189 62.8224H28.8835V68.6947H28.9015ZM35.3221 64.3943H33.4697V68.6947H32.5524H31.6172V64.3943H29.7648V62.8224H32.5524H35.3401V64.3943H35.3221ZM41.329 64.3943H38.7572H38.0378V65.1171H38.7572H41.0413V66.4H38.7572H38.0378C38.0378 67.2131 38.1277 67.2854 38.7572 67.2312C39.2428 67.177 40.0161 67.0505 41.329 67.1227V68.6947H38.7572H36.3292L36.1854 62.8224H38.7572H41.329V64.3943ZM46.5986 68.6947H45.1778H42.3182V62.8224H45.1778H47.7496V64.3943H45.1778H44.1706V65.1171C44.5303 65.1171 44.872 65.1171 45.1778 65.1171C47.9114 65.099 48.0373 65.081 48.0373 67.2673C48.0373 68.2611 47.6057 68.6947 46.5986 68.6947ZM54.4579 64.3943H51.7242H50.8789V67.1227H51.7242H54.4579V68.6947C53.5946 68.8032 52.6414 68.8212 51.7242 68.767C51.4365 68.7489 51.1487 68.7309 50.8789 68.6947C48.5949 68.6947 49.0265 67.972 49.0265 64.3943C49.0265 62.9127 49.9617 62.6778 51.7242 62.7139C52.3357 62.732 53.0551 62.7681 53.8824 62.8043H54.4579V64.3943ZM61.1482 68.6947H59.2958V66.4H58.2347H57.1556V68.6947H55.4471L55.3032 62.8224H57.1556V65.1171C57.7311 65.1171 57.911 64.5931 58.2347 64.051C58.6304 63.3825 59.2598 62.6597 61.1482 62.8224C60.8605 63.1115 59.5836 64.6834 59.4397 65.1171C61.436 65.2617 61.1482 66.8336 61.1482 68.6947ZM58.2347 47.247C56.5801 49.9754 54.332 52.3063 51.7242 54.0951C49.7279 55.4683 47.5158 56.5344 45.1778 57.221C43.739 57.6547 42.2642 57.9438 40.7535 58.0883C40.0881 58.1606 39.4226 58.1967 38.7572 58.1967C36.599 58.2329 34.5128 57.9618 32.5524 57.4378C30.1964 56.8054 28.0203 55.7936 26.0599 54.5107C23.2903 52.6676 20.9702 50.2464 19.2257 47.4457C17.4632 44.5728 16.2942 41.3204 15.9345 37.8873C15.4309 32.575 16.7258 27.7326 19.2257 23.7755C20.9882 20.9929 23.3262 18.662 26.0599 16.8732C28.0562 15.5722 30.2504 14.5965 32.5524 13.9641C33.8833 13.6027 35.2322 13.3497 36.617 13.2413C37.3364 13.1691 38.0558 13.1329 38.7572 13.1329C41.0053 13.1148 43.1455 13.422 45.1778 14.0002C47.5517 14.6868 49.7639 15.7348 51.7242 17.1081C54.386 18.9511 56.5981 21.3362 58.2347 24.1007C59.9253 26.9556 61.0044 30.1899 61.2921 33.605C61.7957 38.7004 60.5907 43.3802 58.2347 47.247Z" fill="#034EA2"/>
<path d="M21.0061 31.3102L21.114 30.9126C21.186 30.6597 21.132 30.5151 20.9522 30.4609C20.7903 30.4248 20.6824 30.5151 20.6105 30.7681L20.5026 31.1656L21.0061 31.3102Z" fill="#034EA2"/>
<path d="M60.159 33.2977C59.6195 28.3107 57.3894 23.9561 54.1521 20.6676C52.4256 18.9149 50.4293 17.4875 48.2351 16.4033C47.3539 15.9697 46.4546 15.6083 45.5374 15.3011C43.0195 14.47 40.3218 14.0905 37.6061 14.2531C37.1745 14.2712 36.7608 14.3254 36.3292 14.3796C36.2573 14.3796 36.1853 14.3977 36.1134 14.3977C35.2501 14.488 34.3868 14.6326 33.5236 14.8313C32.6423 15.0301 31.7431 15.3011 30.8978 15.6083C29.7108 16.042 28.5598 16.5659 27.4807 17.1803C26.4735 17.7585 25.5204 18.409 24.6571 19.1317C24.4952 19.2582 24.3513 19.4028 24.1895 19.5292C24.0276 19.6919 23.8657 19.8545 23.7039 20.0352C23.614 20.1255 23.542 20.2159 23.4521 20.3062C23.3622 20.3966 23.2902 20.4869 23.2003 20.5772C22.8586 20.9567 22.5169 21.3361 22.1932 21.7337C21.5817 22.4925 21.0062 23.2695 20.5026 24.0645C20.1969 24.5343 19.9091 25.0041 19.6393 25.492C17.5891 29.2142 16.6359 33.3881 17.1934 38.0318C17.5171 40.7602 18.3624 43.3621 19.6393 45.7291C19.9091 46.217 20.1969 46.7049 20.5026 47.1746C21.0242 47.9697 21.5817 48.7286 22.1932 49.4513C22.5169 49.8308 22.8406 50.1921 23.2003 50.5535C23.2902 50.6439 23.3622 50.7342 23.4521 50.8065C23.542 50.8968 23.614 50.9691 23.7039 51.0595C24.0096 51.3486 24.3334 51.6377 24.6571 51.9087C25.5383 52.6676 26.4735 53.3361 27.4807 53.9505C28.5598 54.601 29.6928 55.1611 30.8978 55.6309C31.7431 55.9561 32.6243 56.2272 33.5236 56.462C34.3689 56.6608 35.2321 56.8234 36.1134 56.9318C36.599 56.986 37.1025 57.0403 37.6061 57.0583C38.7212 57.1125 39.8722 57.0764 41.0412 56.968C42.5699 56.8054 44.0806 56.4801 45.5374 55.9923C46.4726 55.6851 47.3719 55.3056 48.2351 54.872C50.4293 53.8059 52.4256 52.3604 54.1521 50.6258C58.4145 46.3254 60.9324 40.2181 60.159 33.2977ZM48.2351 17.5959C50.0156 18.3548 53.163 20.8483 54.1521 22.5287C54.314 22.7997 54.4039 23.0346 54.4399 23.2514C54.35 23.2334 54.242 23.2153 54.1521 23.1792C52.7673 22.7816 51.1127 21.4807 50.3034 20.8121C49.9437 20.5411 48.9725 19.5473 48.2351 18.6619C47.7855 18.1379 47.4078 17.632 47.3179 17.361C47.5337 17.361 47.8575 17.4333 48.2351 17.5959ZM54.1521 31.6173C54.1881 31.8342 54.242 32.0871 54.296 32.4304C55.0154 35.1588 56.1484 37.7427 54.8715 40.7421C54.6737 41.2119 54.4219 41.754 54.1521 42.2418C54.0082 42.4767 53.8644 42.6936 53.7385 42.8923C53.3068 43.6151 53.0191 44.4643 52.0299 44.4643C51.0408 44.4643 49.4761 43.9764 48.2531 43.4886C47.7136 43.2718 47.246 43.073 46.9043 42.8923C46.2028 42.5671 45.8252 42.025 45.5554 41.3565C45.2317 40.5253 45.0878 39.4773 44.7641 38.4474C44.0447 35.8635 43.7569 36.1526 45.3396 33.4242C45.3935 33.2977 45.4655 33.1351 45.5554 32.9364C46.1309 31.7077 47.264 29.5033 47.7675 29.2684C47.8754 29.1961 48.0553 29.178 48.2711 29.16C49.512 29.1238 52.2277 29.9008 53.1989 30.2622C53.9363 30.7139 54.0262 30.9126 54.1521 31.6173ZM39.7463 15.2289C41.1671 15.3553 43.9727 15.3734 45.5194 16.1865C45.8432 16.3491 46.1129 16.5659 46.2928 16.8008C46.5805 17.379 47.156 17.9392 47.2999 18.5174C47.0122 19.0052 46.1849 20.1436 45.5194 20.9206C45.1957 21.2819 44.9079 21.571 44.7281 21.6614C44.0087 21.9505 40.8794 21.3723 39.7283 21.3723V15.2289H39.7463ZM37.6061 15.6264L38.4874 15.5541L38.5233 16.0962L37.6061 16.1684L37.1205 16.2046L37.1565 16.6924L37.5881 16.6563H37.6061C38.0018 16.6202 38.2895 16.6744 38.4874 16.8008C38.6852 16.9273 38.8111 17.1442 38.8291 17.4333C38.8471 17.6862 38.7751 17.8669 38.6133 18.0115C38.4514 18.156 38.1996 18.2464 37.8579 18.2644L37.6061 18.2825L36.4731 18.3728L36.2752 15.7348L37.6061 15.6264ZM37.6061 21.6614L37.75 21.6794L37.6061 21.6975L36.1853 21.824C36.1673 21.824 36.1314 21.824 36.1134 21.824C35.1602 21.8963 34.3329 21.553 33.5236 21.4807C33.02 21.4445 32.5344 21.4988 32.0488 21.824C32.0488 19.6557 32.3905 19.8545 33.5236 20.3785C34.0451 20.6134 34.7286 20.9206 35.6098 21.1012V21.2458C35.5918 21.3 35.5559 21.3181 35.5199 21.3361C35.5379 21.3542 35.5738 21.3723 35.6098 21.3903L36.1134 21.4626L37.6061 21.6614ZM27.9123 31.6715L30.8798 31.6896H33.5056H35.5918V36.4417C35.5918 37.7246 35.6817 37.4717 35.8796 37.7246C35.9695 37.833 36.0414 37.9414 36.0954 38.0499C36.2393 38.339 36.2213 38.61 36.0954 38.8087C35.9156 39.1159 35.4659 39.2966 34.8904 39.2966H33.5056H31.7431C31.4553 39.2966 31.1676 39.2966 30.8618 39.3147C29.423 39.3689 27.9303 39.4773 27.4447 38.9714C27.2469 38.7726 27.2289 38.4474 27.4447 37.9956C27.4807 37.9053 27.5346 37.815 27.5886 37.7246C28.1461 37.2187 27.9123 32.6834 27.9123 31.6715ZM36.3292 37.8692C36.2393 37.7427 36.1673 37.6343 36.1134 37.5439C35.9515 37.2548 36.0235 37.1283 36.0414 36.6043C36.0414 36.3152 36.0414 36.2791 36.0414 36.0081C36.0414 34.5806 36.0414 33.1351 36.0414 31.7077H36.1134C36.7429 31.7077 36.617 31.7438 36.617 32.575V36.5863C36.8508 37.2729 37.3364 37.2368 37.6061 37.6885C37.6781 37.815 37.732 37.9595 37.75 38.1583C37.75 38.4293 37.696 38.6461 37.6061 38.8087C37.3543 39.2243 36.8148 39.2966 36.1853 39.2966C36.617 38.881 36.7608 38.4474 36.3292 37.8692ZM34.9084 24.6969H33.5236H30.8978H28.6317C29.6748 23.9923 29.8727 23.4863 30.8978 23.0165C31.1316 22.9081 31.4194 22.7997 31.7791 22.6913H31.9229C32.7143 22.8539 33.1819 23.125 33.5416 23.4141C34.0631 23.8296 34.2969 24.3356 34.9084 24.6969ZM33.5236 16.2588L34.189 16.1142L34.7825 17.0899L34.8904 15.9516L35.6997 15.7709L35.3221 17.9573C35.2861 18.1379 35.2501 18.2644 35.2321 18.3548C35.1962 18.4451 35.1422 18.5355 35.0523 18.6077C34.9624 18.68 34.8365 18.7342 34.6566 18.7884C34.5667 18.8065 34.4048 18.8426 34.171 18.8607L34.0451 18.3186C34.189 18.3006 34.2789 18.2825 34.3509 18.2644C34.5307 18.2283 34.6386 18.1199 34.6386 17.9753L33.5595 16.5659L33.3617 16.2949L33.5236 16.2588ZM30.8798 17.1622L32.7502 16.4214L33.5056 18.3728L33.7034 18.8968L33.5056 18.9872L32.9481 19.204L32.2107 17.3429L31.6172 17.5778L31.9229 18.3367C32.0488 18.6439 32.1208 18.8788 32.1387 19.0414C32.1567 19.204 32.1208 19.3305 32.0308 19.457C31.9409 19.5654 31.7611 19.6919 31.4913 19.8003C31.4014 19.8364 31.3114 19.8545 31.2035 19.8906L31.0057 19.3847L31.1136 19.3486C31.2215 19.3124 31.2755 19.2582 31.3114 19.1859C31.3294 19.1317 31.3294 19.0233 31.2755 18.9149L30.8798 17.885L30.646 17.2706L30.8798 17.1622ZM28.4339 18.3909L28.9375 19.2763C28.9914 19.2401 29.0274 19.1859 29.0454 19.1317C29.0634 19.0775 29.0454 18.9149 29.0094 18.68C28.9734 18.4993 28.9734 18.3728 28.9914 18.2825C29.0094 18.1921 29.0634 18.1018 29.1713 17.9934C29.2792 17.903 29.459 17.7766 29.7288 17.6139L29.9986 18.1018L29.9626 18.1199C29.8367 18.1921 29.7648 18.2644 29.7288 18.3367C29.6928 18.409 29.6928 18.5174 29.7108 18.6439C29.7288 18.7704 29.7288 18.8607 29.7288 18.951C29.7108 19.0233 29.6748 19.0956 29.6209 19.1679C29.7468 19.1498 29.8727 19.1498 29.9806 19.1859C30.1065 19.2221 30.2503 19.3124 30.4482 19.4389L30.8798 19.728L31.1136 19.8906L30.8798 20.0352L30.3223 20.3604L29.7108 19.9268C29.5669 19.8183 29.459 19.7641 29.4051 19.7461C29.3511 19.728 29.2972 19.7461 29.2252 19.7822L29.7468 20.6857L29.0454 21.1012L27.7325 18.8065L28.4339 18.3909ZM28.344 31.1475C28.344 29.431 28.344 29.7201 29.2072 29.7201C29.2072 28.8528 29.2072 27.859 29.2072 26.9917C29.2072 24.2633 28.9195 25.8714 28.9195 25.0222L30.8978 25.0041L33.5236 24.9861H34.7645C34.7645 25.7088 34.6206 24.6969 34.4768 25.7088L34.5487 29.7201C34.9624 29.7382 34.8724 29.7201 35.1962 29.7201C35.3221 30.479 35.0703 30.6958 35.3221 31.003C35.358 31.0391 35.7537 30.9849 35.8616 31.003C35.9335 30.3706 35.9156 30.7681 35.9156 29.7201L36.1314 29.7562L36.6349 29.8647L37.0666 31.2921C36.9587 31.3463 36.617 31.3824 36.1314 31.4005C35.4839 31.4366 34.5667 31.4547 33.5416 31.4728C32.6963 31.4728 31.797 31.4728 30.9158 31.4728C29.6209 31.4547 28.3799 31.4366 27.4987 31.4186C26.9591 31.4005 26.5455 31.3824 26.3656 31.3463C26.6534 30.479 26.5095 31.8703 26.6534 29.7201H27.4987H27.6426V31.1475H28.344ZM24.1535 20.8121C24.2974 20.8844 24.4233 20.8663 24.5492 20.7399C24.6031 20.6857 24.6391 20.6314 24.6571 20.5772C24.6931 20.505 24.6931 20.4327 24.6571 20.3604C24.6571 20.3423 24.6571 20.3423 24.6391 20.3243L24.6571 20.3062L24.8729 20.1075C24.9628 20.2339 24.9988 20.3785 24.9628 20.523C24.9448 20.6676 24.8729 20.8121 24.747 20.9206C24.711 20.9567 24.6931 20.9748 24.6571 20.9928C24.5672 21.0651 24.4592 21.1012 24.3334 21.1193C24.1895 21.1374 24.0456 21.1012 23.9197 21.0109L24.1535 20.8121ZM24.4772 21.4084L24.6571 21.5891L25.4844 22.4564L25.1966 20.7037L25.7542 20.1797L27.4807 22.0047L27.5706 22.1131L27.4807 22.2034L27.0311 22.6371L26.0239 21.5891L26.3117 23.3237L25.7542 23.8658L24.6751 22.7274L23.9377 21.9505L24.4772 21.4084ZM21.7076 24.7512L22.1932 25.0945L22.5349 25.3294L22.7867 24.968C22.9305 24.7692 23.0564 24.6247 23.2003 24.5163C23.2902 24.444 23.3622 24.4078 23.4521 24.3717H23.4701C23.542 24.3536 23.614 24.3356 23.7039 24.3356C23.8657 24.3356 24.0276 24.4078 24.1895 24.5163C24.3873 24.6608 24.4952 24.8415 24.4952 25.0583C24.4952 25.2752 24.4053 25.5281 24.2075 25.7992L23.7039 26.5038L23.4521 26.8652L23.3802 26.9556L23.2003 26.8291L22.1932 26.1063L21.222 25.4197L21.7076 24.7512ZM20.053 27.7867L20.5026 27.9855L20.8983 28.1662L21.258 27.3531L20.5026 27.0098L20.4127 26.9736L20.5026 26.7749L20.7544 26.2147L22.1932 26.8652L23.1643 27.2989L22.8226 28.0397L22.1932 27.7506L21.8515 27.588L21.4918 28.4011L22.2111 28.7263L22.4629 28.8528L22.2111 29.431L22.1392 29.5936L20.5206 28.8528L19.7292 28.4914L20.053 27.7867ZM19.0278 30.75L19.6753 30.9307L20.017 31.0211L20.1429 30.6055C20.2508 30.2622 20.3767 30.0092 20.5386 29.8466C20.5565 29.8285 20.5745 29.8104 20.5925 29.8104C20.7904 29.6659 21.0242 29.6298 21.3119 29.702C21.5457 29.7743 21.7076 29.9008 21.7795 30.1176C21.8515 30.3164 21.8515 30.5874 21.7615 30.9126L21.3839 32.2678L20.5566 32.0329L19.6933 31.78L18.83 31.527L19.0278 30.75ZM18.6322 32.3401L19.6573 32.4666L20.5206 32.575L21.258 32.6653L21.15 33.4784L20.5206 33.4062L19.6573 33.2977L19.1717 33.2435L19.0998 33.8759L19.6753 33.9482L19.9091 33.9844C20.1789 34.0205 20.3767 34.0566 20.5206 34.0928C20.5565 34.1108 20.5925 34.1108 20.6285 34.1289C20.7724 34.1831 20.8803 34.2735 20.9342 34.418C20.9882 34.5626 21.0062 34.7794 20.9702 35.0685C20.9522 35.1588 20.9342 35.2492 20.8983 35.3757L20.5206 35.3215L20.3767 35.3034L20.3947 35.1769C20.4127 35.0685 20.3947 34.9781 20.3587 34.942C20.3227 34.8878 20.2328 34.8517 20.1069 34.8336L19.6933 34.7794L18.3804 34.6168L18.6322 32.3401ZM18.6142 35.8274C18.848 35.5744 19.1717 35.4479 19.6034 35.4479C19.6213 35.4479 19.6393 35.4479 19.6573 35.4479C19.9451 35.4479 20.1789 35.4841 20.3587 35.5925C20.4127 35.6106 20.4666 35.6467 20.5026 35.6828C20.6285 35.7732 20.7364 35.8997 20.8263 36.0442C20.9342 36.243 21.0062 36.4779 21.0062 36.785C21.0062 37.0922 20.9702 37.3271 20.8803 37.5259C20.7904 37.7065 20.6645 37.8511 20.5026 37.9776C20.4846 37.9956 20.4666 37.9956 20.4486 38.0137C20.2508 38.1402 19.999 38.2125 19.6753 38.2125H19.6393C19.2257 38.2125 18.9019 38.1041 18.6502 37.8692C18.3984 37.6343 18.2725 37.309 18.2725 36.8754C18.2725 36.4237 18.3984 36.0803 18.6142 35.8274ZM18.5243 39.0436L19.0458 38.9533L19.2976 40.3446L19.6573 40.2723L19.7652 40.2543L19.6933 39.8206C19.6753 39.6941 19.6573 39.5857 19.6573 39.4773C19.6573 39.405 19.6573 39.3508 19.6573 39.2966C19.6573 39.134 19.6933 39.0075 19.7472 38.8991C19.8551 38.6823 20.053 38.5558 20.3407 38.5016C20.3947 38.4835 20.4486 38.4835 20.5026 38.4835C20.6645 38.4835 20.8083 38.5377 20.9342 38.6642C21.0961 38.8087 21.204 39.0617 21.258 39.387L21.5097 40.7783L20.5026 40.9589L19.6393 41.1035L18.9019 41.23L18.5243 39.0436ZM19.6573 43.4344L19.1358 41.8624L19.6573 41.6817L19.7472 41.6456L20.017 42.4406L20.5206 42.278L21.9054 41.8082L22.1752 42.5851L20.5206 43.1453L20.2868 43.2176L20.5206 43.9222L20.5566 44.0126L20.5206 44.0307L19.9271 44.2294L19.6573 43.4344ZM20.8263 45.9279L21.6356 45.0967L20.5206 45.2774H20.5026L20.1249 44.5366L20.5206 44.5004L22.2111 44.374H22.337C22.5169 44.3559 22.6608 44.3559 22.7507 44.374C22.8406 44.392 22.9485 44.4282 23.0385 44.5004C23.1104 44.5547 23.1643 44.6089 23.2183 44.6992C23.2543 44.7353 23.2723 44.7895 23.2902 44.8438C23.3262 44.916 23.3981 45.0606 23.4701 45.2593L23.4881 45.2955H23.4701L23.2183 45.422L23.0025 45.5304C22.9485 45.4039 22.9126 45.3135 22.8766 45.2413C22.7867 45.0786 22.6788 45.0064 22.5349 45.0244L22.2111 45.44L21.24 46.6868L20.8263 45.9279ZM24.6571 48.6924C24.6031 48.7647 24.5312 48.837 24.4413 48.9093C24.2075 49.0899 23.9557 49.1803 23.7039 49.1441C23.614 49.1261 23.542 49.108 23.4521 49.0719C23.3622 49.0357 23.2902 48.9996 23.2003 48.9273C23.0744 48.855 22.9665 48.7466 22.8406 48.6202L22.6788 48.7466L22.2291 48.1684L22.391 48.0419C22.3191 47.9155 22.2471 47.8071 22.2111 47.6986C22.0673 47.3373 22.0673 47.012 22.2111 46.7591C22.2831 46.6326 22.373 46.5242 22.4989 46.4338C22.7327 46.2531 22.9665 46.1628 23.2003 46.1989C23.2902 46.1989 23.3622 46.2351 23.4521 46.2531C23.542 46.2893 23.614 46.3254 23.7039 46.3796C23.8298 46.47 23.9557 46.5784 24.0816 46.7048L24.2974 46.5422L24.6571 46.994L24.765 47.1385L24.6571 47.2288L24.5492 47.3192C24.5851 47.3915 24.6211 47.4457 24.6571 47.518C24.9269 47.9516 24.9269 48.3491 24.6571 48.6924ZM24.9269 24.7873L24.6751 24.6066L23.7219 23.9381L23.4701 23.7574L23.2183 23.5767L22.7867 23.2695L23.2183 22.6552L23.2543 22.601L23.4701 22.7636L23.7219 22.9443L24.6751 23.6128L25.4124 24.1368L24.9269 24.7873ZM26.6174 36.8754C26.8872 36.2068 26.4735 31.78 26.7793 31.7257C27.067 31.6715 27.2829 31.6715 27.4627 31.7257C27.5167 31.7438 27.5526 31.7619 27.6066 31.78C27.6066 31.78 27.6246 32.4485 27.6246 32.8641C27.5886 33.623 27.7145 36.2068 27.4807 37.2368C27.4447 37.3994 27.3908 37.5078 27.3368 37.5981C26.7613 38.4654 26.9052 38.4654 27.3368 39.3147C24.3334 39.3147 26.3476 37.309 26.6174 36.8754ZM39.4586 54.7997C39.3147 55.8116 38.5953 55.5225 37.6061 55.5225C38.2716 54.8539 38.0378 54.077 37.5881 53.4626C37.4083 53.2277 37.2105 52.9928 37.0306 52.8121V40.0555C36.7429 40.3446 36.599 40.0555 36.599 41.6275V53.2458C37.1565 53.3542 37.714 54.6732 37.0306 55.5405C36.7249 55.5586 36.4191 55.5586 36.0954 55.5586C35.2681 55.5225 34.3868 55.3598 33.5056 55.143C32.6064 54.9081 31.7071 54.601 30.8798 54.2576C29.477 53.6794 28.254 53.0109 27.4627 52.4688C27.3548 52.3965 27.2649 52.3243 27.1749 52.2701V42.9465C27.1749 42.3683 27.3188 40.3627 26.8872 40.2181C26.5994 40.6518 26.7433 50.3909 26.7433 51.8364C25.6103 51.4028 26.0239 50.6981 26.0239 49.2526V41.0854C26.0239 39.8025 25.7362 40.5072 25.7362 39.658H27.4447H30.8618H33.4876H36.0774H37.5702H38.0018C38.0018 39.8025 37.8579 39.9471 37.8579 40.0916C37.714 40.8144 37.714 40.5253 37.714 41.8082L37.696 51.981C38.1097 52.4146 39.7463 52.9386 39.4586 54.7997ZM39.7463 21.9685C41.7426 22.1131 44.0267 21.9685 44.89 23.396C45.0518 23.6128 45.2856 23.9742 45.5374 24.4259C46.1309 25.51 46.7963 27.0278 46.8863 27.8229C46.9942 28.6721 46.1489 30.3344 45.5374 31.4728C45.3216 31.8703 45.1417 32.1955 45.0338 32.4124C43.1814 35.5744 43.4692 35.2853 39.7463 35.2853V21.9685ZM52.0299 49.4875C51.7422 50.9149 50.3214 52.0713 49.1703 52.6495C48.8826 52.8483 48.5589 53.029 48.2351 53.1916C47.4078 53.6433 46.4906 54.0227 45.5374 54.3661C43.7749 54.9804 41.8325 55.4141 39.8902 55.6489C39.8902 53.4988 39.8902 51.4931 39.8902 49.4875C39.8902 47.9155 39.7463 48.2046 40.8973 47.4818C43.7209 45.44 44.7461 44.392 45.5374 43.9945C46.2568 43.6331 46.7784 43.7958 48.2351 44.2475C48.9186 44.4643 49.7998 44.7353 51.0228 45.0425C52.0299 45.1871 52.1558 45.6207 52.2997 46.7591C52.3177 47.4818 52.1738 48.7647 52.0299 49.4875ZM57.875 41.8985C57.6592 43.326 55.7348 46.8855 54.1521 48.6563C53.6845 49.1803 53.2349 49.5417 52.8752 49.6501C52.8752 46.0724 52.5874 46.217 54.0082 44.0668C54.0622 43.9764 54.0982 43.9042 54.1521 43.8138C54.9255 42.3683 55.483 41.248 56.1484 39.4773C57.5872 39.3147 58.0188 40.453 57.875 41.8985ZM58.0188 39.4592C57.7311 39.3147 56.4542 38.7365 56.1664 38.5919C55.8787 38.3028 55.8787 38.3028 55.8787 37.5801C55.8787 35.5744 55.447 34.147 54.8715 32.1413C54.5298 30.9849 54.296 30.4609 54.1521 30.0634C53.9543 29.5033 53.9543 29.2503 54.1521 27.7687C54.2241 27.2447 54.314 26.5761 54.4399 25.6907C54.4399 24.6789 54.4399 24.2633 55.0154 23.6851C56.2923 23.8296 57.7311 27.2627 58.0188 28.5637C58.7382 30.8584 59.026 32.8641 59.026 35.4479C59.008 37.4536 59.1519 38.1583 58.0188 39.4592Z" fill="#034EA2"/>
<path d="M19.6573 37.3813C19.945 37.3813 20.1249 37.3271 20.2508 37.2187C20.3587 37.1103 20.4126 36.9838 20.4126 36.8031C20.4126 36.6224 20.3407 36.4959 20.2328 36.4056C20.1249 36.3152 19.927 36.2791 19.6573 36.2791H19.6033C19.3515 36.2791 19.1717 36.3333 19.0638 36.4417C18.9559 36.5501 18.9019 36.6766 18.9019 36.8573C18.9019 37.0199 18.9739 37.1464 19.0818 37.2548C19.2077 37.3452 19.4055 37.3813 19.6573 37.3813Z" fill="#034EA2"/>
<path d="M37.6061 17.7223H37.66C37.9118 17.7043 38.0377 17.5959 38.0197 17.4152C38.0017 17.2526 37.8758 17.1803 37.624 17.1983L37.2104 17.2345L37.2464 17.7585L37.6061 17.7223Z" fill="#034EA2"/>
<path d="M35.5379 21.3361C35.2861 21.1916 35.412 21.4084 35.5379 21.3361V21.3361Z" fill="#034EA2"/>
<path d="M20.3048 40.1639L20.5206 40.1277L20.8263 40.0735L20.7544 39.6579C20.7184 39.4592 20.6465 39.3508 20.5206 39.3327C20.4846 39.3327 20.4486 39.3327 20.4127 39.3327C20.2508 39.3688 20.1968 39.4953 20.2328 39.7483L20.3048 40.1639Z" fill="#034EA2"/>
<path d="M23.6679 47.0301C23.5959 46.9759 23.542 46.9578 23.47 46.9398C23.4161 46.9217 23.3801 46.9217 23.3261 46.9217C23.2902 46.9217 23.2542 46.9217 23.2182 46.9398C23.1463 46.9578 23.0564 46.994 22.9844 47.0482C22.8765 47.1205 22.8226 47.2289 22.7866 47.3553C22.7506 47.4818 22.7506 47.5902 22.8046 47.7167L23.2182 47.3915L23.47 47.1927L23.6679 47.0301Z" fill="#034EA2"/>
<path d="M23.3981 25.9437L23.452 25.8714L23.6319 25.6004C23.6499 25.5643 23.6858 25.5281 23.7038 25.492C23.7578 25.3655 23.7578 25.2752 23.7038 25.1848C23.6858 25.1668 23.6678 25.1306 23.6319 25.1125C23.5779 25.0764 23.506 25.0583 23.452 25.0764C23.3801 25.0945 23.2902 25.1668 23.2182 25.2752L23.2002 25.2932L22.9664 25.6185L23.2002 25.7811L23.3981 25.9437Z" fill="#034EA2"/>
<path d="M23.7219 47.9335L23.4701 48.1323L23.2723 48.2949C23.3262 48.331 23.3982 48.3672 23.4701 48.3852C23.5241 48.4033 23.56 48.4033 23.614 48.4033C23.65 48.4033 23.6859 48.4033 23.7219 48.3852C23.8118 48.3672 23.8838 48.331 23.9557 48.2768C24.0456 48.2045 24.1176 48.0961 24.1535 47.9877C24.1895 47.8612 24.1715 47.7528 24.1355 47.6263L23.7219 47.9335Z" fill="#034EA2"/>
<path fill-rule="evenodd" clip-rule="evenodd" d="M73.5757 26.1244C73.5757 21.1013 73.5757 16.0962 73.5757 11.073C71.1478 9.50103 60.8785 7.20628 57.5873 6.62808C51.0768 5.43553 44.8001 4.82119 38.5414 4.80312C32.0309 4.78505 25.5384 5.38132 18.7761 6.62808C16.0604 7.20628 13.3627 7.91097 10.7909 8.63372C9.92759 8.77827 3.50702 10.6394 3.50702 11.3621V27.9855C3.6509 28.5637 3.79478 28.7083 4.22641 28.9974L6.65436 31.7077C10.0715 36.2972 8.36291 40.0194 5.23356 43.7416C4.9458 44.1752 3.525 45.0245 3.525 45.4581V57.0945C3.525 61.8285 5.52131 67.1227 7.6615 70.2848C9.80169 73.4468 12.8052 76.1572 17.2294 77.8737C19.3696 78.741 21.6537 79.1566 23.9377 79.7348C29.495 81.5959 36.7789 84.7579 38.4874 90.9194L38.5594 90.7568C40.7895 86.2938 42.2462 84.7218 46.9043 82.1741C52.4616 79.4457 55.6089 79.5902 59.8893 78.0182C64.3136 76.3017 67.1731 73.4287 69.4572 70.4293C71.4535 67.4118 73.5937 61.9731 73.5937 57.3836V45.4762C73.5937 45.0425 73.0182 44.7534 72.7304 44.4643C72.1549 44.0307 70.7341 42.3141 70.3025 41.7359C67.5868 37.291 68.1623 34.7071 71.0219 31.1295C73.5757 27.6964 73.5757 30.1357 73.5757 26.1244ZM67.8566 31.1476C64.8531 35.8816 66.0041 40.182 69.2774 44.3378C69.5651 44.7715 69.709 44.916 70.1406 45.3497C70.2845 45.4943 70.86 46.217 71.0039 46.217C71.4355 47.0843 71.0039 58.6845 70.86 60.2746C69.4392 68.4417 64.7272 73.8985 57.7311 76.0487C53.0191 77.6207 52.5875 77.0606 46.8863 79.6264C44.0267 80.9093 39.6025 83.9268 38.6133 85.7879L38.5414 85.7156C36.8148 83.9991 33.9912 81.3068 30.3223 79.6083C24.765 77.169 24.0456 77.6027 19.3336 76.1752C12.4814 73.8805 7.62553 68.4417 6.34861 60.2565C6.06086 58.6845 5.62922 47.2108 6.06086 46.3435C6.20474 46.1989 7.48166 44.916 7.76941 44.3378C12.0498 38.7546 12.0498 34.4542 7.76941 28.9974C7.33778 28.5637 6.06086 27.5699 6.06086 27.2808C5.7731 26.4135 5.91698 14.8133 5.91698 12.9522C6.20474 12.374 7.05002 12.374 7.48166 12.0849C12.4814 10.5129 15.6108 9.64558 20.8983 8.79634C26.4196 7.74835 32.4265 7.22435 38.5234 7.22435C49.9257 7.22435 61.6338 9.03124 71.1298 12.6812C71.1298 15.1205 71.1298 17.5598 71.1298 19.9991C71.1478 31.4186 71.8492 24.968 67.8566 31.1476Z" fill="#034EA2"/>
<path fill-rule="evenodd" clip-rule="evenodd" d="M32.0489 49.632H34.1891V46.6145H32.0489V49.632Z" fill="#034EA2"/>
<path fill-rule="evenodd" clip-rule="evenodd" d="M29.765 49.632H31.6174V46.6145H29.765V49.632Z" fill="#034EA2"/>
<path fill-rule="evenodd" clip-rule="evenodd" d="M32.0489 46.1989H34.1891V43.4706H32.0489V46.1989Z" fill="#034EA2"/>
<path fill-rule="evenodd" clip-rule="evenodd" d="M29.765 46.1989H31.6174V43.4706H29.765V46.1989Z" fill="#034EA2"/>
<path fill-rule="evenodd" clip-rule="evenodd" d="M32.0489 52.6495H34.1891V49.9211H32.0489V52.6495Z" fill="#034EA2"/>
<path fill-rule="evenodd" clip-rule="evenodd" d="M31.761 25.4016C31.1855 25.5462 31.3293 26.8291 31.3293 27.8409C31.3293 30.5693 31.6171 28.8528 31.6171 31.003H32.1926C32.1926 29.2865 32.3365 29.9911 32.4804 28.9974C32.4804 27.2627 32.7681 25.1125 31.761 25.4016Z" fill="#034EA2"/>
<path fill-rule="evenodd" clip-rule="evenodd" d="M29.765 52.6495H31.6174V49.9211H29.765V52.6495Z" fill="#034EA2"/>
<path fill-rule="evenodd" clip-rule="evenodd" d="M33.4697 31.003H34.0452V30.2802C34.0452 29.2684 34.4769 25.9798 33.7575 25.4016C33.1819 25.9798 33.4697 29.2684 33.4697 30.2802V31.003Z" fill="#034EA2"/>
<path fill-rule="evenodd" clip-rule="evenodd" d="M29.7647 31.003H30.3402C30.3402 29.9911 30.4841 25.8352 29.9086 25.4197C29.4769 26.1424 29.6208 28.4372 29.6208 29.2864L29.7647 31.003Z" fill="#034EA2"/>
<path fill-rule="evenodd" clip-rule="evenodd" d="M29.765 43.1815H31.6174V41.1759C30.3405 41.3204 30.0527 42.1697 29.765 43.1815Z" fill="#034EA2"/>
<path fill-rule="evenodd" clip-rule="evenodd" d="M32.0489 43.1815H34.1891C34.0452 42.1697 33.1819 41.3204 32.0489 41.1759V43.1815Z" fill="#034EA2"/>
<path fill-rule="evenodd" clip-rule="evenodd" d="M20.1969 67.1227V66.3999H18.7761H18.2006V67.1227H20.1969Z" fill="#034EA2"/>
<path fill-rule="evenodd" clip-rule="evenodd" d="M18.2006 65.1171H20.1969V64.6834V64.3943H18.2006V65.1171Z" fill="#034EA2"/>
<path fill-rule="evenodd" clip-rule="evenodd" d="M44.1705 67.1227H44.6022H45.3216H46.0409V66.3999H44.1885V67.1227H44.1705Z" fill="#034EA2"/>
</g>
<defs>
<clipPath id="clip0">
<rect width="78" height="96" fill="white" transform="translate(0 0.17749)"/>
</clipPath>
</defs>
</svg>
