<svg width="42" height="64" viewBox="0 0 42 64" fill="none" xmlns="http://www.w3.org/2000/svg">
<g clip-path="url(#clip0)">
<path d="M20.7173 13.5715H1.58624V40.1371C1.58624 55.3296 20.7173 64.0077 20.7173 64.0077C20.7173 64.0077 39.8484 55.3219 39.8484 40.1371V13.5715H20.7173Z" fill="white"/>
<path d="M3.97327 26.2614H37.469V15.4812H3.97327V26.2614ZM8.41627 22.7386C8.08109 22.9777 7.67119 23.0883 7.26124 23.0505H5.6442V19.5392C5.63964 19.4782 5.64716 19.4168 5.66632 19.3587C5.68547 19.3005 5.7159 19.2468 5.75586 19.2004C5.85523 19.1194 5.98243 19.0807 6.11006 19.0926H8.57797C8.60483 19.218 8.60571 19.3477 8.58055 19.4735C8.55538 19.5993 8.50472 19.7186 8.43167 19.8241H6.45657V20.5479L6.76073 20.5248C6.8634 20.5248 6.98275 20.5248 7.11879 20.5248C7.34758 20.5234 7.57592 20.5453 7.80025 20.5903C7.98738 20.6245 8.16556 20.6965 8.32387 20.802C8.46775 20.8983 8.58337 21.0312 8.65882 21.187C8.74069 21.3683 8.78019 21.5658 8.77433 21.7645C8.79034 21.9456 8.76658 22.128 8.70473 22.2989C8.64289 22.4698 8.54443 22.6251 8.41627 22.754V22.7386ZM11.9891 20.7096C11.9891 20.7096 12.1124 20.7597 12.1124 21.0946C12.1124 21.4296 11.9968 21.4488 11.9968 21.4488H10.2951V22.3305H12.0815C12.2086 22.5519 12.2587 22.8091 12.224 23.062H9.46349V19.5392C9.45614 19.4771 9.4633 19.4141 9.48442 19.3552C9.50554 19.2963 9.54003 19.2431 9.58519 19.1999C9.63034 19.1566 9.68493 19.1243 9.74465 19.1057C9.80437 19.0871 9.8676 19.0826 9.92935 19.0926H12.2394C12.2795 19.2166 12.2875 19.3488 12.2626 19.4767C12.2377 19.6047 12.1807 19.7242 12.097 19.8241H10.2951V20.6942L11.9891 20.7096ZM16.2512 23.0659H15.4234V19.8241H15.1924C15.0478 19.8211 14.9037 19.8406 14.7651 19.8819C14.6501 19.9201 14.5449 19.9832 14.4571 20.0667C14.3713 20.1578 14.3022 20.2634 14.253 20.3785C14.152 20.6662 14.0672 20.9592 13.9989 21.2563C13.9681 21.4142 13.5754 23.0505 13.5754 23.0505H12.7476C12.8323 22.7117 13.2135 21.2024 13.2404 21.0715C13.3129 20.695 13.4212 20.3263 13.5638 19.9704C13.6565 19.7778 13.7875 19.6062 13.9488 19.466C14.1058 19.3333 14.2897 19.2361 14.4879 19.1811C14.715 19.1201 14.9495 19.0903 15.1847 19.0926H15.8084C15.9047 19.0871 16.0012 19.0989 16.0933 19.1272C16.1538 19.1517 16.206 19.1932 16.2435 19.2466L16.2512 23.0659ZM20.1937 23.0659C20.159 22.9812 20.1205 22.8695 20.0628 22.7271L19.8664 22.2227H17.9991C17.9221 22.4191 17.8605 22.6077 17.8066 22.7271C17.7527 22.8464 17.7104 22.9773 17.6719 23.0659H16.8326C16.9173 22.8387 17.0097 22.6039 17.1059 22.3613C17.2022 22.1188 17.2984 21.88 17.3985 21.6452L17.6834 20.956C17.7758 20.7327 17.8644 20.5287 17.9452 20.3439C18.0261 20.1591 18.0954 19.9935 18.157 19.8511C18.2186 19.7086 18.2686 19.6008 18.3071 19.5238C18.362 19.3712 18.4596 19.2376 18.5882 19.1388C18.7037 19.0679 18.8378 19.033 18.9732 19.0387C19.1575 19.0285 19.3384 19.0907 19.4776 19.2119C19.5469 19.3313 19.6277 19.493 19.724 19.6932C19.8202 19.8934 19.9165 20.1167 20.0204 20.3631C20.1244 20.6095 20.2322 20.8598 20.34 21.1331C20.4478 21.4065 20.5479 21.6529 20.6403 21.9031C20.7327 22.1534 20.8251 22.3767 20.9021 22.5808L21.0869 23.0697L20.1937 23.0659ZM24.5019 20.956C24.4513 21.111 24.3671 21.253 24.2555 21.3718C24.1196 21.5103 23.9536 21.6157 23.7704 21.6798C23.523 21.7652 23.262 21.8043 23.0004 21.7953C22.8722 21.8026 22.7436 21.8026 22.6154 21.7953L22.4113 21.7607V23.0697H21.6028V19.5392C21.5911 19.4766 21.5951 19.4121 21.6145 19.3514C21.6338 19.2908 21.6679 19.2359 21.7137 19.1916C21.7595 19.1473 21.8155 19.1151 21.8768 19.0979C21.9381 19.0806 22.0027 19.0788 22.0648 19.0926H23.1544C23.243 19.0926 23.3315 19.0926 23.4162 19.0926C23.4954 19.1028 23.5739 19.1182 23.6511 19.1388C23.7981 19.1726 23.9368 19.2354 24.0592 19.3236C24.1745 19.4065 24.2726 19.5111 24.3479 19.6316C24.4223 19.7503 24.4769 19.8804 24.5096 20.0166C24.5479 20.1545 24.5674 20.297 24.5674 20.4401C24.5666 20.6073 24.5406 20.7734 24.4904 20.9329L24.5019 20.956ZM27.5281 21.214C27.1662 21.8685 26.8043 22.4961 26.4308 23.0928H25.5068C25.6262 22.9119 25.7532 22.7078 25.8918 22.4922C26.0304 22.2766 26.1575 22.0379 26.2768 21.7992C26.1459 21.5913 26.0227 21.3911 25.8918 21.1947L25.5607 20.6519L25.2912 20.1937L25.091 19.8511C25.0563 19.7933 24.7714 19.2581 24.7714 19.2581C24.9051 19.1716 25.0567 19.1166 25.2148 19.0973C25.3729 19.0779 25.5333 19.0948 25.6839 19.1465C25.734 19.2466 25.7994 19.3698 25.8803 19.5084L26.1806 19.9743C26.273 20.136 26.3692 20.3015 26.4732 20.4709L26.7619 20.9637C26.9121 20.6865 27.0468 20.4247 27.1777 20.1706C27.3086 19.9165 27.582 19.3621 27.6821 19.1542C27.8224 19.112 27.9699 19.0988 28.1155 19.1154C28.2611 19.1319 28.4018 19.1779 28.5291 19.2504C28.2288 19.9088 27.8977 20.5672 27.5396 21.2178L27.5281 21.214ZM32.0789 22.8233C31.9836 22.8767 31.8845 22.9231 31.7824 22.9619C31.6365 23.0139 31.4873 23.0564 31.3358 23.089C31.1404 23.1262 30.9418 23.1443 30.7429 23.1429C30.4715 23.1445 30.2018 23.0989 29.946 23.0081C29.7053 22.93 29.4855 22.7984 29.303 22.6231C29.1158 22.4377 28.9701 22.2146 28.8756 21.9686C28.7657 21.6812 28.7121 21.3753 28.7178 21.0677C28.7138 20.7714 28.7674 20.4772 28.8756 20.2014C28.9724 19.959 29.1186 19.7393 29.3048 19.5564C29.4911 19.3734 29.7134 19.2312 29.9575 19.1388C30.219 19.0432 30.4954 18.995 30.7737 18.9963C31.2879 18.9702 31.7944 19.1286 32.2021 19.4429C32.2087 19.5749 32.185 19.7066 32.1328 19.8279C32.1088 19.8786 32.0791 19.9264 32.0443 19.9704C32.0136 20.0099 31.9787 20.0461 31.9403 20.0782C31.9129 20.1016 31.8833 20.1223 31.8517 20.1398L31.7247 20.0205C31.6587 19.9647 31.5863 19.9169 31.5091 19.878C31.4095 19.8267 31.305 19.7855 31.1972 19.7548C31.0679 19.7203 30.9345 19.7034 30.8007 19.7047C30.6299 19.7029 30.4607 19.737 30.304 19.8048C30.1569 19.8662 30.0254 19.9596 29.919 20.0782C29.8 20.2022 29.707 20.3489 29.6456 20.5094C29.5862 20.6894 29.5575 20.8781 29.5609 21.0677C29.5339 21.4344 29.6529 21.797 29.8921 22.0764C30.0085 22.1933 30.1481 22.2845 30.302 22.3442C30.4558 22.4039 30.6204 22.4307 30.7853 22.4229C30.9265 22.4247 31.0675 22.4092 31.2049 22.3767C31.3124 22.3542 31.418 22.3233 31.5206 22.2843C31.5945 22.2567 31.6654 22.2218 31.7324 22.1804L31.8363 22.1111L32.2214 22.7309C32.1779 22.7667 32.1315 22.7989 32.0828 22.8272L32.0789 22.8233ZM35.9328 22.3113C35.8538 22.4765 35.7379 22.6214 35.594 22.7348C35.4503 22.8489 35.2835 22.9304 35.1051 22.9735C34.9129 23.0246 34.7149 23.0505 34.516 23.0505H32.8797V19.2504C32.997 19.1635 33.132 19.1036 33.2751 19.075C33.4182 19.0463 33.5658 19.0497 33.7075 19.0849V20.4055H33.9962C34.104 20.4055 34.2273 20.4055 34.3813 20.4055C34.613 20.4042 34.8441 20.4288 35.0704 20.4786C35.2593 20.5154 35.4387 20.59 35.5979 20.6981C35.7438 20.7931 35.861 20.9262 35.9367 21.0831C36.0188 21.2737 36.0582 21.48 36.0522 21.6875C36.0565 21.9093 36.0104 22.1291 35.9174 22.3305" fill="#21B14C"/>
<path d="M34.9587 21.2025C34.7406 21.1075 34.5032 21.0653 34.2657 21.0793H33.9462C33.8461 21.0793 33.7652 21.0793 33.6998 21.1024V22.3306H34.3504C34.5617 22.3418 34.7713 22.288 34.951 22.1766C35.0295 22.1186 35.0916 22.0413 35.1314 21.9523C35.1712 21.8633 35.1873 21.7654 35.1782 21.6683C35.1887 21.5755 35.1729 21.4816 35.1328 21.3972C35.0927 21.3128 35.0297 21.2414 34.951 21.1909" fill="#21B14C"/>
<path d="M19.1811 20.4708L19.0233 20.0858L18.9347 19.8586C18.9168 19.8971 18.886 19.9703 18.8423 20.0781C18.7961 20.1859 18.7461 20.313 18.6883 20.4631C18.6306 20.6133 18.5613 20.775 18.492 20.9521C18.4227 21.1292 18.3495 21.3101 18.2802 21.4872H19.5854C19.5199 21.3101 19.4468 21.133 19.3775 20.9521C19.3082 20.7711 19.2427 20.6133 19.1811 20.4631" fill="#21B14C"/>
<path d="M7.67707 21.3255C7.60172 21.2842 7.51956 21.2569 7.43452 21.2447C7.32749 21.2285 7.21935 21.2208 7.11111 21.2216C6.98239 21.2203 6.85374 21.228 6.7261 21.2447L6.46429 21.2755V22.3304H7.25356C7.33313 22.3305 7.41226 22.3188 7.48842 22.2958C7.56401 22.2774 7.63487 22.2433 7.69632 22.1956C7.75613 22.1446 7.80464 22.0817 7.83877 22.0108C7.87584 21.9259 7.89422 21.834 7.89268 21.7413C7.89602 21.651 7.87753 21.5612 7.83877 21.4795C7.80517 21.4102 7.75152 21.3525 7.68477 21.314" fill="#21B14C"/>
<path d="M23.3585 19.8162C23.2995 19.7967 23.239 19.7826 23.1775 19.7739C23.1057 19.77 23.0337 19.77 22.9619 19.7739H22.4229V21.0944L22.6 21.1252C22.6967 21.1415 22.7946 21.1492 22.8926 21.1483C23.0353 21.1527 23.1776 21.1305 23.3123 21.0829C23.4095 21.0477 23.4977 20.9911 23.5702 20.9173C23.6318 20.8535 23.6767 20.7755 23.7011 20.6902C23.7268 20.6106 23.7397 20.5274 23.7396 20.4438C23.7384 20.3187 23.7067 20.1958 23.6472 20.0857C23.6184 20.0263 23.578 19.9732 23.5285 19.9296C23.4789 19.8859 23.4211 19.8526 23.3585 19.8316" fill="#21B14C"/>
<path d="M20.6942 28.5984H18.3226C19.0618 29.1682 19.9743 29.7534 20.7135 30.3078C21.4565 29.738 22.3613 29.1528 23.1082 28.5984H20.6942Z" fill="#F02729"/>
<path d="M7.53073 42.6396C6.23211 40.2978 5.06 37.888 4.01945 35.4207C3.76149 39.4093 4.58541 42.5587 5.47478 45.3192C5.50943 45.4309 5.60954 45.7042 5.64419 45.812C6.2797 44.8287 6.99296 43.8979 7.77714 43.0284C7.73093 42.9553 7.57308 42.7281 7.53073 42.6434" fill="#F02729"/>
<path d="M3.98865 28.5945V33.1106C6.2484 31.369 8.67561 29.8562 11.2345 28.5945H3.98865Z" fill="#F02729"/>
<path d="M13.2289 29.6455H11.6272C11.5079 29.9766 11.427 30.2076 11.3 30.5695H9.98324C9.82154 31.0008 9.70989 31.2818 9.54433 31.7246L8.166 31.7477C7.9581 32.252 7.82719 32.5831 7.63084 33.0606H6.23326L5.42859 34.9856H6.84927C6.63752 35.5092 6.46426 35.9173 6.20246 36.6026H7.74249C7.53459 37.1686 7.38058 37.5998 7.12648 38.3198H8.77432C8.58951 38.9165 8.44706 39.367 8.22375 40.1062H10.5338C10.7109 39.3747 10.8187 38.9242 10.9689 38.3275H12.6052C12.7476 37.6075 12.8323 37.1725 12.9517 36.5911H14.4339C14.5417 35.8942 14.611 35.4707 14.6996 34.9278H16.024C16.1357 34.0847 16.1857 33.6766 16.2897 32.9297L15.0153 32.9605C15.0962 32.4676 15.1539 32.1327 15.2425 31.6283L13.9758 31.6514L14.226 30.5272H12.9825C12.9825 30.481 13.0094 30.4386 13.021 30.4001C13.1018 30.1114 13.1596 29.9035 13.2443 29.6301L13.2289 29.6455ZM13.3482 32.1596C13.252 32.5639 13.1788 32.895 13.0479 33.4571H14.33C14.2684 33.7959 14.2183 34.0885 14.1529 34.4581H12.8246C12.6937 35.0588 12.609 35.4399 12.4935 35.9982H11.0266C10.8572 36.6411 10.8688 36.5718 10.7225 37.1301H9.56743C9.73684 36.568 9.73684 36.6411 9.92934 35.9982H8.47016L9.00532 34.4966H7.68859L8.0736 33.5264H9.35568C9.55588 32.972 9.67524 32.6447 9.82539 32.2405L11.1267 32.2174C11.2846 31.7246 11.2961 31.7053 11.4078 31.3627H12.3202C12.2201 31.7053 12.2201 31.7246 12.0777 32.2174L13.3328 32.1981" fill="#F02729"/>
<path d="M11.7851 32.9297H11.0652L10.8496 33.6035H10.1681C10.0718 33.8807 10.0256 34.0231 9.92554 34.3157H10.6301L10.3952 35.0742H11.1653C11.2461 34.7662 11.2885 34.616 11.3693 34.3234H12.0662C12.1393 34.027 12.174 33.8845 12.2471 33.6073H11.5695C11.6504 33.3262 11.6889 33.1915 11.762 32.9297" fill="#F02729"/>
<path d="M19.3698 51.8145C19.3505 52.5845 19.339 53.1159 19.3159 53.9937H22.1187C22.0995 53.1159 22.0841 52.5691 22.0648 51.8145H24.1439C24.0977 50.9136 24.0669 50.3553 24.0207 49.593H26.0304C25.9419 48.6767 25.888 48.1146 25.8071 47.3561H27.7322C27.5628 46.2011 27.4742 45.6043 27.2932 44.457H25.4837C25.399 43.687 25.3297 43.1672 25.2257 42.3009H23.5163C23.4624 41.5771 23.4239 41.0651 23.3585 40.2411H21.7568C21.7568 39.6097 21.7299 39.1516 21.7106 38.4894C21.7106 38.4316 21.7106 38.3739 21.7106 38.3123H19.7317C19.7317 38.3739 19.7317 38.4316 19.7317 38.4894C19.7086 39.1516 19.697 39.6097 19.6816 40.2411H18.0954C18.0261 41.0651 17.9876 41.5771 17.9337 42.3009H16.2281C16.1203 43.1672 16.0548 43.7062 15.9663 44.457H14.1606C13.9758 45.612 13.8834 46.1895 13.7178 47.3561H15.6429C15.562 48.1261 15.5081 48.6767 15.4234 49.593H17.4332C17.3831 50.363 17.3562 50.9136 17.3061 51.8145H19.3852H19.3698ZM16.7363 46.6246C16.7825 46.1279 16.821 45.7275 16.8711 45.2386H18.5189C18.5651 44.4262 18.592 43.9372 18.6344 43.2866H20.0859C20.0859 42.5166 20.0859 42.3279 20.1128 41.708H21.3218C21.3218 42.3279 21.3218 42.5012 21.3487 43.2866H22.8002C22.8425 43.9372 22.8695 44.4416 22.9157 45.2386H24.5635C24.6136 45.7275 24.6521 46.1279 24.6983 46.6246H22.9927C23.0389 47.4447 23.0658 47.9452 23.1005 48.6343H21.4604C21.4604 49.4583 21.4835 49.5468 21.495 50.2244H19.955C19.955 49.5468 19.9781 49.4544 19.9935 48.6343H18.3495C18.388 47.9452 18.4111 47.4447 18.4573 46.6246H16.7517" fill="#F02729"/>
<path d="M20.2053 47.4793H21.2294C21.2294 47.0558 21.2294 46.8441 21.2294 46.4244H22.2728C22.2535 46.0047 22.2458 45.793 22.2304 45.3733H21.2025C21.2025 44.9575 21.2025 44.7496 21.2025 44.3376H20.2476C20.2476 44.7496 20.2476 44.9575 20.2476 45.3733H19.2197C19.2197 45.793 19.1966 46.0047 19.1773 46.4244H20.2207C20.2207 46.8441 20.2207 47.0558 20.2207 47.4793" fill="#F02729"/>
<path d="M33.9039 42.6396C33.8615 42.7128 33.7037 42.9399 33.6613 43.0246C34.4487 43.897 35.1658 44.8303 35.8058 45.8159C35.8405 45.7043 35.9406 45.4309 35.9752 45.3231C36.8646 42.5626 37.6885 39.4132 37.4306 35.4246C36.3905 37.8971 35.2184 40.312 33.9193 42.6589" fill="#F02729"/>
<path d="M37.4459 28.5945H30.2001C32.7595 29.8553 35.1868 31.3681 37.4459 33.1106V28.5945Z" fill="#F02729"/>
<path d="M35.2052 33.1107L33.8076 33.0876L33.2686 31.7748L31.8903 31.7517C31.7247 31.3243 31.6169 31.0355 31.4514 30.5966H30.1346C30.0114 30.2347 29.9267 30.0037 29.8112 29.6726H28.2096C28.2904 29.9498 28.352 30.1577 28.4329 30.4426C28.4329 30.4811 28.4445 30.5235 28.4676 30.5697H27.224L27.4742 31.6939L26.2075 31.6708C26.2961 32.1752 26.3539 32.5101 26.4347 33.0029H25.1719C25.2758 33.746 25.3297 34.158 25.4375 35.0011H26.7658C26.8505 35.544 26.9198 35.9675 27.0276 36.6644H28.5138C28.6293 37.2419 28.7178 37.6808 28.8564 38.4008H30.4965C30.6428 38.9975 30.7545 39.4441 30.9278 40.1795H33.2378C33.0145 39.4403 32.8759 38.9898 32.6872 38.3931H34.3351C34.081 37.6731 33.927 37.238 33.7191 36.6759H35.2591C34.9896 35.9906 34.824 35.5825 34.6123 35.0589H36.033L35.2322 33.1338L35.2052 33.1107ZM32.4293 34.4968C32.641 35.0858 32.7758 35.4631 32.9645 35.9983H31.4937C31.6862 36.6374 31.6862 36.5643 31.8518 37.1264H30.6968C30.5466 36.5643 30.562 36.6374 30.3887 35.9945H28.9604C28.841 35.4593 28.7563 35.0743 28.6254 34.4544H27.2971C27.2317 34.0694 27.1816 33.7922 27.12 33.4534H28.4021C28.275 32.8913 28.198 32.5602 28.1018 32.1559L29.3569 32.1752C29.2145 31.6824 29.2145 31.6631 29.1144 31.3204H30.0268C30.1385 31.6631 30.15 31.6824 30.3079 32.1752L31.6092 32.1983C31.7594 32.5833 31.8787 32.9298 32.0789 33.4842H33.3649C33.4958 33.8153 33.6074 34.1002 33.7499 34.4544H32.4293" fill="#F02729"/>
<path d="M30.5851 33.6152C30.4966 33.338 30.4542 33.2032 30.3734 32.9414H29.6495C29.7265 33.2032 29.7612 33.3264 29.842 33.619H29.1644C29.2376 33.8962 29.2722 34.0387 29.3454 34.3351H30.0422L30.2502 35.0821H31.0202L30.8007 34.3274H31.5053C31.409 34.0348 31.359 33.8924 31.2666 33.6152H30.5813" fill="#F02729"/>
<path d="M30.7507 42.5319C30.4273 42.1469 30.0923 41.7195 29.7458 41.3075C29.3608 40.8301 28.9334 40.3527 28.5176 39.8792C28.2289 39.5519 27.9362 39.2247 27.6436 38.9089C27.2163 38.4392 26.7427 37.9464 26.2384 37.4459C25.8148 37.0186 25.3682 36.5835 24.9101 36.1446C24.4519 35.7057 23.8706 35.1628 23.3354 34.6738C22.9196 34.2888 22.4961 33.9038 22.0803 33.5188C22.5038 33.1338 22.9196 32.7488 23.3123 32.3638C23.5548 32.1405 23.7897 31.921 24.0207 31.717L24.6406 31.1857L25.8995 30.073L27.1547 28.9911L27.6436 28.583H25.0448L24.5559 28.968L23.2776 30.046L22.6539 30.5735L21.9224 31.2011C21.5374 31.536 21.1293 31.8864 20.7173 32.2483C20.3054 31.8864 19.9011 31.536 19.5123 31.2011L18.7807 30.5735L18.1609 30.046L16.8788 28.968C16.7055 28.8217 16.5438 28.687 16.3898 28.583H13.8103L14.2954 28.9911C14.6072 29.2568 15.0346 29.6225 15.5505 30.073L16.8095 31.1857L17.4178 31.7324C17.645 31.9364 17.8798 32.1559 18.1224 32.3792C18.5074 32.7411 18.9309 33.1223 19.3544 33.5342C18.9386 33.9192 18.5151 34.3042 18.0993 34.6892C17.568 35.1782 17.0366 35.671 16.5246 36.16C16.0125 36.6489 15.6237 37.034 15.1963 37.4613C14.6958 37.9618 14.2222 38.4546 13.7872 38.9243C13.4984 39.2401 13.2058 39.5673 12.9171 39.8946C12.5012 40.3694 12.0919 40.8455 11.6889 41.323C11.3462 41.7349 11.0074 42.1469 10.684 42.5473C8.80901 44.8573 7.56158 46.5398 7.29593 46.998C7.09572 47.3483 6.63371 48.2185 7.10727 49.0963C8.05417 50.8562 9.19583 52.5041 10.5108 54.009C10.656 54.2075 10.8479 54.3672 11.0694 54.474C11.291 54.5807 11.5355 54.6313 11.7813 54.6212C12.3742 54.5287 15.3888 54.2669 15.8162 54.0667C16.2435 53.8665 16.3821 53.547 15.9971 53.212C14.102 51.5148 12.3979 49.6157 10.915 47.5485C10.557 46.9094 11.3539 46.151 12.2818 44.8073C12.5744 44.3876 12.9017 43.9295 13.252 43.452C13.6024 42.9746 13.9989 42.4549 14.407 41.9351C15.1424 40.988 15.9471 40.0101 16.7171 39.086C17.1291 38.6009 17.5487 38.1312 17.953 37.6885C18.2764 37.342 18.5844 37.0147 18.8924 36.7067C19.0772 36.518 19.2774 36.3217 19.4468 36.1484C19.8729 35.7224 20.2951 35.3065 20.7135 34.901C21.1293 35.3065 21.5515 35.7224 21.9802 36.1484C22.165 36.3294 22.3652 36.5334 22.5384 36.7067C22.8426 37.0108 23.1544 37.342 23.474 37.6885C23.8821 38.1312 24.2979 38.6009 24.7137 39.086C25.5068 40.0101 26.2961 40.988 27.0238 41.9351C27.4088 42.4549 27.7938 42.9631 28.1788 43.452C28.5638 43.941 28.8526 44.3876 29.1452 44.8073C30.073 46.151 30.87 46.9094 30.512 47.5485C30.1539 48.1877 27.4319 51.5295 25.4337 53.212C25.0487 53.547 25.1873 53.8665 25.6108 54.0667C26.0343 54.2669 28.8064 54.5442 29.4031 54.6366C29.6879 54.6784 29.9788 54.6421 30.2446 54.5315C30.5104 54.421 30.7412 54.2404 30.9124 54.009C32.2294 52.5048 33.3724 50.8568 34.3197 49.0963C34.7932 48.2185 34.3197 47.3483 34.131 46.998C33.8692 46.5398 32.618 44.8573 30.743 42.5473" fill="#F02729"/>
<path d="M12.636 56.038C14.8729 58.2172 17.6411 59.8881 20.8328 61.2318C23.7925 60.0021 26.5026 58.242 28.8295 56.038C23.4699 55.1293 17.9956 55.1293 12.636 56.038Z" fill="#F02729"/>
<path d="M10.7302 2.07909L10.3952 3.41122H12.0084V0.77006H11.8852C11.7362 0.765635 11.5875 0.787798 11.4463 0.835511C11.3297 0.8742 11.2241 0.940205 11.1383 1.02802C11.049 1.12447 10.9784 1.23676 10.9304 1.35912C10.8765 1.49388 10.7225 2.08679 10.7225 2.08679L10.7302 2.07909ZM9.54049 3.41122L9.95245 1.73258C10.0088 1.45543 10.0926 1.18459 10.2027 0.924063C10.2959 0.722869 10.4266 0.541252 10.5877 0.388901C10.7545 0.24476 10.952 0.140716 11.1652 0.084744C11.3933 0.0217742 11.6295 -0.00677482 11.8659 4.21273e-05H12.4396C12.5425 -0.0061753 12.6457 0.00688224 12.7438 0.038543C12.7955 0.062049 12.8387 0.100875 12.8676 0.149767C12.8966 0.198659 12.9098 0.255256 12.9055 0.311899V3.41122H13.5715V4.8627H12.7053V4.18509H9.81385V4.8627H8.93988V3.41122H9.54049Z" fill="white"/>
<path d="M21.1947 1.40145C21.1945 1.26719 21.1614 1.13502 21.0985 1.01644C21.0309 0.898087 20.9207 0.80996 20.7904 0.770037C20.728 0.748362 20.6635 0.732887 20.5979 0.723836C20.5223 0.718244 20.4464 0.718244 20.3708 0.723836H19.7894V2.09062C19.8516 2.1056 19.9146 2.11717 19.9781 2.12527C20.0812 2.14164 20.1855 2.14936 20.2899 2.14837C20.4431 2.15348 20.5959 2.12998 20.7404 2.07907C20.8418 2.04869 20.9352 1.99608 21.0138 1.92506C21.0913 1.8548 21.1473 1.76404 21.1755 1.66326C21.2012 1.57837 21.2141 1.49014 21.214 1.40145H21.1947ZM20.5864 1.9487e-05C20.6787 -0.00573128 20.7713 -0.00573128 20.8636 1.9487e-05C20.9491 0.0106691 21.0339 0.0260935 21.1177 0.0462205C21.2772 0.0826038 21.4278 0.150688 21.5605 0.246425C21.6814 0.332413 21.7847 0.44091 21.8646 0.565982C21.9446 0.691934 22.0044 0.82964 22.0417 0.974091C22.0801 1.11986 22.0995 1.26997 22.0995 1.4207C22.0996 1.59836 22.0723 1.77497 22.0186 1.94431C21.9643 2.11707 21.8693 2.27422 21.7414 2.40247C21.5943 2.54746 21.4167 2.65793 21.2217 2.72588C20.9592 2.81562 20.6827 2.85735 20.4054 2.84908C20.2769 2.84901 20.1484 2.84259 20.0204 2.82983L19.8048 2.79518V4.18121H18.9232V0.46203C18.9232 0.142473 19.0887 -0.0153809 19.4198 -0.0153809L20.5864 1.9487e-05Z" fill="white"/>
<path d="M39.1823 1.33587C39.181 1.41992 39.1954 1.50348 39.2247 1.58227C39.2537 1.66466 39.3042 1.73778 39.371 1.79403C39.456 1.85674 39.553 1.9013 39.6559 1.92493C39.8015 1.96372 39.9518 1.98186 40.1025 1.97883C40.2115 1.98657 40.3208 1.98657 40.4298 1.97883C40.4778 1.97318 40.5254 1.96417 40.5722 1.95188V0.689053H39.9716C39.9024 0.685224 39.8329 0.685224 39.7637 0.689053C39.7024 0.694695 39.6418 0.706301 39.5827 0.723704C39.5178 0.740163 39.4567 0.769409 39.4032 0.809734C39.3496 0.850059 39.3047 0.900653 39.2709 0.958559C39.2085 1.07693 39.1792 1.20995 39.1862 1.34357L39.1823 1.33587ZM41.4385 4.18108H40.5722V2.69495H40.3759H40.218C40.0363 2.69477 39.8604 2.75887 39.7213 2.8759C39.3127 3.19976 39.0296 3.65579 38.9205 4.16568H38.0543C38.1859 3.49897 38.5452 2.89875 39.0707 2.46779C38.9502 2.43092 38.8387 2.36929 38.7434 2.28684C38.6467 2.21003 38.5634 2.11765 38.497 2.01348C38.4287 1.91078 38.3743 1.79943 38.3353 1.68238C38.3008 1.56874 38.2827 1.45077 38.2814 1.33202C38.2813 1.17949 38.3033 1.02775 38.3469 0.881558C38.3882 0.743007 38.4533 0.612719 38.5394 0.496549C38.6354 0.376966 38.7529 0.276414 38.8859 0.200092C39.0279 0.113672 39.1845 0.0536713 39.3479 0.0229882L39.5789 -0.0078125H39.8215H40.9765C41.3037 -0.0078125 41.4693 0.150041 41.4693 0.465748L41.4385 4.18108Z" fill="white"/>
<path d="M8.08516 0.770018C8.17285 0.66461 8.23257 0.538811 8.25881 0.404232C8.28505 0.269653 8.27697 0.130631 8.23531 0L5.7751 0C5.444 0 5.27844 0.157854 5.27844 0.477411V4.1966H8.22376C8.25782 3.93045 8.20517 3.66042 8.07361 3.42658H6.16011V2.45636H7.9812C7.9812 2.45636 8.10441 2.42941 8.10441 2.07135C8.10441 1.71329 7.9735 1.68634 7.9735 1.68634H6.16011V0.770018H8.08516Z" fill="white"/>
<path d="M17.3985 0.770018C17.4862 0.66461 17.5459 0.538811 17.5722 0.404232C17.5984 0.269653 17.5903 0.130631 17.5487 0L15.0961 0C14.765 0 14.6033 0.157854 14.6033 0.477411V4.1966H17.5525C17.5844 3.93053 17.5319 3.66117 17.4023 3.42658H15.4773V2.45636H17.3253C17.3253 2.45636 17.4485 2.42941 17.4485 2.07135C17.4485 1.71329 17.3176 1.68634 17.3176 1.68634H15.4889V0.770018H17.3985Z" fill="white"/>
<path d="M3.14166 2.67209C2.97546 2.86329 2.74294 2.98437 2.49099 3.0109V1.08586C2.74195 1.11285 2.97388 1.23225 3.14166 1.42081C3.2759 1.60046 3.34514 1.82038 3.33801 2.04453C3.34399 2.26615 3.27479 2.48326 3.14166 2.66054V2.67209ZM1.67093 3.0032C1.42839 2.97154 1.20687 2.84909 1.05106 2.66054C0.923663 2.48516 0.857383 2.27279 0.862408 2.05608C0.855651 1.83794 0.92206 1.6238 1.05106 1.44776C1.20727 1.26035 1.42883 1.13925 1.67093 1.10896V3.0032ZM4.07723 1.46316C3.99372 1.27648 3.87473 1.1078 3.72687 0.966503C3.57006 0.807135 3.38627 0.676787 3.18401 0.581494C2.96454 0.480623 2.73076 0.414385 2.49099 0.38514V-0.0345195C2.35136 -0.06845 2.20602 -0.0715608 2.06506 -0.0436357C1.92411 -0.0157106 1.79092 0.0425804 1.67478 0.127184V0.38514C1.43897 0.419944 1.20944 0.488674 0.993311 0.589195C0.798477 0.681112 0.620237 0.804708 0.465849 0.954953C0.317984 1.09987 0.200224 1.27258 0.119341 1.46316C0.0389106 1.6504 -0.00173292 1.85231 -1.15863e-05 2.05608C-0.00253345 2.25993 0.0381431 2.462 0.119341 2.64899C0.200133 2.83415 0.316563 3.0016 0.461999 3.1418C0.61539 3.29325 0.793847 3.417 0.989461 3.50756C1.20405 3.61282 1.43412 3.68302 1.67093 3.71547V4.18133H2.48714V3.85022V3.72317C2.72712 3.6927 2.96091 3.62516 3.18016 3.52296C3.38242 3.42767 3.56621 3.29732 3.72302 3.13795C3.87088 2.99666 3.98987 2.82798 4.07338 2.64129C4.15729 2.45096 4.1993 2.24482 4.19658 2.03683C4.19972 1.83004 4.15767 1.62506 4.07338 1.43621" fill="white"/>
<path d="M36.033 -0.0347137C35.9406 0.0268877 35.3861 0.843106 35.2976 0.962459C35.209 1.08181 35.1243 1.20116 35.0396 1.32437C34.9549 1.44757 34.8741 1.57077 34.7971 1.70938C34.7201 1.84798 34.6546 1.93268 34.5969 2.02893C34.5391 2.12519 34.4544 2.27534 34.4044 2.36774C34.3579 2.44373 34.3155 2.52213 34.2773 2.6026L34.1888 2.7874L34.1272 2.926V-0.0308636C33.975 -0.0685117 33.8164 -0.0721602 33.6627 -0.0415493C33.509 -0.0109384 33.3639 0.0531792 33.2378 0.14624V4.18113H34.1118L35.2937 2.38314C35.4593 2.1423 35.6123 1.89299 35.7519 1.63622C35.8713 1.40522 35.9752 1.21656 36.0561 1.05871C36.0368 1.26277 36.0291 1.44372 36.0253 1.65162V4.18113H36.9146V0.14624C36.7916 0.0543545 36.65 -0.00946403 36.4996 -0.0407267C36.3493 -0.0719894 36.194 -0.0699369 36.0445 -0.0347137" fill="white"/>
<path d="M31.4744 3.4033V0.149977C31.3481 0.0573919 31.203 -0.00643436 31.0494 -0.0370281C30.8957 -0.0676219 30.7373 -0.0642427 30.5851 -0.0271275V3.4033H28.7332V-0.0271275C28.581 -0.0647756 28.4225 -0.0684241 28.2687 -0.0378132C28.115 -0.0072023 27.9699 0.0569153 27.8438 0.149977V4.18872H31.0432V4.86248H31.9211V3.4033H31.4744Z" fill="white"/>
<path d="M23.9514 2.53714C24.0245 2.35234 24.0977 2.15214 24.1747 1.97503C24.2517 1.79793 24.321 1.61312 24.3826 1.45527L24.5481 1.04716C24.5943 0.935508 24.629 0.858506 24.6482 0.816155C24.6482 0.862356 24.6983 0.939358 24.7445 1.05486L24.91 1.43987L25.1218 1.95578L25.3412 2.51789L23.9514 2.53714ZM26.7273 3.66522L26.4501 2.95295C26.3923 2.8028 26.1305 2.14058 26.065 1.95578C25.9996 1.77098 25.8764 1.50147 25.7878 1.30512C25.6993 1.10876 25.63 0.920107 25.5607 0.785354C25.4914 0.650601 25.4413 0.519698 25.399 0.438846C25.3368 0.286073 25.2343 0.153019 25.1025 0.0538376C24.9995 -0.00685494 24.8832 -0.0412356 24.7637 -0.0462647H24.6906C24.555 -0.0487681 24.4215 -0.0127193 24.3056 0.0576877C24.1725 0.1565 24.0687 0.289561 24.0053 0.442696L23.8435 0.789204L23.6164 1.30897L23.3392 1.95963C23.216 2.19064 23.1005 2.43319 23.0081 2.695L22.7001 3.46502C22.5961 3.71912 22.4999 3.96938 22.4113 4.20808H23.3045C23.343 4.11568 23.3892 3.99633 23.447 3.85002C23.5047 3.70372 23.5702 3.52662 23.651 3.31871H25.6415L25.8494 3.85387C25.911 4.00018 25.9534 4.11953 25.988 4.20808H26.9236C26.8774 4.07718 26.8081 3.90393 26.7273 3.69217" fill="white"/>
<path d="M31.8325 8.13132C31.8331 8.21521 31.8474 8.29844 31.8749 8.37772C31.9068 8.4586 31.9568 8.53106 32.0212 8.58947C32.1043 8.65858 32.2015 8.70854 32.3061 8.73578C32.45 8.77651 32.5994 8.79469 32.7489 8.78968C32.8591 8.79734 32.9697 8.79734 33.08 8.78968C33.1273 8.78824 33.1741 8.77913 33.2186 8.76273V7.4845H32.6218H32.4101C32.3484 7.48979 32.2876 7.50272 32.2291 7.523C32.1643 7.5386 32.1033 7.56709 32.0497 7.60678C31.9961 7.64647 31.9511 7.69654 31.9172 7.75401C31.8593 7.86707 31.8302 7.99272 31.8325 8.11976V8.13132ZM34.0887 10.9611H33.2186V9.4827L33.0261 9.50195H32.8644C32.6844 9.50488 32.5107 9.56866 32.3716 9.6829C31.9607 10.0064 31.6771 10.4645 31.5707 10.9765H30.7045C30.8336 10.3098 31.1918 9.70914 31.717 9.27864C31.5976 9.23933 31.4866 9.17795 31.3898 9.09769C31.2958 9.01651 31.213 8.92331 31.1434 8.82048C31.0735 8.71922 31.0202 8.60745 30.9855 8.48937C30.948 8.37767 30.9285 8.2607 30.9278 8.14286C30.9285 7.99292 30.9505 7.84383 30.9932 7.7001C31.0335 7.56116 31.0988 7.4307 31.1857 7.3151C31.275 7.19391 31.3875 7.0918 31.5168 7.01479C31.6586 6.93062 31.8135 6.87076 31.975 6.83769C32.0443 6.83769 32.1213 6.81458 32.2099 6.80688H32.4524H33.6074C33.9385 6.80688 34.1041 6.96474 34.1041 7.2843L34.0887 10.9611Z" fill="white"/>
<path d="M14.9345 9.43656C14.881 9.60112 14.7989 9.75492 14.6919 9.89087C14.5864 10.0173 14.4552 10.1197 14.3069 10.1912C14.1428 10.2597 13.9668 10.295 13.7891 10.295C13.6113 10.295 13.4353 10.2597 13.2712 10.1912C13.1229 10.1197 12.9917 10.0173 12.8862 9.89087C12.7751 9.75703 12.6914 9.60267 12.6398 9.43656C12.5796 9.25532 12.5497 9.06541 12.5513 8.87445C12.5503 8.68353 12.5802 8.49372 12.6398 8.31233C12.6906 8.14706 12.7745 7.99382 12.8862 7.86187C12.9929 7.73877 13.124 7.63913 13.2712 7.56927C13.4346 7.49815 13.6109 7.46145 13.7891 7.46145C13.9672 7.46145 14.1435 7.49815 14.3069 7.56927C14.4544 7.63854 14.5856 7.73826 14.6919 7.86187C14.7996 7.99592 14.8818 8.1486 14.9345 8.31233C14.9914 8.49415 15.0187 8.68395 15.0153 8.87445C15.0168 9.06541 14.9869 9.25532 14.9268 9.43656H14.9345ZM15.3118 7.34981C15.1205 7.15678 14.8928 7.00367 14.6418 6.89935C14.0832 6.68361 13.4642 6.68361 12.9055 6.89935C12.6545 7.00367 12.4268 7.15678 12.2355 7.34981C12.0454 7.54334 11.8973 7.77403 11.8005 8.02743C11.5952 8.57478 11.5952 9.17796 11.8005 9.72532C11.903 9.97626 12.0549 10.2041 12.2471 10.3952C12.4361 10.591 12.6644 10.7446 12.917 10.8457C13.4748 11.0663 14.0956 11.0663 14.6534 10.8457C14.906 10.7446 15.1344 10.591 15.3233 10.3952C15.5127 10.1996 15.6606 9.96785 15.7584 9.71377C15.9636 9.16641 15.9636 8.56323 15.7584 8.01588C15.6615 7.76248 15.5134 7.53179 15.3233 7.33826" fill="white"/>
<path d="M29.3954 7.55762C29.4827 7.45202 29.542 7.32605 29.5675 7.19142C29.5931 7.05679 29.5842 6.91787 29.5417 6.7876H27.0892C26.7619 6.7876 26.5964 6.94545 26.5964 7.26116V10.9803H29.5455C29.5804 10.7142 29.5277 10.4439 29.3954 10.2103H27.4703V9.2401H29.2914C29.2914 9.2401 29.4146 9.2093 29.4146 8.85509C29.4146 8.50089 29.2837 8.47009 29.2837 8.47009H27.4819V7.55762H29.3954Z" fill="white"/>
<path d="M20.1206 9.86394C19.801 9.50203 19.4506 9.12472 19.0656 8.73587L19.2735 8.52026C19.3608 8.42786 19.4609 8.32776 19.5738 8.21995L19.9242 7.885L20.2784 7.55004L20.5941 7.25743C20.6904 7.16888 20.7712 7.09958 20.8328 7.04953C20.7225 6.92368 20.5766 6.83423 20.4144 6.79299C20.2522 6.75175 20.0812 6.76065 19.9242 6.81852L19.3236 7.37293L18.8924 7.78489L18.4843 8.1699L18.157 8.50486V6.76462C18.0049 6.72697 17.8463 6.72332 17.6926 6.75393C17.5388 6.78455 17.3938 6.84866 17.2676 6.94172V10.9766H18.157V9.07467C18.2648 9.17093 18.3919 9.29028 18.542 9.43658C18.6922 9.58289 18.85 9.74459 19.0117 9.91784C19.1734 10.0911 19.3313 10.2644 19.493 10.4492C19.6547 10.634 19.7971 10.8111 19.928 10.9766H21.0176C20.74 10.59 20.4418 10.2186 20.1244 9.86394" fill="white"/>
<path d="M24.7869 9.86387C24.4673 9.50196 24.1131 9.12465 23.7281 8.73579L23.936 8.52019L24.2363 8.21988L24.5905 7.88492L24.9447 7.54997L25.2604 7.25736C25.3567 7.16881 25.4337 7.09951 25.4953 7.04945C25.3855 6.92393 25.2403 6.83465 25.0788 6.7934C24.9172 6.75216 24.747 6.76089 24.5905 6.81845L23.9899 7.37286L23.5587 7.78482C23.4124 7.91957 23.2776 8.05433 23.1506 8.16983L22.8195 8.50479V6.76455C22.6705 6.72736 22.5152 6.7229 22.3643 6.75148C22.2134 6.78006 22.0706 6.841 21.9455 6.9301V10.9765H22.831V9.0746C22.9388 9.17085 23.0659 9.29021 23.216 9.43651C23.3662 9.58281 23.5202 9.74452 23.6819 9.91777C23.8436 10.091 24.0053 10.2643 24.1631 10.4491C24.321 10.6339 24.4673 10.811 24.6021 10.9765H25.6801C25.4025 10.5899 25.1043 10.2185 24.7869 9.86387Z" fill="white"/>
<path d="M24.7869 9.86387C24.4673 9.50196 24.1131 9.12465 23.7281 8.73579L23.936 8.52019L24.2363 8.21988L24.5905 7.88492L24.9447 7.54997L25.2604 7.25736C25.3567 7.16881 25.4337 7.09951 25.4953 7.04945C25.3855 6.92393 25.2403 6.83465 25.0788 6.7934C24.9172 6.75216 24.747 6.76089 24.5905 6.81845L23.9899 7.37286L23.5587 7.78482C23.4124 7.91957 23.2776 8.05433 23.1506 8.16983L22.8195 8.50479V6.76455C22.6705 6.72736 22.5152 6.7229 22.3643 6.75148C22.2134 6.78006 22.0706 6.841 21.9455 6.9301V10.9765H22.831V9.0746C22.9388 9.17085 23.0659 9.29021 23.216 9.43651C23.3662 9.58281 23.5202 9.74452 23.6819 9.91777C23.8436 10.091 24.0053 10.2643 24.1631 10.4491C24.321 10.6339 24.4673 10.811 24.6021 10.9765H25.6801C25.4025 10.5899 25.1043 10.2185 24.7869 9.86387Z" fill="white"/>
<path d="M10.9227 10.6648L10.5377 10.1604L10.0526 9.53284C9.87548 9.30569 9.70222 9.07468 9.52897 8.84367C9.67527 8.63577 9.82157 8.45867 9.96788 8.24306C10.1142 8.02746 10.2489 7.85805 10.376 7.70405L10.7186 7.26129L10.9574 6.96483C10.8976 6.91616 10.8331 6.8736 10.7648 6.83778C10.6564 6.77699 10.5354 6.74191 10.4113 6.73523C10.2871 6.72856 10.1631 6.75047 10.0487 6.79928C10.0025 6.84548 9.11701 8.05056 9.02461 8.17761C8.90525 8.02361 8.78975 7.87345 8.68195 7.72715L8.5472 7.5539C8.28154 7.19584 8.01203 6.82623 7.98508 6.80313C7.86232 6.74965 7.72875 6.72563 7.59505 6.73299C7.46135 6.74034 7.33122 6.77886 7.21507 6.84548C7.14298 6.88033 7.07569 6.92433 7.01486 6.97638C7.07261 7.04954 7.15731 7.15349 7.26127 7.29209L7.62317 7.7541L8.50099 8.90913L8.01203 9.57904L7.56157 10.1989L7.20351 10.6956L6.99176 10.9882H7.99663L8.16989 10.7456L8.40089 10.4107L8.7012 10.0103L9.01691 9.56749L9.36341 10.0257C9.47507 10.1758 9.57902 10.3144 9.67912 10.4415L9.92938 10.7764C9.99868 10.8727 10.0564 10.942 10.0911 10.992H11.1653L10.9265 10.6802" fill="white"/>
</g>
<defs>
<clipPath id="clip0">
<rect width="41.4346" height="64" fill="white"/>
</clipPath>
</defs>
</svg>
