<svg width="18" height="18" viewBox="0 0 18 18" fill="none" xmlns="http://www.w3.org/2000/svg">
<g clip-path="url(#clip0)">
<path d="M0.727438 15.1001C1.21241 15.5851 1.79748 15.8276 2.48287 15.8276H14.8967C15.5821 15.8276 16.1673 15.5851 16.6521 15.1001C17.1368 14.6154 17.3793 14.0302 17.3793 13.3448H0C0.000135874 14.0302 0.242604 14.6154 0.727438 15.1001Z" fill="#00A01A"/>
<path d="M4.65534 12.1034H11.4829C12.0776 12.1034 12.5884 11.8901 13.0152 11.4634C13.4419 11.0366 13.6553 10.5258 13.6553 9.93103V9.62076H14.2758C15.3039 9.62076 16.1818 9.25716 16.9091 8.52972C17.6363 7.80232 18.0001 6.92467 18.0001 5.89668C18.0001 4.86855 17.6363 3.99077 16.9091 3.26347C16.1818 2.53617 15.3039 2.17236 14.2758 2.17236H3.10355C2.93551 2.17236 2.79005 2.23391 2.66716 2.35661C2.54433 2.47947 2.48291 2.62503 2.48291 2.79311V9.93096C2.48291 10.5258 2.69623 11.0366 3.12298 11.4633C3.54973 11.8901 4.06052 12.1034 4.65534 12.1034ZM13.6553 4.03462H14.276C14.7933 4.03462 15.233 4.21568 15.595 4.57768C15.9569 4.93979 16.138 5.37937 16.138 5.89672C16.138 6.41379 15.9569 6.85348 15.595 7.21572C15.233 7.57772 14.7933 7.75881 14.276 7.75881H13.6553V4.03462Z" fill="#00A01A"/>
</g>
<defs>
<clipPath id="clip0">
<rect width="18" height="18" fill="white"/>
</clipPath>
</defs>
</svg>
