<?xml version="1.0" encoding="utf-8"?>
<!-- Svg Vector Icons : http://www.onlinewebfonts.com/icon -->
<!DOCTYPE svg PUBLIC "-//W3C//DTD SVG 1.1//EN" "http://www.w3.org/Graphics/SVG/1.1/DTD/svg11.dtd">
<svg version="1.1" xmlns="http://www.w3.org/2000/svg" xmlns:xlink="http://www.w3.org/1999/xlink" x="0px" y="0px" viewBox="0 0 1000 1000" enable-background="new 0 0 1000 1000" xml:space="preserve">
<metadata> Svg Vector Icons : http://www.onlinewebfonts.com/icon </metadata>
<g><g transform="translate(0.000000,511.000000) scale(0.100000,-0.100000)">
	<path fill="#0a9f30" d="M3200.1,4977.8c-204.3-56.2-378-173.7-564.4-372.9c-671.7-717.6-1087.9-1575.7-1233.5-2541.1c-48.5-332-48.5-1021.5,0-1353.5C1650-929.3,2737.9-2318.6,4262.5-2936.6c990.9-403.5,2078.8-457.1,3123.4-155.8c896.4,260.5,1951.1,962.8,2181,1458.3c71.5,150.7,81.7,204.3,91.9,446.9c15.3,344.8-23,582.3-150.7,975.5c-206.9,633.4-702.3,1488.9-1243.7,2152.9l-150.7,183.9l-286-288.6l-288.6-288.6l204.3-265.6c296.3-385.6,590-847.9,753.4-1179.9c329.5-666.6,462.3-1315.2,291.2-1435.3c-81.7-56.2-334.6-46-612.9,23C6545.7-896.1,4298.3,1187.9,3524.5,3003.6c-160.9,375.4-229.8,646.1-229.8,906.6c-2.6,283.5,10.2,296.3,355,278.4c326.9-15.3,618-107.3,1098.2-347.3c388.2-194.1,778.9-439.3,1167.1-733c137.9-104.7,257.9-189,268.2-189c12.8,0,145.5,125.1,296.2,275.8l278.4,278.4l-125.1,102.2C5769.3,4288.2,4704.4,4847.5,3974,4975.2C3716,5021.2,3361,5021.2,3200.1,4977.8z"/>
	<path fill="#0a9f30" d="M8057.6,4464.4c-255.4-71.5-498-303.9-564.4-544c-33.2-122.6-33.2-390.8,0-480.1c28.1-68.9,5.1-94.5-791.7-891.3c-449.5-449.5-817.2-832.5-817.2-850.4c0-120,311.6-439.3,429-439.3c53.6,0,224.7,158.3,878.5,812.1l812.1,809.6h237.5c204.3,0,252.8,7.7,380.5,71.5c158.3,79.2,296.2,214.5,380.5,380.5c79.2,150.7,94.5,429,35.8,605.3C8905.4,4336.7,8461.1,4576.8,8057.6,4464.4z"/>
	<path fill="#0a9f30" d="M2283.3-2701.7c-35.7-12.8-485.2-446.9-1001.1-962.8C253-4691.1,237.7-4709,439.4-4767.7c66.4-20.4,730.4-25.5,2181-20.4c1943.5,7.7,2089,10.2,2132.5,51.1c40.9,43.4,40.9,48.5-7.7,114.9c-86.8,120-2109.5,1894.9-2191.2,1923C2464.6-2668.5,2367.6-2668.5,2283.3-2701.7z"/></g></g>
</svg>