<svg width="18" height="18" viewBox="0 0 18 18" fill="none" xmlns="http://www.w3.org/2000/svg">
<path d="M16.5671 0.943848H1.43286C0.642817 0.943848 0 1.58662 0 2.3767V12.4327C0 13.2228 0.642817 13.8656 1.43286 13.8656H7.14272L5.7712 15.3041C5.67458 15.4397 5.62267 15.602 5.62267 15.7685V16.2558C5.62267 16.6977 5.98093 17.056 6.42287 17.056H11.577C12.019 17.056 12.3772 16.6977 12.3772 16.2558V15.7685C12.3772 15.602 12.3253 15.4397 12.2287 15.3041L10.8572 13.8656H16.5671C17.3571 13.8656 18 13.2228 18 12.4327V2.3767C18 1.58662 17.3572 0.943848 16.5671 0.943848ZM16.3996 12.2652H9.00075H8.99925H1.60041V2.54421H16.3996V12.2652Z" fill="#0A9F30"/>
<path d="M11 7L7 10V3.99995L11 7Z" fill="#0A9F30"/>
</svg>
