<svg width="18" height="18" viewBox="0 0 18 18" fill="none" xmlns="http://www.w3.org/2000/svg">
<g clip-path="url(#clip0)">
<path d="M9.04231 15.7731C10.2037 15.7731 11.1452 14.8316 11.1452 13.6702C11.1452 12.5089 10.2037 11.5674 9.04231 11.5674C7.88094 11.5674 6.93945 12.5089 6.93945 13.6702C6.93945 14.8316 7.88094 15.7731 9.04231 15.7731Z" fill="#00A01A"/>
<path d="M14.0682 8.60384C14.037 8.57177 14.004 8.54316 13.9719 8.51369L13.8775 8.42441C13.8619 8.40794 13.8445 8.39581 13.8246 8.3802C11.1054 5.90982 6.94392 6.00777 4.34871 8.60297L4.04447 8.90809L3.6232 9.32935C3.11005 9.8425 3.11265 10.679 3.62667 11.193C4.14155 11.7087 4.97801 11.7096 5.49029 11.1964L6.21667 10.4701C7.86706 8.82054 10.5515 8.82054 12.2011 10.4692L12.7255 10.9771C13.2334 11.4851 14.0621 11.4842 14.5726 10.9728C14.8197 10.7266 14.9558 10.3981 14.9566 10.0488C14.9575 9.70121 14.8231 9.37269 14.5761 9.12739L14.0682 8.60384Z" fill="#00A01A"/>
<path d="M17.6508 6.00429L17.2139 5.56743C17.2122 5.56569 17.2113 5.56309 17.2079 5.56222L16.8629 5.2155C16.8022 5.15569 16.7363 5.10369 16.667 5.05861C12.235 1.16754 5.4939 1.28716 1.20323 5.41487C1.18243 5.43394 1.15903 5.44694 1.13822 5.46774L0.349435 6.2574C-0.118637 6.72461 -0.116037 7.48479 0.354636 7.95546C0.824443 8.42527 1.58463 8.42874 2.0527 7.9598L2.84149 7.17188C2.84669 7.16494 2.85102 7.15887 2.85623 7.15454C6.32603 3.80262 11.8302 3.78181 15.3278 7.08606L15.9484 7.70756C16.4156 8.17476 17.1775 8.17303 17.6473 7.70322C18.1163 7.23255 18.118 6.4715 17.6508 6.00429Z" fill="#00A01A"/>
</g>
<defs>
<clipPath id="clip0">
<rect width="18" height="18" fill="white"/>
</clipPath>
</defs>
</svg>
