<svg width="16" height="10" viewBox="0 0 16 10" fill="none" xmlns="http://www.w3.org/2000/svg">
<path d="M15.0554 4.25785C14.4771 3.67954 13.6482 3.31327 12.7614 3.31327C12.2988 3.31327 11.8361 3.40966 11.4313 3.60243C11.0072 3.7952 10.641 4.06508 10.3325 4.41207C10.159 4.62411 9.83132 4.64339 9.63855 4.45062C9.42651 4.27713 9.40723 3.94942 9.6 3.75664C10.0048 3.29399 10.4867 2.94701 11.0265 2.6964C11.1422 2.63857 11.2578 2.60002 11.3735 2.56146C11.0458 1.92532 10.5639 1.38556 9.98554 1.00002C9.27229 0.498813 8.40482 0.209656 7.47952 0.209656C6.4 0.209656 5.39759 0.595198 4.62651 1.2699C3.85542 1.92532 3.31566 2.8699 3.16145 3.93014C3.14217 4.06508 3.06506 4.20002 2.9494 4.27713H2.93012C2.87229 4.31568 2.79518 4.33496 2.71807 4.33496C1.96627 4.33496 1.27229 4.64339 0.790361 5.12532C0.289157 5.62652 0 6.30122 0 7.05303C0 7.80484 0.308434 8.49881 0.790361 8.98074C1.21446 9.48195 1.90843 9.79038 2.66024 9.79038H12.7614C13.6675 9.79038 14.4771 9.42412 15.0554 8.8458C15.6337 8.26749 16 7.43857 16 6.55183C16 5.6458 15.6337 4.83616 15.0554 4.25785Z"
      fill="black"/>
</svg>
